<?xml version="1.0" encoding="UTF-8"?>
<svg version="1.1" xmlns="http://www.w3.org/2000/svg" width="500" height="500">
<path d="M0 0 C1.23492187 0.06703125 2.46984375 0.1340625 3.7421875 0.203125 C7.19374003 0.76111271 8.76405259 1.20158282 11.125 3.75 C11.45985934 7.96922763 11.47456003 11.7013199 10.125 15.75 C11.78197379 16.44040574 13.4505761 17.1030635 15.125 17.75 C15.764375 18.03875 16.40375 18.3275 17.0625 18.625 C19.42493224 18.98197489 19.42493224 18.98197489 22 16.75 C25.125 14.75 25.125 14.75 28.5 15 C29.36625 15.2475 30.2325 15.495 31.125 15.75 C31.125 16.41 31.125 17.07 31.125 17.75 C31.785 17.75 32.445 17.75 33.125 17.75 C34.66796875 19.54296875 34.66796875 19.54296875 36.3125 21.9375 C36.86292969 22.71480469 37.41335938 23.49210937 37.98046875 24.29296875 C39.125 26.75 39.125 26.75 38.99609375 29.4140625 C38.125 31.75 38.125 31.75 35 33.9375 C33.29569311 35.07938978 33.29569311 35.07938978 32.125 36.75 C31.89141983 40.20061616 32.40494184 43.3788186 33.125 46.75 C36.10351562 47.04296875 36.10351562 47.04296875 39.08203125 47.3359375 C41.125 47.75 41.125 47.75 44.125 49.75 C45.41812445 56.45649839 43.52721217 62.54428522 41.125 68.75 C37.165 68.75 33.205 68.75 29.125 68.75 C27.475 71.72 25.825 74.69 24.125 77.75 C24.785 77.75 25.445 77.75 26.125 77.75 C28.65914547 81.16134967 29.66201924 83.51854719 29.125 87.75 C27.48046875 89.69921875 27.48046875 89.69921875 25.3125 91.4375 C24.60480469 92.01886719 23.89710938 92.60023438 23.16796875 93.19921875 C18.66246744 96.61926468 18.66246744 96.61926468 15.8125 97.3125 C12.51289527 96.62188506 12.31872137 95.8552207 10.4375 93.1875 C9.02652133 91.18868478 9.02652133 91.18868478 7.125 89.75 C3.64139773 89.4261869 0.51668684 89.95235033 -2.875 90.75 C-2.92398438 91.37648438 -2.97296875 92.00296875 -3.0234375 92.6484375 C-3.09820312 93.46570313 -3.17296875 94.28296875 -3.25 95.125 C-3.31960938 95.93710938 -3.38921875 96.74921875 -3.4609375 97.5859375 C-3.875 99.75 -3.875 99.75 -5.875 101.75 C-12.06948748 102.44854917 -18.06904082 102.02189707 -23.875 99.75 C-25.19526795 97.1094641 -24.76305513 95.30861037 -24.5625 92.375 C-24.46661689 87.61644664 -24.46661689 87.61644664 -27.5625 83.9375 C-30.72271687 82.47612296 -30.72271687 82.47612296 -33.5 83.3125 C-35.90570897 84.67466154 -35.90570897 84.67466154 -37.875 86.5 C-38.535 86.9125 -39.195 87.325 -39.875 87.75 C-44.03794737 86.61403234 -46.04647903 84.83179198 -48.625 81.4375 C-49.21796875 80.67824219 -49.8109375 79.91898437 -50.421875 79.13671875 C-51.98567839 76.56821372 -52.6774179 74.74830844 -52.875 71.75 C-50.74295745 69.26261702 -48.65009021 67.27506111 -45.9375 65.4375 C-44.65466127 63.80025337 -44.65466127 63.80025337 -45.140625 61.7890625 C-45.6401895 59.75512133 -46.25216179 57.74963846 -46.875 55.75 C-47.50148438 55.64042969 -48.12796875 55.53085938 -48.7734375 55.41796875 C-49.99933594 55.18013672 -49.99933594 55.18013672 -51.25 54.9375 C-52.06210937 54.78667969 -52.87421875 54.63585937 -53.7109375 54.48046875 C-55.875 53.75 -55.875 53.75 -57.875 50.75 C-57.9921875 47.53515625 -57.9921875 47.53515625 -57.75 43.8125 C-57.68554688 42.58660156 -57.62109375 41.36070312 -57.5546875 40.09765625 C-56.7798623 36.28141951 -56.08402272 34.92794497 -52.875 32.75 C-50.296875 32.578125 -50.296875 32.578125 -47.625 33 C-46.28695313 33.19335938 -46.28695313 33.19335938 -44.921875 33.390625 C-44.24640625 33.50921875 -43.5709375 33.6278125 -42.875 33.75 C-42.545 32.76 -42.215 31.77 -41.875 30.75 C-41.215 30.75 -40.555 30.75 -39.875 30.75 C-39.01117572 27.99293584 -39.01117572 27.99293584 -38.875 24.75 C-39.535 23.945625 -40.195 23.14125 -40.875 22.3125 C-42.875 19.75 -42.875 19.75 -43.25 16.375 C-41.14104959 10.81503984 -37.14515623 8.27593287 -31.875 5.75 C-28 5.5 -28 5.5 -24.875 6.75 C-22.4375 9.1875 -22.4375 9.1875 -20.875 11.75 C-20.875 12.41 -20.875 13.07 -20.875 13.75 C-19.9675 13.42 -19.06 13.09 -18.125 12.75 C-14.875 11.75 -14.875 11.75 -10.875 11.75 C-10.730625 10.491875 -10.58625 9.23375 -10.4375 7.9375 C-10.13751314 5.32332877 -9.71686703 3.27560108 -8.875 0.75 C-5.88444555 -0.74527722 -3.31230947 -0.20658895 0 0 Z M-21.3671875 37.12109375 C-25.72540399 41.82932245 -27.0558911 47.47201489 -26.875 53.75 C-25.6355787 59.46567837 -23.04966042 64.54938312 -18.15625 67.94140625 C-13.13221571 70.80231466 -8.59547121 71.63164968 -2.875 70.75 C-0.35326159 69.95416621 1.75184368 68.96079404 4.125 67.75 C5.115 67.255 5.115 67.255 6.125 66.75 C6.125 66.09 6.125 65.43 6.125 64.75 C6.785 64.75 7.445 64.75 8.125 64.75 C12.54151032 58.86131957 13.50260912 55.05044293 13.125 47.75 C11.97601439 42.23486909 9.14898797 38.55257237 5.125 34.75 C-3.89608386 28.86668444 -13.51311008 29.81292754 -21.3671875 37.12109375 Z " fill="#F1F1F6" transform="translate(317.875,129.25)"/>
<path d="M0 0 C-0.11973459 6.10646426 -0.11973459 6.10646426 -2.5546875 8.578125 C-7.29418103 12 -7.29418103 12 -10 12 C-10.19335938 12.6496875 -10.38671875 13.299375 -10.5859375 13.96875 C-11.05257812 14.6390625 -11.51921875 15.309375 -12 16 C-14.9140625 16.46875 -14.9140625 16.46875 -18.625 16.5 C-32.23866273 16.99908528 -43.61885952 20.78110852 -55.57421875 27.1953125 C-58.35480226 28.66011248 -61.05886815 29.90902566 -64 31 C-64 31.66 -64 32.32 -64 33 C-65.14576596 34.04755745 -66.3439356 35.03809717 -67.5625 36 C-81.01859745 47.53379782 -85.79930459 64.43885127 -90 81 C-90.8971875 81.13535156 -91.794375 81.27070313 -92.71875 81.41015625 C-100.0469012 82.67441374 -106.73068932 84.4013324 -113.5625 87.375 C-114.21605469 87.65480713 -114.86960938 87.93461426 -115.54296875 88.22290039 C-118.85185183 89.72713157 -121.57614621 91.35337835 -124.33984375 93.7265625 C-127 96 -127 96 -129 96 C-129 96.66 -129 97.32 -129 98 C-129.66 98 -130.32 98 -131 98 C-131.27714844 98.69867188 -131.55429688 99.39734375 -131.83984375 100.1171875 C-133.47586004 104.18244011 -135.18135606 108.21794528 -136.87890625 112.2578125 C-140.59374625 121.34428524 -139.61591691 130.24455325 -136.75 139.4375 C-136.54552246 140.09903076 -136.34104492 140.76056152 -136.13037109 141.44213867 C-134.14183257 147.37994777 -130.93363849 152.10575431 -126.875 156.8125 C-126.37742188 157.39644531 -125.87984375 157.98039063 -125.3671875 158.58203125 C-124.03495466 160.1214683 -124.03495466 160.1214683 -122 161 C-122 161.66 -122 162.32 -122 163 C-120.7934375 163.37125 -120.7934375 163.37125 -119.5625 163.75 C-115.24651132 165.26438199 -111.16387044 167.10733162 -107 169 C-107 175.27 -107 181.54 -107 188 C-118.27474878 186.46253426 -130.81720532 181.20820708 -139 173 C-139 172.34 -139 171.68 -139 171 C-139.66 171 -140.32 171 -141 171 C-142.55498809 169.03074867 -143.9765838 167.07659975 -145.375 165 C-145.78057129 164.40276123 -146.18614258 163.80552246 -146.60400391 163.19018555 C-151.57947062 155.76518098 -154.69017907 148.65079431 -157 140 C-157.17273438 139.39051514 -157.34546875 138.78103027 -157.5234375 138.15307617 C-161.15954593 121.72539161 -157.18648956 105.46969697 -148.5859375 91.4609375 C-147.40628293 89.63043903 -146.20796199 87.81194299 -145 86 C-144.34 86 -143.68 86 -143 86 C-143 85.34 -143 84.68 -143 84 C-142.34 84 -141.68 84 -141 84 C-141 83.34 -141 82.68 -141 82 C-131.78436014 73.94538564 -118.64106332 65.3980446 -106 66 C-105.81824219 65.38253906 -105.63648438 64.76507813 -105.44921875 64.12890625 C-103.74279553 58.37957263 -101.93345274 52.67694634 -100 47 C-99.34 47 -98.68 47 -98 47 C-97.72800781 46.11441406 -97.45601562 45.22882813 -97.17578125 44.31640625 C-94.19005983 35.89488636 -88.72787855 29.37072092 -82.5 23.125 C-81.96656982 22.5899585 -81.43313965 22.05491699 -80.88354492 21.50366211 C-71.11188043 12 -71.11188043 12 -66 12 C-66 11.34 -66 10.68 -66 10 C-48.9636563 1.16351082 -18.15220627 -10.84794283 0 0 Z " fill="#EFEFF6" transform="translate(260,141)"/>
<path d="M0 0 C7.59 0 15.18 0 23 0 C26.77082666 8.86690763 30.21201276 17.82095536 33.5 26.875 C33.96460653 28.14722207 34.42944972 29.41935774 34.89453125 30.69140625 C38.59093505 40.81756618 38.59093505 40.81756618 40.3515625 45.85253906 C40.78210938 47.0794043 41.21265625 48.30626953 41.65625 49.5703125 C42.03587891 50.66359863 42.41550781 51.75688477 42.80664062 52.88330078 C43.95438201 56.06047088 43.95438201 56.06047088 45.64648438 59.15185547 C47 62 47 62 47 66 C40.07 66 33.14 66 26 66 C23 59 23 59 22 56 C11.11 55.505 11.11 55.505 0 55 C-0.66 57.64 -1.32 60.28 -2 63 C-2.33 63.99 -2.66 64.98 -3 66 C-9.93 66 -16.86 66 -24 66 C-23.25686985 60.79808896 -22.83520742 58.08935747 -20.8125 53.625 C-18.64681813 48.6445558 -16.76844791 43.63003573 -15 38.5 C-12.96097596 32.61358964 -10.75089252 26.857603 -8.296875 21.12890625 C-6.3986058 16.54904592 -4.68371736 11.9040119 -2.96679688 7.25366211 C-1.09081152 2.18162305 -1.09081152 2.18162305 0 0 Z M11 20 C7.87168572 26.4055959 6.47354716 33.05029175 5 40 C8.96 40 12.92 40 17 40 C15.73163421 33.17033804 14.111722 26.61672893 12 20 C11.67 20 11.34 20 11 20 Z " fill="#EEEDF6" transform="translate(194,305)"/>
<path d="M0 0 C10.94897359 4.903236 15.76473457 18.22159588 20.1015625 28.6484375 C20.85363094 30.7527098 21.46198168 32.8317457 22 35 C22.20238281 35.7528125 22.40476562 36.505625 22.61328125 37.28125 C26.93240218 56.32064022 24.53054868 77.5850156 14.4609375 94.421875 C4.66964447 109.40638506 -10.34383567 118.42753326 -27 124 C-27.99 124 -28.98 124 -30 124 C-30 117.73 -30 111.46 -30 105 C-19.375 99 -19.375 99 -16 99 C-16 98.34 -16 97.68 -16 97 C-14.9790625 96.4121875 -14.9790625 96.4121875 -13.9375 95.8125 C-4.71491966 90.12197171 -0.24252277 81.73643629 2.8125 71.5625 C6.33345407 55.79914816 5.0665703 37.67758526 -3.5 23.75 C-5.26424084 21.16779295 -6.88521499 19.10265983 -9.21875 17.015625 C-11 15 -11 15 -11.5234375 12.4765625 C-10.80938652 9.09814218 -9.4297579 8.31267186 -6.625 6.375 C-3.6640196 4.29761375 -2.03650308 3.05475462 0 0 Z " fill="#F0F0F7" transform="translate(374,203)"/>
<path d="M0 0 C6.455625 -0.04125 12.91125 -0.0825 19.5625 -0.125 C22.59932983 -0.15231201 22.59932983 -0.15231201 25.69750977 -0.18017578 C27.32047257 -0.18602259 28.94343833 -0.1911177 30.56640625 -0.1953125 C31.39426636 -0.20554443 32.22212646 -0.21577637 33.07507324 -0.22631836 C38.10930271 -0.2278182 42.22682407 0.37997904 47 2 C47 2.66 47 3.32 47 4 C47.5775 4.20625 48.155 4.4125 48.75 4.625 C52.30114796 6.79514598 54.21853043 10.04632609 55.75 13.875 C56.55369578 20.70641417 56.28817136 26.8429543 53 33 C49.14912083 37.75484142 44.85512839 40.80517735 38.78515625 41.80078125 C32.52941195 42.24824683 26.26603976 42.13839106 20 42 C20.03552979 42.69150146 20.07105957 43.38300293 20.10766602 44.09545898 C20.26465181 47.20922906 20.41368123 50.32332938 20.5625 53.4375 C20.61857422 54.52611328 20.67464844 55.61472656 20.73242188 56.73632812 C20.78076172 57.77080078 20.82910156 58.80527344 20.87890625 59.87109375 C20.9260376 60.82943115 20.97316895 61.78776855 21.02172852 62.77514648 C21 65 21 65 20 66 C13.4 66 6.8 66 0 66 C0 44.22 0 22.44 0 0 Z M20 14 C19.97314062 16.14576637 19.95366912 18.29162645 19.9375 20.4375 C19.92589844 21.63246094 19.91429687 22.82742188 19.90234375 24.05859375 C19.66098208 26.88873341 19.66098208 26.88873341 21 28 C25.52697544 28.26117166 28.94082398 28.08757624 33 26 C35.280721 24.12575284 35.280721 24.12575284 35.375 21.125 C35.19984304 18.01009077 35.19984304 18.01009077 33.6875 15.625 C29.38906162 13.02594424 24.89867185 13.69594451 20 14 Z " fill="#F2F1F7" transform="translate(246,305)"/>
<path d="M0 0 C6.93 0 13.86 0 21 0 C21.65636087 4.59452606 22.1257496 8.45509091 22.12939453 12.99536133 C22.13254669 14.12956009 22.13569885 15.26375885 22.13894653 16.43232727 C22.1369223 17.63672958 22.13489807 18.8411319 22.1328125 20.08203125 C22.13424759 21.95782112 22.13424759 21.95782112 22.13571167 23.87150574 C22.13656346 27.17672492 22.13255722 30.4818965 22.12695312 33.78710938 C22.12434441 36.49234915 22.12916437 39.19755581 22.13394356 41.90279102 C22.13841715 45.12920731 22.13529038 48.35561394 22.1328125 51.58203125 C22.13483673 52.79655472 22.13686096 54.01107819 22.13894653 55.2624054 C22.13579437 56.38084335 22.13264221 57.49928131 22.12939453 58.65161133 C22.12859894 59.63865555 22.12780334 60.62569977 22.12698364 61.64265442 C22 64 22 64 21 66 C14.07 66 7.14 66 0 66 C0 44.22 0 22.44 0 0 Z " fill="#F7F7F8" transform="translate(309,305)"/>
<path d="M0 0 C7.0228125 -0.0928125 7.0228125 -0.0928125 14.1875 -0.1875 C15.65598389 -0.21481201 17.12446777 -0.24212402 18.63745117 -0.27026367 C19.80252197 -0.27775635 20.96759277 -0.28524902 22.16796875 -0.29296875 C23.35672607 -0.3086792 24.5454834 -0.32438965 25.77026367 -0.34057617 C29.34380869 0.03625468 31.15676068 0.84080559 34 3 C36.96657577 7.44986365 36.89116376 11.786692 36 17 C34.25140201 19.67372831 32.57269087 21.01688412 30 23 C30.59748047 23.76183594 30.59748047 23.76183594 31.20703125 24.5390625 C39 34.66423358 39 34.66423358 39 40 C34.20479069 40.59119019 29.76996346 40.87741803 25 40 C21.93985666 37.09480063 20.60178392 33.8499017 19 30 C16.98975956 25.88991661 16.98975956 25.88991661 13 24 C13 29.28 13 34.56 13 40 C8.71 40 4.42 40 0 40 C0 26.8 0 13.6 0 0 Z M13 9 C13 11.31 13 13.62 13 16 C18.32170494 16.29562367 18.32170494 16.29562367 23 14 C23 12.35 23 10.7 23 9 C19.7 9 16.4 9 13 9 Z " fill="#EBEAF5" transform="translate(173,251)"/>
<path d="M0 0 C1.06116531 0.03541649 1.06116531 0.03541649 2.14376831 0.07154846 C4.40594505 0.14819459 6.66778023 0.23221437 8.9296875 0.31640625 C10.4622228 0.36962602 11.99477484 0.42236643 13.52734375 0.47460938 C17.28667511 0.60381092 21.04571658 0.73962662 24.8046875 0.87890625 C24.8046875 3.84890625 24.8046875 6.81890625 24.8046875 9.87890625 C14.9046875 10.37390625 14.9046875 10.37390625 4.8046875 10.87890625 C4.8046875 11.86890625 4.8046875 12.85890625 4.8046875 13.87890625 C6.48498047 13.96978516 6.48498047 13.96978516 8.19921875 14.0625 C9.67188734 14.14692049 11.14454294 14.23156774 12.6171875 14.31640625 C13.72416992 14.37538086 13.72416992 14.37538086 14.85351562 14.43554688 C18.03540092 14.6227166 20.76631128 14.86611418 23.8046875 15.87890625 C23.90234375 22.03125 23.90234375 22.03125 23.8046875 23.87890625 C22.8046875 24.87890625 22.8046875 24.87890625 21.03881836 24.99243164 C20.28995361 24.98719482 19.54108887 24.98195801 18.76953125 24.9765625 C17.96064453 24.97333984 17.15175781 24.97011719 16.31835938 24.96679688 C15.46822266 24.95841797 14.61808594 24.95003906 13.7421875 24.94140625 C12.88818359 24.93689453 12.03417969 24.93238281 11.15429688 24.92773438 C9.03773087 24.91590998 6.92120065 24.89797394 4.8046875 24.87890625 C4.8046875 26.85890625 4.8046875 28.83890625 4.8046875 30.87890625 C5.40531006 30.87366943 6.00593262 30.86843262 6.62475586 30.86303711 C9.33055588 30.84232611 12.03633927 30.829265 14.7421875 30.81640625 C15.68771484 30.80802734 16.63324219 30.79964844 17.60742188 30.79101562 C18.95610352 30.78618164 18.95610352 30.78618164 20.33203125 30.78125 C21.58101196 30.77339478 21.58101196 30.77339478 22.85522461 30.76538086 C24.8046875 30.87890625 24.8046875 30.87890625 25.8046875 31.87890625 C25.9375 33.69140625 25.9375 33.69140625 25.9296875 35.87890625 C25.93355469 36.96171875 25.93355469 36.96171875 25.9375 38.06640625 C25.8046875 39.87890625 25.8046875 39.87890625 24.8046875 40.87890625 C22.28400569 40.96737459 19.79014333 40.99425149 17.26953125 40.9765625 C16.26847351 40.97505188 16.26847351 40.97505188 15.24719238 40.97351074 C12.7455067 40.96826433 10.24384544 40.95430316 7.7421875 40.94140625 C-0.641875 40.91046875 -0.641875 40.91046875 -9.1953125 40.87890625 C-9.1953125 27.67890625 -9.1953125 14.47890625 -9.1953125 0.87890625 C-6.22129914 -0.60810043 -3.24712324 -0.12729307 0 0 Z " fill="#EBE9F4" transform="translate(223.1953125,250.12109375)"/>
<path d="M0 0 C3.01570398 2.31977229 4.70901442 4.48716826 6.4375 7.875 C6.03515625 10.06640625 6.03515625 10.06640625 5.4375 11.875 C3.66800905 11.98315225 1.89662513 12.06066083 0.125 12.125 C-0.86113281 12.17140625 -1.84726562 12.2178125 -2.86328125 12.265625 C-5.5625 11.875 -5.5625 11.875 -7.25 9.875 C-7.683125 9.215 -8.11625 8.555 -8.5625 7.875 C-11.18875139 7.54074265 -11.18875139 7.54074265 -13.5625 7.875 C-13.8925 9.195 -14.2225 10.515 -14.5625 11.875 C-13.510625 12.02195312 -13.510625 12.02195312 -12.4375 12.171875 C-5.60001268 13.24952246 1.25416369 14.41099831 6.12109375 19.70703125 C8.47706615 23.58704514 8.26363261 27.50254202 7.4375 31.875 C5.34920619 35.80041827 2.68468203 38.19201936 -1.1875 40.3125 C-9.00169302 41.6148655 -16.62780217 42.06471327 -23.5625 37.875 C-27.09162227 34.43874937 -28.10905595 31.74952354 -28.5625 26.875 C-24.87845182 25.03297591 -20.57371434 25.24235881 -16.5625 25.875 C-14.875 28.375 -14.875 28.375 -13.5625 30.875 C-9.93650578 31.29225678 -9.93650578 31.29225678 -6.5625 30.875 C-6.2325 29.555 -5.9025 28.235 -5.5625 26.875 C-6.63177734 26.49408203 -6.63177734 26.49408203 -7.72265625 26.10546875 C-23.72058356 20.35655005 -23.72058356 20.35655005 -26.5625 16.875 C-27.9992494 12.35827284 -27.98563369 8.8270508 -26.0625 4.5 C-19.26728235 -2.63497853 -9.07158107 -2.86470981 0 0 Z " fill="#E4E3F5" transform="translate(279.5625,251.125)"/>
<path d="M0 0 C12.54 0 25.08 0 38 0 C38 3.3 38 6.6 38 10 C33.39452591 11.15136852 30.06005857 11 25 11 C25 20.57 25 30.14 25 40 C20.71 40 16.42 40 12 40 C11.67 30.43 11.34 20.86 11 11 C7.37 11 3.74 11 0 11 C-1 8 -1 8 0 0 Z " fill="#E9E8F9" transform="translate(289,251)"/>
<path d="M0 0 C6.93 0 13.86 0 21 0 C21.33 0.99 21.66 1.98 22 3 C14.96832563 3 7.98866678 1.77651853 1 1 C1 22.12 1 43.24 1 65 C6.94 64.67 12.88 64.34 19 64 C18.98428955 62.37989014 18.9685791 60.75978027 18.95239258 59.09057617 C18.89817709 53.09160312 18.86368023 47.09265181 18.83520508 41.09350586 C18.82009937 38.49483603 18.79961366 35.89619177 18.77368164 33.29760742 C18.73737757 29.56683042 18.72029142 25.83638987 18.70703125 22.10546875 C18.69154739 20.93976852 18.67606354 19.7740683 18.66011047 18.57304382 C18.65988388 17.49214981 18.65965729 16.4112558 18.65942383 15.29760742 C18.65276199 14.34496506 18.64610016 13.39232269 18.63923645 12.41081238 C19.0596192 9.60159308 19.80772011 8.73296186 22 7 C22.02314716 14.39732867 22.04092723 21.79464955 22.05181217 29.19200706 C22.05703579 32.62671562 22.06412401 36.06139943 22.07543945 39.49609375 C22.08836035 43.44270535 22.09323252 47.38930684 22.09765625 51.3359375 C22.10281754 52.57242035 22.10797882 53.8089032 22.11329651 55.08285522 C22.11340981 56.79440292 22.11340981 56.79440292 22.11352539 58.54052734 C22.115746 59.548685 22.11796661 60.55684265 22.12025452 61.59555054 C22 64 22 64 21 66 C14.07 66 7.14 66 0 66 C0 44.22 0 22.44 0 0 Z " fill="#D3D1FE" transform="translate(309,305)"/>
<path d="M0 0 C6.29024473 0.11868386 12.18364405 1.92060441 17.2734375 5.6875 C18.98180368 8.03786366 18.7992919 9.69317458 18.6875 12.5625 C18.66042969 13.46355469 18.63335937 14.36460937 18.60546875 15.29296875 C18.57066406 15.98003906 18.53585937 16.66710937 18.5 17.375 C17.84 17.375 17.18 17.375 16.5 17.375 C16.17 18.035 15.84 18.695 15.5 19.375 C15.5 18.715 15.5 18.055 15.5 17.375 C13.56890419 17.33210245 13.56890419 17.33210245 11.5 18.375 C9.70728609 21.86297488 9.70728609 21.86297488 8.5 25.375 C7.18 25.375 5.86 25.375 4.5 25.375 C4.5 24.385 4.5 23.395 4.5 22.375 C3.51 22.045 2.52 21.715 1.5 21.375 C1.5 21.045 1.5 20.715 1.5 20.375 C2.44875 20.106875 3.3975 19.83875 4.375 19.5625 C7.75267273 18.62513412 7.75267273 18.62513412 9.5 15.375 C9.60540926 13.16418149 9.60540926 13.16418149 8.5 10.375 C8.83 9.385 9.16 8.395 9.5 7.375 C7.19 7.705 4.88 8.035 2.5 8.375 C1.84 6.725 1.18 5.075 0.5 3.375 C-1.81 3.045 -4.12 2.715 -6.5 2.375 C-4.07098098 -0.05401902 -3.34361143 0.05290524 0 0 Z " fill="#F1F0F6" transform="translate(267.5,263.625)"/>
<path d="M0 0 C2.61407316 0.36056181 3.77078057 0.75683778 5.60546875 2.703125 C8.10220873 6.81540262 7.78911635 11.35689574 7 16 C4.5 18.6875 4.5 18.6875 2 20 C2 18.35 2 16.7 2 15 C-0.64 14.67 -3.28 14.34 -6 14 C-6.33 14.66 -6.66 15.32 -7 16 C-7.66 15.34 -8.32 14.68 -9 14 C-8.34 13.67 -7.68 13.34 -7 13 C-6.34444881 10.47266765 -6.34444881 10.47266765 -6 8 C-9.3 8 -12.6 8 -16 8 C-16 7.67 -16 7.34 -16 7 C-15.05125 6.87625 -14.1025 6.7525 -13.125 6.625 C-9.91332809 6.28312823 -9.91332809 6.28312823 -8 4 C-6 4.33333333 -4 4.66666667 -2 5 C-1.34 4.34 -0.68 3.68 0 3 C0 2.01 0 1.02 0 0 Z " fill="#E3E1F1" transform="translate(202,252)"/>
<path d="M0 0 C0.33 0 0.66 0 1 0 C1.05058332 7.2265322 1.08568412 14.45301899 1.10986328 21.6796875 C1.11993983 24.13966579 1.13360131 26.59963206 1.15087891 29.05957031 C1.17505461 32.58922285 1.1864664 36.11871747 1.1953125 39.6484375 C1.20563507 40.75367767 1.21595764 41.85891785 1.22659302 42.99765015 C1.22674408 44.01855743 1.22689514 45.03946472 1.22705078 46.09130859 C1.231492 46.99287689 1.23593323 47.89444519 1.24050903 48.82333374 C1 51 1 51 -1 53 C-1.70825402 40.60555471 -2.12322083 28.22802094 -2.1875 15.8125 C-2.20039063 14.58950195 -2.21328125 13.36650391 -2.2265625 12.10644531 C-2.22785156 10.96401367 -2.22914063 9.82158203 -2.23046875 8.64453125 C-2.23457764 7.62721924 -2.23868652 6.60990723 -2.24291992 5.56176758 C-2 3 -2 3 0 0 Z " fill="#9292FC" transform="translate(330,312)"/>
<path d="M0 0 C0.9075 0.37125 1.815 0.7425 2.75 1.125 C2.5625 3.5 2.5625 3.5 1.75 6.125 C-1.13909849 7.72160706 -2.94058796 8.125 -6.25 8.125 C-6.25 7.135 -6.25 6.145 -6.25 5.125 C-9.88 4.465 -13.51 3.805 -17.25 3.125 C-17.25 2.795 -17.25 2.465 -17.25 2.125 C-16.57453125 2.07601563 -15.8990625 2.02703125 -15.203125 1.9765625 C-14.31109375 1.90179688 -13.4190625 1.82703125 -12.5 1.75 C-11.61828125 1.68039062 -10.7365625 1.61078125 -9.828125 1.5390625 C-7.24365967 1.2609994 -7.24365967 1.2609994 -5.125 0.03125 C-3.25 -0.875 -3.25 -0.875 0 0 Z " fill="#F7F7F8" transform="translate(202.25,265.875)"/>
<path d="M0 0 C3.99197594 2.04993359 6.17697717 3.8475591 8 8 C7.67 9.32 7.34 10.64 7 12 C3.37 12 -0.26 12 -4 12 C-4.66 10.68 -5.32 9.36 -6 8 C-3.69 8.33 -1.38 8.66 1 9 C1.06537205 6.90194193 1.06537205 6.90194193 0.5 4.5 C0 2 0 2 0 0 Z " fill="#DBDBF2" transform="translate(278,251)"/>
<path d="M0 0 C0.94875 0.309375 1.8975 0.61875 2.875 0.9375 C1.71052492 3.26645015 1.02360073 4.43347949 -1.125 5.9375 C-4.8125 5.625 -4.8125 5.625 -8.125 4.9375 C-8.228125 5.576875 -8.33125 6.21625 -8.4375 6.875 C-8.664375 7.555625 -8.89125 8.23625 -9.125 8.9375 C-10.115 9.2675 -11.105 9.5975 -12.125 9.9375 C-12.125 9.2775 -12.125 8.6175 -12.125 7.9375 C-12.785 7.6075 -13.445 7.2775 -14.125 6.9375 C-4.61127741 -0.73856189 -4.61127741 -0.73856189 0 0 Z " fill="#E3E3F6" transform="translate(290.125,135.0625)"/>
<path d="M0 0 C2.77117304 0.14080555 5.54182641 0.28743118 8.3125 0.4375 C9.49102539 0.49647461 9.49102539 0.49647461 10.69335938 0.55664062 C11.8293457 0.61948242 11.8293457 0.61948242 12.98828125 0.68359375 C14.03302612 0.73858032 14.03302612 0.73858032 15.09887695 0.79467773 C17 1 17 1 20 2 C20.09765625 8.15234375 20.09765625 8.15234375 20 10 C18.45049732 11.54950268 16.90009406 11.21655193 14.74609375 11.31640625 C13.46508789 11.37924805 13.46508789 11.37924805 12.15820312 11.44335938 C11.26037109 11.48267578 10.36253906 11.52199219 9.4375 11.5625 C8.53580078 11.60568359 7.63410156 11.64886719 6.70507812 11.69335938 C4.47021515 11.79978142 2.23523692 11.90179988 0 12 C0 11.34 0 10.68 0 10 C5.94 10 11.88 10 18 10 C17.34 8.35 16.68 6.7 16 5 C16.33 4.67 16.66 4.34 17 4 C13.53287889 2.84429296 10.4585044 2.67164707 6.8125 2.4375 C5.54019531 2.35371094 4.26789063 2.26992188 2.95703125 2.18359375 C1.98121094 2.12300781 1.00539062 2.06242187 0 2 C0 1.34 0 0.68 0 0 Z " fill="#8C8CD3" transform="translate(227,264)"/>
<path d="M0 0 C0.66 0.33 1.32 0.66 2 1 C2.625 3.5625 2.625 3.5625 3 6 C0.87506859 6.02693575 -1.24995912 6.04636628 -3.375 6.0625 C-4.55835938 6.07410156 -5.74171875 6.08570313 -6.9609375 6.09765625 C-10 6 -10 6 -12 5 C-12 4.01 -12 3.02 -12 2 C-8.04 2 -4.08 2 0 2 C0 1.34 0 0.68 0 0 Z " fill="#FBFAFA" transform="translate(242,268)"/>
<path d="M0 0 C2 1 2 1 2.66796875 2.9609375 C2.83941406 3.75757813 3.01085937 4.55421875 3.1875 5.375 C3.45626953 6.56222656 3.45626953 6.56222656 3.73046875 7.7734375 C4 10 4 10 3 13 C-0.73486879 13.5745952 -4.21293268 14 -8 14 C-8 13.34 -8 12.68 -8 12 C-5.36 12 -2.72 12 0 12 C-0.2784375 10.4221875 -0.2784375 10.4221875 -0.5625 8.8125 C-0.95079331 5.42880118 -0.88247485 3.23574112 0 0 Z " fill="#F8F9FB" transform="translate(212,334)"/>
<path d="M0 0 C1.21822405 4.60217976 1.1597995 8.680401 -1 13 C-5.83516484 8.76923077 -5.83516484 8.76923077 -6.5625 5.375 C-6 3 -6 3 -4.125 1.1875 C-2 0 -2 0 0 0 Z " fill="#D6D5F0" transform="translate(369,210)"/>
<path d="M0 0 C0 1.32 0 2.64 0 4 C0.66 4.66 1.32 5.32 2 6 C1.34 6.66 0.68 7.32 0 8 C-2.95662966 7.77256695 -4.55033688 7.38764062 -6.8125 5.4375 C-7.204375 4.963125 -7.59625 4.48875 -8 4 C-7.1875 2.0625 -7.1875 2.0625 -6 0 C-3 -1 -3 -1 0 0 Z " fill="#F8F8FA" transform="translate(279,253)"/>
<path d="M0 0 C0.66 0.33 1.32 0.66 2 1 C1.34 2.65 0.68 4.3 0 6 C1.65 5.67 3.3 5.34 5 5 C5 6.65 5 8.3 5 10 C5.66 10.33 6.32 10.66 7 11 C6.01 12.32 5.02 13.64 4 15 C2.96097967 13.61765122 1.94436554 12.21844209 0.9375 10.8125 C0.36902344 10.03519531 -0.19945312 9.25789062 -0.78515625 8.45703125 C-2.26552857 5.46296634 -2.03000584 4.12237372 -1 1 C-0.67 0.67 -0.34 0.34 0 0 Z " fill="#D5D5F2" transform="translate(267,198)"/>
<path d="M0 0 C4.58328022 -0.05802751 9.16646604 -0.09360593 13.75 -0.125 C15.05195313 -0.14175781 16.35390625 -0.15851563 17.6953125 -0.17578125 C18.94570312 -0.18222656 20.19609375 -0.18867188 21.484375 -0.1953125 C22.63647461 -0.20578613 23.78857422 -0.21625977 24.97558594 -0.22705078 C27.89892966 -0.00758762 29.53732509 0.47271878 32 2 C31.67 4.31 31.34 6.62 31 9 C30.67 9 30.34 9 30 9 C30 7.35 30 5.7 30 4 C28.68 3.67 27.36 3.34 26 3 C26 2.67 26 2.34 26 2 C13.13 1.505 13.13 1.505 0 1 C0 0.67 0 0.34 0 0 Z " fill="#A4A2E3" transform="translate(228,139)"/>
<path d="M0 0 C2.64 0 5.28 0 8 0 C8.33 0.66 8.66 1.32 9 2 C11.02463255 2.65213292 11.02463255 2.65213292 13 3 C13.33 4.32 13.66 5.64 14 7 C13.01 7.495 13.01 7.495 12 8 C12 7.01 12 6.02 12 5 C8.04 4.67 4.08 4.34 0 4 C0 2.68 0 1.36 0 0 Z " fill="#F9F7FD" transform="translate(290,257)"/>
<path d="M0 0 C3.16115776 1.36983503 3.9927092 1.9890638 6 5 C5.01 5.33 4.02 5.66 3 6 C2.67 6.66 2.34 7.32 2 8 C-0.31 7.67 -2.62 7.34 -5 7 C-3.35 4.69 -1.7 2.38 0 0 Z " fill="#D8D7EE" transform="translate(374,203)"/>
<path d="M0 0 C1.8871875 0.11794922 1.8871875 0.11794922 3.8125 0.23828125 C7 0.6875 7 0.6875 9 2.6875 C6.03 2.6875 3.06 2.6875 0 2.6875 C0 3.3475 0 4.0075 0 4.6875 C-0.99 4.3575 -1.98 4.0275 -3 3.6875 C-3 3.0275 -3 2.3675 -3 1.6875 C-4.94999129 1.88221111 -4.94999129 1.88221111 -7 2.6875 C-8.28436734 4.6712767 -8.28436734 4.6712767 -9 6.6875 C-10 3.6875 -10 3.6875 -9 0.6875 C-5.97949889 -0.82275056 -3.33976484 -0.22926664 0 0 Z " fill="#BBB9EE" transform="translate(318,129.3125)"/>
<path d="M0 0 C-0.92652701 1.17539996 -1.86663387 2.34010577 -2.8125 3.5 C-3.33457031 4.1496875 -3.85664063 4.799375 -4.39453125 5.46875 C-6 7 -6 7 -9 7 C-9 4 -9 4 -7.3125 1.8125 C-4.6038423 -0.31050198 -3.35291118 -0.37254569 0 0 Z M-13 6 C-12.01 6 -11.02 6 -10 6 C-10.33 6.66 -10.66 7.32 -11 8 C-11.66 7.34 -12.32 6.68 -13 6 Z " fill="#EFEEF7" transform="translate(386,300)"/>
<path d="M0 0 C2 6 2 6 1.125 8 C0.75375 8.66 0.3825 9.32 0 10 C-0.33 10.99 -0.66 11.98 -1 13 C-1 12.34 -1 11.68 -1 11 C-2.32 11.33 -3.64 11.66 -5 12 C-4.54738642 10.56068883 -4.08767021 9.12361001 -3.625 7.6875 C-3.24214844 6.48673828 -3.24214844 6.48673828 -2.8515625 5.26171875 C-2 3 -2 3 0 0 Z " fill="#E2E1F4" transform="translate(110,235)"/>
<path d="M0 0 C0.66 0 1.32 0 2 0 C2 0.66 2 1.32 2 2 C1.34 2 0.68 2 0 2 C0.33 6.95 0.66 11.9 1 17 C1.66 16.67 2.32 16.34 3 16 C4.67654729 16.27942455 6.34608154 16.60828247 8 17 C5.02209492 18.65439171 2.33822957 19.38550003 -1 20 C-1.02888514 16.85418577 -1.04675923 13.70840531 -1.0625 10.5625 C-1.07087891 9.66466797 -1.07925781 8.76683594 -1.08789062 7.84179688 C-1.09111328 6.98779297 -1.09433594 6.13378906 -1.09765625 5.25390625 C-1.10551147 4.06776733 -1.10551147 4.06776733 -1.11352539 2.85766602 C-1 1 -1 1 0 0 Z " fill="#B8B7E6" transform="translate(345,307)"/>
<path d="M0 0 C0.33 0.66 0.66 1.32 1 2 C-0.375 3.5 -0.375 3.5 -2 5 C-2.66 5 -3.32 5 -4 5 C-4.66 6.98 -5.32 8.96 -6 11 C-7.65 10.01 -9.3 9.02 -11 8 C-9.1875 6 -9.1875 6 -7 4 C-6.01 4 -5.02 4 -4 4 C-4 3.34 -4 2.68 -4 2 C-2.68 1.34 -1.36 0.68 0 0 Z " fill="#D6D5EE" transform="translate(198,149)"/>
<path d="M0 0 C1.9375 0.375 1.9375 0.375 4 1 C4.99 1 5.98 1 7 1 C7.66 1.33 8.32 1.66 9 2 C9 1.34 9 0.68 9 0 C9.99 0.33 10.98 0.66 12 1 C11.34 1 10.68 1 10 1 C10 1.99 10 2.98 10 4 C5.06729471 5.6442351 2.45975807 4.18615592 -2 2 C-1.34 1.34 -0.68 0.68 0 0 Z " fill="#F8F9FC" transform="translate(301,226)"/>
<path d="M0 0 C6.93 0 13.86 0 21 0 C21.33 0.99 21.66 1.98 22 3 C19 3 19 3 16.0625 2.5 C10.74387799 1.68615913 5.36486307 1.92071631 0 2 C0 1.34 0 0.68 0 0 Z " fill="#D0CEFC" transform="translate(309,305)"/>
<path d="M0 0 C1.231394 3.69418201 0.64432764 6.2056261 0 10 C-2.31 10 -4.62 10 -7 10 C-6.34 9.01 -5.68 8.02 -5 7 C-4.34 7 -3.68 7 -3 7 C-2.814375 6.1028125 -2.814375 6.1028125 -2.625 5.1875 C-2 3 -2 3 0 0 Z " fill="#F8F7FD" transform="translate(191,360)"/>
<path d="M0 0 C0.66 0 1.32 0 2 0 C4.43160605 3.36683915 5 4.73350364 5 9 C2.525 8.01 2.525 8.01 0 7 C0 6.01 0 5.02 0 4 C-0.66 4 -1.32 4 -2 4 C-1.34 2.68 -0.68 1.36 0 0 Z " fill="#E8E9F0" transform="translate(129,313)"/>
<path d="M0 0 C0 0.66 0 1.32 0 2 C-2.64 2.66 -5.28 3.32 -8 4 C-8 4.66 -8 5.32 -8 6 C-8.66 6 -9.32 6 -10 6 C-10.33 4.68 -10.66 3.36 -11 2 C-9.54494642 1.47007308 -8.08581873 0.9513211 -6.625 0.4375 C-5.81289063 0.14746094 -5.00078125 -0.14257812 -4.1640625 -0.44140625 C-2 -1 -2 -1 0 0 Z " fill="#F8F8FC" transform="translate(284,209)"/>
<path d="M0 0 C0.33 1.32 0.66 2.64 1 4 C-0.98 3.34 -2.96 2.68 -5 2 C-5.33 2.66 -5.66 3.32 -6 4 C-7.32 3.34 -8.64 2.68 -10 2 C-10 1.34 -10 0.68 -10 0 C-6.30581799 -1.231394 -3.7943739 -0.64432764 0 0 Z " fill="#F9FAFB" transform="translate(290,307)"/>
<path d="M0 0 C0.99 0 1.98 0 3 0 C3 2.64 3 5.28 3 8 C0.03 7.505 0.03 7.505 -3 7 C-2.67 6.34 -2.34 5.68 -2 5 C-1.34 5 -0.68 5 0 5 C-0.2784375 4.0409375 -0.2784375 4.0409375 -0.5625 3.0625 C-0.706875 2.381875 -0.85125 1.70125 -1 1 C-0.67 0.67 -0.34 0.34 0 0 Z " fill="#FAFBFC" transform="translate(323,252)"/>
<path d="M0 0 C0.66 0.33 1.32 0.66 2 1 C1.67 2.65 1.34 4.3 1 6 C-5.93 6 -12.86 6 -20 6 C-20 5.67 -20 5.34 -20 5 C-13.73 4.67 -7.46 4.34 -1 4 C-0.67 2.68 -0.34 1.36 0 0 Z " fill="#ACAAEE" transform="translate(329,365)"/>
<path d="M0 0 C-4.36363636 4.72727273 -4.36363636 4.72727273 -7.1875 5.9375 C-7.785625 5.958125 -8.38375 5.97875 -9 6 C-9.66 5.34 -10.32 4.68 -11 4 C-10.34 4 -9.68 4 -9 4 C-9 3.34 -9 2.68 -9 2 C-5.86501708 0.14223235 -3.62528568 -0.20140476 0 0 Z " fill="#D7D3ED" transform="translate(285,211)"/>
<path d="M0 0 C1 3 1 3 0 6 C0.66 6 1.32 6 2 6 C2.66 7.32 3.32 8.64 4 10 C0.11980141 8.74155722 -1.9411842 7.57583797 -4 4 C-4 3.01 -4 2.02 -4 1 C-2.68 0.67 -1.36 0.34 0 0 Z " fill="#E3E3F1" transform="translate(342,201)"/>
<path d="M0 0 C1.9451 2.91765 2.45276317 4.62537285 3 8 C1.02 8.99 1.02 8.99 -1 10 C-2.46726798 6.18510326 -1.43336419 3.70988378 0 0 Z " fill="#FAFAFB" transform="translate(235,358)"/>
<path d="M0 0 C0.33 0 0.66 0 1 0 C1 4.29 1 8.58 1 13 C0.01 12.67 -0.98 12.34 -2 12 C-1.34 12 -0.68 12 0 12 C0 10.68 0 9.36 0 8 C-0.66 8 -1.32 8 -2 8 C-2.33 6.68 -2.66 5.36 -3 4 C-2.01 3.67 -1.02 3.34 0 3 C0 2.01 0 1.02 0 0 Z " fill="#E7E4F7" transform="translate(152,316)"/>
<path d="M0 0 C0.33 0.99 0.66 1.98 1 3 C1.99 3.66 2.98 4.32 4 5 C-0.625 8 -0.625 8 -4 8 C-3.67 7.401875 -3.34 6.80375 -3 6.1875 C-1.79212012 3.94613529 -1.79212012 3.94613529 -2 1 C-1.34 0.67 -0.68 0.34 0 0 Z " fill="#E2D8EE" transform="translate(363,313)"/>
<path d="M0 0 C0.66 0.33 1.32 0.66 2 1 C2 1.99 2 2.98 2 4 C-1.13498292 5.85776765 -3.37471432 6.20140476 -7 6 C-6.01 5.67 -5.02 5.34 -4 5 C-4 4.01 -4 3.02 -4 2 C-2.125 0.9375 -2.125 0.9375 0 0 Z " fill="#F8F7FD" transform="translate(160,218)"/>
<path d="M0 0 C0.99 0.33 1.98 0.66 3 1 C2.67 1.66 2.34 2.32 2 3 C2.66 3 3.32 3 4 3 C4 3.99 4 4.98 4 6 C5.65 6.33 7.3 6.66 9 7 C9 7.33 9 7.66 9 8 C5.625 8.1875 5.625 8.1875 2 8 C-0.1519437 4.77208445 -0.20086443 3.71599191 0 0 Z " fill="#D6D6F3" transform="translate(260,175)"/>
<path d="M0 0 C-0.66 1.32 -1.32 2.64 -2 4 C-6.95 4 -11.9 4 -17 4 C-17 3.67 -17 3.34 -17 3 C-16.25234375 2.95101562 -15.5046875 2.90203125 -14.734375 2.8515625 C-13.74953125 2.77679688 -12.7646875 2.70203125 -11.75 2.625 C-10.28820312 2.52058594 -10.28820312 2.52058594 -8.796875 2.4140625 C-5.60512397 1.9415407 -3.13732834 0 0 0 Z " fill="#E6E4FB" transform="translate(250,153)"/>
<path d="M0 0 C3.625 0.375 3.625 0.375 7 1 C7.33 2.65 7.66 4.3 8 6 C7.01 6.495 7.01 6.495 6 7 C5.67 5.68 5.34 4.36 5 3 C2.69 2.67 0.38 2.34 -2 2 C-1.34 1.34 -0.68 0.68 0 0 Z " fill="#F7F7F8" transform="translate(263,264)"/>
<path d="M0 0 C0.66 0.99 1.32 1.98 2 3 C-1.96 3 -5.92 3 -10 3 C-5.859724 -0.105207 -4.90248464 -0.63945452 0 0 Z " fill="#FAFAFC" transform="translate(243,153)"/>
<path d="M0 0 C-0.99 1.32 -1.98 2.64 -3 4 C-3.556875 3.814375 -4.11375 3.62875 -4.6875 3.4375 C-7.399133 2.92448835 -9.34371039 3.3359276 -12 4 C-8.15336308 0.86570325 -4.95471579 -1.65157193 0 0 Z " fill="#D0CEF1" transform="translate(212,145)"/>
<path d="M0 0 C0.66 0 1.32 0 2 0 C2.33 2.97 2.66 5.94 3 9 C1.68 9.33 0.36 9.66 -1 10 C-1.33 10.66 -1.66 11.32 -2 12 C-3.32 11.34 -4.64 10.68 -6 10 C-5.195625 9.690625 -4.39125 9.38125 -3.5625 9.0625 C-1.10919595 8.23664655 -1.10919595 8.23664655 0 7 C0.04092937 4.66702567 0.04241723 2.33294775 0 0 Z " fill="#B5B3DC" transform="translate(280,322)"/>
<path d="M0 0 C2.64 0.33 5.28 0.66 8 1 C7 4 7 4 4.9375 5.1875 C4.298125 5.455625 3.65875 5.72375 3 6 C2.87625 5.195625 2.7525 4.39125 2.625 3.5625 C2.315625 2.2940625 2.315625 2.2940625 2 1 C1.34 0.67 0.68 0.34 0 0 Z " fill="#E1E1EF" transform="translate(268,264)"/>
<path d="M0 0 C-0.99 0.495 -0.99 0.495 -2 1 C-1.67 2.32 -1.34 3.64 -1 5 C-2.65 5.33 -4.3 5.66 -6 6 C-6.33 4.35 -6.66 2.7 -7 1 C-3.375 -1.125 -3.375 -1.125 0 0 Z " fill="#D8D8ED" transform="translate(354,305)"/>
<path d="M0 0 C0.66 0.33 1.32 0.66 2 1 C2 2.32 2 3.64 2 5 C1.01 5 0.02 5 -1 5 C-1.33 5.66 -1.66 6.32 -2 7 C-2.6875 5.1875 -2.6875 5.1875 -3 3 C-1.5625 1.25 -1.5625 1.25 0 0 Z " fill="#F7F8FA" transform="translate(197,338)"/>
<path d="M0 0 C0.33 0 0.66 0 1 0 C1.63019694 9.17286652 1.63019694 9.17286652 -1 12.625 C-1.66 13.07875 -2.32 13.5325 -3 14 C-2.67 12.02 -2.34 10.04 -2 8 C-1.34 8 -0.68 8 0 8 C0 5.36 0 2.72 0 0 Z " fill="#C2BBE7" transform="translate(286,273)"/>
<path d="M0 0 C3.71599191 -0.20086443 4.77208445 -0.1519437 8 2 C7.67 2.66 7.34 3.32 7 4 C4.03 3.505 4.03 3.505 1 3 C0.67 2.01 0.34 1.02 0 0 Z " fill="#D4D3F3" transform="translate(354,177)"/>
<path d="M0 0 C2.50037734 2.17424117 3.43628586 3.73045798 4 7 C2.68 7 1.36 7 0 7 C-1.125 2.25 -1.125 2.25 0 0 Z " fill="#F8FAFC" transform="translate(220,363)"/>
<path d="M0 0 C1.24546405 2.49092811 0.7767578 3.41080733 0 6 C0.66 6.33 1.32 6.66 2 7 C0.68 8.32 -0.64 9.64 -2 11 C-2.95465783 8.83032311 -3.14401212 7.43671207 -2.3984375 5.17578125 C-1.64129615 3.4315257 -0.82390802 1.71372869 0 0 Z " fill="#D0CEEA" transform="translate(189,318)"/>
<path d="M0 0 C0 0.66 0 1.32 0 2 C0.99 2.33 1.98 2.66 3 3 C-0.63 3 -4.26 3 -8 3 C-7 1 -7 1 -5.125 0.375 C-3 0 -3 0 0 0 Z " fill="#FBFAFD" transform="translate(273,315)"/>
<path d="M0 0 C-0.33 1.65 -0.66 3.3 -1 5 C-2.98 5 -4.96 5 -7 5 C-6 2 -6 2 -4.0625 0.8125 C-2 0 -2 0 0 0 Z " fill="#F9F9F5" transform="translate(261,262)"/>
<path d="M0 0 C0.66 0 1.32 0 2 0 C2.33 1.98 2.66 3.96 3 6 C1.68 5.67 0.36 5.34 -1 5 C-0.67 3.35 -0.34 1.7 0 0 Z " fill="#F6F6FC" transform="translate(115,232)"/>
<path d="M0 0 C1.32 0 2.64 0 4 0 C4.1875 2.375 4.1875 2.375 4 5 C3.01 5.66 2.02 6.32 1 7 C0.67 4.69 0.34 2.38 0 0 Z " fill="#F8FAFC" transform="translate(331,172)"/>
<path d="M0 0 C1.65 0.33 3.3 0.66 5 1 C4.67 3.31 4.34 5.62 4 8 C3.67 8 3.34 8 3 8 C3 6.35 3 4.7 3 3 C1.68 2.67 0.36 2.34 -1 2 C-0.67 1.34 -0.34 0.68 0 0 Z " fill="#BEBEF9" transform="translate(255,140)"/>
<path d="M0 0 C-2.6264883 1.4070473 -5.02531947 2.62816493 -8 3 C-10.25 2.0625 -10.25 2.0625 -12 1 C-8.0186217 -0.3271261 -4.14954773 -0.06915913 0 0 Z " fill="#D7D3F1" transform="translate(231,140)"/>
<path d="M0 0 C1.62463842 -0.05395478 3.24978541 -0.09277195 4.875 -0.125 C5.77992188 -0.14820313 6.68484375 -0.17140625 7.6171875 -0.1953125 C10 0 10 0 12 2 C9.03 2 6.06 2 3 2 C3 2.66 3 3.32 3 4 C2.01 3.67 1.02 3.34 0 3 C0 2.01 0 1.02 0 0 Z " fill="#CACAF1" transform="translate(315,130)"/>
<path d="M0 0 C3 3.625 3 3.625 3 7 C0 6 0 6 -3 4 C-2 2 -2 2 0 0 Z " fill="#FBFCFD" transform="translate(123,286)"/>
<path d="M0 0 C4.455 0.99 4.455 0.99 9 2 C9 2.66 9 3.32 9 4 C6.69 4 4.38 4 2 4 C1.34 2.68 0.68 1.36 0 0 Z " fill="#D0D0EF" transform="translate(272,259)"/>
<path d="M0 0 C2.97 0.495 2.97 0.495 6 1 C6 1.66 6 2.32 6 3 C6.99 3.33 7.98 3.66 9 4 C7.68 4.33 6.36 4.66 5 5 C4.731875 4.360625 4.46375 3.72125 4.1875 3.0625 C3.11332248 0.66868314 3.11332248 0.66868314 0 0 Z " fill="#CAC8E7" transform="translate(287,306)"/>
<path d="M0 0 C0.99 0.33 1.98 0.66 3 1 C2.67 1.66 2.34 2.32 2 3 C2.99 3 3.98 3 5 3 C4.67 3.99 4.34 4.98 4 6 C2.35 5.01 0.7 4.02 -1 3 C-0.67 2.01 -0.34 1.02 0 0 Z " fill="#D8DAEF" transform="translate(288,209)"/>
<path d="M0 0 C0 0.99 0 1.98 0 3 C-1.65 3.66 -3.3 4.32 -5 5 C-5 3.68 -5 2.36 -5 1 C-2 0 -2 0 0 0 Z " fill="#F8F6FD" transform="translate(151,208)"/>
<path d="M0 0 C0.98120464 3.05263664 0.98120464 4.94736336 0 8 C-0.99 7.67 -1.98 7.34 -3 7 C-1.125 2.25 -1.125 2.25 0 0 Z " fill="#DDDCF2" transform="translate(167,177)"/>
<path d="M0 0 C1.2065625 0.0309375 1.2065625 0.0309375 2.4375 0.0625 C0.7875 1.7125 -0.8625 3.3625 -2.5625 5.0625 C-3.125 3.125 -3.125 3.125 -3.5625 1.0625 C-2.5625 0.0625 -2.5625 0.0625 0 0 Z " fill="#D3CFF6" transform="translate(383.5625,299.9375)"/>
<path d="M0 0 C0.99 0.33 1.98 0.66 3 1 C2 4 2 4 -1 6 C-1.99 5.67 -2.98 5.34 -4 5 C-2.68 3.35 -1.36 1.7 0 0 Z " fill="#F8F7FD" transform="translate(274,266)"/>
<path d="M0 0 C0.66666667 2 1.33333333 4 2 6 C0.35 6.33 -1.3 6.66 -3 7 C-1.125 1.125 -1.125 1.125 0 0 Z " fill="#C5C3EF" transform="translate(110,235)"/>
<path d="M0 0 C1.32 0.66 2.64 1.32 4 2 C1.82575883 4.50037734 0.26954202 5.43628586 -3 6 C-2 4 -1 2 0 0 Z " fill="#C0BFF2" transform="translate(115,227)"/>
<path d="M0 0 C0.66 0 1.32 0 2 0 C1.34 2.97 0.68 5.94 0 9 C-0.33 9 -0.66 9 -1 9 C-1.625 6.1875 -1.625 6.1875 -2 3 C-1.34 2.01 -0.68 1.02 0 0 Z " fill="#BDBAF1" transform="translate(174,199)"/>
<path d="M0 0 C0.33 0.66 0.66 1.32 1 2 C1.66 2 2.32 2 3 2 C2.67 3.65 2.34 5.3 2 7 C1.01 6.67 0.02 6.34 -1 6 C-1.042721 4.33388095 -1.04063832 2.66617115 -1 1 C-0.67 0.67 -0.34 0.34 0 0 Z " fill="#F9FBFD" transform="translate(347,169)"/>
<path d="M0 0 C2.125 0.375 2.125 0.375 4 1 C2.35 2.65 0.7 4.3 -1 6 C-1.625 4.125 -1.625 4.125 -2 2 C-1.34 1.34 -0.68 0.68 0 0 Z " fill="#D1CCE8" transform="translate(295,164)"/>
</svg>
