<?xml version="1.0" encoding="UTF-8"?>
<svg version="1.1" xmlns="http://www.w3.org/2000/svg" width="2541" height="1488">
<path d="M0 0 C88.77 0 177.54 0 269 0 C269 147.18 269 294.36 269 446 C342.59 446 416.18 446 492 446 C492 521.57 492 597.14 492 675 C511.614375 674.87625 531.22875 674.7525 551.4375 674.625 C560.61904907 674.57400146 560.61904907 674.57400146 569.98608398 674.52197266 C659.99927515 673.92712768 754.73245774 663.85544637 833 615 C830.55548754 610.61241353 827.97781364 606.38528882 825.19458008 602.20556641 C801.27422409 566.19615575 788.93352757 524.55080955 783 482 C782.82210938 480.77385986 782.82210938 480.77385986 782.640625 479.52294922 C775.89282499 430.77210245 781.94264709 378.83956978 796 332 C796.25442871 331.14067871 796.50885742 330.28135742 796.77099609 329.39599609 C806.22365339 298.17169436 822.8636312 270.5621773 844.73046875 246.55078125 C850.05506487 240.56633845 855.0014312 234.25663556 860 228 C863.36256898 229.50390126 865.93029442 231.45252902 868.75 233.8125 C869.71421875 234.61300781 870.6784375 235.41351563 871.671875 236.23828125 C872.20103516 236.67865723 872.73019531 237.1190332 873.27539062 237.57275391 C876.49734854 240.23917038 879.75132187 242.86626802 883 245.5 C884.3790028 246.62097498 885.7579105 247.74206698 887.13671875 248.86328125 C889.44742209 250.74132784 891.76231342 252.6135222 894.08203125 254.48046875 C899.6257322 258.96142875 904.96294012 263.60806599 910.19921875 268.4453125 C912.34058799 270.39852795 914.50538912 272.29591876 916.703125 274.18359375 C921.70748975 278.54966772 926.37879755 283.2326203 931.0625 287.9375 C931.92166016 288.79279297 932.78082031 289.64808594 933.66601562 290.52929688 C938.65353237 295.52443397 943.4175821 300.6327204 948 306 C948.96090732 307.09492063 949.92309353 308.18872059 950.88671875 309.28125 C987.26646916 350.91128902 1032.2206667 417.77373626 1029 476 C1030.03664795 475.72119995 1030.03664795 475.72119995 1031.09423828 475.43676758 C1044.80047528 471.78814255 1058.4447429 468.52809674 1072.4375 466.1875 C1073.5817041 465.99325439 1074.7259082 465.79900879 1075.90478516 465.59887695 C1094.41592528 462.6301584 1112.83106635 461.61941012 1131.5625 461.6875 C1132.61037689 461.68932281 1133.65825378 461.69114563 1134.73788452 461.69302368 C1151.33439142 461.74146152 1167.58136251 462.38597337 1184 465 C1185.10956055 465.17160645 1186.21912109 465.34321289 1187.36230469 465.52001953 C1231.51466148 472.52803191 1270.88624604 488.97714771 1309 512 C1310.89682397 513.13853987 1312.79394488 514.27658522 1314.69140625 515.4140625 C1316.12763278 516.27599399 1317.56384201 517.13795431 1319 518 C1317.33298572 523.70740481 1314.73332816 528.83834083 1312.0625 534.125 C1311.57305908 535.09493896 1311.08361816 536.06487793 1310.5793457 537.06420898 C1296.53941993 564.7101605 1280.59389441 590.57975958 1259 613 C1258.36787598 613.65935547 1257.73575195 614.31871094 1257.08447266 614.99804688 C1248.46948998 623.93693171 1239.75280205 632.35016274 1229.74462891 639.71289062 C1227.92369199 641.05629664 1226.12359299 642.4247516 1224.32421875 643.796875 C1157.44343737 694.3803708 1072.5364841 706.77276468 991 706.203125 C989.54939682 706.19652359 989.54939682 706.19652359 988.06948853 706.18978882 C987.18030731 706.18033234 986.2911261 706.17087585 985.375 706.16113281 C984.59898437 706.15430481 983.82296875 706.14747681 983.0234375 706.14044189 C981 706 981 706 978 705 C977.86247314 705.53334961 977.72494629 706.06669922 977.58325195 706.61621094 C975.21663851 715.14058909 971.69737699 723.15220612 968.1875 731.25 C967.69237915 732.39849426 967.69237915 732.39849426 967.18725586 733.57019043 C960.44525448 749.20040504 953.33759536 764.64177272 946 780 C945.36390497 781.33445963 944.7278378 782.66893255 944.09179688 784.00341797 C934.66809207 803.75398866 924.9088639 823.25088336 914.13354492 842.3059082 C913.73756104 843.0093335 913.34157715 843.71275879 912.93359375 844.4375 C912.58353271 845.05496094 912.23347168 845.67242188 911.87280273 846.30859375 C910.85862751 848.16742281 910.85862751 848.16742281 910 851 C910.98613281 850.98259766 910.98613281 850.98259766 911.9921875 850.96484375 C917.24842116 850.91498788 922.45753691 850.9998763 927.703125 851.35864258 C1003.02876826 856.40650687 1085.75822913 843.11969982 1144.30102539 792.23901367 C1148.71298225 788.33320865 1152.92651212 784.25818003 1157 780 C1157.99771429 778.99771951 1158.9969743 777.99696512 1160 777 C1159.9278125 777.59425781 1159.855625 778.18851563 1159.78125 778.80078125 C1158.18197926 793.08315746 1158.36173007 806.82496943 1167 819 C1169.83283651 822.50990069 1172.83837007 825.78469214 1176 829 C1176.60457031 829.61746094 1177.20914063 830.23492188 1177.83203125 830.87109375 C1192.31826334 844.53675496 1213.17942101 852.53831199 1231.8125 858.6875 C1232.54093109 858.93135437 1233.26936218 859.17520874 1234.01986694 859.42645264 C1254.3983702 866.20202227 1275.32592803 871.10892308 1296.19824219 876.09776306 C1301.16996502 877.28933322 1306.09751796 878.54869926 1311 880 C1311 880.33 1311 880.66 1311 881 C1310.11584939 880.99452156 1309.23169878 880.98904313 1308.32075572 880.98339868 C1255.91274841 880.66120691 1203.50519173 880.44334797 1151.09623043 880.36087568 C1144.802759 880.35088189 1138.50928934 880.34001686 1132.21582031 880.32861328 C1130.33645459 880.32522989 1130.33645459 880.32522989 1128.41912189 880.32177815 C1108.13480078 880.28318315 1087.85144264 880.17401945 1067.56756219 880.03874949 C1046.75257009 879.90150941 1025.93835076 879.84016621 1005.12290311 879.84919715 C992.27899997 879.85237969 979.43815253 879.79645185 966.59491244 879.6647661 C957.78632554 879.58012156 948.97956506 879.56923941 940.17070422 879.61614224 C935.08777846 879.64103417 930.01035567 879.63362079 924.92813873 879.53851509 C905.80012958 878.25614291 905.80012958 878.25614291 888.25534344 883.93688869 C884.03024788 888.5459893 881.82591547 893.57363369 879.93301821 899.46862936 C878.40830187 903.60533553 875.93308197 907.03091415 873.40234375 910.609375 C872.48613171 911.97338342 871.5723639 913.33903996 870.66210938 914.70703125 C869.75394517 916.05471373 868.84574206 917.40236999 867.9375 918.75 C867.02497532 920.1130033 866.11286668 921.47628522 865.20117188 922.83984375 C856.84549184 935.31760341 848.44160221 947.77933712 839.625 959.9375 C839.08955566 960.67709961 838.55411133 961.41669922 838.00244141 962.17871094 C832.14597588 970.2298566 826.10483215 978.13618143 820 986 C819.29278809 986.91193115 819.29278809 986.91193115 818.57128906 987.84228516 C807.8774207 1001.60618173 796.88105441 1015.10682198 785.47509766 1028.28662109 C783.99829838 1030.00197649 782.53450406 1031.72760487 781.07421875 1033.45703125 C775.27655818 1040.30916178 769.32469996 1046.9760205 763.15869141 1053.49975586 C760.02401304 1056.81698699 756.94915027 1060.17492806 753.91894531 1063.58813477 C749.03850875 1069.01634417 743.94386457 1074.20068691 738.77734375 1079.35546875 C737.82273605 1080.31075294 736.86827658 1081.26618527 735.91395569 1082.22175598 C733.93147597 1084.20569507 731.94723775 1086.18785287 729.96166992 1088.16870117 C727.43812087 1090.6865383 724.91911142 1093.20886195 722.40140438 1095.73253918 C720.43763554 1097.69994826 718.47145835 1099.66493671 716.50457954 1101.62923622 C715.12971621 1103.00312457 713.75683692 1104.37899747 712.38401794 1105.75492859 C707.95136589 1110.17116682 703.4671221 1114.45858293 698.71151733 1118.52659607 C695.96100947 1120.89444185 693.33395433 1123.39235588 690.6875 1125.875 C685.81414451 1130.41348524 680.79696023 1134.69348797 675.6015625 1138.86328125 C673.05013271 1140.95882494 670.61673227 1143.13963155 668.1875 1145.375 C663.81491564 1149.35508466 659.25830709 1153.01347497 654.59008789 1156.63452148 C650.72442218 1159.63528782 646.91092864 1162.68961153 643.12792969 1165.79394531 C628.88165264 1177.48408879 613.99943681 1188.30166647 599 1199 C598.21641113 1199.55945312 597.43282227 1200.11890625 596.62548828 1200.6953125 C564.86042846 1223.31363593 531.61771529 1244.006209 497.390625 1262.69140625 C494.85951069 1264.07690183 492.33610726 1265.47588245 489.8125 1266.875 C460.28627602 1283.15612982 429.98034462 1297.7126773 399 1311 C398.04311279 1311.41125122 398.04311279 1311.41125122 397.06689453 1311.83081055 C306.44149841 1350.73301425 210.81821048 1377.51838206 -78 1414 C-78.67287048 1414.03029297 -79.34574097 1414.06058594 -80.03900146 1414.09179688 C-125.20076875 1416.09842913 -170.90317906 1416.28958543 -216 1413 C-216.84816284 1412.9391925 -217.69632568 1412.87838501 -218.57019043 1412.81573486 C-289.17911709 1407.7043032 -358.65387593 1394.87796683 -426 1373 C-426.65722046 1372.78666016 -427.31444092 1372.57332031 -427.99157715 1372.35351562 C-461.15376649 1361.55217616 -493.93757451 1348.2107452 -524.90429688 1332.08691406 C-527.36160094 1330.81245953 -529.82940703 1329.55934701 -532.296875 1328.3046875 C-567.19169414 1310.45559175 -600.15320384 1289.16474779 -631 1265 C-631.93070313 1264.27296875 -632.86140625 1263.5459375 -633.8203125 1262.796875 C-640.08664608 1257.84022529 -646.17617109 1252.67396829 -652.25292969 1247.48828125 C-654.06331799 1245.94606114 -655.87905158 1244.41029764 -657.6953125 1242.875 C-668.48109959 1233.73028081 -668.48109959 1233.73028081 -673.32202148 1228.67700195 C-675.00455813 1226.99544452 -676.75411339 1225.46205111 -678.56640625 1223.921875 C-683.62254543 1219.52495543 -688.33699563 1214.80937062 -693.0625 1210.0625 C-693.92166016 1209.20720703 -694.78082031 1208.35191406 -695.66601562 1207.47070312 C-700.09241895 1203.03753676 -704.37389659 1198.54169719 -708.45581055 1193.78930664 C-710.69694987 1191.19241967 -713.036977 1188.69753971 -715.375 1186.1875 C-719.61310701 1181.59440625 -723.65600193 1176.88729778 -727.57421875 1172.015625 C-729.35359865 1169.80357784 -731.14630553 1167.60793161 -732.95703125 1165.421875 C-744.71111708 1151.1846078 -755.7438298 1136.35416298 -766 1121 C-766.61246582 1120.08331543 -767.22493164 1119.16663086 -767.85595703 1118.22216797 C-795.77622973 1076.28619293 -817.83518833 1031.7575554 -834 984 C-834.33837891 983.00403809 -834.67675781 982.00807617 -835.02539062 980.98193359 C-842.69559921 958.20962694 -848.85216494 935.05101768 -853.875 911.5625 C-854.02043243 910.88815918 -854.16586487 910.21381836 -854.31570435 909.51904297 C-856.35535357 899.99922127 -857.70480853 890.71393602 -859 881 C-962.29 881 -1065.58 881 -1172 881 C-1169.29558613 879.19705742 -1167.95475139 878.59811767 -1164.9128418 877.90600586 C-1163.67538712 877.61895027 -1163.67538712 877.61895027 -1162.41293335 877.32609558 C-1161.51740753 877.12438248 -1160.62188171 876.92266937 -1159.69921875 876.71484375 C-1157.7665949 876.26698132 -1155.83406275 875.81872305 -1153.90161133 875.37011719 C-1152.37958603 875.01983459 -1152.37958603 875.01983459 -1150.82681274 874.66247559 C-1081.72932617 860.25496403 -1081.72932617 860.25496403 -1027 819 C-1022.92692919 811.58119245 -1019.85711232 804.86288476 -1019.90234375 796.359375 C-1019.90556641 795.28945313 -1019.90878906 794.21953125 -1019.91210938 793.1171875 C-1019.92048828 792.00601563 -1019.92886719 790.89484375 -1019.9375 789.75 C-1019.94201172 788.62335937 -1019.94652344 787.49671875 -1019.95117188 786.3359375 C-1019.96294603 783.55723783 -1019.9793916 780.77864591 -1020 778 C-1015.99206314 781.35226056 -1012.19936733 784.74231187 -1008.625 788.5625 C-973.87569618 823.52176941 -923.97195095 839.54096393 -876.58349609 847.55664062 C-872.04912393 848.33479408 -867.52527185 849.17086916 -863 850 C-863.13154984 849.22271545 -863.26309967 848.44543091 -863.39863586 847.64459229 C-864.72568955 839.47584889 -865.57544181 831.36603303 -866.10546875 823.109375 C-866.18935349 821.81481384 -866.27323822 820.52025269 -866.35966492 819.1864624 C-867.24080058 804.88120483 -867.3508211 790.57966232 -867.3125 776.25 C-867.31117151 774.87829604 -867.31000371 773.50659192 -867.30899048 772.1348877 C-867.26705661 739.40669466 -864.6196848 707.57716324 -861 675 C-797.97 675 -734.94 675 -670 675 C-670 599.43 -670 523.86 -670 446 C-596.41 446 -522.82 446 -447 446 C-447 372.41 -447 298.82 -447 223 C-299.49 223 -151.98 223 0 223 C0 149.41 0 75.82 0 0 Z " fill="#294347" transform="translate(1196,30)"/>
<path d="M0 0 C550.44 0 1100.88 0 1668 0 C1666.92742373 4.29030507 1665.09153297 7.39061205 1662.75 11.0625 C1662.30962402 11.75931885 1661.86924805 12.4561377 1661.41552734 13.17407227 C1655.83302094 21.93316617 1649.93489302 30.477415 1644 39 C1643.49710449 39.7233252 1642.99420898 40.44665039 1642.47607422 41.19189453 C1624.14189295 67.51060872 1604.69697535 93.02377627 1583.87329102 117.42578125 C1581.1033903 120.67488436 1578.41213442 123.97489863 1575.75 127.3125 C1571.25627715 132.84448372 1566.40140723 138.00694839 1561.49121094 143.16723633 C1557.74015722 147.11260138 1554.11161963 151.13604858 1550.54443359 155.24829102 C1548.81512827 157.20968301 1547.00818049 159.06124552 1545.125 160.875 C1542.72480848 163.18691935 1542.72480848 163.18691935 1541 166 C1540.34 166 1539.68 166 1539 166 C1538.78085938 166.54366211 1538.56171875 167.08732422 1538.3359375 167.64746094 C1536.55895085 170.77667207 1534.15895025 173.12685399 1531.625 175.640625 C1531.09986816 176.16767029 1530.57473633 176.69471558 1530.03369141 177.23773193 C1528.92661117 178.34616928 1527.8170167 179.45210046 1526.70507812 180.55566406 C1524.99893025 182.25106301 1523.30375953 183.9569161 1521.609375 185.6640625 C1520.53189108 186.74022558 1519.45378733 187.81576851 1518.375 188.890625 C1517.61243896 189.65925873 1517.61243896 189.65925873 1516.83447266 190.44342041 C1513.22994091 194 1513.22994091 194 1511 194 C1511 194.66 1511 195.32 1511 196 C1509.49609375 197.48046875 1509.49609375 197.48046875 1507.4375 199.1875 C1504.6746132 201.53279758 1502.03320243 203.90829405 1499.5 206.5 C1496.53264677 209.51413582 1493.42654708 212.29917333 1490.22265625 215.05859375 C1487.67023117 217.28804061 1485.18112486 219.58001382 1482.6875 221.875 C1478.2439835 225.92841354 1473.67401903 229.76183877 1468.9921875 233.53515625 C1466.19445632 235.8398147 1463.46830372 238.20499478 1460.74902344 240.60058594 C1454.14489283 246.41318447 1447.36906562 251.89209237 1440.34399414 257.18774414 C1435.59352484 260.76911673 1430.93300037 264.44035014 1426.3125 268.1875 C1419.98273134 273.29592346 1413.47179686 278.07348955 1406.80566406 282.73144531 C1404.99420523 284.00407107 1403.19517796 285.29263157 1401.3984375 286.5859375 C1324.89057712 341.46412467 1240.46101114 385.80057054 1152 418 C1151.30942505 418.25183044 1150.6188501 418.50366089 1149.90734863 418.76312256 C1066.73389452 449.0505968 980.89143069 470.22914128 713.91796875 497.203125 C712.90708002 497.20595238 711.89619129 497.20877975 710.85466957 497.21169281 C705.48131697 497.22654685 700.10799016 497.23585715 694.73461914 497.24023438 C690.41812457 497.24456949 686.10183548 497.25828672 681.78540039 497.28125 C650.40958487 497.44467026 619.28924424 496.34172544 588 494 C587.20943521 493.94112484 586.41887043 493.88224968 585.60434914 493.82159042 C552.34397967 491.3305489 518.79452288 486.97493846 486.26953125 479.50244141 C482.69791427 478.71173704 479.10102693 478.07776031 475.5 477.4375 C468.39116609 476.12185691 461.40004074 474.47354407 454.41210938 472.63183594 C451.69982544 471.92137128 448.98263357 471.23123157 446.265625 470.5390625 C431.58492206 466.74396529 417.2578727 462.23092667 402.91796875 457.33203125 C397.24018131 455.39281649 391.52914803 453.60474945 385.77832031 451.89501953 C382.53012662 450.84863306 379.51416136 449.5087002 376.4296875 448.0625 C373.39833962 446.7368945 370.31002244 445.65572449 367.1875 444.5625 C354.98187629 440.25539824 343.38145737 434.89357497 331.72558594 429.30175781 C328.80391401 427.90634804 325.87520421 426.52649947 322.9453125 425.1484375 C320.90099247 424.18239576 318.85672086 423.21625157 316.8125 422.25 C315.85690186 421.80253418 314.90130371 421.35506836 313.91674805 420.89404297 C309.0037846 418.56195376 304.36013155 416.07759852 299.79370117 413.125 C297.20838856 411.50350544 294.50010724 410.19245975 291.75 408.875 C288.18391351 407.16586528 285.14535879 405.37918165 282 403 C281.01 402.67 280.02 402.34 279 402 C279 401.34 279 400.68 279 400 C277.35 399.67 275.7 399.34 274 399 C274 398.34 274 397.68 274 397 C273.34 396.7525 272.68 396.505 272 396.25 C268.23639093 394.68182955 264.6288576 392.85494954 261 391 C261 390.34 261 389.68 261 389 C260.01 389 259.02 389 258 389 C258 388.34 258 387.68 258 387 C257.01966797 386.6596875 257.01966797 386.6596875 256.01953125 386.3125 C252.00176201 384.56609578 248.39613165 382.31996618 244.6875 380 C243.57665039 379.32324219 243.57665039 379.32324219 242.44335938 378.6328125 C241.74404297 378.19710938 241.04472656 377.76140625 240.32421875 377.3125 C239.68572998 376.91675781 239.04724121 376.52101563 238.3894043 376.11328125 C237.70164917 375.56220703 237.70164917 375.56220703 237 375 C237 374.34 237 373.68 237 373 C236.29230469 372.75378906 235.58460938 372.50757813 234.85546875 372.25390625 C231.63339299 370.83901388 229.12310522 369.0502469 226.3125 366.9375 C222.79692983 364.24079956 222.79692983 364.24079956 219 362 C219 361.34 219 360.68 219 360 C217.68 359.67 216.36 359.34 215 359 C215 358.34 215 357.68 215 357 C214.20916016 356.65775391 214.20916016 356.65775391 213.40234375 356.30859375 C210.19018545 354.5588815 207.4133778 352.33454533 204.5625 350.0625 C203.94850342 349.57668457 203.33450684 349.09086914 202.7019043 348.59033203 C197.95069505 344.80909284 193.2931688 340.92483072 188.67919922 336.9777832 C185.39690354 334.17015031 182.06573865 331.44250662 178.6875 328.75 C173.13554149 324.248192 167.97490304 319.36219685 162.83276367 314.40332031 C158.98394447 310.72466555 155.02781054 307.46800625 150.72973633 304.32885742 C148.67335382 302.74905644 147.05302453 301.02467827 145.4375 299 C142.71803327 295.74535217 139.86223516 293.0021497 136.578125 290.32421875 C134.94314316 288.95229092 133.41996566 287.59532286 132 286 C132 285.34 132 284.68 132 284 C131.34 284 130.68 284 130 284 C130 283.34 130 282.68 130 282 C129.34 281.67 128.68 281.34 128 281 C130.35425288 280.97215732 132.7081548 280.95277379 135.0625 280.9375 C136.37347656 280.92589844 137.68445313 280.91429687 139.03515625 280.90234375 C142.96265021 280.93150689 146.85132877 281.18499487 150.76806641 281.47192383 C159.0659639 282.04929778 167.36163174 282.33029529 175.67578125 282.546875 C176.44525904 282.56756798 177.21473682 282.58826096 178.00753212 282.60958099 C195.73320898 283.08023866 213.4560812 283.2423893 231.1875 283.25 C231.98477131 283.25073643 232.78204262 283.25147285 233.60347366 283.2522316 C263.85783508 283.27479096 293.95193421 282.31009814 324.14129639 280.19921875 C326.79845456 280.0140454 329.45597145 279.83586547 332.11376953 279.66015625 C367.84189319 277.26628024 403.96672149 273.49252233 439 266 C440.36556547 265.71571528 441.7312978 265.43223121 443.09716797 265.14941406 C459.52570269 261.73691555 475.81933187 257.99061992 491.9375 253.3125 C493.78263184 252.77834473 493.78263184 252.77834473 495.66503906 252.23339844 C501.53697213 250.48393392 507.35800223 248.60211214 513.12890625 246.54296875 C514.16217041 246.17582764 515.19543457 245.80868652 516.26000977 245.43041992 C520.18854402 243.37951712 522.11701328 240.51369153 524.3125 236.75 C525.65772378 231.36910488 524.78095098 226.65561607 522.4375 221.6875 C519.40124993 218.33983967 516.45416868 216.01390025 512 215 C504.10713226 215.29814013 497.047196 217.68067015 489.5625 220.0625 C434.05425292 237.23253011 375.83371903 244.39874768 318 248 C317.1810022 248.05220703 316.36200439 248.10441406 315.51818848 248.15820312 C259.512475 251.6945444 202.89447921 251.07198812 146.8626709 248.38548279 C141.19694564 248.11902288 135.53953712 247.93025714 129.86811829 247.8482666 C126.65707716 247.79811247 123.44783541 247.70927158 120.23788452 247.61297607 C118.82366427 247.58016151 117.40888322 247.56506543 115.99429321 247.57061768 C110.20033224 247.58837488 105.78082757 247.53882913 101.27636719 243.64648438 C98.95255792 240.86092264 96.95158033 238.05530714 95 235 C94.32155029 234.01563965 93.64310059 233.0312793 92.9440918 232.01708984 C90.90068281 229.04919667 88.9511956 226.02930187 87 223 C86.13642776 221.6855331 85.271787 220.37176775 84.40625 219.05859375 C44.85313265 158.84371474 17.65232328 91.96598329 3 21.5 C2.84575562 20.76258575 2.69151123 20.02517151 2.53259277 19.26541138 C2.09723241 17.16802548 1.67155263 15.06895018 1.25 12.96875 C1.00765625 11.76669922 0.7653125 10.56464844 0.515625 9.32617188 C0 6 0 6 0 0 Z " fill="#0091B6" transform="translate(375,910)"/>
<path d="M0 0 C2.73608935 1.27206434 4.94327597 2.63545126 7.21484375 4.6171875 C7.81159912 5.13514893 8.40835449 5.65311035 9.02319336 6.18676758 C9.65491455 6.74388428 10.28663574 7.30100098 10.9375 7.875 C11.60209229 8.45725342 12.26668457 9.03950684 12.95141602 9.6394043 C22.35861253 17.91428423 31.49357049 26.41166928 40.375 35.25 C41.02911865 35.8994458 41.6832373 36.5488916 42.35717773 37.21801758 C46.77322175 41.64868985 50.92827815 46.2526421 55 51 C56.02066812 52.17592467 57.04149508 53.3517115 58.0625 54.52734375 C59.04207898 55.6637072 60.02124984 56.80042261 61 57.9375 C61.48210937 58.49373047 61.96421875 59.04996094 62.4609375 59.62304688 C69.95298538 68.33403905 76.53831161 77.5509212 82.875 87.125 C83.27184998 87.72326599 83.66869995 88.32153198 84.07757568 88.93792725 C93.51342117 103.17515855 102.08959537 117.35028241 109 133 C109.30147949 133.67224609 109.60295898 134.34449219 109.91357422 135.03710938 C126.12327882 171.43598778 131.84539797 210.42647404 128 250 C128.91422729 249.52602783 128.91422729 249.52602783 129.84692383 249.04248047 C135.68668296 246.06188084 141.55357139 243.4360245 147.6875 241.125 C148.58831299 240.78549316 149.48912598 240.44598633 150.41723633 240.09619141 C184.50708664 227.46857987 220.58169296 219.60092084 257 219 C258.68851074 218.96132813 258.68851074 218.96132813 260.41113281 218.921875 C297.52026947 218.14288499 337.77449357 221.27340694 371.91162109 237.06738281 C374.03814977 238.01703672 376.18610297 238.83121284 378.375 239.625 C383.77503938 241.76269444 388.90750598 244.3994211 394.0625 247.0625 C395.35003174 247.71629639 395.35003174 247.71629639 396.66357422 248.38330078 C397.86844482 249.01534424 397.86844482 249.01534424 399.09765625 249.66015625 C399.82476807 250.03793213 400.55187988 250.41570801 401.30102539 250.80493164 C403 252 403 252 404 255 C402.84559197 257.51235643 401.64046659 259.80947323 400.25 262.1875 C399.84458984 262.89221436 399.43917969 263.59692871 399.02148438 264.32299805 C392.03113394 276.2736863 384.06280287 287.53033603 375 298 C374.30648437 298.804375 373.61296875 299.60875 372.8984375 300.4375 C362.53669012 312.19337339 351.57642971 322.65921948 339 332 C338.44763672 332.41846191 337.89527344 332.83692383 337.32617188 333.26806641 C315.83817071 349.52359975 291.4362102 361.33803306 266 370 C265.27619141 370.24766113 264.55238281 370.49532227 263.80664062 370.75048828 C236.50491207 379.9806739 207.72434279 385.75999755 179 388 C177.70707031 388.11085938 176.41414063 388.22171875 175.08203125 388.3359375 C146.53161042 390.42155561 117.521622 389.01996568 89 387 C86.28495539 393.48309555 83.5952859 399.97600098 80.94140625 406.484375 C69.56268392 434.36353748 57.71299441 461.91624399 44.47119141 488.96777344 C43.085151 491.82449795 41.72863531 494.69264126 40.38671875 497.5703125 C35.27283131 508.53152516 29.7491588 519.18188344 23.88671875 529.76171875 C21.26640073 534.49109432 18.74746381 539.26747903 16.25 544.0625 C12.48824544 551.25464079 8.36674167 558.15837477 4 565 C-29.1341974 559.25267535 -62.81265581 548.79156279 -91 530 C-91 529.34 -91 528.68 -91 528 C-91.556875 527.7525 -92.11375 527.505 -92.6875 527.25 C-95.39861227 525.78453391 -97.61623338 523.94496381 -100 522 C-100.98226563 523.14275391 -100.98226563 523.14275391 -101.984375 524.30859375 C-116.57780623 540.96087179 -134.47129926 550.77598059 -155.03686523 558.25415039 C-156.82433538 558.93326011 -158.57545001 559.7061723 -160.3203125 560.48828125 C-199.86505051 576.73436788 -247.65246875 579.10520768 -289.80859375 579.203125 C-290.65977343 579.20595238 -291.5109531 579.20877975 -292.3879261 579.21169281 C-296.90453501 579.22652051 -301.42111341 579.23584951 -305.93774414 579.24023438 C-309.5739158 579.24458521 -313.20984566 579.25836901 -316.84594727 579.28125 C-341.72426044 579.43439882 -366.24542931 578.52044212 -391 576 C-392.04209625 575.89522339 -393.0841925 575.79044678 -394.15786743 575.68249512 C-399.5967378 575.12344674 -405.01844797 574.47514343 -410.4375 573.75 C-411.21654694 573.64806335 -411.99559387 573.54612671 -412.79824829 573.44110107 C-448.56092237 568.73251907 -483.79327514 561.57855249 -518 550 C-518.67691895 549.77602539 -519.35383789 549.55205078 -520.05126953 549.32128906 C-529.38453197 546.23029385 -538.20026038 542.34918007 -547 538 C-548.21429687 537.40251953 -548.21429687 537.40251953 -549.453125 536.79296875 C-562.85596606 529.76888723 -575.23272408 520.75285105 -582 507 C-582.680625 507.680625 -583.36125 508.36125 -584.0625 509.0625 C-584.52914063 509.52527344 -584.99578125 509.98804688 -585.4765625 510.46484375 C-586.46642958 511.46232519 -587.44149714 512.47479441 -588.3984375 513.50390625 C-630.82527945 558.19207734 -705.85608255 577.22309278 -765.37245178 579.10673523 C-769.17547573 579.16422852 -772.97787287 579.19247524 -776.78125 579.203125 C-777.47664383 579.20595238 -778.17203766 579.20877975 -778.88850403 579.21169281 C-782.58306234 579.22659623 -786.27758264 579.23587627 -789.97216797 579.24023438 C-792.96220365 579.24457954 -795.95194435 579.2583284 -798.94189453 579.28125 C-818.17310386 579.42558131 -836.91734446 578.73777963 -856 576 C-856.75802917 575.89286682 -857.51605835 575.78573364 -858.29705811 575.675354 C-862.27834031 575.10001316 -866.23392802 574.42824616 -870.1875 573.6875 C-871.33637695 573.47585205 -872.48525391 573.2642041 -873.66894531 573.04614258 C-898.12409386 568.41744502 -922.62666044 562.10255948 -945 551 C-946.32853176 550.39618333 -947.65942994 549.79755623 -948.9921875 549.203125 C-967.73629426 540.78133234 -984.2896289 529.59332083 -999.28515625 515.53125 C-1002.44495681 512.58513379 -1005.69414607 509.77992262 -1009 507 C-1009.268125 507.73605469 -1009.53625 508.47210937 -1009.8125 509.23046875 C-1018.91825984 530.46725732 -1048.57600491 540.99620234 -1068.38818359 548.95996094 C-1106.51633714 563.61018742 -1148.57899748 570.00186612 -1188.9375 574.8125 C-1189.75779694 574.91204987 -1190.57809387 575.01159973 -1191.42324829 575.11416626 C-1220.28472957 578.56314146 -1249.19367957 579.35757346 -1278.22875977 579.31567383 C-1281.69959452 579.3110365 -1285.17007923 579.31801551 -1288.64086914 579.33618164 C-1341.10323699 579.60768945 -1401.39777923 577.2602958 -1449 553 C-1449.96679688 552.53980469 -1450.93359375 552.07960938 -1451.9296875 551.60546875 C-1466.32646541 544.66351096 -1479.24443935 535.83502678 -1489 523 C-1492.43134141 524.2322171 -1494.88397512 525.55222516 -1497.625 527.9375 C-1507.71908659 535.98913763 -1519.60958552 542.67259749 -1531.82397461 546.8659668 C-1534.79714886 547.92756987 -1537.66139906 549.1183564 -1540.5546875 550.37890625 C-1546.97830136 553.07461399 -1553.49973888 555.13105653 -1560.1875 557.0625 C-1561.37947998 557.40901611 -1562.57145996 557.75553223 -1563.79956055 558.11254883 C-1605.24830839 570.04301739 -1647.03974437 573.65889963 -1690 573 C-1690.48666153 569.7719187 -1690.96284427 566.54236665 -1691.4375 563.3125 C-1691.57220703 562.41982422 -1691.70691406 561.52714844 -1691.84570312 560.60742188 C-1696.20193978 530.75126333 -1695.50049849 499.83479958 -1694.68060303 469.74017334 C-1694.62754526 467.78146213 -1694.57951504 465.82261667 -1694.53173828 463.86376953 C-1694.29881462 456.36285451 -1693.74810969 448.9577265 -1692.97412109 441.49536133 C-1692.8805986 440.57788368 -1692.78707611 439.66040604 -1692.6907196 438.71512604 C-1692.46227501 436.47656034 -1692.23200088 434.23819943 -1692 432 C-1690.74676678 431.99944384 -1689.49353356 431.99888767 -1688.20232358 431.99831466 C-1645.28901632 431.97925533 -1602.37570926 431.95975469 -1559.46240234 431.93994141 C-1558.1655493 431.9393427 -1558.1655493 431.9393427 -1556.8424972 431.9387319 C-1464.17523892 431.89593894 -1371.5079826 431.85023997 -1278.84072876 431.79867554 C-1276.78156918 431.79753046 -1274.72240959 431.79638539 -1272.66325001 431.79524031 C-1229.4378127 431.77119437 -1186.21237563 431.74674029 -1142.98693882 431.72181495 C-1121.27230509 431.70929394 -1099.55767131 431.69685134 -1077.8430375 431.68448287 C-1074.56753439 431.68261672 -1071.29203129 431.68074833 -1068.01652819 431.67887984 C-1017.59811715 431.65013877 -967.1797059 431.62307568 -916.7612915 431.60089111 C-915.677837 431.60041435 -914.59438249 431.59993759 -913.47809603 431.59944638 C-896.01039372 431.59177013 -878.54269135 431.58423513 -861.07498896 431.57671889 C-810.74234122 431.55505892 -760.40969494 431.53234878 -710.07705116 431.50273705 C-709.04126935 431.50212818 -708.00548754 431.50151932 -706.93831841 431.500892 C-684.19645461 431.48750491 -661.45459117 431.47358105 -638.71272801 431.45914945 C-629.56116711 431.45335147 -620.40960616 431.44763071 -611.2580452 431.44193649 C-610.25646763 431.44131144 -609.25489006 431.44068638 -608.22296166 431.44004238 C-575.99051395 431.41996535 -543.75806732 431.40616558 -511.52561518 431.39568184 C-479.03723243 431.38508598 -446.54885921 431.36828557 -414.06048442 431.34294968 C-409.56329701 431.33944411 -405.06610954 431.33600915 -400.56892204 431.33261681 C-399.68740279 431.3319493 -398.80588354 431.33128179 -397.89765159 431.33059406 C-383.98116072 431.32023862 -370.06467643 431.31652019 -356.14818207 431.31562213 C-342.43858735 431.31459933 -328.72901192 431.30643029 -315.01942586 431.29084408 C-307.69595363 431.28271051 -300.37251331 431.27762491 -293.04903679 431.28172119 C-252.97486298 431.46642808 -252.97486298 431.46642808 -213 429 C-212.16246041 428.91795199 -211.32492082 428.83590398 -210.46200125 428.75136967 C-206.08616951 428.31254122 -201.73110068 427.7910769 -197.375 427.1875 C-196.10035889 427.01500732 -194.82571777 426.84251465 -193.51245117 426.66479492 C-173.83769026 423.93445472 -154.51828952 420.30415798 -135.25 415.5 C-134.504086 415.31458649 -133.758172 415.12917297 -132.98965454 414.93814087 C-122.53538724 412.32287563 -112.2529239 409.3144567 -102 406 C-101.04851074 405.69562012 -100.09702148 405.39124023 -99.11669922 405.07763672 C-80.63782975 399.12922777 -62.42162667 392.60546891 -45 384 C-44.36819824 383.69094727 -43.73639648 383.38189453 -43.08544922 383.06347656 C-39.05305894 381.08887829 -35.04097729 379.0775203 -31.04150391 377.03710938 C-29.68987065 376.35046287 -28.33539414 375.66938226 -26.97802734 374.99414062 C2.63254704 361.23302227 2.63254704 361.23302227 24 339 C23.4225 338.51789063 22.845 338.03578125 22.25 337.5390625 C21.5075 336.90742187 20.765 336.27578125 20 335.625 C19.2575 334.99851562 18.515 334.37203125 17.75 333.7265625 C17.1725 333.15679688 16.595 332.58703125 16 332 C16 331.34 16 330.68 16 330 C15.45472656 329.79632812 14.90945313 329.59265625 14.34765625 329.3828125 C11.0686169 327.45139831 8.85960403 324.7522566 6.4375 321.875 C5.91373779 321.25608887 5.38997559 320.63717773 4.8503418 319.99951172 C-24.66820963 284.50268803 -38.90768065 241.1475238 -45 196 C-45.18006592 194.75742432 -45.18006592 194.75742432 -45.36376953 193.48974609 C-52.58942227 142.97478779 -45.8235308 85.20165552 -24 39 C-23.45283744 37.74939221 -22.90744548 36.49800908 -22.36328125 35.24609375 C-16.61330205 22.25495505 -9.2136967 10.80741721 0 0 Z " fill="#00B2DB" transform="translate(2061,310)"/>
<path d="M0 0 C550.44 0 1100.88 0 1668 0 C1666.92742373 4.29030507 1665.09153297 7.39061205 1662.75 11.0625 C1662.30962402 11.75931885 1661.86924805 12.4561377 1661.41552734 13.17407227 C1655.83302094 21.93316617 1649.93489302 30.477415 1644 39 C1643.49710449 39.7233252 1642.99420898 40.44665039 1642.47607422 41.19189453 C1624.14189295 67.51060872 1604.69697535 93.02377627 1583.87329102 117.42578125 C1581.1033903 120.67488436 1578.41213442 123.97489863 1575.75 127.3125 C1571.25627715 132.84448372 1566.40140723 138.00694839 1561.49121094 143.16723633 C1557.74015722 147.11260138 1554.11161963 151.13604858 1550.54443359 155.24829102 C1548.81512827 157.20968301 1547.00818049 159.06124552 1545.125 160.875 C1542.72480848 163.18691935 1542.72480848 163.18691935 1541 166 C1540.34 166 1539.68 166 1539 166 C1538.78085938 166.54366211 1538.56171875 167.08732422 1538.3359375 167.64746094 C1536.55895085 170.77667207 1534.15895025 173.12685399 1531.625 175.640625 C1531.09986816 176.16767029 1530.57473633 176.69471558 1530.03369141 177.23773193 C1528.92661117 178.34616928 1527.8170167 179.45210046 1526.70507812 180.55566406 C1524.99893025 182.25106301 1523.30375953 183.9569161 1521.609375 185.6640625 C1520.53189108 186.74022558 1519.45378733 187.81576851 1518.375 188.890625 C1517.61243896 189.65925873 1517.61243896 189.65925873 1516.83447266 190.44342041 C1513.22994091 194 1513.22994091 194 1511 194 C1511 194.66 1511 195.32 1511 196 C1509.49609375 197.48046875 1509.49609375 197.48046875 1507.4375 199.1875 C1504.6746132 201.53279758 1502.03320243 203.90829405 1499.5 206.5 C1496.53264677 209.51413582 1493.42654708 212.29917333 1490.22265625 215.05859375 C1487.67023117 217.28804061 1485.18112486 219.58001382 1482.6875 221.875 C1478.2439835 225.92841354 1473.67401903 229.76183877 1468.9921875 233.53515625 C1466.19445632 235.8398147 1463.46830372 238.20499478 1460.74902344 240.60058594 C1454.14489283 246.41318447 1447.36906562 251.89209237 1440.34399414 257.18774414 C1435.59352484 260.76911673 1430.93300037 264.44035014 1426.3125 268.1875 C1419.98273134 273.29592346 1413.47179686 278.07348955 1406.80566406 282.73144531 C1404.99420523 284.00407107 1403.19517796 285.29263157 1401.3984375 286.5859375 C1324.89057712 341.46412467 1240.46101114 385.80057054 1152 418 C1151.30942505 418.25183044 1150.6188501 418.50366089 1149.90734863 418.76312256 C1066.73389452 449.0505968 980.89143069 470.22914128 726 497 C726 496.67 726 496.34 726 496 C727.98 495.67 729.96 495.34 732 495 C731.39341553 494.70456299 730.78683105 494.40912598 730.16186523 494.10473633 C692.99872875 475.93616927 657.44980856 454.74011417 625 429 C624.31180176 428.45601562 623.62360352 427.91203125 622.91455078 427.3515625 C614.96437124 421.04618389 607.24459167 414.57654336 599.84375 407.6328125 C597.67832498 405.62800966 595.49008343 403.69225947 593.25390625 401.76953125 C588.43952887 397.57471365 583.94031419 393.08687595 579.4375 388.5625 C578.62603516 387.75490234 577.81457031 386.94730469 576.97851562 386.11523438 C572.11043703 381.2392977 567.47310168 376.23889779 563 371 C562.01515065 369.87037157 561.02950425 368.74143742 560.04296875 367.61328125 C554.97608293 361.77411591 549.98426997 355.87634128 545.1875 349.8125 C544.74881592 349.27214111 544.31013184 348.73178223 543.8581543 348.17504883 C542.66796875 346.64453125 542.66796875 346.64453125 541 344 C541.33 343.01 541.66 342.02 542 341 C543.15234634 341.08940605 543.15234634 341.08940605 544.32797241 341.18061829 C564.10503013 342.67775731 583.74295593 343.29451672 603.57250977 343.19561768 C606.33170746 343.18470495 609.09085732 343.18519962 611.85007286 343.18561554 C633.02167914 343.18491254 654.0365988 342.50302646 675.125 340.625 C675.86702667 340.55997284 676.60905334 340.49494568 677.37356567 340.427948 C723.45035868 336.38264375 768.766499 329.0126985 813.99066162 319.42584229 C815.7221282 319.05888981 817.4540399 318.69403881 819.18603516 318.32958984 C825.48446116 316.99362971 831.74614253 315.53060145 838 314 C838.69984009 313.82895752 839.39968018 313.65791504 840.12072754 313.48168945 C925.55982114 292.55581623 1008.44670915 263.23180262 1110 218 C1111.09473633 217.50483887 1112.18947266 217.00967773 1113.31738281 216.49951172 C1124.91025418 211.25296306 1136.42558818 205.91037663 1147.76318359 200.13232422 C1150.38391374 198.80565467 1153.01367763 197.49788458 1155.64453125 196.19140625 C1167.27370066 190.41410647 1178.84460501 184.54951273 1190.30126953 178.43701172 C1193.38328767 176.79590816 1196.47111041 175.16595352 1199.55859375 173.53515625 C1213.06836775 166.37488241 1226.38486067 158.96131791 1239.5546875 151.1875 C1244.23874249 148.42815395 1248.97631419 145.78756238 1253.75 143.1875 C1265.20215949 136.91055689 1276.29528125 130.01679475 1287.42480469 123.19042969 C1290.83293252 121.10055086 1294.24816892 119.02247645 1297.6640625 116.9453125 C1312.98357941 107.60605546 1328.04475528 97.91081694 1343 88 C1344.06089844 87.2977832 1345.12179687 86.59556641 1346.21484375 85.87207031 C1358.55608483 77.69618692 1370.84856773 69.4556849 1383 61 C1383.76731445 60.46697266 1384.53462891 59.93394531 1385.32519531 59.38476562 C1397.311072 51.05213474 1409.2074532 42.60405897 1421 34 C1421.75603516 33.44876465 1422.51207031 32.8975293 1423.29101562 32.32958984 C1428.88141625 28.24746706 1434.44838513 24.13469758 1440 20 C1440.95100586 19.29246582 1441.90201172 18.58493164 1442.88183594 17.85595703 C1445.82304932 15.66183301 1448.75638538 13.4575912 1451.6875 11.25 C1452.6153833 10.55801514 1453.5432666 9.86603027 1454.49926758 9.15307617 C1455.34900146 8.50959229 1456.19873535 7.8661084 1457.07421875 7.203125 C1457.83307373 6.63239258 1458.59192871 6.06166016 1459.3737793 5.47363281 C1459.91043213 4.98733398 1460.44708496 4.50103516 1461 4 C1461 3.34 1461 2.68 1461 2 C1011.21 2 561.42 2 98 2 C101.49471125 16.02968579 101.49471125 16.02968579 105.70361328 29.81982422 C105.92470764 30.48141541 106.145802 31.14300659 106.37359619 31.824646 C106.71460358 32.83957123 106.71460358 32.83957123 107.0625 33.875 C107.41607574 34.93367279 107.41607574 34.93367279 107.77679443 36.01373291 C112.46712687 49.99851808 117.92360912 63.55427016 124 77 C124.38365723 77.8569043 124.76731445 78.71380859 125.16259766 79.59667969 C140.0211313 112.59088275 159.33378465 143.93967294 182.9296875 171.41796875 C183.43741699 172.0111792 183.94514648 172.60438965 184.46826172 173.21557617 C185.47255353 174.38554252 186.4818385 175.55124525 187.49658203 176.7121582 C191 180.77962274 191 180.77962274 191 183 C191.66 183 192.32 183 193 183 C194.65625 184.609375 194.65625 184.609375 196.5 186.75 C197.1084375 187.44609375 197.716875 188.1421875 198.34375 188.859375 C199.87976963 190.84460792 200.9723966 192.71872045 202 195 C202.66 195 203.32 195 204 195 C204 195.66 204 196.32 204 197 C204.66 197 205.32 197 206 197 C207.625 198.375 207.625 198.375 209 200 C209 200.66 209 201.32 209 202 C209.66 202 210.32 202 211 202 C211 202.66 211 203.32 211 204 C211.66 204 212.32 204 213 204 C213 204.66 213 205.32 213 206 C213.99 206.33 214.98 206.66 216 207 C216 207.66 216 208.32 216 209 C216.58265625 209.268125 217.1653125 209.53625 217.765625 209.8125 C220.02786601 211.01480991 221.80576318 212.33825913 223.75 214 C224.36359375 214.515625 224.9771875 215.03125 225.609375 215.5625 C227 217 227 217 227 219 C227.53496094 219.22171875 228.06992187 219.4434375 228.62109375 219.671875 C231.80672886 221.45039049 234.35737159 223.83238632 237.0625 226.25 C242.83763173 231.29162048 248.79884589 236.03340863 254.9375 240.625 C255.72970947 241.22860352 256.52191895 241.83220703 257.33813477 242.45410156 C261.82666957 245.77066425 265.51574249 247.87539859 271 249 C271 249.33 271 249.66 271 250 C229.59276931 250.21884694 188.23420531 250.36829046 146.86195374 248.38551331 C141.19647066 248.11894488 135.53929913 247.9302537 129.86811829 247.8482666 C126.65707716 247.79811247 123.44783541 247.70927158 120.23788452 247.61297607 C118.82366427 247.58016151 117.40888322 247.56506543 115.99429321 247.57061768 C110.20033224 247.58837488 105.78082757 247.53882913 101.27636719 243.64648438 C98.95255792 240.86092264 96.95158033 238.05530714 95 235 C94.32155029 234.01563965 93.64310059 233.0312793 92.9440918 232.01708984 C90.90068281 229.04919667 88.9511956 226.02930187 87 223 C86.13642776 221.6855331 85.271787 220.37176775 84.40625 219.05859375 C44.85313265 158.84371474 17.65232328 91.96598329 3 21.5 C2.84575562 20.76258575 2.69151123 20.02517151 2.53259277 19.26541138 C2.09723241 17.16802548 1.67155263 15.06895018 1.25 12.96875 C1.00765625 11.76669922 0.7653125 10.56464844 0.515625 9.32617188 C0 6 0 6 0 0 Z " fill="#0081A7" transform="translate(375,910)"/>
<path d="M0 0 C0.26514404 0.60134766 0.53028809 1.20269531 0.8034668 1.82226562 C16.93193174 38.19637024 36.83602858 72.67587989 62.49023438 103.20214844 C63.92510365 104.9108123 65.34679623 106.62957392 66.765625 108.3515625 C80.50273438 124.92669011 95.49878474 141.1475038 112 155 C113.48113281 156.29744141 113.48113281 156.29744141 114.9921875 157.62109375 C123.36721768 164.94529238 132.04164626 171.79649371 140.94775391 178.46240234 C142.83971331 179.87990892 144.72309253 181.30809305 146.60546875 182.73828125 C176.47255473 205.23098315 209.55594044 223.4463128 243 240 C243 240.33 243 240.66 243 241 C237.52495181 241.77053123 232.22424426 242.1526974 226.69946289 242.16113281 C225.51224813 242.16846546 225.51224813 242.16846546 224.30104923 242.17594624 C221.69157858 242.19029842 219.08215867 242.19714902 216.47265625 242.203125 C214.62140882 242.21004478 212.77016167 242.21703997 210.91891479 242.22410583 C204.96677455 242.24347287 199.01466799 242.24803046 193.0625 242.25 C192.0537746 242.25073643 191.04504921 242.25147285 190.00575638 242.2522316 C159.66726849 242.27034106 129.53414182 241.85449713 99.29345703 239.19598389 C96.4157993 238.95007802 93.53628273 238.73720594 90.65586853 238.52653503 C58.74525441 236.1706231 26.45905929 231.66812062 -4.73046875 224.50244141 C-8.30208573 223.71173704 -11.89897307 223.07776031 -15.5 222.4375 C-22.60883391 221.12185691 -29.59995926 219.47354407 -36.58789062 217.63183594 C-39.30017456 216.92137128 -42.01736643 216.23123157 -44.734375 215.5390625 C-59.41507794 211.74396529 -73.7421273 207.23092667 -88.08203125 202.33203125 C-93.75981869 200.39281649 -99.47085197 198.60474945 -105.22167969 196.89501953 C-108.46987338 195.84863306 -111.48583864 194.5087002 -114.5703125 193.0625 C-117.60166038 191.7368945 -120.68997756 190.65572449 -123.8125 189.5625 C-136.01812371 185.25539824 -147.61854263 179.89357497 -159.27441406 174.30175781 C-162.19608599 172.90634804 -165.12479579 171.52649947 -168.0546875 170.1484375 C-170.09900753 169.18239576 -172.14327914 168.21625157 -174.1875 167.25 C-175.14309814 166.80253418 -176.09869629 166.35506836 -177.08325195 165.89404297 C-181.9962154 163.56195376 -186.63986845 161.07759852 -191.20629883 158.125 C-193.79161144 156.50350544 -196.49989276 155.19245975 -199.25 153.875 C-202.81608649 152.16586528 -205.85464121 150.37918165 -209 148 C-209.99 147.67 -210.98 147.34 -212 147 C-212 146.34 -212 145.68 -212 145 C-213.65 144.67 -215.3 144.34 -217 144 C-217 143.34 -217 142.68 -217 142 C-217.99 141.62875 -217.99 141.62875 -219 141.25 C-222.76360907 139.68182955 -226.3711424 137.85494954 -230 136 C-230 135.34 -230 134.68 -230 134 C-230.99 134 -231.98 134 -233 134 C-233 133.34 -233 132.68 -233 132 C-233.65355469 131.773125 -234.30710937 131.54625 -234.98046875 131.3125 C-238.99823799 129.56609578 -242.60386835 127.31996618 -246.3125 125 C-247.42334961 124.32324219 -247.42334961 124.32324219 -248.55664062 123.6328125 C-249.25595703 123.19710938 -249.95527344 122.76140625 -250.67578125 122.3125 C-251.31427002 121.91675781 -251.95275879 121.52101563 -252.6105957 121.11328125 C-253.06909912 120.74589844 -253.52760254 120.37851563 -254 120 C-254 119.34 -254 118.68 -254 118 C-254.70769531 117.75378906 -255.41539062 117.50757813 -256.14453125 117.25390625 C-259.36660701 115.83901388 -261.87689478 114.0502469 -264.6875 111.9375 C-268.20307017 109.24079956 -268.20307017 109.24079956 -272 107 C-272 106.34 -272 105.68 -272 105 C-273.98 104.505 -273.98 104.505 -276 104 C-276 103.34 -276 102.68 -276 102 C-276.52722656 101.77183594 -277.05445313 101.54367187 -277.59765625 101.30859375 C-280.80981455 99.5588815 -283.5866222 97.33454533 -286.4375 95.0625 C-287.05149658 94.57668457 -287.66549316 94.09086914 -288.2980957 93.59033203 C-293.04930495 89.80909284 -297.7068312 85.92483072 -302.32080078 81.9777832 C-305.60309646 79.17015031 -308.93426135 76.44250662 -312.3125 73.75 C-317.86445851 69.248192 -323.02509696 64.36219685 -328.16723633 59.40332031 C-332.01605553 55.72466555 -335.97218946 52.46800625 -340.27026367 49.32885742 C-342.32664618 47.74905644 -343.94697547 46.02467827 -345.5625 44 C-348.28196673 40.74535217 -351.13776484 38.0021497 -354.421875 35.32421875 C-356.05685684 33.95229092 -357.58003434 32.59532286 -359 31 C-359 30.34 -359 29.68 -359 29 C-359.66 29 -360.32 29 -361 29 C-361 28.34 -361 27.68 -361 27 C-361.66 26.67 -362.32 26.34 -363 26 C-360.64574712 25.97215732 -358.2918452 25.95277379 -355.9375 25.9375 C-354.62652344 25.92589844 -353.31554687 25.91429687 -351.96484375 25.90234375 C-348.03734979 25.93150689 -344.14867123 26.18499487 -340.23193359 26.47192383 C-331.9340361 27.04929778 -323.63836826 27.33029529 -315.32421875 27.546875 C-314.55474096 27.56756798 -313.78526318 27.58826096 -312.99246788 27.60958099 C-295.26679102 28.08023866 -277.5439188 28.2423893 -259.8125 28.25 C-259.01522869 28.25073643 -258.21795738 28.25147285 -257.39652634 28.2522316 C-227.14216492 28.27479096 -197.04806579 27.31009814 -166.85870361 25.19921875 C-164.20154544 25.0140454 -161.54402855 24.83586547 -158.88623047 24.66015625 C-123.17480755 22.26739923 -87.00440263 18.56168964 -52 11 C-50.52685548 10.68424472 -49.05371095 10.36848952 -47.58056641 10.05273438 C-27.30463283 5.82322667 -27.30463283 5.82322667 -7.296875 0.52001953 C-4.79975072 -0.04533705 -2.55203574 -0.09106333 0 0 Z " fill="#B2DAD9" transform="translate(866,1165)"/>
<path d="M0 0 C37.10913665 -0.77899001 77.36336076 2.35153194 111.50048828 18.14550781 C113.62701696 19.09516172 115.77497016 19.90933784 117.96386719 20.703125 C123.36390656 22.84081944 128.49637317 25.4775461 133.65136719 28.140625 C134.50972168 28.57648926 135.36807617 29.01235352 136.25244141 29.46142578 C137.05568848 29.88278809 137.85893555 30.30415039 138.68652344 30.73828125 C139.41363525 31.11605713 140.14074707 31.49383301 140.88989258 31.88305664 C142.58886719 33.078125 142.58886719 33.078125 143.58886719 36.078125 C142.43445915 38.59048143 141.22933377 40.88759823 139.83886719 43.265625 C139.23075195 44.32269653 139.23075195 44.32269653 138.61035156 45.40112305 C131.62000113 57.3518113 123.65167006 68.60846103 114.58886719 79.078125 C113.89535156 79.8825 113.20183594 80.686875 112.48730469 81.515625 C102.12555731 93.27149839 91.16529689 103.73734448 78.58886719 113.078125 C78.03650391 113.49658691 77.48414062 113.91504883 76.91503906 114.34619141 C55.4270379 130.60172475 31.02507738 142.41615806 5.58886719 151.078125 C4.86505859 151.32578613 4.14125 151.57344727 3.39550781 151.82861328 C-23.90622074 161.0587989 -52.68679003 166.83812255 -81.41113281 169.078125 C-82.7040625 169.18898438 -83.99699219 169.29984375 -85.32910156 169.4140625 C-113.87952239 171.49968061 -142.88951081 170.09809068 -171.41113281 168.078125 C-174.12617742 174.56122055 -176.81584691 181.05412598 -179.46972656 187.5625 C-190.84844889 215.44166248 -202.6981384 242.99436899 -215.93994141 270.04589844 C-217.32598182 272.90262295 -218.6824975 275.77076626 -220.02441406 278.6484375 C-225.1383015 289.60965016 -230.66197402 300.26000844 -236.52441406 310.83984375 C-239.14473208 315.56921932 -241.66366901 320.34560403 -244.16113281 325.140625 C-247.92288737 332.33276579 -252.04439115 339.23649977 -256.41113281 346.078125 C-289.54533021 340.33080035 -323.22378862 329.86968779 -351.41113281 311.078125 C-351.41113281 310.418125 -351.41113281 309.758125 -351.41113281 309.078125 C-351.96800781 308.830625 -352.52488281 308.583125 -353.09863281 308.328125 C-355.80974508 306.86265891 -358.02736619 305.02308881 -360.41113281 303.078125 C-361.39339844 304.22087891 -361.39339844 304.22087891 -362.39550781 305.38671875 C-376.98433087 322.03373849 -394.86715283 331.841815 -415.4230957 339.32397461 C-417.35623446 340.05729963 -419.23992904 340.86164587 -421.12988281 341.69921875 C-423.91395704 342.8691928 -426.40235867 343.67637017 -429.34863281 344.265625 C-430.12078125 344.42417969 -430.89292969 344.58273437 -431.68847656 344.74609375 C-432.25695313 344.85566406 -432.82542969 344.96523438 -433.41113281 345.078125 C-430.4480641 342.02246039 -427.3939312 339.10676672 -424.22363281 336.265625 C-423.54945312 335.66105469 -422.87527344 335.05648438 -422.18066406 334.43359375 C-420.41113281 333.078125 -420.41113281 333.078125 -418.41113281 333.078125 C-418.41113281 332.418125 -418.41113281 331.758125 -418.41113281 331.078125 C-416.29394531 329.1328125 -416.29394531 329.1328125 -413.53613281 326.953125 C-412.63121094 326.22867187 -411.72628906 325.50421875 -410.79394531 324.7578125 C-408.41113281 323.078125 -408.41113281 323.078125 -406.41113281 323.078125 C-406.08113281 322.088125 -405.75113281 321.098125 -405.41113281 320.078125 C-400.95398996 316.078125 -400.95398996 316.078125 -398.41113281 316.078125 C-398.41113281 315.418125 -398.41113281 314.758125 -398.41113281 314.078125 C-394.94959435 311.078125 -394.94959435 311.078125 -392.41113281 311.078125 C-392.08113281 310.088125 -391.75113281 309.098125 -391.41113281 308.078125 C-385.94601653 303.078125 -385.94601653 303.078125 -383.41113281 303.078125 C-383.41113281 302.418125 -383.41113281 301.758125 -383.41113281 301.078125 C-378.94054458 297.078125 -378.94054458 297.078125 -376.41113281 297.078125 C-376.08113281 296.088125 -375.75113281 295.098125 -375.41113281 294.078125 C-373.63378906 292.25390625 -373.63378906 292.25390625 -371.47363281 290.390625 C-370.40822266 289.45669922 -370.40822266 289.45669922 -369.32128906 288.50390625 C-367.41113281 287.078125 -367.41113281 287.078125 -365.41113281 287.078125 C-365.41113281 286.418125 -365.41113281 285.758125 -365.41113281 285.078125 C-363.95019531 283.5703125 -363.95019531 283.5703125 -362.03613281 281.953125 C-361.09640625 281.14488281 -361.09640625 281.14488281 -360.13769531 280.3203125 C-358.41113281 279.078125 -358.41113281 279.078125 -356.41113281 279.078125 C-356.08113281 278.088125 -355.75113281 277.098125 -355.41113281 276.078125 C-353.66894531 274.359375 -353.66894531 274.359375 -351.53613281 272.578125 C-348.5572875 270.07547179 -348.5572875 270.07547179 -345.77832031 267.359375 C-344.41113281 266.078125 -344.41113281 266.078125 -342.41113281 266.078125 C-342.41113281 265.418125 -342.41113281 264.758125 -342.41113281 264.078125 C-340.80175781 262.421875 -340.80175781 262.421875 -338.66113281 260.578125 C-337.96503906 259.9696875 -337.26894531 259.36125 -336.55175781 258.734375 C-334.41113281 257.078125 -334.41113281 257.078125 -332.20800781 256.046875 C-330.05480362 255.1507826 -330.05480362 255.1507826 -329.41113281 252.078125 C-328.75113281 252.078125 -328.09113281 252.078125 -327.41113281 252.078125 C-327.41113281 251.418125 -327.41113281 250.758125 -327.41113281 250.078125 C-326.75113281 250.078125 -326.09113281 250.078125 -325.41113281 250.078125 C-325.41113281 249.418125 -325.41113281 248.758125 -325.41113281 248.078125 C-323.94238281 246.6328125 -323.94238281 246.6328125 -321.91113281 244.953125 C-318.06120942 241.69918619 -314.55048947 238.23039782 -311.07519531 234.58203125 C-309.41113281 233.078125 -309.41113281 233.078125 -307.41113281 233.078125 C-307.08113281 232.088125 -306.75113281 231.098125 -306.41113281 230.078125 C-305.75113281 230.078125 -305.09113281 230.078125 -304.41113281 230.078125 C-304.41113281 229.418125 -304.41113281 228.758125 -304.41113281 228.078125 C-303.75113281 228.078125 -303.09113281 228.078125 -302.41113281 228.078125 C-302.41113281 227.418125 -302.41113281 226.758125 -302.41113281 226.078125 C-301.75113281 226.078125 -301.09113281 226.078125 -300.41113281 226.078125 C-300.41113281 225.418125 -300.41113281 224.758125 -300.41113281 224.078125 C-299.75113281 224.078125 -299.09113281 224.078125 -298.41113281 224.078125 C-298.41113281 223.418125 -298.41113281 222.758125 -298.41113281 222.078125 C-297.75113281 222.078125 -297.09113281 222.078125 -296.41113281 222.078125 C-296.41113281 221.418125 -296.41113281 220.758125 -296.41113281 220.078125 C-295.05566406 218.78125 -295.05566406 218.78125 -293.22363281 217.328125 C-290.79938897 215.32654492 -288.94700278 213.52116896 -286.91113281 211.078125 C-284.47939346 208.16003778 -281.96584746 205.93611272 -279.05175781 203.53515625 C-276.88192219 201.60813557 -275.21143454 199.34517162 -273.41113281 197.078125 C-272.75113281 197.078125 -272.09113281 197.078125 -271.41113281 197.078125 C-271.41113281 196.418125 -271.41113281 195.758125 -271.41113281 195.078125 C-270.75113281 195.078125 -270.09113281 195.078125 -269.41113281 195.078125 C-269.41113281 194.418125 -269.41113281 193.758125 -269.41113281 193.078125 C-268.75113281 193.078125 -268.09113281 193.078125 -267.41113281 193.078125 C-267.41113281 192.418125 -267.41113281 191.758125 -267.41113281 191.078125 C-266.75113281 191.078125 -266.09113281 191.078125 -265.41113281 191.078125 C-265.41113281 190.418125 -265.41113281 189.758125 -265.41113281 189.078125 C-264.75113281 189.078125 -264.09113281 189.078125 -263.41113281 189.078125 C-263.1476001 188.48789551 -262.88406738 187.89766602 -262.61254883 187.28955078 C-261.3613658 184.98651973 -260.06308303 183.51451058 -258.18847656 181.6953125 C-257.25745117 180.78072266 -257.25745117 180.78072266 -256.30761719 179.84765625 C-255.66115234 179.22246094 -255.0146875 178.59726562 -254.34863281 177.953125 C-253.06389352 176.70276426 -251.781236 175.45025984 -250.50097656 174.1953125 C-249.93241943 173.64472168 -249.3638623 173.09413086 -248.77807617 172.52685547 C-247.30383376 171.10398488 -247.30383376 171.10398488 -246.41113281 169.078125 C-245.75113281 169.078125 -245.09113281 169.078125 -244.41113281 169.078125 C-244.16492187 168.50320313 -243.91871094 167.92828125 -243.66503906 167.3359375 C-242.21320229 164.72172673 -240.50825732 163.01476292 -238.34863281 160.953125 C-235.49541349 158.299075 -235.49541349 158.299075 -233.41113281 155.078125 C-232.75113281 155.078125 -232.09113281 155.078125 -231.41113281 155.078125 C-231.41113281 154.418125 -231.41113281 153.758125 -231.41113281 153.078125 C-230.75113281 153.078125 -230.09113281 153.078125 -229.41113281 153.078125 C-229.1476001 152.49240723 -228.88406738 151.90668945 -228.61254883 151.30322266 C-227.3601044 148.98361718 -226.00796708 147.37607869 -224.18847656 145.4765625 C-223.56779297 144.82171875 -222.94710937 144.166875 -222.30761719 143.4921875 C-221.66115234 142.81929687 -221.0146875 142.14640625 -220.34863281 141.453125 C-219.06405146 140.10870686 -217.78140179 138.76243953 -216.50097656 137.4140625 C-215.93241943 136.82157715 -215.3638623 136.2290918 -214.77807617 135.61865234 C-213.31729318 134.10638521 -213.31729318 134.10638521 -212.41113281 132.078125 C-211.75113281 132.078125 -211.09113281 132.078125 -210.41113281 132.078125 C-210.16363281 131.52125 -209.91613281 130.964375 -209.66113281 130.390625 C-208.18188463 127.65401587 -206.47645842 125.40161631 -204.41113281 123.078125 C-203.75113281 123.078125 -203.09113281 123.078125 -202.41113281 123.078125 C-202.17523437 122.52382813 -201.93933594 121.96953125 -201.69628906 121.3984375 C-200.09848732 118.51365258 -198.09262272 116.36640468 -195.84863281 113.953125 C-192.77394095 110.76304991 -192.77394095 110.76304991 -190.41113281 107.078125 C-189.75113281 107.078125 -189.09113281 107.078125 -188.41113281 107.078125 C-188.16363281 106.52640625 -187.91613281 105.9746875 -187.66113281 105.40625 C-186.16878807 102.62675793 -184.37440758 100.2966543 -182.41113281 97.828125 C-181.70988281 96.93609375 -181.00863281 96.0440625 -180.28613281 95.125 C-179.66738281 94.44953125 -179.04863281 93.7740625 -178.41113281 93.078125 C-177.75113281 93.078125 -177.09113281 93.078125 -176.41113281 93.078125 C-176.19328125 92.54960938 -175.97542969 92.02109375 -175.75097656 91.4765625 C-173.91299153 88.18640854 -171.45757517 85.5117045 -168.97363281 82.703125 C-164.77460297 77.88521066 -160.7042529 73.00227059 -156.78613281 67.953125 C-153.40199324 63.59424218 -149.96349873 59.30286301 -146.41113281 55.078125 C-142.71510775 50.67359673 -139.09652229 46.21804249 -135.53613281 41.703125 C-134.85744141 40.84654297 -134.85744141 40.84654297 -134.16503906 39.97265625 C-132.08373766 37.31977357 -130.16578175 34.69574768 -128.34082031 31.8515625 C-125.61174718 27.92921042 -122.65195448 25.9853605 -118.23535156 24.28125 C-117.41977783 23.96591309 -116.6042041 23.65057617 -115.76391602 23.32568359 C-114.88437256 22.99648926 -114.0048291 22.66729492 -113.09863281 22.328125 C-112.17074951 21.97959473 -111.24286621 21.63106445 -110.28686523 21.27197266 C-74.73804627 8.14103274 -37.88000691 0.86756386 0 0 Z " fill="#00A3C8" transform="translate(2321.4111328125,528.921875)"/>
<path d="M0 0 C64.02 0 128.04 0 194 0 C194 64.02 194 128.04 194 194 C129.98 194 65.96 194 0 194 C0 129.98 0 65.96 0 0 Z " fill="#00B8DC" transform="translate(1233,514)"/>
<path d="M0 0 C64.02 0 128.04 0 194 0 C194 64.02 194 128.04 194 194 C129.98 194 65.96 194 0 194 C0 129.98 0 65.96 0 0 Z " fill="#00B9DD" transform="translate(787,514)"/>
<path d="M0 0 C64.02 0 128.04 0 194 0 C194 64.02 194 128.04 194 194 C129.98 194 65.96 194 0 194 C0 129.98 0 65.96 0 0 Z " fill="#00B8DC" transform="translate(1233,67)"/>
<path d="M0 0 C64.02 0 128.04 0 194 0 C194 64.02 194 128.04 194 194 C129.98 194 65.96 194 0 194 C0 129.98 0 65.96 0 0 Z " fill="#00A0C5" transform="translate(1010,514)"/>
<path d="M0 0 C64.02 0 128.04 0 194 0 C194 63.69 194 127.38 194 193 C129.98 193 65.96 193 0 193 C0 129.31 0 65.62 0 0 Z " fill="#00B8DC" transform="translate(1010,291)"/>
<path d="M0 0 C63.69 0 127.38 0 193 0 C193 63.69 193 127.38 193 193 C188.61252416 193.87749517 184.68790862 194.13824263 180.26152039 194.12025452 C179.49139618 194.12111053 178.72127197 194.12196655 177.92781067 194.12284851 C175.34337031 194.12450154 172.75899497 194.11898356 170.17456055 194.11352539 C168.29163776 194.11321902 166.40871486 194.11335261 164.52579212 194.11389065 C159.48315024 194.11411642 154.44053209 194.10832026 149.39789581 194.10128021 C144.66618271 194.09558558 139.93447538 194.09531711 135.20275879 194.09460449 C121.36433605 194.08935702 107.52591773 194.07539588 93.6875 194.0625 C62.770625 194.041875 31.85375 194.02125 0 194 C0 129.98 0 65.96 0 0 Z " fill="#00A0C4" transform="translate(564,514)"/>
<path d="M0 0 C63.69 0 127.38 0 193 0 C193 63.69 193 127.38 193 193 C188.61252416 193.87749517 184.68790862 194.13824263 180.26152039 194.12025452 C179.49139618 194.12111053 178.72127197 194.12196655 177.92781067 194.12284851 C175.34337031 194.12450154 172.75899497 194.11898356 170.17456055 194.11352539 C168.29163776 194.11321902 166.40871486 194.11335261 164.52579212 194.11389065 C159.48315024 194.11411642 154.44053209 194.10832026 149.39789581 194.10128021 C144.66618271 194.09558558 139.93447538 194.09531711 135.20275879 194.09460449 C121.36433605 194.08935702 107.52591773 194.07539588 93.6875 194.0625 C62.770625 194.041875 31.85375 194.02125 0 194 C0 129.98 0 65.96 0 0 Z " fill="#00A0C5" transform="translate(1457,514)"/>
<path d="M0 0 C63.69 0 127.38 0 193 0 C193 63.69 193 127.38 193 193 C129.31 193 65.62 193 0 193 C-0.64142873 187.22714144 -1.14596346 181.81809647 -1.12698364 176.06643677 C-1.12854363 175.32174066 -1.13010362 174.57704456 -1.13171089 173.80978191 C-1.13566262 171.34338195 -1.13255416 168.87704482 -1.12939453 166.41064453 C-1.13075109 164.63095565 -1.13253246 162.85126705 -1.13470459 161.07157898 C-1.13924661 156.26007343 -1.13750321 151.44858943 -1.1343255 146.63708353 C-1.13178755 141.59764455 -1.13414322 136.55820737 -1.13571167 131.51876831 C-1.13752817 123.06394114 -1.13513963 114.60912272 -1.13037109 106.15429688 C-1.12491891 96.37426465 -1.12670015 86.59425323 -1.1321975 76.8142215 C-1.13673084 68.41321164 -1.13737841 60.01220805 -1.13475883 51.61119735 C-1.13319864 46.59498304 -1.13299549 41.57877853 -1.13629532 36.56256485 C-1.13917758 31.85281457 -1.13719178 27.14309125 -1.13140106 22.43334389 C-1.13007583 20.70271029 -1.13046358 18.97207443 -1.13266373 17.24144173 C-1.13538422 14.88481734 -1.13198313 12.52828016 -1.12698364 10.17166138 C-1.13032973 9.13758532 -1.13032973 9.13758532 -1.13374341 8.08261883 C-1.12141492 5.09987044 -0.95229777 2.85689332 0 0 Z " fill="#00A0C5" transform="translate(1234,291)"/>
<path d="M0 0 C63.69 0 127.38 0 193 0 C193 63.69 193 127.38 193 193 C129.31 193 65.62 193 0 193 C0 129.31 0 65.62 0 0 Z " fill="#00A1C6" transform="translate(787,291)"/>
<path d="M0 0 C28.05 0 56.1 0 85 0 C85 10.89 85 21.78 85 33 C85.20495655 39.78285627 85.43466927 46.54082921 85.8125 53.3125 C85.85634827 54.14066223 85.90019653 54.96882446 85.94537354 55.82208252 C87.06958617 76.89694187 89.25942223 97.74139785 92.72998047 118.56787109 C93.58815077 123.7897327 94.21649949 128.70696079 94 134 C63.22852382 140.01371489 33.24120539 141.47915959 2 141 C1.51333847 137.7719187 1.03715573 134.54236665 0.5625 131.3125 C0.36043945 129.97348633 0.36043945 129.97348633 0.15429688 128.60742188 C-4.20193978 98.75126333 -3.50049849 67.83479958 -2.68060303 37.74017334 C-2.62754526 35.78146213 -2.57951504 33.82261667 -2.53173828 31.86376953 C-2.1980456 21.11775759 -1.07785717 10.77857165 0 0 Z " fill="#00A2C7" transform="translate(369,742)"/>
<path d="M0 0 C1.41408966 1.18691641 2.8110171 2.39466876 4.1875 3.625 C4.81398438 4.17027344 5.44046875 4.71554687 6.0859375 5.27734375 C15.08219523 13.6253995 20.80162324 25.1209715 21.5703125 37.37890625 C22.17143514 54.53050339 17.97502587 68.94216631 6.1484375 81.75 C-5.24902801 92.64797499 -19.18673081 97.08146038 -34.6328125 96.83984375 C-48.42415996 96.33543509 -61.05080858 90.26253637 -70.8125 80.625 C-82.43676758 66.51894217 -86.30740199 51.65924313 -84.8125 33.625 C-83.9442666 29.35933153 -82.61955792 25.57793921 -80.8125 21.625 C-80.461875 20.83996094 -80.11125 20.05492187 -79.75 19.24609375 C-72.66564426 5.10198072 -60.7421979 -3.43069144 -46.109375 -8.4296875 C-30.35740286 -12.94624823 -13.13762704 -9.94259189 0 0 Z " fill="#B5DDDB" transform="translate(1000.8125,1031.375)"/>
<path d="M0 0 C0.78890625 -0.00322266 1.5778125 -0.00644531 2.390625 -0.00976562 C9.40481594 0.0554 9.40481594 0.0554 12.75 2.3125 C11.945625 3.323125 11.14125 4.33375 10.3125 5.375 C7.72949714 9.04713227 6.75 11.72777337 6.75 16.3125 C7.66149723 21.02190236 8.82591657 24.38841657 12.25 27.8125 C16.63708673 30.44475204 20.73051844 30.84587945 25.75 30.3125 C29.97221043 28.68857291 32.73953899 26.6703219 35.75 23.3125 C40.38010688 33.81121972 38.89969879 44.15951862 34.8671875 54.59765625 C30.09013573 65.01484058 21.97705183 71.0414263 11.4375 75.1875 C1.39399886 78.14043079 -8.89520231 76.75406361 -18.25 72.3125 C-28.77803499 65.91469412 -34.37176979 56.95743038 -37.83984375 45.3359375 C-39.84466857 35.44546838 -37.76388986 25.9027793 -32.375 17.5 C-24.22030216 6.09945192 -14.13698601 -0.29452054 0 0 Z " fill="#2B4448" transform="translate(968.25,1036.6875)"/>
<path d="M0 0 C5.28 0 10.56 0 16 0 C16 53.46 16 106.92 16 162 C10.72 162 5.44 162 0 162 C0 108.54 0 55.08 0 0 Z " fill="#27454A" transform="translate(1366,83)"/>
<path d="M0 0 C5.28 0 10.56 0 16 0 C16 53.13 16 106.26 16 161 C10.72 161 5.44 161 0 161 C0 107.87 0 54.74 0 0 Z " fill="#294347" transform="translate(1531,530)"/>
<path d="M0 0 C5.28 0 10.56 0 16 0 C16 53.13 16 106.26 16 161 C10.72 161 5.44 161 0 161 C0 107.87 0 54.74 0 0 Z " fill="#27454A" transform="translate(1366,530)"/>
<path d="M0 0 C5.28 0 10.56 0 16 0 C16 53.13 16 106.26 16 161 C10.72 161 5.44 161 0 161 C0 107.87 0 54.74 0 0 Z " fill="#24474D" transform="translate(1172,530)"/>
<path d="M0 0 C5.28 0 10.56 0 16 0 C16 53.13 16 106.26 16 161 C10.72 161 5.44 161 0 161 C0 107.87 0 54.74 0 0 Z " fill="#294347" transform="translate(1143,530)"/>
<path d="M0 0 C5.28 0 10.56 0 16 0 C16 53.13 16 106.26 16 161 C10.72 161 5.44 161 0 161 C0 107.87 0 54.74 0 0 Z " fill="#294347" transform="translate(1055,530)"/>
<path d="M0 0 C5.28 0 10.56 0 16 0 C16 53.13 16 106.26 16 161 C10.72 161 5.44 161 0 161 C0 107.87 0 54.74 0 0 Z " fill="#24474D" transform="translate(1026,530)"/>
<path d="M0 0 C5.28 0 10.56 0 16 0 C16 53.13 16 106.26 16 161 C10.72 161 5.44 161 0 161 C0 107.87 0 54.74 0 0 Z " fill="#27454A" transform="translate(920,530)"/>
<path d="M0 0 C5.28 0 10.56 0 16 0 C16 53.13 16 106.26 16 161 C10.72 161 5.44 161 0 161 C0 107.87 0 54.74 0 0 Z " fill="#27454A" transform="translate(832,530)"/>
<path d="M0 0 C5.28 0 10.56 0 16 0 C16 53.13 16 106.26 16 161 C10.72 161 5.44 161 0 161 C0 107.87 0 54.74 0 0 Z " fill="#284448" transform="translate(667,530)"/>
<path d="M0 0 C5.28 0 10.56 0 16 0 C16 53.13 16 106.26 16 161 C10.72 161 5.44 161 0 161 C0 107.87 0 54.74 0 0 Z " fill="#284348" transform="translate(1337,530)"/>
<path d="M0 0 C5.28 0 10.56 0 16 0 C16 53.13 16 106.26 16 161 C10.72 161 5.44 161 0 161 C0 107.87 0 54.74 0 0 Z " fill="#284348" transform="translate(861,530)"/>
<path d="M0 0 C5.28 0 10.56 0 16 0 C16 53.13 16 106.26 16 161 C10.72 161 5.44 161 0 161 C0 107.87 0 54.74 0 0 Z " fill="#27454A" transform="translate(1366,307)"/>
<path d="M0 0 C5.28 0 10.56 0 16 0 C16 53.13 16 106.26 16 161 C10.72 161 5.44 161 0 161 C0 107.87 0 54.74 0 0 Z " fill="#294347" transform="translate(1337,307)"/>
<path d="M0 0 C5.28 0 10.56 0 16 0 C16 53.13 16 106.26 16 161 C10.72 161 5.44 161 0 161 C0 107.87 0 54.74 0 0 Z " fill="#27454A" transform="translate(1278,307)"/>
<path d="M0 0 C5.28 0 10.56 0 16 0 C16 53.13 16 106.26 16 161 C10.72 161 5.44 161 0 161 C0 107.87 0 54.74 0 0 Z " fill="#2A4347" transform="translate(1143,307)"/>
<path d="M0 0 C5.28 0 10.56 0 16 0 C16 53.13 16 106.26 16 161 C10.72 161 5.44 161 0 161 C0 107.87 0 54.74 0 0 Z " fill="#294348" transform="translate(1055,307)"/>
<path d="M0 0 C5.28 0 10.56 0 16 0 C16 53.13 16 106.26 16 161 C10.72 161 5.44 161 0 161 C0 107.87 0 54.74 0 0 Z " fill="#27454A" transform="translate(920,307)"/>
<path d="M0 0 C5.28 0 10.56 0 16 0 C16 53.13 16 106.26 16 161 C10.72 161 5.44 161 0 161 C0 107.87 0 54.74 0 0 Z " fill="#27454A" transform="translate(890,307)"/>
<path d="M0 0 C5.28 0 10.56 0 16 0 C16 53.13 16 106.26 16 161 C10.72 161 5.44 161 0 161 C0 107.87 0 54.74 0 0 Z " fill="#284348" transform="translate(1337,84)"/>
<path d="M0 0 C5.28 0 10.56 0 16 0 C16 53.13 16 106.26 16 161 C11.05 161 6.1 161 1 161 C0 160 0 160 -0.12304783 157.37817287 C-0.12212604 156.19919965 -0.12120424 155.02022642 -0.12025452 153.80552673 C-0.12110894 153.15130393 -0.12196337 152.49708113 -0.12284368 151.82303339 C-0.12450028 149.61498657 -0.11897421 147.40701452 -0.11352539 145.19897461 C-0.11324353 143.62249249 -0.11340123 142.04601024 -0.1139679 140.4695282 C-0.11425592 136.17632451 -0.1083584 131.88314851 -0.10139394 127.58995128 C-0.09516121 123.10827317 -0.09455667 118.62659449 -0.09336853 114.14491272 C-0.09025497 105.65219091 -0.08204126 97.15948191 -0.07201904 88.66676575 C-0.06085866 79.00066461 -0.05534764 69.33456288 -0.05032361 59.66845691 C-0.03985866 39.77896392 -0.02205835 19.88948322 0 0 Z " fill="#294347" transform="translate(861,307)"/>
<path d="M0 0 C1.39456452 0.00667256 2.78911118 0.01863093 4.18359375 0.03515625 C4.89451172 0.03966797 5.60542969 0.04417969 6.33789062 0.04882812 C8.09899388 0.06064761 9.86005411 0.07858362 11.62109375 0.09765625 C11.64444899 20.35117425 11.66208585 40.60468952 11.67290592 60.85821819 C11.67806329 70.26217283 11.68509537 79.66611909 11.6965332 89.07006836 C11.70649709 97.26606989 11.71295125 105.46206535 11.71518224 113.65807277 C11.71648645 117.99820347 11.719554 122.33831685 11.72682381 126.678442 C11.73361088 130.76346534 11.73570522 134.84846421 11.73420143 138.93349266 C11.73447655 140.43268466 11.73646574 141.93187748 11.74029922 143.43106461 C11.74527834 145.47871051 11.74348155 147.52636954 11.74134827 149.57402039 C11.74227006 150.71980906 11.74319185 151.86559774 11.74414158 153.04610729 C11.62109375 156.09765625 11.62109375 156.09765625 10.62109375 161.09765625 C5.67109375 161.09765625 0.72109375 161.09765625 -4.37890625 161.09765625 C-4.40202336 140.25351985 -4.41988451 119.40938653 -4.43071842 98.56523991 C-4.43588178 88.88764574 -4.44292522 79.21005967 -4.4543457 69.5324707 C-4.46429134 61.10065294 -4.47075939 52.66884104 -4.47299474 44.23701757 C-4.47430206 39.76958233 -4.4773892 35.30216385 -4.48463631 30.83473396 C-4.49139463 26.63481465 -4.4935236 22.43491912 -4.49201393 18.23499489 C-4.49229034 16.68897116 -4.49429658 15.14294669 -4.49811172 13.59692764 C-4.50304605 11.49529849 -4.50190553 9.39376053 -4.49916077 7.29212952 C-4.50008256 6.11315629 -4.50100435 4.93418306 -4.50195408 3.71948338 C-4.31680395 -0.22558112 -4.0608765 0.11736637 0 0 Z " fill="#274549" transform="translate(1594.37890625,529.90234375)"/>
<path d="M0 0 C4.95 0 9.9 0 15 0 C15 53.13 15 106.26 15 161 C10.05 161 5.1 161 0 161 C0 107.87 0 54.74 0 0 Z " fill="#294347" transform="translate(1619,530)"/>
<path d="M0 0 C4.95 0 9.9 0 15 0 C15 53.13 15 106.26 15 161 C10.05 161 5.1 161 0 161 C0 107.87 0 54.74 0 0 Z " fill="#2A4347" transform="translate(1396,307)"/>
<path d="M0 0 C4.95 0 9.9 0 15 0 C15 53.13 15 106.26 15 161 C10.05 161 5.1 161 0 161 C0 107.87 0 54.74 0 0 Z " fill="#2A4347" transform="translate(1308,307)"/>
<path d="M0 0 C4.95 0 9.9 0 15 0 C15 53.13 15 106.26 15 161 C10.05 161 5.1 161 0 161 C0 107.87 0 54.74 0 0 Z " fill="#2A4347" transform="translate(1250,307)"/>
<path d="M0 0 C4.95 0 9.9 0 15 0 C15 53.13 15 106.26 15 161 C10.05 161 5.1 161 0 161 C0 107.87 0 54.74 0 0 Z " fill="#27454A" transform="translate(1173,307)"/>
<path d="M0 0 C4.95 0 9.9 0 15 0 C15 53.13 15 106.26 15 161 C10.05 161 5.1 161 0 161 C0 107.87 0 54.74 0 0 Z " fill="#2A4347" transform="translate(1114,307)"/>
<path d="M0 0 C4.95 0 9.9 0 15 0 C15 53.13 15 106.26 15 161 C10.05 161 5.1 161 0 161 C0 107.87 0 54.74 0 0 Z " fill="#2A4347" transform="translate(1085,307)"/>
<path d="M0 0 C4.95 0 9.9 0 15 0 C15 53.13 15 106.26 15 161 C10.05 161 5.1 161 0 161 C0 107.87 0 54.74 0 0 Z " fill="#27454A" transform="translate(1027,307)"/>
<path d="M0 0 C4.95 0 9.9 0 15 0 C15 53.13 15 106.26 15 161 C10.05 161 5.1 161 0 161 C0 107.87 0 54.74 0 0 Z " fill="#2A4347" transform="translate(832,307)"/>
<path d="M0 0 C4.95 0 9.9 0 15 0 C15 53.13 15 106.26 15 161 C10.05 161 5.1 161 0 161 C0 107.87 0 54.74 0 0 Z " fill="#294347" transform="translate(803,307)"/>
<path d="M0 0 C4.95 0 9.9 0 15 0 C15 53.13 15 106.26 15 161 C10.05 161 5.1 161 0 161 C0 107.87 0 54.74 0 0 Z " fill="#294347" transform="translate(1396,84)"/>
<path d="M0 0 C4.95 0 9.9 0 15 0 C15 53.13 15 106.26 15 161 C10.05 161 5.1 161 0 161 C0 107.87 0 54.74 0 0 Z " fill="#294347" transform="translate(1250,84)"/>
<path d="M0 0 C4.62 0 9.24 0 14 0 C15 1 15 1 15.12304783 3.62182713 C15.12166514 5.39028697 15.12166514 5.39028697 15.12025452 7.19447327 C15.12110894 7.84869607 15.12196337 8.50291887 15.12284368 9.17696661 C15.12450028 11.38501343 15.11897421 13.59298548 15.11352539 15.80102539 C15.11324353 17.37750751 15.11340123 18.95398976 15.1139679 20.5304718 C15.11425592 24.82367549 15.1083584 29.11685149 15.10139394 33.41004872 C15.09516121 37.89172683 15.09455667 42.37340551 15.09336853 46.85508728 C15.09025497 55.34780909 15.08204126 63.84051809 15.07201904 72.33323425 C15.06085866 81.99933539 15.05534764 91.66543712 15.05032361 101.33154309 C15.03985866 121.22103608 15.02205835 141.11051678 15 161 C10.05 161 5.1 161 0 161 C0 107.87 0 54.74 0 0 Z " fill="#294347" transform="translate(1473,530)"/>
<path d="M0 0 C4.62 0 9.24 0 14 0 C14 53.13 14 106.26 14 161 C9.05 161 4.1 161 -1 161 C-1.02311711 140.1558636 -1.04097826 119.31173028 -1.05181217 98.46758366 C-1.05697553 88.78998949 -1.06401897 79.11240342 -1.07543945 69.43481445 C-1.08538509 61.00299669 -1.09185314 52.57118479 -1.09408849 44.13936132 C-1.09539581 39.67192608 -1.09848295 35.2045076 -1.10573006 30.73707771 C-1.11248838 26.5371584 -1.11461735 22.33726287 -1.11310768 18.13733864 C-1.11338409 16.59131491 -1.11539033 15.04529044 -1.11920547 13.49927139 C-1.1241398 11.39764224 -1.12299928 9.29610428 -1.12025452 7.19447327 C-1.12117631 6.01550004 -1.1220981 4.83652681 -1.12304783 3.62182713 C-1 1 -1 1 0 0 Z " fill="#294347" transform="translate(1397,530)"/>
<path d="M0 0 C4.62 0 9.24 0 14 0 C14 53.13 14 106.26 14 161 C9.05 161 4.1 161 -1 161 C-1.02311711 140.1558636 -1.04097826 119.31173028 -1.05181217 98.46758366 C-1.05697553 88.78998949 -1.06401897 79.11240342 -1.07543945 69.43481445 C-1.08538509 61.00299669 -1.09185314 52.57118479 -1.09408849 44.13936132 C-1.09539581 39.67192608 -1.09848295 35.2045076 -1.10573006 30.73707771 C-1.11248838 26.5371584 -1.11461735 22.33726287 -1.11310768 18.13733864 C-1.11338409 16.59131491 -1.11539033 15.04529044 -1.11920547 13.49927139 C-1.1241398 11.39764224 -1.12299928 9.29610428 -1.12025452 7.19447327 C-1.12117631 6.01550004 -1.1220981 4.83652681 -1.12304783 3.62182713 C-1 1 -1 1 0 0 Z " fill="#294347" transform="translate(1280,530)"/>
<path d="M0 0 C4.62 0 9.24 0 14 0 C14 53.13 14 106.26 14 161 C9.05 161 4.1 161 -1 161 C-1.02311711 140.1558636 -1.04097826 119.31173028 -1.05181217 98.46758366 C-1.05697553 88.78998949 -1.06401897 79.11240342 -1.07543945 69.43481445 C-1.08538509 61.00299669 -1.09185314 52.57118479 -1.09408849 44.13936132 C-1.09539581 39.67192608 -1.09848295 35.2045076 -1.10573006 30.73707771 C-1.11248838 26.5371584 -1.11461735 22.33726287 -1.11310768 18.13733864 C-1.11338409 16.59131491 -1.11539033 15.04529044 -1.11920547 13.49927139 C-1.1241398 11.39764224 -1.12299928 9.29610428 -1.12025452 7.19447327 C-1.12117631 6.01550004 -1.1220981 4.83652681 -1.12304783 3.62182713 C-1 1 -1 1 0 0 Z " fill="#294347" transform="translate(1251,530)"/>
<path d="M0 0 C4.62 0 9.24 0 14 0 C14 53.13 14 106.26 14 161 C9.05 161 4.1 161 -1 161 C-1.02311711 140.1558636 -1.04097826 119.31173028 -1.05181217 98.46758366 C-1.05697553 88.78998949 -1.06401897 79.11240342 -1.07543945 69.43481445 C-1.08538509 61.00299669 -1.09185314 52.57118479 -1.09408849 44.13936132 C-1.09539581 39.67192608 -1.09848295 35.2045076 -1.10573006 30.73707771 C-1.11248838 26.5371584 -1.11461735 22.33726287 -1.11310768 18.13733864 C-1.11338409 16.59131491 -1.11539033 15.04529044 -1.11920547 13.49927139 C-1.1241398 11.39764224 -1.12299928 9.29610428 -1.12025452 7.19447327 C-1.12117631 6.01550004 -1.1220981 4.83652681 -1.12304783 3.62182713 C-1 1 -1 1 0 0 Z " fill="#294347" transform="translate(727,530)"/>
<path d="M0 0 C4.62 0 9.24 0 14 0 C14 53.13 14 106.26 14 161 C9.05 161 4.1 161 -1 161 C-1.02311711 140.1558636 -1.04097826 119.31173028 -1.05181217 98.46758366 C-1.05697553 88.78998949 -1.06401897 79.11240342 -1.07543945 69.43481445 C-1.08538509 61.00299669 -1.09185314 52.57118479 -1.09408849 44.13936132 C-1.09539581 39.67192608 -1.09848295 35.2045076 -1.10573006 30.73707771 C-1.11248838 26.5371584 -1.11461735 22.33726287 -1.11310768 18.13733864 C-1.11338409 16.59131491 -1.11539033 15.04529044 -1.11920547 13.49927139 C-1.1241398 11.39764224 -1.12299928 9.29610428 -1.12025452 7.19447327 C-1.12117631 6.01550004 -1.1220981 4.83652681 -1.12304783 3.62182713 C-1 1 -1 1 0 0 Z " fill="#294347" transform="translate(581,530)"/>
<path d="M0 0 C4.95 0 9.9 0 15 0 C15 53.13 15 106.26 15 161 C10.38 161 5.76 161 1 161 C0 160 0 160 -0.12304783 157.37817287 C-0.12212604 156.19919965 -0.12120424 155.02022642 -0.12025452 153.80552673 C-0.12110894 153.15130393 -0.12196337 152.49708113 -0.12284368 151.82303339 C-0.12450028 149.61498657 -0.11897421 147.40701452 -0.11352539 145.19897461 C-0.11324353 143.62249249 -0.11340123 142.04601024 -0.1139679 140.4695282 C-0.11425592 136.17632451 -0.1083584 131.88314851 -0.10139394 127.58995128 C-0.09516121 123.10827317 -0.09455667 118.62659449 -0.09336853 114.14491272 C-0.09025497 105.65219091 -0.08204126 97.15948191 -0.07201904 88.66676575 C-0.06085866 79.00066461 -0.05534764 69.33456288 -0.05032361 59.66845691 C-0.03985866 39.77896392 -0.02205835 19.88948322 0 0 Z " fill="#294347" transform="translate(949,307)"/>
<path d="M0 0 C4.95 0 9.9 0 15 0 C15.02311711 20.8441364 15.04097826 41.68826972 15.05181217 62.53241634 C15.05697553 72.21001051 15.06401897 81.88759658 15.07543945 91.56518555 C15.08538509 99.99700331 15.09185314 108.42881521 15.09408849 116.86063868 C15.09539581 121.32807392 15.09848295 125.7954924 15.10573006 130.26292229 C15.11248838 134.4628416 15.11461735 138.66273713 15.11310768 142.86266136 C15.11338409 144.40868509 15.11539033 145.95470956 15.11920547 147.50072861 C15.1241398 149.60235776 15.12299928 151.70389572 15.12025452 153.80552673 C15.12117631 154.98449996 15.1220981 156.16347319 15.12304783 157.37817287 C15 160 15 160 14 161 C9.38 161 4.76 161 0 161 C0 107.87 0 54.74 0 0 Z " fill="#294347" transform="translate(1308,84)"/>
<path d="M0 0 C4.95 0 9.9 0 15 0 C15 53.13 15 106.26 15 161 C10.38 161 5.76 161 1 161 C0 160 0 160 -0.12304783 157.37817287 C-0.12212604 156.19919965 -0.12120424 155.02022642 -0.12025452 153.80552673 C-0.12110894 153.15130393 -0.12196337 152.49708113 -0.12284368 151.82303339 C-0.12450028 149.61498657 -0.11897421 147.40701452 -0.11352539 145.19897461 C-0.11324353 143.62249249 -0.11340123 142.04601024 -0.1139679 140.4695282 C-0.11425592 136.17632451 -0.1083584 131.88314851 -0.10139394 127.58995128 C-0.09516121 123.10827317 -0.09455667 118.62659449 -0.09336853 114.14491272 C-0.09025497 105.65219091 -0.08204126 97.15948191 -0.07201904 88.66676575 C-0.06085866 79.00066461 -0.05534764 69.33456288 -0.05032361 59.66845691 C-0.03985866 39.77896392 -0.02205835 19.88948322 0 0 Z " fill="#294347" transform="translate(1279,84)"/>
<path d="M0 0 C1.1859375 0.00257813 2.371875 0.00515625 3.59375 0.0078125 C4.7796875 0.00523437 5.965625 0.00265625 7.1875 0 C10.09375 0.1328125 10.09375 0.1328125 11.09375 1.1328125 C11.19056822 3.19575528 11.21561923 5.26207292 11.21400452 7.32728577 C11.21485894 7.98150857 11.21571337 8.63573137 11.21659368 9.30977911 C11.21825028 11.51782593 11.21272421 13.72579798 11.20727539 15.93383789 C11.20699353 17.51032001 11.20715123 19.08680226 11.2077179 20.6632843 C11.20800592 24.95648799 11.2021084 29.24966399 11.19514394 33.54286122 C11.18891121 38.02453933 11.18830667 42.50621801 11.18711853 46.98789978 C11.18400497 55.48062159 11.17579126 63.97333059 11.16576904 72.46604675 C11.15460866 82.13214789 11.14909764 91.79824962 11.14407361 101.46435559 C11.13360866 121.35384858 11.11580835 141.24332928 11.09375 161.1328125 C6.14375 161.1328125 1.19375 161.1328125 -3.90625 161.1328125 C-3.92936711 140.2886761 -3.94722826 119.44454278 -3.95806217 98.60039616 C-3.96322553 88.92280199 -3.97026897 79.24521592 -3.98168945 69.56762695 C-3.99163509 61.13580919 -3.99810314 52.70399729 -4.00033849 44.27217382 C-4.00164581 39.80473858 -4.00473295 35.3373201 -4.01198006 30.86989021 C-4.01873838 26.6699709 -4.02086735 22.47007537 -4.01935768 18.27015114 C-4.01963409 16.72412741 -4.02164033 15.17810294 -4.02545547 13.63208389 C-4.0303898 11.53045474 -4.02924928 9.42891678 -4.02650452 7.32728577 C-4.02742631 6.14831254 -4.0283481 4.96933931 -4.02929783 3.75463963 C-3.85594706 0.06098852 -3.72841855 0.17038472 0 0 Z " fill="#294347" transform="translate(1564.90625,529.8671875)"/>
<path d="M0 0 C1.1859375 0.00257813 2.371875 0.00515625 3.59375 0.0078125 C4.7796875 0.00523437 5.965625 0.00265625 7.1875 0 C10.09375 0.1328125 10.09375 0.1328125 11.09375 1.1328125 C11.19056822 3.19575528 11.21561923 5.26207292 11.21400452 7.32728577 C11.21485894 7.98150857 11.21571337 8.63573137 11.21659368 9.30977911 C11.21825028 11.51782593 11.21272421 13.72579798 11.20727539 15.93383789 C11.20699353 17.51032001 11.20715123 19.08680226 11.2077179 20.6632843 C11.20800592 24.95648799 11.2021084 29.24966399 11.19514394 33.54286122 C11.18891121 38.02453933 11.18830667 42.50621801 11.18711853 46.98789978 C11.18400497 55.48062159 11.17579126 63.97333059 11.16576904 72.46604675 C11.15460866 82.13214789 11.14909764 91.79824962 11.14407361 101.46435559 C11.13360866 121.35384858 11.11580835 141.24332928 11.09375 161.1328125 C6.14375 161.1328125 1.19375 161.1328125 -3.90625 161.1328125 C-3.92936711 140.2886761 -3.94722826 119.44454278 -3.95806217 98.60039616 C-3.96322553 88.92280199 -3.97026897 79.24521592 -3.98168945 69.56762695 C-3.99163509 61.13580919 -3.99810314 52.70399729 -4.00033849 44.27217382 C-4.00164581 39.80473858 -4.00473295 35.3373201 -4.01198006 30.86989021 C-4.01873838 26.6699709 -4.02086735 22.47007537 -4.01935768 18.27015114 C-4.01963409 16.72412741 -4.02164033 15.17810294 -4.02545547 13.63208389 C-4.0303898 11.53045474 -4.02924928 9.42891678 -4.02650452 7.32728577 C-4.02742631 6.14831254 -4.0283481 4.96933931 -4.02929783 3.75463963 C-3.85594706 0.06098852 -3.72841855 0.17038472 0 0 Z " fill="#294347" transform="translate(1505.90625,529.8671875)"/>
<path d="M0 0 C1.1859375 0.00257813 2.371875 0.00515625 3.59375 0.0078125 C4.7796875 0.00523437 5.965625 0.00265625 7.1875 0 C10.09375 0.1328125 10.09375 0.1328125 11.09375 1.1328125 C11.19056822 3.19575528 11.21561923 5.26207292 11.21400452 7.32728577 C11.21485894 7.98150857 11.21571337 8.63573137 11.21659368 9.30977911 C11.21825028 11.51782593 11.21272421 13.72579798 11.20727539 15.93383789 C11.20699353 17.51032001 11.20715123 19.08680226 11.2077179 20.6632843 C11.20800592 24.95648799 11.2021084 29.24966399 11.19514394 33.54286122 C11.18891121 38.02453933 11.18830667 42.50621801 11.18711853 46.98789978 C11.18400497 55.48062159 11.17579126 63.97333059 11.16576904 72.46604675 C11.15460866 82.13214789 11.14909764 91.79824962 11.14407361 101.46435559 C11.13360866 121.35384858 11.11580835 141.24332928 11.09375 161.1328125 C6.14375 161.1328125 1.19375 161.1328125 -3.90625 161.1328125 C-3.92936711 140.2886761 -3.94722826 119.44454278 -3.95806217 98.60039616 C-3.96322553 88.92280199 -3.97026897 79.24521592 -3.98168945 69.56762695 C-3.99163509 61.13580919 -3.99810314 52.70399729 -4.00033849 44.27217382 C-4.00164581 39.80473858 -4.00473295 35.3373201 -4.01198006 30.86989021 C-4.01873838 26.6699709 -4.02086735 22.47007537 -4.01935768 18.27015114 C-4.01963409 16.72412741 -4.02164033 15.17810294 -4.02545547 13.63208389 C-4.0303898 11.53045474 -4.02924928 9.42891678 -4.02650452 7.32728577 C-4.02742631 6.14831254 -4.0283481 4.96933931 -4.02929783 3.75463963 C-3.85594706 0.06098852 -3.72841855 0.17038472 0 0 Z " fill="#294347" transform="translate(1311.90625,529.8671875)"/>
<path d="M0 0 C1.1859375 0.00257813 2.371875 0.00515625 3.59375 0.0078125 C4.7796875 0.00523437 5.965625 0.00265625 7.1875 0 C10.09375 0.1328125 10.09375 0.1328125 11.09375 1.1328125 C11.19056822 3.19575528 11.21561923 5.26207292 11.21400452 7.32728577 C11.21485894 7.98150857 11.21571337 8.63573137 11.21659368 9.30977911 C11.21825028 11.51782593 11.21272421 13.72579798 11.20727539 15.93383789 C11.20699353 17.51032001 11.20715123 19.08680226 11.2077179 20.6632843 C11.20800592 24.95648799 11.2021084 29.24966399 11.19514394 33.54286122 C11.18891121 38.02453933 11.18830667 42.50621801 11.18711853 46.98789978 C11.18400497 55.48062159 11.17579126 63.97333059 11.16576904 72.46604675 C11.15460866 82.13214789 11.14909764 91.79824962 11.14407361 101.46435559 C11.13360866 121.35384858 11.11580835 141.24332928 11.09375 161.1328125 C6.14375 161.1328125 1.19375 161.1328125 -3.90625 161.1328125 C-3.92936711 140.2886761 -3.94722826 119.44454278 -3.95806217 98.60039616 C-3.96322553 88.92280199 -3.97026897 79.24521592 -3.98168945 69.56762695 C-3.99163509 61.13580919 -3.99810314 52.70399729 -4.00033849 44.27217382 C-4.00164581 39.80473858 -4.00473295 35.3373201 -4.01198006 30.86989021 C-4.01873838 26.6699709 -4.02086735 22.47007537 -4.01935768 18.27015114 C-4.01963409 16.72412741 -4.02164033 15.17810294 -4.02545547 13.63208389 C-4.0303898 11.53045474 -4.02924928 9.42891678 -4.02650452 7.32728577 C-4.02742631 6.14831254 -4.0283481 4.96933931 -4.02929783 3.75463963 C-3.85594706 0.06098852 -3.72841855 0.17038472 0 0 Z " fill="#294347" transform="translate(1117.90625,529.8671875)"/>
<path d="M0 0 C1.1859375 0.00257813 2.371875 0.00515625 3.59375 0.0078125 C4.7796875 0.00523437 5.965625 0.00265625 7.1875 0 C10.09375 0.1328125 10.09375 0.1328125 11.09375 1.1328125 C11.19056822 3.19575528 11.21561923 5.26207292 11.21400452 7.32728577 C11.21485894 7.98150857 11.21571337 8.63573137 11.21659368 9.30977911 C11.21825028 11.51782593 11.21272421 13.72579798 11.20727539 15.93383789 C11.20699353 17.51032001 11.20715123 19.08680226 11.2077179 20.6632843 C11.20800592 24.95648799 11.2021084 29.24966399 11.19514394 33.54286122 C11.18891121 38.02453933 11.18830667 42.50621801 11.18711853 46.98789978 C11.18400497 55.48062159 11.17579126 63.97333059 11.16576904 72.46604675 C11.15460866 82.13214789 11.14909764 91.79824962 11.14407361 101.46435559 C11.13360866 121.35384858 11.11580835 141.24332928 11.09375 161.1328125 C6.14375 161.1328125 1.19375 161.1328125 -3.90625 161.1328125 C-3.92936711 140.2886761 -3.94722826 119.44454278 -3.95806217 98.60039616 C-3.96322553 88.92280199 -3.97026897 79.24521592 -3.98168945 69.56762695 C-3.99163509 61.13580919 -3.99810314 52.70399729 -4.00033849 44.27217382 C-4.00164581 39.80473858 -4.00473295 35.3373201 -4.01198006 30.86989021 C-4.01873838 26.6699709 -4.02086735 22.47007537 -4.01935768 18.27015114 C-4.01963409 16.72412741 -4.02164033 15.17810294 -4.02545547 13.63208389 C-4.0303898 11.53045474 -4.02924928 9.42891678 -4.02650452 7.32728577 C-4.02742631 6.14831254 -4.0283481 4.96933931 -4.02929783 3.75463963 C-3.85594706 0.06098852 -3.72841855 0.17038472 0 0 Z " fill="#294347" transform="translate(1088.90625,529.8671875)"/>
<path d="M0 0 C1.1859375 0.00257813 2.371875 0.00515625 3.59375 0.0078125 C4.7796875 0.00523437 5.965625 0.00265625 7.1875 0 C10.09375 0.1328125 10.09375 0.1328125 11.09375 1.1328125 C11.19056822 3.19575528 11.21561923 5.26207292 11.21400452 7.32728577 C11.21485894 7.98150857 11.21571337 8.63573137 11.21659368 9.30977911 C11.21825028 11.51782593 11.21272421 13.72579798 11.20727539 15.93383789 C11.20699353 17.51032001 11.20715123 19.08680226 11.2077179 20.6632843 C11.20800592 24.95648799 11.2021084 29.24966399 11.19514394 33.54286122 C11.18891121 38.02453933 11.18830667 42.50621801 11.18711853 46.98789978 C11.18400497 55.48062159 11.17579126 63.97333059 11.16576904 72.46604675 C11.15460866 82.13214789 11.14909764 91.79824962 11.14407361 101.46435559 C11.13360866 121.35384858 11.11580835 141.24332928 11.09375 161.1328125 C6.14375 161.1328125 1.19375 161.1328125 -3.90625 161.1328125 C-3.92936711 140.2886761 -3.94722826 119.44454278 -3.95806217 98.60039616 C-3.96322553 88.92280199 -3.97026897 79.24521592 -3.98168945 69.56762695 C-3.99163509 61.13580919 -3.99810314 52.70399729 -4.00033849 44.27217382 C-4.00164581 39.80473858 -4.00473295 35.3373201 -4.01198006 30.86989021 C-4.01873838 26.6699709 -4.02086735 22.47007537 -4.01935768 18.27015114 C-4.01963409 16.72412741 -4.02164033 15.17810294 -4.02545547 13.63208389 C-4.0303898 11.53045474 -4.02924928 9.42891678 -4.02650452 7.32728577 C-4.02742631 6.14831254 -4.0283481 4.96933931 -4.02929783 3.75463963 C-3.85594706 0.06098852 -3.72841855 0.17038472 0 0 Z " fill="#294347" transform="translate(894.90625,529.8671875)"/>
<path d="M0 0 C1.1859375 0.00257813 2.371875 0.00515625 3.59375 0.0078125 C4.7796875 0.00523437 5.965625 0.00265625 7.1875 0 C10.09375 0.1328125 10.09375 0.1328125 11.09375 1.1328125 C11.19056822 3.19575528 11.21561923 5.26207292 11.21400452 7.32728577 C11.21485894 7.98150857 11.21571337 8.63573137 11.21659368 9.30977911 C11.21825028 11.51782593 11.21272421 13.72579798 11.20727539 15.93383789 C11.20699353 17.51032001 11.20715123 19.08680226 11.2077179 20.6632843 C11.20800592 24.95648799 11.2021084 29.24966399 11.19514394 33.54286122 C11.18891121 38.02453933 11.18830667 42.50621801 11.18711853 46.98789978 C11.18400497 55.48062159 11.17579126 63.97333059 11.16576904 72.46604675 C11.15460866 82.13214789 11.14909764 91.79824962 11.14407361 101.46435559 C11.13360866 121.35384858 11.11580835 141.24332928 11.09375 161.1328125 C6.14375 161.1328125 1.19375 161.1328125 -3.90625 161.1328125 C-3.92936711 140.2886761 -3.94722826 119.44454278 -3.95806217 98.60039616 C-3.96322553 88.92280199 -3.97026897 79.24521592 -3.98168945 69.56762695 C-3.99163509 61.13580919 -3.99810314 52.70399729 -4.00033849 44.27217382 C-4.00164581 39.80473858 -4.00473295 35.3373201 -4.01198006 30.86989021 C-4.01873838 26.6699709 -4.02086735 22.47007537 -4.01935768 18.27015114 C-4.01963409 16.72412741 -4.02164033 15.17810294 -4.02545547 13.63208389 C-4.0303898 11.53045474 -4.02924928 9.42891678 -4.02650452 7.32728577 C-4.02742631 6.14831254 -4.0283481 4.96933931 -4.02929783 3.75463963 C-3.85594706 0.06098852 -3.72841855 0.17038472 0 0 Z " fill="#294347" transform="translate(700.90625,529.8671875)"/>
<path d="M0 0 C1.1859375 0.00257813 2.371875 0.00515625 3.59375 0.0078125 C4.7796875 0.00523437 5.965625 0.00265625 7.1875 0 C10.09375 0.1328125 10.09375 0.1328125 11.09375 1.1328125 C11.19056822 3.19575528 11.21561923 5.26207292 11.21400452 7.32728577 C11.21485894 7.98150857 11.21571337 8.63573137 11.21659368 9.30977911 C11.21825028 11.51782593 11.21272421 13.72579798 11.20727539 15.93383789 C11.20699353 17.51032001 11.20715123 19.08680226 11.2077179 20.6632843 C11.20800592 24.95648799 11.2021084 29.24966399 11.19514394 33.54286122 C11.18891121 38.02453933 11.18830667 42.50621801 11.18711853 46.98789978 C11.18400497 55.48062159 11.17579126 63.97333059 11.16576904 72.46604675 C11.15460866 82.13214789 11.14909764 91.79824962 11.14407361 101.46435559 C11.13360866 121.35384858 11.11580835 141.24332928 11.09375 161.1328125 C6.14375 161.1328125 1.19375 161.1328125 -3.90625 161.1328125 C-3.92936711 140.2886761 -3.94722826 119.44454278 -3.95806217 98.60039616 C-3.96322553 88.92280199 -3.97026897 79.24521592 -3.98168945 69.56762695 C-3.99163509 61.13580919 -3.99810314 52.70399729 -4.00033849 44.27217382 C-4.00164581 39.80473858 -4.00473295 35.3373201 -4.01198006 30.86989021 C-4.01873838 26.6699709 -4.02086735 22.47007537 -4.01935768 18.27015114 C-4.01963409 16.72412741 -4.02164033 15.17810294 -4.02545547 13.63208389 C-4.0303898 11.53045474 -4.02924928 9.42891678 -4.02650452 7.32728577 C-4.02742631 6.14831254 -4.0283481 4.96933931 -4.02929783 3.75463963 C-3.85594706 0.06098852 -3.72841855 0.17038472 0 0 Z " fill="#294347" transform="translate(641.90625,529.8671875)"/>
<path d="M0 0 C1.1859375 0.00257813 2.371875 0.00515625 3.59375 0.0078125 C4.7796875 0.00523437 5.965625 0.00265625 7.1875 0 C10.09375 0.1328125 10.09375 0.1328125 11.09375 1.1328125 C11.19056822 3.19575528 11.21561923 5.26207292 11.21400452 7.32728577 C11.21485894 7.98150857 11.21571337 8.63573137 11.21659368 9.30977911 C11.21825028 11.51782593 11.21272421 13.72579798 11.20727539 15.93383789 C11.20699353 17.51032001 11.20715123 19.08680226 11.2077179 20.6632843 C11.20800592 24.95648799 11.2021084 29.24966399 11.19514394 33.54286122 C11.18891121 38.02453933 11.18830667 42.50621801 11.18711853 46.98789978 C11.18400497 55.48062159 11.17579126 63.97333059 11.16576904 72.46604675 C11.15460866 82.13214789 11.14909764 91.79824962 11.14407361 101.46435559 C11.13360866 121.35384858 11.11580835 141.24332928 11.09375 161.1328125 C6.14375 161.1328125 1.19375 161.1328125 -3.90625 161.1328125 C-3.92936711 140.2886761 -3.94722826 119.44454278 -3.95806217 98.60039616 C-3.96322553 88.92280199 -3.97026897 79.24521592 -3.98168945 69.56762695 C-3.99163509 61.13580919 -3.99810314 52.70399729 -4.00033849 44.27217382 C-4.00164581 39.80473858 -4.00473295 35.3373201 -4.01198006 30.86989021 C-4.01873838 26.6699709 -4.02086735 22.47007537 -4.01935768 18.27015114 C-4.01963409 16.72412741 -4.02164033 15.17810294 -4.02545547 13.63208389 C-4.0303898 11.53045474 -4.02924928 9.42891678 -4.02650452 7.32728577 C-4.02742631 6.14831254 -4.0283481 4.96933931 -4.02929783 3.75463963 C-3.85594706 0.06098852 -3.72841855 0.17038472 0 0 Z " fill="#294347" transform="translate(612.90625,529.8671875)"/>
<path d="M0 0 C12 0 12 0 15 1 C15 53.8 15 106.6 15 161 C10.05 161 5.1 161 0 161 C0 107.87 0 54.74 0 0 Z " fill="#284348" transform="translate(949,530)"/>
<path d="M0 0 C12 0 12 0 15 1 C15 53.8 15 106.6 15 161 C10.05 161 5.1 161 0 161 C0 107.87 0 54.74 0 0 Z " fill="#284348" transform="translate(803,530)"/>
</svg>
