<?xml version="1.0" encoding="UTF-8"?>
<svg version="1.1" xmlns="http://www.w3.org/2000/svg" width="409" height="409">
<path d="M0 0 C8.22984382 4.74798682 14.64547221 11.04285902 21.25 17.8125 C26.54031985 23.21103093 31.82492438 28.5088952 37.56640625 33.42944336 C39.53016893 35.11555688 41.40927973 36.86808436 43.25 38.6875 C43.8275 39.25082031 44.405 39.81414063 45 40.39453125 C46.25 41.875 46.25 41.875 46.25 43.875 C46.91 43.875 47.57 43.875 48.25 43.875 C49.42001247 44.97618821 50.58028206 46.08941924 51.69140625 47.25 C53.52759145 49.16441866 55.42103311 51.01523367 57.3125 52.875 C60.18323259 55.73494036 62.72934812 58.70084578 65.25 61.875 C66.24 62.535 67.23 63.195 68.25 63.875 C68.25 64.535 68.25 65.195 68.25 65.875 C69.07322754 66.19186768 69.07322754 66.19186768 69.91308594 66.51513672 C73.07887396 68.35732636 75.24209221 70.91886126 77.640625 73.6328125 C83.65374903 80.28895981 89.89794938 86.67650198 96.25146484 93.00683594 C98.01648544 94.7664348 99.77601133 96.53140397 101.53515625 98.296875 C106.7567037 103.52121553 111.98451803 108.66124679 117.60888672 113.45654297 C120.00141611 115.52446855 122.21860135 117.74852371 124.4375 120 C125.23542969 120.80695313 126.03335937 121.61390625 126.85546875 122.4453125 C127.64566406 123.24710937 128.43585938 124.04890625 129.25 124.875 C131.49878245 127.13056611 133.74882493 129.38376012 136.0234375 131.61328125 C139.07739706 134.61510004 141.97383641 137.67581901 144.75 140.9375 C147.56520524 144.22509795 150.56637081 146.97447418 153.96484375 149.6484375 C154.38894531 150.05320313 154.81304687 150.45796875 155.25 150.875 C155.25 151.535 155.25 152.195 155.25 152.875 C155.91 152.875 156.57 152.875 157.25 152.875 C158.41195322 154.27617889 159.5692585 155.68146582 160.703125 157.10546875 C162.38098685 159.02484102 164.17653031 160.60739473 166.125 162.25 C169.56963898 165.19148947 172.53552479 168.3098998 175.453125 171.76953125 C176.72099972 173.25514967 178.02727212 174.70840844 179.359375 176.13671875 C186.54042001 183.85503172 188.55265244 189.5418737 188.84375 200.08203125 C187.45152764 208.97576748 182.36902346 215.49693983 176.09684753 221.64961243 C175.38768183 222.36516696 174.67851612 223.08072149 173.94786054 223.81795949 C171.58915838 226.19181595 169.2131518 228.547518 166.83666992 230.90356445 C165.1335967 232.61014166 163.43160315 234.3177969 161.73060608 236.02644348 C157.59986675 240.1699252 153.4576952 244.30170493 149.30986425 248.42807207 C144.47374176 253.24009221 139.65060433 258.06504198 134.82781927 262.89042296 C126.21938283 271.50254333 117.59877914 280.10238074 108.97143555 288.69555664 C100.61112188 297.02277271 92.2603386 305.3593978 83.91967773 313.70629883 C74.82275179 322.80999731 65.72121869 331.90903793 56.61109048 340.99952668 C55.88770596 341.72135197 55.88770596 341.72135197 55.14970762 342.45775959 C54.18129363 343.42408279 53.21286956 344.39039589 52.24443528 345.35669876 C48.88290321 348.71135217 45.52447376 352.06909253 42.16710472 355.42791176 C37.64409908 359.95179751 33.11359965 364.46804492 28.57724571 368.97854424 C26.91546388 370.63317552 25.25619951 372.29033964 23.59967422 373.95023346 C21.33468545 376.21894826 19.06064364 378.47819081 16.78410339 380.73530579 C16.13379172 381.39094539 15.48348005 382.04658498 14.81346196 382.72209245 C7.65328602 389.77749978 0.24165196 394.68959875 -10.0625 395.25 C-21.74253793 394.83567433 -28.91500474 387.7231929 -36.75 379.875 C-37.72308105 378.90433594 -37.72308105 378.90433594 -38.71582031 377.9140625 C-44.29535427 372.34241295 -44.29535427 372.34241295 -46.96728516 369.62207031 C-50.84018748 365.69509091 -54.8134681 362.02634506 -59.07714844 358.52441406 C-60.86378328 356.76281088 -61.6778628 355.11975032 -62.75 352.875 C-64.07407669 352.19013275 -65.40909241 351.52629797 -66.75 350.875 C-68.44277146 349.23485356 -70.10459228 347.56265784 -71.75 345.875 C-72.72768246 344.89435137 -73.70688736 343.91521855 -74.6875 342.9375 C-147.75 269.875 -147.75 269.875 -150.45349121 267.16931152 C-152.09637861 265.52799601 -153.74540103 263.89281226 -155.3984375 262.26171875 C-163.64055122 254.10226233 -163.64055122 254.10226233 -167.3125 249.75 C-170.77634034 245.66097872 -174.74238634 242.23620751 -178.80859375 238.7578125 C-179.44925781 238.13648438 -180.08992188 237.51515625 -180.75 236.875 C-180.75 236.215 -180.75 235.555 -180.75 234.875 C-181.74 234.545 -182.73 234.215 -183.75 233.875 C-185.45734985 232.25003475 -187.11853729 230.57614226 -188.75 228.875 C-189.63558594 228.02421875 -190.52117187 227.1734375 -191.43359375 226.296875 C-196.9688756 220.92647389 -201.91326985 215.62604086 -205.75 208.875 C-206.306875 207.97974609 -206.306875 207.97974609 -206.875 207.06640625 C-209.21817265 201.19801402 -208.63823023 193.02692376 -206.9453125 187.01953125 C-201.74915869 175.74925281 -191.11378927 167.09378987 -182.44702148 158.45849609 C-181.34204457 157.353802 -180.23728929 156.24888618 -179.13273621 155.14376831 C-176.16452309 152.17527095 -173.19326017 149.20984404 -170.22139621 146.24500227 C-167.10461427 143.13451636 -163.99070695 140.02115526 -160.8764801 136.90811157 C-154.99265455 131.02738104 -149.10628696 125.14920194 -143.21897799 119.27195895 C-136.51073741 112.57493662 -129.80537189 105.87503877 -123.10023391 99.17491031 C-109.31999576 85.40509508 -95.53619159 71.63885458 -81.75 57.875 C-77.21216999 59.52181599 -74.73355363 61.70916688 -71.625 65.3125 C-66.24786163 71.33618459 -60.64763175 77.104024 -54.9375 82.8125 C-54.13747559 83.61679443 -53.33745117 84.42108887 -52.51318359 85.24975586 C-51.35230225 86.40809937 -51.35230225 86.40809937 -50.16796875 87.58984375 C-49.42490479 88.33387451 -48.68184082 89.07790527 -47.91625977 89.84448242 C-45.92234598 91.71345357 -43.87220678 93.2586571 -41.6640625 94.859375 C-39.63573588 96.56319284 -38.85357028 97.35289148 -38.33422852 99.97094727 C-38.35662142 102.42721708 -38.59340247 104.75574929 -38.9375 107.1875 C-40.05438177 116.53482598 -39.57179304 124.11880675 -34.16796875 132.08984375 C-30.48200291 136.73030212 -26.04257819 139.29025251 -20.75 141.875 C-19.58541827 144.20416345 -19.6194101 145.56313922 -19.60955811 148.15745544 C-19.60384796 149.05618378 -19.59813782 149.95491211 -19.59225464 150.88087463 C-19.59057785 152.36381264 -19.59057785 152.36381264 -19.58886719 153.87670898 C-19.58390228 154.91581421 -19.57893738 155.95491943 -19.57382202 157.0255127 C-19.55917776 160.47404636 -19.55239519 163.92253406 -19.546875 167.37109375 C-19.54112613 169.76001487 -19.53536837 172.14893597 -19.52960205 174.53785706 C-19.5190861 179.55071224 -19.51324708 184.56355135 -19.50976562 189.57641602 C-19.50427474 196.01071221 -19.48023637 202.44479744 -19.45179367 208.87902737 C-19.43320432 213.8142815 -19.4279637 218.74948439 -19.42642975 223.68477058 C-19.42339513 226.05751768 -19.41533957 228.43026371 -19.40224457 230.80297661 C-19.38525896 234.11678176 -19.38704592 237.43006591 -19.39355469 240.74389648 C-19.3843399 241.73049759 -19.37512512 242.71709869 -19.3656311 243.7335968 C-19.37398483 245.08591904 -19.37398483 245.08591904 -19.38250732 246.46556091 C-19.38104076 247.24925269 -19.3795742 248.03294447 -19.3780632 248.84038448 C-19.84688191 251.40497564 -20.75555961 252.25128652 -22.75 253.875 C-24.00268998 254.65492639 -25.27508067 255.40384203 -26.5625 256.125 C-33.12376894 260.21373193 -36.58090454 264.26360791 -38.625 271.8125 C-40.38952142 280.26749848 -40.54065752 287.9098209 -36.75 295.875 C-31.3230558 303.55214057 -25.14459557 308.9994909 -15.75 310.875 C-5.55466632 311.71770373 1.88430356 310.28015351 10.5 304.8125 C16.36062881 299.31920405 19.46450922 292.14187206 20.25 284.25 C20.53450886 274.62222032 18.78592135 267.21067544 12.25 259.875 C9.39314456 257.59341579 6.40708621 255.70911675 3.25 253.875 C2.26 253.215 1.27 252.555 0.25 251.875 C-0.1219368 249.96343231 -0.1219368 249.96343231 -0.11749268 247.58581543 C-0.12306183 246.68564194 -0.12863098 245.78546844 -0.1343689 244.85801697 C-0.12054672 243.3727224 -0.12054672 243.3727224 -0.10644531 241.85742188 C-0.10848969 240.81671036 -0.11053406 239.77599884 -0.11264038 238.70375061 C-0.11565806 235.25024062 -0.09714144 231.79720355 -0.078125 228.34375 C-0.07506902 225.95243447 -0.07319167 223.56111717 -0.07244873 221.1697998 C-0.06783945 216.15268161 -0.05338948 211.13572337 -0.03125 206.11865234 C-0.00296718 199.67535865 0.00796079 193.23219112 0.0124321 186.78884125 C0.01658185 181.84933195 0.02639561 176.90984837 0.03830719 171.97035217 C0.04401974 169.59400133 0.04877517 167.217648 0.05257416 164.84129333 C0.05942126 161.52501036 0.07304641 158.20882889 0.08886719 154.89257812 C0.08998505 153.90238174 0.09110291 152.91218536 0.09225464 151.89198303 C0.09796478 150.99180954 0.10367493 150.09163605 0.10955811 149.16418457 C0.11253277 148.379571 0.11550743 147.59495743 0.11857224 146.78656769 C0.25 144.875 0.25 144.875 1.25 142.875 C6.64574794 143.18590741 9.11094132 146.23432556 12.625 149.9375 C13.2029834 150.53095215 13.7809668 151.1244043 14.37646484 151.73583984 C17.85806981 155.33516603 21.19834218 159.03138683 24.4453125 162.84375 C26.79157772 165.484568 29.25713635 167.99877104 31.75 170.5 C32.22244141 170.97405273 32.69488281 171.44810547 33.18164062 171.93652344 C35.80313662 174.53432023 38.49211413 176.94843679 41.375 179.25 C44.25 181.875 44.25 181.875 45.3125 184.3125 C45.22972982 187.70607749 44.1888002 190.61681108 43.25 193.875 C42.54268275 202.5042705 44.76280779 210.82727205 49.60546875 218.0546875 C54.95619638 223.97734564 62.96340419 227.43108737 70.80859375 228.08984375 C80.00394047 228.40868379 87.24760006 226.41453103 94.4609375 220.609375 C100.85340148 214.41231385 103.27484776 206.89010115 103.625 198.125 C103.43001283 188.94913318 100.61033481 181.22056764 94.25 174.53125 C88.74606123 169.97330071 81.77771662 167.7266385 74.6875 167.75 C73.8491008 167.74965759 73.0107016 167.74931519 72.14689636 167.7489624 C69.28394087 167.79871321 69.28394087 167.79871321 66.66059875 168.39654541 C62.49573484 169.19227193 59.52165675 169.57322709 55.7215271 167.48669434 C53.09694152 165.32601344 50.7287568 163.04355673 48.35546875 160.609375 C47.47844803 159.74620667 46.60142731 158.88303833 45.6978302 157.99371338 C43.85718951 156.16558831 42.03160283 154.322196 40.22045898 152.46484375 C37.44329014 149.63090849 34.60573229 146.86996649 31.75585938 144.109375 C29.97253575 142.32171629 28.19309801 140.5301709 26.41796875 138.734375 C25.14181953 137.50240387 25.14181953 137.50240387 23.83988953 136.24554443 C18.28433749 130.41601366 18.28433749 130.41601366 18.18496704 125.9564209 C18.69098321 123.17219185 19.41942507 120.57662155 20.25 117.875 C21.39498507 108.98934423 18.41475647 100.93350051 13.25 93.875 C12.92 92.885 12.59 91.895 12.25 90.875 C10.60965807 90.14595914 8.93698082 89.48844757 7.25 88.875 C6.404375 88.359375 5.55875 87.84375 4.6875 87.3125 C0.18684162 84.65826557 -3.81432308 84.73950268 -9 84.75 C-10.26328125 84.74742188 -11.5265625 84.74484375 -12.828125 84.7421875 C-16.75319994 84.71287212 -16.75319994 84.71287212 -20.38574219 85.93774414 C-23.38150451 86.31010951 -24.48316494 86.04999479 -27.0413208 84.37231445 C-29.65194105 82.01731451 -32.08039191 79.55488785 -34.5 77.00390625 C-35.39871826 76.09245346 -36.29743652 75.18100067 -37.22338867 74.2419281 C-39.60455166 71.82651386 -41.95744868 69.38531372 -44.30535889 66.93762207 C-46.70913392 64.44153087 -49.13881453 61.97094166 -51.56640625 59.49804688 C-56.31844935 54.64680405 -61.04388332 49.77078542 -65.75 44.875 C-64.4124588 41.33661699 -63.48999938 39.28695553 -60.49609375 36.9453125 C-56.47157984 33.59170222 -52.81572272 29.98555959 -49.16015625 26.2421875 C-48.27062759 25.33693329 -48.27062759 25.33693329 -47.36312866 24.41339111 C-44.88619492 21.89221682 -42.41201929 19.36864032 -39.95239258 16.83056641 C-28.55224723 5.08569199 -17.63032761 -5.28909828 0 0 Z " fill="#F3501D" transform="translate(214.75,6.125)"/>
<path d="M0 0 C3.3125 0.5625 3.3125 0.5625 7 2 C8.8125 5.25 8.8125 5.25 10 9 C10.5878125 10.7015625 10.5878125 10.7015625 11.1875 12.4375 C11.455625 13.283125 11.72375 14.12875 12 15 C12.33 15 12.66 15 13 15 C12.03644647 29.78132118 12.03644647 29.78132118 11 36 C11.99 36.495 11.99 36.495 13 37 C12 39 12 39 10.1875 40.75 C7.83075981 43.01058771 7.83075981 43.01058771 6 46.25 C5.34 47.1575 4.68 48.065 4 49 C2.68 49 1.36 49 0 49 C0 49.66 0 50.32 0 51 C-2.475 51.495 -2.475 51.495 -5 52 C-5 52.66 -5 53.32 -5 54 C-10.24016281 56.1317356 -14.87411033 56.33424898 -20.4375 56.3125 C-21.25798828 56.32861328 -22.07847656 56.34472656 -22.92382812 56.36132812 C-29.09828964 56.36625587 -34.12328806 55.50552331 -38.9375 51.3125 C-39.288125 50.879375 -39.63875 50.44625 -40 50 C-39.67 49.34 -39.34 48.68 -39 48 C-38.46890625 48.27714844 -37.9378125 48.55429687 -37.390625 48.83984375 C-36.68421875 49.20207031 -35.9778125 49.56429687 -35.25 49.9375 C-34.55390625 50.29714844 -33.8578125 50.65679687 -33.140625 51.02734375 C-26.42179924 54.08024086 -18.21179746 54.05725884 -11.13671875 52.28125 C-2.33743982 48.96983699 2.53025629 44.41843788 6.80078125 36.1015625 C9.81101353 28.31614089 10.19967881 18.81350138 7 11 C5.17804884 7.85614405 3.13103984 4.93872258 1 2 C0.505 1.01 0.505 1.01 0 0 Z " fill="#DE6C4C" transform="translate(226,264)"/>
<path d="M0 0 C5.39573781 0.31090683 7.86095066 3.35930773 11.375 7.0625 C11.9522583 7.65522705 12.5295166 8.2479541 13.12426758 8.85864258 C16.61952396 12.47219842 19.98271287 16.1770566 23.234375 20.01171875 C26.9530246 24.1993131 31.00542765 28.07776397 35 32 C33.15234375 32.6328125 33.15234375 32.6328125 31 33 C28.5625 30.875 28.5625 30.875 26 28 C25.071875 27.113125 24.14375 26.22625 23.1875 25.3125 C21 23 21 23 21 21 C20.41734375 20.731875 19.8346875 20.46375 19.234375 20.1875 C16.97213399 18.98519009 15.19423682 17.66174087 13.25 16 C12.63640625 15.484375 12.0228125 14.96875 11.390625 14.4375 C10 13 10 13 10 11 C9.38125 10.731875 8.7625 10.46375 8.125 10.1875 C6 9 6 9 4 6 C4.66 6 5.32 6 6 6 C5.67 5.34 5.34 4.68 5 4 C3.68 3.67 2.36 3.34 1 3 C0.67 37.98 0.34 72.96 0 109 C-0.33 109 -0.66 109 -1 109 C-1.02334064 95.08347801 -1.04091848 81.16695905 -1.05181217 67.25042152 C-1.05703954 60.78901111 -1.06413457 54.32761381 -1.07543945 47.86621094 C-1.08627348 41.63521571 -1.09227794 35.40423313 -1.09487724 29.17322922 C-1.09673056 26.79129207 -1.10034939 24.40935565 -1.10573006 22.02742386 C-1.11294729 18.70137261 -1.11399065 15.37537418 -1.11352539 12.04931641 C-1.11712067 11.05597794 -1.12071594 10.06263947 -1.12442017 9.03919983 C-1.1230455 8.13613602 -1.12167084 7.2330722 -1.12025452 6.30264282 C-1.12117631 5.51543161 -1.1220981 4.72822041 -1.12304783 3.91715431 C-1 2 -1 2 0 0 Z " fill="#E38F71" transform="translate(216,149)"/>
<path d="M0 0 C0.50789062 0.39832031 1.01578125 0.79664063 1.5390625 1.20703125 C5.55834216 4.30052177 9.42712594 6.76932973 14 9 C15.16458173 11.32916345 15.1305899 12.68813922 15.14044189 15.28245544 C15.14900711 16.63054794 15.14900711 16.63054794 15.15774536 18.00587463 C15.15886322 18.99449997 15.15998108 19.98312531 15.16113281 21.00170898 C15.16609772 22.04081421 15.17106262 23.07991943 15.17617798 24.1505127 C15.19082224 27.59904636 15.19760481 31.04753406 15.203125 34.49609375 C15.20887387 36.88501487 15.21463163 39.27393597 15.22039795 41.66285706 C15.2309139 46.67571224 15.23675292 51.68855135 15.24023438 56.70141602 C15.24572526 63.13571221 15.26976363 69.56979744 15.29820633 76.00402737 C15.31679568 80.9392815 15.3220363 85.87448439 15.32357025 90.80977058 C15.32660487 93.18251768 15.33466043 95.55526371 15.34775543 97.92797661 C15.36474104 101.24178176 15.36295408 104.55506591 15.35644531 107.86889648 C15.3656601 108.85549759 15.37487488 109.84209869 15.3843689 110.8585968 C15.37879974 111.76014496 15.37323059 112.66169312 15.36749268 113.59056091 C15.36895924 114.37425269 15.3704258 115.15794447 15.3719368 115.96538448 C14.90335685 118.52866955 14.04796823 119.434767 12 121 C11.34 121 10.68 121 10 121 C10 120.34 10 119.68 10 119 C10.99 119 11.98 119 13 119 C12.67 83.36 12.34 47.72 12 11 C9.36 10.01 6.72 9.02 4 8 C0 3.1 0 3.1 0 0 Z " fill="#D97D5A" transform="translate(180,139)"/>
<path d="M0 0 C0.495 1.98 0.495 1.98 1 4 C0.34 4 -0.32 4 -1 4 C-1.08378906 4.6084375 -1.16757813 5.216875 -1.25390625 5.84375 C-2.22723598 8.65672387 -3.35122627 9.11566542 -5.9375 10.5 C-9.20332294 12.25441668 -10.59796891 13.53529489 -12 17 C-12.66 17 -13.32 17 -14 17 C-14.0825 17.5775 -14.165 18.155 -14.25 18.75 C-15.21797787 21.6539336 -16.68694284 23.03740604 -19 25 C-19.66 25 -20.32 25 -21 25 C-21.27070312 25.58394531 -21.54140625 26.16789062 -21.8203125 26.76953125 C-22.99409267 28.98883085 -24.26578326 30.76561162 -25.875 32.6875 C-26.36742188 33.28949219 -26.85984375 33.89148438 -27.3671875 34.51171875 C-29.22477098 36.20487499 -30.54739113 36.60184921 -33 37 C-32.67 38.65 -32.34 40.3 -32 42 C-33.65 42 -35.3 42 -37 42 C-37 42.66 -37 43.32 -37 44 C-37.99 44 -38.98 44 -40 44 C-40.33 44.99 -40.66 45.98 -41 47 C-42.485 47.495 -42.485 47.495 -44 48 C-47.20919944 52.06250804 -47.20919944 52.06250804 -48 57 C-48.66 57 -49.32 57 -50 57 C-50.495 55.515 -50.495 55.515 -51 54 C-51.99 54 -52.98 54 -54 54 C-36.18 36.18 -18.36 18.36 0 0 Z " fill="#DC7553" transform="translate(70,127)"/>
<path d="M0 0 C0 1.65 0 3.3 0 5 C-0.66 5 -1.32 5 -2 5 C-2 5.66 -2 6.32 -2 7 C-2.66 7 -3.32 7 -4 7 C-3.34 8.98 -2.68 10.96 -2 13 C-2.99 13.33 -3.98 13.66 -5 14 C-5 14.99 -5 15.98 -5 17 C-7.31 17 -9.62 17 -12 17 C-12 17.66 -12 18.32 -12 19 C-11.34 19 -10.68 19 -10 19 C-7.875 24.625 -7.875 24.625 -9 28 C-7.68 28 -6.36 28 -5 28 C-4.71125 28.639375 -4.4225 29.27875 -4.125 29.9375 C-3.17176549 32.15206079 -3.17176549 32.15206079 -1 33 C-1 33.99 -1 34.98 -1 36 C0.32 36 1.64 36 3 36 C3 37.65 3 39.3 3 41 C-2.25174926 36.61557474 -7.13222473 31.99157907 -11.9375 27.125 C-12.96327148 26.09246094 -12.96327148 26.09246094 -14.00976562 25.0390625 C-15.67551464 23.36166489 -17.3388622 21.68196209 -19 20 C-17.72888715 16.23159978 -16.46962454 14.17183006 -13.375 11.6875 C-9.53265755 8.49842601 -6.04098506 5.08727813 -2.56640625 1.50390625 C-1 0 -1 0 0 0 Z " fill="#ED521F" transform="translate(168,31)"/>
<path d="M0 0 C2.625 0.9375 2.625 0.9375 5 2 C5 1.34 5 0.68 5 0 C5.99 0.33 6.98 0.66 8 1 C-7.18 16.18 -22.36 31.36 -38 47 C-38.495 45.515 -38.495 45.515 -39 44 C-37.75 41.8125 -37.75 41.8125 -36 40 C-35.01 40 -34.02 40 -33 40 C-32.34 37.69 -31.68 35.38 -31 33 C-29.68 33.33 -28.36 33.66 -27 34 C-26.67 32.35 -26.34 30.7 -26 29 C-25.34 29 -24.68 29 -24 29 C-24.33 27.68 -24.66 26.36 -25 25 C-24.34 25 -23.68 25 -23 25 C-23 25.66 -23 26.32 -23 27 C-22.566875 26.505 -22.13375 26.01 -21.6875 25.5 C-20 24 -20 24 -17 24 C-15.89163577 22.11683841 -15.89163577 22.11683841 -15 20 C-15.33 19.34 -15.66 18.68 -16 18 C-14.35 18 -12.7 18 -11 18 C-11 15.03 -11 12.06 -11 9 C-8.36 8.67 -5.72 8.34 -3 8 C-2.67 6.68 -2.34 5.36 -2 4 C-2.99 3.67 -3.98 3.34 -5 3 C-4.01 3 -3.02 3 -2 3 C-2 2.34 -2 1.68 -2 1 C-1.34 0.67 -0.68 0.34 0 0 Z " fill="#D76234" transform="translate(359,250)"/>
<path d="M0 0 C1.65 0 3.3 0 5 0 C4.319375 0.495 3.63875 0.99 2.9375 1.5 C-5.58604408 8.75408007 -8.8654465 15.01944973 -10.27734375 26.1953125 C-10.69208764 34.39065174 -8.18176521 41.07150984 -2.8125 47.125 C-1.55747657 48.43203341 -0.29198832 49.72949367 1 51 C-0.485 51.495 -0.485 51.495 -2 52 C-3.68359375 50.9609375 -3.68359375 50.9609375 -5.4375 49.375 C-6.30181641 48.61316406 -6.30181641 48.61316406 -7.18359375 47.8359375 C-7.78300781 47.23007812 -8.38242188 46.62421875 -9 46 C-9.72058594 45.27167969 -10.44117188 44.54335938 -11.18359375 43.79296875 C-13.5149452 40.20820254 -13.59460275 37.08292473 -13.625 32.9375 C-13.65955099 26.69241871 -13.65955099 26.69241871 -16 21 C-16.75 18.875 -16.75 18.875 -17 17 C-16.34 16.34 -15.68 15.68 -15 15 C-14.67 15.99 -14.34 16.98 -14 18 C-13.71125 17.030625 -13.4225 16.06125 -13.125 15.0625 C-12 12 -12 12 -10 11 C-9.34786708 8.97536745 -9.34786708 8.97536745 -9 7 C-8.01 7 -7.02 7 -6 7 C-6 6.01 -6 5.02 -6 4 C-4.02 3.34 -2.04 2.68 0 2 C0 1.34 0 0.68 0 0 Z " fill="#DD582F" transform="translate(185,260)"/>
<path d="M0 0 C3.4375 0.8125 3.4375 0.8125 7 2 C7.33 2.99 7.66 3.98 8 5 C9.32 4.34 10.64 3.68 12 3 C12 4.32 12 5.64 12 7 C13.41666667 8.58333333 13.41666667 8.58333333 15 10 C15.33 10.99 15.66 11.98 16 13 C16.66 13.33 17.32 13.66 18 14 C18 14.66 18 15.32 18 16 C18.94875 15.814375 19.8975 15.62875 20.875 15.4375 C24 15 24 15 26 16 C26 16.66 26 17.32 26 18 C26.66 18 27.32 18 28 18 C27.01 20.475 27.01 20.475 26 23 C27.98 23.33 29.96 23.66 32 24 C32 25.65 32 27.3 32 29 C32.66 29.33 33.32 29.66 34 30 C32.19116211 30.66064453 32.19116211 30.66064453 30 31 C27.64893644 29.02426587 25.64124524 27.10816632 23.5625 24.875 C23.00240234 24.29234375 22.44230469 23.7096875 21.86523438 23.109375 C20.7529602 21.9516754 19.64524659 20.78957616 18.54223633 19.62304688 C15.91563803 16.85881931 13.19956789 14.18581537 10.48803711 11.50537109 C8.8864769 9.92163585 7.28696005 8.3358559 5.6875 6.75 C5.13771484 6.20859375 4.58792969 5.6671875 4.02148438 5.109375 C2.6620467 3.75838103 1.32847876 2.3814484 0 1 C0 0.67 0 0.34 0 0 Z " fill="#E2734A" transform="translate(114,322)"/>
<path d="M0 0 C1.7074998 1.28062485 3.37373596 2.61767557 5 4 C5 4.66 5 5.32 5 6 C5.66 6 6.32 6 7 6 C8.17001247 7.10118821 9.33028206 8.21441924 10.44140625 9.375 C12.27759145 11.28941866 14.17103311 13.14023367 16.0625 15 C18.93323259 17.85994036 21.47934812 20.82584578 24 24 C24.99 24.66 25.98 25.32 27 26 C27 26.66 27 27.32 27 28 C27.53367187 28.19722656 28.06734375 28.39445312 28.6171875 28.59765625 C32.07976339 30.63546731 34.45599807 33.4665307 37.125 36.4375 C37.93130859 37.31631836 37.93130859 37.31631836 38.75390625 38.21289062 C41.05935722 40.74543714 43.09239992 43.13859989 45 46 C44.01 46.495 44.01 46.495 43 47 C42.401875 46.360625 41.80375 45.72125 41.1875 45.0625 C39.09189663 42.79689611 39.09189663 42.79689611 36 42 C34.96210419 40.35666496 33.96432076 38.68756133 33 37 C31.62514468 35.45833358 31.62514468 35.45833358 30 34 C28.29413425 32.37347684 26.6222454 30.70993434 25 29 C25 28.34 25 27.68 25 27 C24.01 26.67 23.02 26.34 22 26 C22 25.34 22 24.68 22 24 C20.68 24 19.36 24 18 24 C18 22.68 18 21.36 18 20 C17.01 20 16.02 20 15 20 C15 19.34 15 18.68 15 18 C14.01 17.67 13.02 17.34 12 17 C11.67 16.01 11.34 15.02 11 14 C9.36739286 12.62517293 7.69774938 11.29352333 6 10 C5 9 4 8 3 7 C2.34 6.67 1.68 6.34 1 6 C0.375 2.9375 0.375 2.9375 0 0 Z " fill="#DB7B5D" transform="translate(256,44)"/>
<path d="M0 0 C1.62785068 1.38540483 3.24888373 2.77941415 4.83984375 4.20703125 C6.97455606 6.06951407 6.97455606 6.06951407 9.50390625 7.51171875 C12.46054815 9.4966943 14.15116554 10.9286184 16 14 C16.61169162 18.78088259 15.93449388 23.49423678 15.33984375 28.24609375 C14.57292457 35.19916042 16.667178 41.50142442 19 48 C17.10546875 47.7421875 17.10546875 47.7421875 15 47 C10.40867755 39.3773411 10.80839974 28.62201168 11 20 C11.66 19.67 12.32 19.34 13 19 C12.67 17.35 12.34 15.7 12 14 C11.34 14 10.68 14 10 14 C10 13.01 10 12.02 10 11 C8.35 10.67 6.7 10.34 5 10 C5 8.68 5 7.36 5 6 C2.525 5.01 2.525 5.01 0 4 C0 2.68 0 1.36 0 0 Z " fill="#D96942" transform="translate(160,90)"/>
<path d="M0 0 C0.33 0.33 0.66 0.66 1 1 C1.33 0.34 1.66 -0.32 2 -1 C3.32 -0.67 4.64 -0.34 6 0 C-1.26 7.26 -8.52 14.52 -16 22 C-16.33 20.68 -16.66 19.36 -17 18 C-16.34 18 -15.68 18 -15 18 C-15 16.35 -15 14.7 -15 13 C-14.34 13 -13.68 13 -13 13 C-13 11.02 -13 9.04 -13 7 C-11.68 6.67 -10.36 6.34 -9 6 C-9 6.66 -9 7.32 -9 8 C-7.68 8 -6.36 8 -5 8 C-5.33 5.36 -5.66 2.72 -6 0 C-3.49749232 -1.25125384 -2.59701335 -0.83774624 0 0 Z " fill="#EC5221" transform="translate(241,371)"/>
<path d="M0 0 C0.99 0.33 1.98 0.66 3 1 C-2.53241198 6.55767099 -8.06866517 12.11149341 -13.60766602 17.66259766 C-15.49361342 19.55302571 -17.37830614 21.4446919 -19.26196289 23.33740234 C-21.96267863 26.05018436 -24.66655338 28.75978167 -27.37109375 31.46875 C-28.21900986 32.32182739 -29.06692596 33.17490479 -29.9405365 34.05383301 C-30.72127029 34.83464233 -31.50200409 35.61545166 -32.30639648 36.41992188 C-32.99700668 37.11275269 -33.68761688 37.8055835 -34.39915466 38.51940918 C-36 40 -36 40 -37 40 C-37 38.02 -37 36.04 -37 34 C-36.01 33.505 -36.01 33.505 -35 33 C-34.01 33.33 -33.02 33.66 -32 34 C-31.67 32.35 -31.34 30.7 -31 29 C-30.34 29 -29.68 29 -29 29 C-29.33 27.68 -29.66 26.36 -30 25 C-29.34 25 -28.68 25 -28 25 C-28 25.66 -28 26.32 -28 27 C-27.566875 26.505 -27.13375 26.01 -26.6875 25.5 C-25 24 -25 24 -22 24 C-21.67 22.02 -21.34 20.04 -21 18 C-19.35 18 -17.7 18 -16 18 C-16 17.01 -16 16.02 -16 15 C-15.34 15 -14.68 15 -14 15 C-14 14.01 -14 13.02 -14 12 C-11.97111042 10.98555521 -9.99584575 9.99841161 -7.875 9.1875 C-5.74716625 8.0992966 -5.74716625 8.0992966 -5 5.4375 C-4.67 4.633125 -4.34 3.82875 -4 3 C-1.875 2.1875 -1.875 2.1875 0 2 C0 1.34 0 0.68 0 0 Z " fill="#D3663C" transform="translate(284,330)"/>
<path d="M0 0 C6.55121928 5.11692867 12.40103531 10.91958252 15 19 C16.03160423 27.89351435 15.40451648 35.6315888 10 43 C9.01 43.66 8.02 44.32 7 45 C7.99709638 40.24461729 9.08410866 35.67056841 10.625 31.0625 C12.21156447 25.98389914 12.30332772 21.28014922 12 16 C10.68 15.67 9.36 15.34 8 15 C7.67 13.35 7.34 11.7 7 10 C6.37609375 9.92910156 5.7521875 9.85820312 5.109375 9.78515625 C3 9 3 9 1.953125 6.93359375 C1.72109375 6.10988281 1.4890625 5.28617188 1.25 4.4375 C1.00765625 3.61121094 0.7653125 2.78492188 0.515625 1.93359375 C0.34546875 1.29550781 0.1753125 0.65742188 0 0 Z " fill="#D7795C" transform="translate(388,177)"/>
<path d="M0 0 C0.66 0.66 1.32 1.32 2 2 C-2.53550215 6.56076463 -7.07484744 11.11767715 -11.61694336 15.671875 C-13.16308911 17.22306342 -14.70833806 18.77514624 -16.25268555 20.328125 C-18.4669098 22.55441781 -20.68429226 24.77752107 -22.90234375 27 C-23.5971434 27.69996094 -24.29194305 28.39992188 -25.00779724 29.12109375 C-25.64838577 29.76175781 -26.2889743 30.40242188 -26.94897461 31.0625 C-27.79835854 31.91521484 -27.79835854 31.91521484 -28.66490173 32.78515625 C-30 34 -30 34 -31 34 C-31 32.02 -31 30.04 -31 28 C-30.401875 27.896875 -29.80375 27.79375 -29.1875 27.6875 C-26.61005181 26.87744486 -25.56936425 26.19710995 -24 24 C-23.74930087 21.37429296 -23.74930087 21.37429296 -24 19 C-22.02 19.33 -20.04 19.66 -18 20 C-18 19.01 -18 18.02 -18 17 C-17.01 17 -16.02 17 -15 17 C-15 15.35 -15 13.7 -15 12 C-14.01 12.33 -13.02 12.66 -12 13 C-12 12.34 -12 11.68 -12 11 C-11.34 11 -10.68 11 -10 11 C-10 10.34 -10 9.68 -10 9 C-9.34 8.67 -8.68 8.34 -8 8 C-8.66 6.02 -9.32 4.04 -10 2 C-8.68 1.67 -7.36 1.34 -6 1 C-6 1.66 -6 2.32 -6 3 C-4.68 3 -3.36 3 -2 3 C-2 2.34 -2 1.68 -2 1 C-1.34 0.67 -0.68 0.34 0 0 Z " fill="#D46439" transform="translate(318,296)"/>
<path d="M0 0 C0.99 0.33 1.98 0.66 3 1 C-1.80809586 6.82628086 -7.01804955 12.17223502 -12.36987305 17.50024414 C-13.83046259 18.95539571 -15.28553203 20.41591857 -16.74023438 21.87695312 C-17.65740234 22.79283203 -18.57457031 23.70871094 -19.51953125 24.65234375 C-20.35589111 25.48757568 -21.19225098 26.32280762 -22.05395508 27.18334961 C-24 29 -24 29 -25 29 C-25 27.02 -25 25.04 -25 23 C-24.401875 22.896875 -23.80375 22.79375 -23.1875 22.6875 C-20.66155205 21.89363064 -19.65114593 21.04427591 -18 19 C-17.67 18.01 -17.34 17.02 -17 16 C-17.66 16 -18.32 16 -19 16 C-19 15.01 -19 14.02 -19 13 C-16.69 13.66 -14.38 14.32 -12 15 C-12 12.03 -12 9.06 -12 6 C-8.27034861 3.96564469 -6.33094958 3 -2 3 C-1.34 2.01 -0.68 1.02 0 0 Z " fill="#EA511F" transform="translate(392,221)"/>
<path d="M0 0 C0 35.64 0 71.28 0 108 C-0.99 108 -1.98 108 -3 108 C-3 108.66 -3 109.32 -3 110 C-3.66 110 -4.32 110 -5 110 C-4.67 109.01 -4.34 108.02 -4 107 C-3.01 107 -2.02 107 -1 107 C-1 73.67 -1 40.34 -1 6 C-2.32 5.67 -3.64 5.34 -5 5 C-5 4.01 -5 3.02 -5 2 C-1.125 0 -1.125 0 0 0 Z " fill="#E35629" transform="translate(193,150)"/>
<path d="M0 0 C0.33 1.32 0.66 2.64 1 4 C5.455 4.99 5.455 4.99 10 6 C10 5.34 10 4.68 10 4 C13.12401779 3.77462889 16.24911333 3.57261352 19.375 3.375 C20.70917969 3.27832031 20.70917969 3.27832031 22.0703125 3.1796875 C22.92109375 3.128125 23.771875 3.0765625 24.6484375 3.0234375 C25.82672119 2.94488525 25.82672119 2.94488525 27.02880859 2.86474609 C29 3 29 3 31 5 C33.06874034 5.6425235 33.06874034 5.6425235 35 6 C35 6.66 35 7.32 35 8 C35.78375 8.20625 36.5675 8.4125 37.375 8.625 C40 10 40 10 41.3125 13.125 C41.6528125 14.548125 41.6528125 14.548125 42 16 C41.45472656 15.60167969 40.90945313 15.20335937 40.34765625 14.79296875 C30.97254411 8.20635151 22.58363401 5.56159812 11.1328125 7.48046875 C8.29751728 7.92996677 5.8605611 8.27755053 3 8 C0.34800266 6.0480482 -1.33312338 3.82032712 -3 1 C-2.01 0.67 -1.02 0.34 0 0 Z " fill="#DF6035" transform="translate(270,167)"/>
<path d="M0 0 C2.475 0.495 2.475 0.495 5 1 C5 1.66 5 2.32 5 3 C5.639375 3.28875 6.27875 3.5775 6.9375 3.875 C9 5 9 5 10 7 C11.97888961 7.72693904 13.97954558 8.39816251 16 9 C16 10.65 16 12.3 16 14 C16.66 14 17.32 14 18 14 C23 19.47619048 23 19.47619048 23 22 C23.8971875 22.433125 23.8971875 22.433125 24.8125 22.875 C27 24 27 24 30 26 C29.67 27.32 29.34 28.64 29 30 C28.154375 29.14277344 27.30875 28.28554688 26.4375 27.40234375 C18.25637689 19.11745409 18.25637689 19.11745409 9.48828125 11.46484375 C7.79548402 9.79870474 7.03535421 8.11917182 6 6 C5.34 5.67 4.68 5.34 4 5 C1.50983207 3.75491604 1.01313282 2.53283204 0 0 Z " fill="#DE6E49" transform="translate(146,353)"/>
<path d="M0 0 C0.556875 0.721875 1.11375 1.44375 1.6875 2.1875 C7.41642317 9.15510926 13.8282367 14.66362345 23 16 C29.99577068 16.45578506 36.23301907 15.77494582 43 14 C43.495 14.99 43.495 14.99 44 16 C42.35 16.33 40.7 16.66 39 17 C39 17.66 39 18.32 39 19 C17.36360725 19.72479231 17.36360725 19.72479231 9 13 C8.01 13.495 8.01 13.495 7 14 C7 13.01 7 12.02 7 11 C5.35 10.67 3.7 10.34 2 10 C0.68373308 6.38026598 0 3.90432869 0 0 Z " fill="#D27557" transform="translate(260,218)"/>
<path d="M0 0 C0.33 0.99 0.66 1.98 1 3 C0.01 3.66 -0.98 4.32 -2 5 C-2.495 6.175625 -2.99 7.35125 -3.5 8.5625 C-3.995 9.696875 -4.49 10.83125 -5 12 C-5.99 12.33 -6.98 12.66 -8 13 C-8.33 13.99 -8.66 14.98 -9 16 C-10.7364743 17.15764953 -12.53487162 18.01714998 -14.40625 18.9375 C-16.33757598 19.98949358 -16.33757598 19.98949358 -17 23 C-20.5625 24.1875 -20.5625 24.1875 -24 25 C-19.18132753 19.19108254 -13.98743592 13.86934448 -8.625 8.5625 C-7.79355469 7.73556641 -6.96210937 6.90863281 -6.10546875 6.05664062 C-4.0725896 4.03544469 -2.03740037 2.01663665 0 0 Z " fill="#DE6B42" transform="translate(95,102)"/>
<path d="M0 0 C3.98959689 2.10562058 6.85615271 3.96956709 9 8 C8.77359934 10.57475266 8.21604335 12.94933721 7.59375 15.45703125 C5.95262323 22.48580445 7.41076473 29.07547488 9 36 C6.35495277 34.67747639 6.02572672 33.76991401 5 31 C4.76953125 27.57421875 4.76953125 27.57421875 4.8125 23.6875 C4.82216797 21.77517578 4.82216797 21.77517578 4.83203125 19.82421875 C4.9944875 16.12550551 5.41003519 12.64834239 6 9 C3.69 9.33 1.38 9.66 -1 10 C-1.33 9.01 -1.66 8.02 -2 7 C-0.68 6.67 0.64 6.34 2 6 C2 5.34 2 4.68 2 4 C1.34 4 0.68 4 0 4 C0 2.68 0 1.36 0 0 Z " fill="#DA6845" transform="translate(251,182)"/>
<path d="M0 0 C3.83952795 1.10919696 6.40473766 1.93353081 9 5 C12.82063348 13.86386968 16.58844026 25.30050755 12.9375 34.75 C12.628125 35.4925 12.31875 36.235 12 37 C12.30087716 40.22828237 12.30087716 40.22828237 13 43 C11.68 42.01 10.36 41.02 9 40 C9.144375 39.29875 9.28875 38.5975 9.4375 37.875 C11.41090765 27.78869424 12.2234654 18.46145554 6.9453125 9.13671875 C5.9935815 7.73691001 4.9995603 6.36606575 4 5 C3.67 4.01 3.34 3.02 3 2 C2.01 1.67 1.02 1.34 0 1 C0 0.67 0 0.34 0 0 Z " fill="#D57857" transform="translate(224,95)"/>
<path d="M0 0 C0 1.65 0 3.3 0 5 C-0.66 5 -1.32 5 -2 5 C-2 5.66 -2 6.32 -2 7 C-6.47058824 11 -6.47058824 11 -9 11 C-9.33 12.32 -9.66 13.64 -10 15 C-11.32 15 -12.64 15 -14 15 C-14 16.98 -14 18.96 -14 21 C-13.01 21 -12.02 21 -11 21 C-11 22.98 -11 24.96 -11 27 C-12.15224028 26.07038578 -13.29659176 25.1309875 -14.4375 24.1875 C-15.07558594 23.66542969 -15.71367187 23.14335938 -16.37109375 22.60546875 C-18 21 -18 21 -19 18 C-18.31421875 17.31550781 -17.6284375 16.63101563 -16.921875 15.92578125 C-14.84201111 13.84665074 -12.77087998 11.75913908 -10.703125 9.66796875 C-9.55211448 8.5077816 -8.40107239 7.34762577 -7.25 6.1875 C-6.36634766 5.2912793 -6.36634766 5.2912793 -5.46484375 4.37695312 C-1.11290179 0 -1.11290179 0 0 0 Z " fill="#D36542" transform="translate(168,31)"/>
<path d="M0 0 C2.18896484 0.34375 2.18896484 0.34375 4 1 C4 2.65 4 4.3 4 6 C3.113125 6.433125 2.22625 6.86625 1.3125 7.3125 C-4.05121148 9.97753797 -4.05121148 9.97753797 -8.6875 13.6875 C-9.120625 14.120625 -9.55375 14.55375 -10 15 C-10.66 15 -11.32 15 -12 15 C-12.226875 15.639375 -12.45375 16.27875 -12.6875 16.9375 C-14 19 -14 19 -16.625 19.75 C-17.40875 19.8325 -18.1925 19.915 -19 20 C-15.02279724 15.11372232 -10.75148106 10.52800519 -6.375 6 C-5.81272705 5.39969971 -5.2504541 4.79939941 -4.67114258 4.1809082 C-3.0234375 2.5 -3.0234375 2.5 0 0 Z " fill="#E05A30" transform="translate(187,11)"/>
<path d="M0 0 C5.29321949 4.41101625 10.17096441 9.08928939 15 14 C15.886875 14.86625 16.77375 15.7325 17.6875 16.625 C20.29542263 19.30340703 22.64063876 22.1013562 25 25 C23.02 25.66 21.04 26.32 19 27 C18 22.25 18 22.25 18 20 C17.34 20 16.68 20 16 20 C16 19.34 16 18.68 16 18 C15.01 17.67 14.02 17.34 13 17 C10.8125 15.0625 10.8125 15.0625 9 13 C9 12.34 9 11.68 9 11 C7.68 10.34 6.36 9.68 5 9 C5 8.34 5 7.68 5 7 C4.360625 6.773125 3.72125 6.54625 3.0625 6.3125 C1 5 1 5 0.25 2.375 C0.1675 1.59125 0.085 0.8075 0 0 Z " fill="#DB886A" transform="translate(329,117)"/>
<path d="M0 0 C1.4540625 0.495 1.4540625 0.495 2.9375 1 C5.62149574 2.05173363 5.62149574 2.05173363 7 2 C9.53518371 7.83494664 9.29650285 13.51086711 9.25 19.75 C9.25773437 20.80316406 9.26546875 21.85632813 9.2734375 22.94140625 C9.27085937 23.94558594 9.26828125 24.94976562 9.265625 25.984375 C9.26336914 26.89928711 9.26111328 27.81419922 9.25878906 28.75683594 C9 31 9 31 7 33 C6.11163058 29.0023376 6.03432383 25.37430945 6.1875 21.3125 C6.2760775 13.40941845 3.56303625 6.93347594 0 0 Z " fill="#DD6B45" transform="translate(312,183)"/>
<path d="M0 0 C2.625 0.9375 2.625 0.9375 5 2 C5 1.34 5 0.68 5 0 C5.99 0.33 6.98 0.66 8 1 C6.12172593 3.0400393 4.22541638 5.05539547 2.3125 7.0625 C1.78205078 7.64322266 1.25160156 8.22394531 0.70507812 8.82226562 C-0.80393925 10.38682965 -2.20000672 11.77961713 -4 13 C-6.89453125 12.87109375 -6.89453125 12.87109375 -9 12 C-9 12.99 -9 13.98 -9 15 C-9.66 14.67 -10.32 14.34 -11 14 C-11 12.35 -11 10.7 -11 9 C-8.36 8.67 -5.72 8.34 -3 8 C-2.67 6.68 -2.34 5.36 -2 4 C-2.99 3.67 -3.98 3.34 -5 3 C-4.01 3 -3.02 3 -2 3 C-2 2.34 -2 1.68 -2 1 C-1.34 0.67 -0.68 0.34 0 0 Z " fill="#E45627" transform="translate(359,250)"/>
<path d="M0 0 C1.45880109 0.14107747 2.91703551 0.28802415 4.375 0.4375 C5.59316406 0.55931641 5.59316406 0.55931641 6.8359375 0.68359375 C9 1 9 1 11 2 C11 2.66 11 3.32 11 4 C11.66 4 12.32 4 13 4 C12.34 6.31 11.68 8.62 11 11 C12.32 11.33 13.64 11.66 15 12 C15 12.99 15 13.98 15 15 C16.32 15.33 17.64 15.66 19 16 C17.19775391 16.6628418 17.19775391 16.6628418 15 17 C13.38427734 15.98364258 13.38427734 15.98364258 11.8359375 14.39453125 C11.27132812 13.82283203 10.70671875 13.25113281 10.125 12.66210938 C9.5475 12.05173828 8.97 11.44136719 8.375 10.8125 C7.78976563 10.22146484 7.20453125 9.63042969 6.6015625 9.02148438 C3.80654094 6.14633032 1.67726135 3.67807311 0 0 Z " fill="#E3673B" transform="translate(49,256)"/>
<path d="M0 0 C3.1791105 1.78030188 6.15179136 3.64699876 9.125 5.75 C8.465 6.08 7.805 6.41 7.125 6.75 C5.77522151 6.11729133 4.44147119 5.44937532 3.125 4.75 C2.465 4.75 1.805 4.75 1.125 4.75 C0.795 4.09 0.465 3.43 0.125 2.75 C-2.97908807 2.69192957 -6.0830364 2.65638086 -9.1875 2.625 C-10.06857422 2.60824219 -10.94964844 2.59148438 -11.85742188 2.57421875 C-13.12875977 2.56455078 -13.12875977 2.56455078 -14.42578125 2.5546875 C-15.20606689 2.54421387 -15.98635254 2.53374023 -16.7902832 2.52294922 C-19.1815848 2.62119141 -19.1815848 2.62119141 -21.875 4.75 C-24.0625 4.375 -24.0625 4.375 -25.875 3.75 C-17.84763595 -0.94525067 -9.19628135 -3.79398154 0 0 Z " fill="#DA5731" transform="translate(214.875,6.25)"/>
<path d="M0 0 C1 4 1 4 -0.25 6.75 C-1.11625 7.86375 -1.11625 7.86375 -2 9 C-2.99 9 -3.98 9 -5 9 C-5.33 9.99 -5.66 10.98 -6 12 C-6.99 12.33 -7.98 12.66 -9 13 C-12.20919944 17.06250804 -12.20919944 17.06250804 -13 22 C-13.66 22 -14.32 22 -15 22 C-15.33 21.01 -15.66 20.02 -16 19 C-16.99 19 -17.98 19 -19 19 C-12.73 12.73 -6.46 6.46 0 0 Z " fill="#DD8561" transform="translate(35,162)"/>
<path d="M0 0 C4.29129925 -0.14677671 8.58194224 -0.23456586 12.875 -0.3125 C14.07898438 -0.35439453 15.28296875 -0.39628906 16.5234375 -0.43945312 C24.59337342 -0.54909899 30.17094833 0.62707997 37 5 C37 5.66 37 6.32 37 7 C35.948125 6.566875 35.948125 6.566875 34.875 6.125 C24.41400678 2.03156787 14.03677067 2.19807826 3 4 C2.01 2.68 1.02 1.36 0 0 Z " fill="#D97B5C" transform="translate(187,88)"/>
<path d="M0 0 C5.625 1.125 5.625 1.125 8.33203125 3.94140625 C8.90244141 4.52470703 9.47285156 5.10800781 10.06054688 5.70898438 C10.63869141 6.32064453 11.21683594 6.93230469 11.8125 7.5625 C12.40998047 8.17802734 13.00746094 8.79355469 13.62304688 9.42773438 C15.0912621 10.94293249 16.54689553 12.47030438 18 14 C17.34 14.66 16.68 15.32 16 16 C16 15.34 16 14.68 16 14 C15.278125 13.731875 14.55625 13.46375 13.8125 13.1875 C9.49437721 11.3642926 6.63151537 9.94727306 4 6 C4.66 6 5.32 6 6 6 C5.67 5.34 5.34 4.68 5 4 C2.97536745 3.34786708 2.97536745 3.34786708 1 3 C1 5.64 1 8.28 1 11 C0.67 11 0.34 11 0 11 C0 7.37 0 3.74 0 0 Z " fill="#DD7856" transform="translate(216,149)"/>
<path d="M0 0 C0.99 0.33 1.98 0.66 3 1 C-4.53198406 6.12566188 -11.73446498 9.24440033 -21 8 C-30.0971564 5.3542654 -30.0971564 5.3542654 -33 1 C-32.38253906 1.20496094 -31.76507813 1.40992188 -31.12890625 1.62109375 C-21.83215489 4.5785078 -13.49803084 6.21522288 -4 3 C-3.30519531 2.45859375 -2.61039063 1.9171875 -1.89453125 1.359375 C-1.26933594 0.91078125 -0.64414063 0.4621875 0 0 Z " fill="#D16645" transform="translate(221,393)"/>
<path d="M0 0 C0.99 0.66 1.98 1.32 3 2 C3 2.66 3 3.32 3 4 C4.32 4 5.64 4 7 4 C7.33 6.64 7.66 9.28 8 12 C4.5601241 12 2.56728708 11.53558242 0.04296875 9.15234375 C-1.69798248 7.14191738 -3.37770589 5.10706247 -5 3 C-4.360625 2.690625 -3.72125 2.38125 -3.0625 2.0625 C-1.06389179 1.1654837 -1.06389179 1.1654837 0 0 Z " fill="#E95224" transform="translate(45,245)"/>
<path d="M0 0 C5.625 2.25 5.625 2.25 8.11328125 5.0390625 C8.63857422 5.61914062 9.16386719 6.19921875 9.70507812 6.796875 C10.50075195 7.70179687 10.50075195 7.70179687 11.3125 8.625 C12.13717773 9.54152344 12.13717773 9.54152344 12.97851562 10.4765625 C14.32687556 11.97734573 15.66452501 13.48773965 17 15 C13.05957221 15 11.91141781 13.53815912 9 11 C7 9 7 9 6 6 C4.56344146 5.91868537 3.1255517 5.86066441 1.6875 5.8125 C0.88699219 5.77769531 0.08648437 5.74289063 -0.73828125 5.70703125 C-3.47851584 6.06198392 -4.29171079 6.89366282 -6 9 C-6.66 8.67 -7.32 8.34 -8 8 C-5.36 5.36 -2.72 2.72 0 0 Z " fill="#D5623B" transform="translate(133,64)"/>
<path d="M0 0 C0.60328125 0.27714844 1.2065625 0.55429687 1.828125 0.83984375 C2.62734375 1.20207031 3.4265625 1.56429688 4.25 1.9375 C5.43335938 2.47697266 5.43335938 2.47697266 6.640625 3.02734375 C11.02390118 4.83435661 14.683687 5.13599148 19.4375 5.125 C20.54996094 5.12757813 21.66242188 5.13015625 22.80859375 5.1328125 C25.66377492 5.01399223 28.22507946 4.65353269 31 4 C29.51953125 5.97265625 29.51953125 5.97265625 27 8 C24.07623993 8.37544745 21.59697924 8.51545493 18.6875 8.4375 C17.58631836 8.44813477 17.58631836 8.44813477 16.46289062 8.45898438 C10.58456733 8.39117763 5.74622542 7.21469792 1.0625 3.4375 C0 2 0 2 0 0 Z " fill="#DB7557" transform="translate(186,312)"/>
<path d="M0 0 C0.99 0.33 1.98 0.66 3 1 C3 1.66 3 2.32 3 3 C3.66 3 4.32 3 5 3 C4.34 4.65 3.68 6.3 3 8 C5.97 8.495 5.97 8.495 9 9 C9 10.65 9 12.3 9 14 C9.66 14.33 10.32 14.66 11 15 C9.19921875 15.671875 9.19921875 15.671875 7 16 C5.33203125 14.890625 5.33203125 14.890625 3.8125 13.25 C3.30332031 12.71890625 2.79414063 12.1878125 2.26953125 11.640625 C-0.52024948 8.0353699 -0.08225952 4.35975448 0 0 Z " fill="#E65428" transform="translate(137,337)"/>
<path d="M0 0 C1.32 0.33 2.64 0.66 4 1 C1.3581833 3.67067203 -1.2891042 6.33585333 -3.9375 9 C-4.69224609 9.763125 -5.44699219 10.52625 -6.22460938 11.3125 C-6.94326172 12.034375 -7.66191406 12.75625 -8.40234375 13.5 C-9.39995728 14.50546875 -9.39995728 14.50546875 -10.41772461 15.53125 C-12 17 -12 17 -13 17 C-13 15.02 -13 13.04 -13 11 C-12.401875 10.896875 -11.80375 10.79375 -11.1875 10.6875 C-8.66155205 9.89363064 -7.65114593 9.04427591 -6 7 C-5.67 6.01 -5.34 5.02 -5 4 C-5.66 4 -6.32 4 -7 4 C-7 3.01 -7 2.02 -7 1 C-4.69 1.66 -2.38 2.32 0 3 C0 2.01 0 1.02 0 0 Z " fill="#D3663B" transform="translate(380,233)"/>
<path d="M0 0 C0.66 0.99 1.32 1.98 2 3 C4.05003955 4.19232613 4.05003955 4.19232613 6 5 C6 5.99 6 6.98 6 8 C7.65 8.33 9.3 8.66 11 9 C11 9.99 11 10.98 11 12 C13.475 12.99 13.475 12.99 16 14 C16 14.66 16 15.32 16 16 C16.66 16 17.32 16 18 16 C18 17.65 18 19.3 18 21 C13.50472371 17.30388394 9.26660537 13.40008149 5.125 9.3125 C4.63668701 8.83707764 4.14837402 8.36165527 3.64526367 7.87182617 C1.34999804 5.58302266 0.04101893 4.12305679 -1 1 C-0.67 0.67 -0.34 0.34 0 0 Z " fill="#DF8C6D" transform="translate(15,220)"/>
<path d="M0 0 C1 2 1 2 0.29296875 4.2421875 C-0.07183594 5.11101562 -0.43664062 5.97984375 -0.8125 6.875 C-1.16957031 7.73867187 -1.52664062 8.60234375 -1.89453125 9.4921875 C-2.86758977 11.6996206 -3.89750962 13.85488298 -5 16 C-5.66 15.67 -6.32 15.34 -7 15 C-7 19.29 -7 23.58 -7 28 C-6.34 28 -5.68 28 -5 28 C-4.67 28.99 -4.34 29.98 -4 31 C-4.66 31.66 -5.32 32.32 -6 33 C-9.49879618 27.40754666 -8.64132064 20.31700829 -8 14 C-6.23621586 8.67472865 -3.39887523 4.41554759 0 0 Z " fill="#DC7759" transform="translate(15,182)"/>
<path d="M0 0 C1.17007359 3.51022077 0.59694732 5.0534704 -0.91015625 8.359375 C-2.66590141 11.00243224 -5.14027692 11.80844872 -8 13 C-8.53625 13.5775 -9.0725 14.155 -9.625 14.75 C-10.305625 15.36875 -10.305625 15.36875 -11 16 C-12.32 15.67 -13.64 15.34 -15 15 C-10.05 10.05 -5.1 5.1 0 0 Z " fill="#D46844" transform="translate(124,73)"/>
<path d="M0 0 C0.33 0 0.66 0 1 0 C1.09796875 0.845625 1.1959375 1.69125 1.296875 2.5625 C2.72974697 13.4325632 5.53467657 20.03698834 13 28 C10.18292629 27.91714489 8.46556687 27.42324261 6.3671875 25.515625 C3.61425001 22.4036087 1.82282821 20.12236933 1 16 C0.67 15.01 0.34 14.02 0 13 C-0.06937062 10.77181559 -0.08457084 8.54165476 -0.0625 6.3125 C-0.05347656 5.13300781 -0.04445312 3.95351563 -0.03515625 2.73828125 C-0.02355469 1.83464844 -0.01195312 0.93101562 0 0 Z " fill="#E18161" transform="translate(173,284)"/>
<path d="M0 0 C3.87511727 0.54984772 5.59576506 2.27555331 8.25 5.0625 C8.95640625 5.79597656 9.6628125 6.52945313 10.390625 7.28515625 C10.92171875 7.85105469 11.4528125 8.41695312 12 9 C9 9 9 9 6 8 C5.67 8.66 5.34 9.32 5 10 C4.01 10 3.02 10 2 10 C2 8.68 2 7.36 2 6 C0.68 5.34 -0.64 4.68 -2 4 C-1.34 2.68 -0.68 1.36 0 0 Z " fill="#EA5223" transform="translate(148,80)"/>
<path d="M0 0 C1.65 0 3.3 0 5 0 C4.319375 0.495 3.63875 0.99 2.9375 1.5 C-4.94427665 8.20789502 -8.19665072 13.69514698 -10 24 C-10.33 24 -10.66 24 -11 24 C-11.25287193 17.93107371 -10.69832609 12.83799592 -9 7 C-8.01 7 -7.02 7 -6 7 C-6 6.01 -6 5.02 -6 4 C-4.02 3.34 -2.04 2.68 0 2 C0 1.34 0 0.68 0 0 Z " fill="#D86F4A" transform="translate(185,260)"/>
<path d="M0 0 C0.66 0 1.32 0 2 0 C2 3.96 2 7.92 2 12 C2.66 12 3.32 12 4 12 C5.31626692 15.61973402 6 18.09567131 6 22 C6.66 22.33 7.32 22.66 8 23 C6.68 23 5.36 23 4 23 C1.5705484 19.3558226 1.83820425 17.28758728 2 13 C1.34 13 0.68 13 0 13 C0 8.71 0 4.42 0 0 Z " fill="#DD562F" transform="translate(8,197)"/>
<path d="M0 0 C2.97 0.495 2.97 0.495 6 1 C6 1.66 6 2.32 6 3 C6.66 3 7.32 3 8 3 C8.66 4.98 9.32 6.96 10 9 C11.32 9 12.64 9 14 9 C16 12 16 12 15.625 14.1875 C15.41875 14.785625 15.2125 15.38375 15 16 C12.49599357 13.5248518 9.99748094 11.04423106 7.5 8.5625 C6.78457031 7.85544922 6.06914062 7.14839844 5.33203125 6.41992188 C4.65527344 5.74638672 3.97851562 5.07285156 3.28125 4.37890625 C2.65283203 3.7557251 2.02441406 3.13254395 1.37695312 2.49047852 C0 1 0 1 0 0 Z " fill="#DA6B49" transform="translate(171,72)"/>
<path d="M0 0 C2.25 -0.3125 2.25 -0.3125 5 0 C7.125 2.3125 7.125 2.3125 9 5 C9.5775 5.53625 10.155 6.0725 10.75 6.625 C12 8 12 8 12 11 C13.32 11 14.64 11 16 11 C16 12.65 16 14.3 16 16 C10.35573231 11.31645873 4.9941954 6.3792354 0 1 C0 0.67 0 0.34 0 0 Z " fill="#D66E4D" transform="translate(251,152)"/>
<path d="M0 0 C4.5281043 2.32873935 6.86673109 5.1045846 10 9 C10.66 9.33 11.32 9.66 12 10 C11.67 10.66 11.34 11.32 11 12 C5.60673613 11.13011873 5.60673613 11.13011873 3 10 C1.5625 7.125 1.5625 7.125 1 4 C0.79375 3.21625 0.5875 2.4325 0.375 1.625 C0.25125 1.08875 0.1275 0.5525 0 0 Z " fill="#DE6B46" transform="translate(376,165)"/>
<path d="M0 0 C4.92127143 4.11779854 9.51454836 8.41462494 14 13 C14.99885387 14.00114482 15.99849284 15.00150943 17 16 C14.03824877 15.38722388 12.61941217 14.74627478 10 13 C10 12.34 10 11.68 10 11 C8.63875 10.62875 8.63875 10.62875 7.25 10.25 C3.81758199 8.92983923 2.18171477 7.93692372 0 5 C-0.25 2.25 -0.25 2.25 0 0 Z " fill="#D07456" transform="translate(312,101)"/>
<path d="M0 0 C0.66 0 1.32 0 2 0 C2 0.66 2 1.32 2 2 C2.66 2 3.32 2 4 2 C3.47585829 6.08081763 1.38881144 7.95260664 -1.5 10.75 C-2.72203125 11.94882812 -2.72203125 11.94882812 -3.96875 13.171875 C-6 15 -6 15 -7 15 C-7 13.02 -7 11.04 -7 9 C-6.34 8.67 -5.68 8.34 -5 8 C-4.01 8.33 -3.02 8.66 -2 9 C-1.67 7.35 -1.34 5.7 -1 4 C-0.34 4 0.32 4 1 4 C0.67 2.68 0.34 1.36 0 0 Z " fill="#D86133" transform="translate(254,355)"/>
<path d="M0 0 C0.33 0 0.66 0 1 0 C2.04364061 4.54458048 2.78718576 8.34569886 0.73046875 12.66796875 C-0.76193722 14.8663841 -2.29938372 16.95926046 -4 19 C-5.39035371 14.82893888 -3.90230806 11.81793141 -2.5625 7.8125 C-2.31951172 7.06291016 -2.07652344 6.31332031 -1.82617188 5.54101562 C-1.22534944 3.69142499 -0.61370322 1.84535673 0 0 Z " fill="#E16642" transform="translate(400,203)"/>
<path d="M0 0 C0.33 1.32 0.66 2.64 1 4 C8.68931285 5.06059488 16.24506486 5.09928082 24 5 C24 5.33 24 5.66 24 6 C21.62561751 6.3383344 19.25065041 6.67079002 16.875 7 C16.20984375 7.09539062 15.5446875 7.19078125 14.859375 7.2890625 C6.80892293 8.39402651 6.80892293 8.39402651 3 8 C1.1015625 6.46875 1.1015625 6.46875 -0.375 4.5 C-0.87773437 3.8503125 -1.38046875 3.200625 -1.8984375 2.53125 C-2.44371094 1.77328125 -2.44371094 1.77328125 -3 1 C-2.01 0.67 -1.02 0.34 0 0 Z " fill="#D27050" transform="translate(270,167)"/>
<path d="M0 0 C0.309375 0.928125 0.309375 0.928125 0.625 1.875 C2.54775888 4.84653645 4.66594527 5.13024659 8 6 C8 6.99 8 7.98 8 9 C8.66 9 9.32 9 10 9 C10 10.65 10 12.3 10 14 C5.11950075 10.0580583 0.9419417 5.88049925 -3 1 C-2.01 0.67 -1.02 0.34 0 0 Z " fill="#DF8C6A" transform="translate(74,278)"/>
<path d="M0 0 C3.4375 0.8125 3.4375 0.8125 7 2 C7.33 2.99 7.66 3.98 8 5 C8.99 5.33 9.98 5.66 11 6 C11 6.99 11 7.98 11 9 C11.99 9 12.98 9 14 9 C14 10.65 14 12.3 14 14 C9.10565787 9.90473413 4.29279666 5.73642915 0 1 C0 0.67 0 0.34 0 0 Z " fill="#D76F4F" transform="translate(237,138)"/>
<path d="M0 0 C6.09296145 4.39963222 11.63115662 8.79164362 16 15 C15.34 15 14.68 15 14 15 C13.67 15.66 13.34 16.32 13 17 C13 15.68 13 14.36 13 13 C11.35 13 9.7 13 8 13 C7.566875 12.05125 7.13375 11.1025 6.6875 10.125 C5.20697799 6.79958063 5.20697799 6.79958063 2 5 C2 4.34 2 3.68 2 3 C1.01 2.67 0.02 2.34 -1 2 C-0.67 1.34 -0.34 0.68 0 0 Z " fill="#DD8361" transform="translate(240,29)"/>
<path d="M0 0 C1.65 0 3.3 0 5 0 C5.33 0.99 5.66 1.98 6 3 C6.66 3.33 7.32 3.66 8 4 C8 4.66 8 5.32 8 6 C9.32 5.67 10.64 5.34 12 5 C12.66 7.97 13.32 10.94 14 14 C3.34328358 5.01492537 3.34328358 5.01492537 0 0 Z " fill="#E07E52" transform="translate(124,332)"/>
<path d="M0 0 C0.66 0.66 1.32 1.32 2 2 C0.88121617 3.17262904 -0.24523051 4.33795138 -1.375 5.5 C-2.00148438 6.1496875 -2.62796875 6.799375 -3.2734375 7.46875 C-5 9 -5 9 -7 9 C-7.99 6.69 -8.98 4.38 -10 2 C-8.68 1.67 -7.36 1.34 -6 1 C-6 1.66 -6 2.32 -6 3 C-4.68 3 -3.36 3 -2 3 C-2 2.34 -2 1.68 -2 1 C-1.34 0.67 -0.68 0.34 0 0 Z " fill="#E75427" transform="translate(318,296)"/>
<path d="M0 0 C0.99 0.33 1.98 0.66 3 1 C3 2.32 3 3.64 3 5 C4.32 5 5.64 5 7 5 C9 8 9 8 9 11 C9.99 11 10.98 11 12 11 C12.33 12.65 12.66 14.3 13 16 C8.08064098 11.88380164 3.47352044 7.59589638 -1 3 C-0.67 2.01 -0.34 1.02 0 0 Z " fill="#DE8F6E" transform="translate(85,290)"/>
<path d="M0 0 C0.33 0.99 0.66 1.98 1 3 C-0.62339805 4.70884005 -2.29319053 6.37446717 -4 8 C-4.66 8 -5.32 8 -6 8 C-5.67 9.65 -5.34 11.3 -5 13 C-6.65 13 -8.3 13 -10 13 C-9.34 12.01 -8.68 11.02 -8 10 C-7.5359375 8.515 -7.5359375 8.515 -7.0625 7 C-6.03289807 4.09288866 -5.41023506 2.83177865 -3 1 C-2.01 0.67 -1.02 0.34 0 0 Z " fill="#DE683F" transform="translate(43,156)"/>
<path d="M0 0 C2.875 0.25 2.875 0.25 6 1 C7.25 3 7.25 3 8 5 C8.66 5.33 9.32 5.66 10 6 C10 6.99 10 7.98 10 9 C11.32 9 12.64 9 14 9 C14 10.65 14 12.3 14 14 C9.10565787 9.90473413 4.29279666 5.73642915 0 1 C0 0.67 0 0.34 0 0 Z " fill="#D8774C" transform="translate(157,58)"/>
<path d="M0 0 C1.43088528 2.86177057 0.59991697 4.93375773 0 8 C0.99 8 1.98 8 3 8 C3 9.98 3 11.96 3 14 C1.84775972 13.07038578 0.70340824 12.1309875 -0.4375 11.1875 C-1.07558594 10.66542969 -1.71367187 10.14335938 -2.37109375 9.60546875 C-4 8 -4 8 -5 5 C-3.35 3.35 -1.7 1.7 0 0 Z " fill="#D6734E" transform="translate(154,44)"/>
<path d="M0 0 C5.66129431 4.69766975 10.85228904 9.74723372 16 15 C15.01 15.33 14.02 15.66 13 16 C11.5 14.625 11.5 14.625 10 13 C10 12.34 10 11.68 10 11 C9.01 10.67 8.02 10.34 7 10 C7 9.34 7 8.68 7 8 C6.401875 7.938125 5.80375 7.87625 5.1875 7.8125 C2.09660471 6.66445318 1.4119656 4.89452948 0 2 C0 1.34 0 0.68 0 0 Z " fill="#CF6949" transform="translate(224,13)"/>
<path d="M0 0 C1.7074998 1.28062485 3.37373596 2.61767557 5 4 C5 4.66 5 5.32 5 6 C5.66 6 6.32 6 7 6 C9.73397536 8.52892721 11.93063422 10.89595133 14 14 C11.75 13.8125 11.75 13.8125 9 13 C7.62131719 11.37064759 6.28725907 9.70250393 5 8 C4.278125 7.690625 3.55625 7.38125 2.8125 7.0625 C2.214375 6.711875 1.61625 6.36125 1 6 C0.25 2.875 0.25 2.875 0 0 Z " fill="#DA8A6C" transform="translate(256,44)"/>
<path d="M0 0 C2 2 2 2 2.875 3.9375 C3.89504305 6.15396838 3.89504305 6.15396838 6.125 7.5625 C6.74375 8.036875 7.3625 8.51125 8 9 C8 9.99 8 10.98 8 12 C4.54798361 10.52278578 2.35038064 8.56205999 -0.25 5.875 C-0.95640625 5.15054687 -1.6628125 4.42609375 -2.390625 3.6796875 C-2.92171875 3.12539063 -3.4528125 2.57109375 -4 2 C-2.68 1.34 -1.36 0.68 0 0 Z " fill="#D66341" transform="translate(180,382)"/>
<path d="M0 0 C0.33 0.99 0.66 1.98 1 3 C0.01 3.33 -0.98 3.66 -2 4 C-2.69658363 5.65438613 -3.36096883 7.32254318 -4 9 C-5.80895352 11.41193803 -6.72455494 11.92953731 -9.6875 12.6875 C-10.8321875 12.8421875 -10.8321875 12.8421875 -12 13 C-8.19524578 8.43969176 -4.25030379 4.14910608 0 0 Z " fill="#D66D48" transform="translate(108,89)"/>
<path d="M0 0 C0 3.17370278 -0.30933342 4.3794668 -2 7 C-4 8 -4 8 -6 9 C-6.309375 9.680625 -6.61875 10.36125 -6.9375 11.0625 C-7.288125 11.701875 -7.63875 12.34125 -8 13 C-10.625 13.75 -10.625 13.75 -13 14 C-8.88380164 9.08064098 -4.59589638 4.47352044 0 0 Z " fill="#D7633F" transform="translate(181,17)"/>
<path d="M0 0 C-0.66 0.66 -1.32 1.32 -2 2 C-2.99 2 -3.98 2 -5 2 C-5 2.66 -5 3.32 -5 4 C-10.28 4 -15.56 4 -21 4 C-21 3.67 -21 3.34 -21 3 C-20.28714844 2.87882813 -19.57429688 2.75765625 -18.83984375 2.6328125 C-12.3529412 1.50834577 -12.3529412 1.50834577 -6 -0.1875 C-3 -1 -3 -1 0 0 Z " fill="#D96641" transform="translate(304,233)"/>
<path d="M0 0 C1.04027344 -0.01417969 2.08054688 -0.02835937 3.15234375 -0.04296875 C6.01296613 0.18357718 7.63920151 0.71016381 10.0625 2.1875 C9.06089844 2.14109375 8.05929688 2.0946875 7.02734375 2.046875 C-0.40883642 1.80874541 -5.64072237 1.84971985 -11.9375 6.1875 C-14.375 5.9375 -14.375 5.9375 -15.9375 5.1875 C-10.37046434 1.93130933 -6.58394523 0.04069187 0 0 Z " fill="#D57A5C" transform="translate(204.9375,4.8125)"/>
<path d="M0 0 C2.64 0.99 5.28 1.98 8 3 C7.67 4.65 7.34 6.3 7 8 C5.68 8 4.36 8 3 8 C2.34 6.68 1.68 5.36 1 4 C0.01 4.495 0.01 4.495 -1 5 C-1.33 4.01 -1.66 3.02 -2 2 C-1.34 1.34 -0.68 0.68 0 0 Z " fill="#EC5327" transform="translate(85,287)"/>
<path d="M0 0 C0.33 0.99 0.66 1.98 1 3 C-0.32810215 4.67083819 -1.66172696 6.33729713 -3 8 C-3 9.32 -3 10.64 -3 12 C-4 14.25 -4 14.25 -5 16 C-6.10546875 14.3203125 -6.10546875 14.3203125 -7 12 C-6.42578125 9.4921875 -6.42578125 9.4921875 -5.3125 6.875 C-4.95800781 6.00617188 -4.60351562 5.13734375 -4.23828125 4.2421875 C-3 2 -3 2 0 0 Z " fill="#E35429" transform="translate(19,180)"/>
<path d="M0 0 C2.475 0.495 2.475 0.495 5 1 C5 1.66 5 2.32 5 3 C4.01 3.33 3.02 3.66 2 4 C2.33 4.99 2.66 5.98 3 7 C2.67 7.33 2.34 7.66 2 8 C1.76346477 10.52596259 1.57826308 13.03107207 1.4375 15.5625 C1.39431641 16.27341797 1.35113281 16.98433594 1.30664062 17.71679688 C1.20028223 19.47761912 1.09961154 21.2387832 1 23 C0.67 23 0.34 23 0 23 C0 15.41 0 7.82 0 0 Z " fill="#E95328" transform="translate(217,152)"/>
<path d="M0 0 C0.33 0.66 0.66 1.32 1 2 C2.32 2 3.64 2 5 2 C5.12375 2.969375 5.2475 3.93875 5.375 4.9375 C5.58125 5.948125 5.7875 6.95875 6 8 C6.66 8.33 7.32 8.66 8 9 C8 9.66 8 10.32 8 11 C7.01 11 6.02 11 5 11 C5 10.34 5 9.68 5 9 C4.01 8.67 3.02 8.34 2 8 C1.67 7.01 1.34 6.02 1 5 C-0.49985609 3.33289654 -0.49985609 3.33289654 -2 2 C-1.34 1.34 -0.68 0.68 0 0 Z " fill="#EA5225" transform="translate(127,327)"/>
<path d="M0 0 C2.475 0.495 2.475 0.495 5 1 C5 1.66 5 2.32 5 3 C5.639375 3.20625 6.27875 3.4125 6.9375 3.625 C9 5 9 5 9.75 8.125 C9.87375 9.548125 9.87375 9.548125 10 11 C8 9.625 8 9.625 6 8 C6 7.34 6 6.68 6 6 C5.38125 5.7525 4.7625 5.505 4.125 5.25 C1.64931313 3.79371361 1.04874998 2.62187494 0 0 Z " fill="#DC8660" transform="translate(146,353)"/>
<path d="M0 0 C1.4540625 0.495 1.4540625 0.495 2.9375 1 C5.62149574 2.05173363 5.62149574 2.05173363 7 2 C7 6.29 7 10.58 7 15 C5.38630214 11.77260428 3.86166081 8.53630285 2.375 5.25 C1.92898438 4.26515625 1.48296875 3.2803125 1.0234375 2.265625 C0.68570312 1.51796875 0.34796875 0.7703125 0 0 Z " fill="#DE7453" transform="translate(312,183)"/>
<path d="M0 0 C1.13199353 0.9080162 2.25532363 1.82683826 3.375 2.75 C4.00148438 3.26046875 4.62796875 3.7709375 5.2734375 4.296875 C7.93746048 6.92473477 8.95526774 9.01589026 9.125 12.75 C9.08375 13.4925 9.0425 14.235 9 15 C8.34 14.34 7.68 13.68 7 13 C7 12.01 7 11.02 7 10 C6.37609375 9.92910156 5.7521875 9.85820312 5.109375 9.78515625 C3 9 3 9 1.953125 6.93359375 C1.72109375 6.10988281 1.4890625 5.28617188 1.25 4.4375 C1.00765625 3.61121094 0.7653125 2.78492188 0.515625 1.93359375 C0.34546875 1.29550781 0.1753125 0.65742188 0 0 Z " fill="#DD5F3D" transform="translate(388,177)"/>
<path d="M0 0 C1.44098611 0.76429661 2.87766054 1.53672555 4.3125 2.3125 C5.11300781 2.74175781 5.91351563 3.17101562 6.73828125 3.61328125 C9.6971407 5.42743514 11.63308899 6.83255588 12.6875 10.1875 C12.790625 10.785625 12.89375 11.38375 13 12 C12.34 12 11.68 12 11 12 C11 11.34 11 10.68 11 10 C10.41734375 9.731875 9.8346875 9.46375 9.234375 9.1875 C6.97213399 7.98519009 5.19423682 6.66174087 3.25 5 C2.63640625 4.484375 2.0228125 3.96875 1.390625 3.4375 C0 2 0 2 0 0 Z " fill="#E1582E" transform="translate(226,160)"/>
<path d="M0 0 C0.99 1.0209375 0.99 1.0209375 2 2.0625 C5.49468234 5.56725347 9.25130779 8.77221788 13 12 C11.171875 12.64453125 11.171875 12.64453125 9 13 C6.25 10.6875 6.25 10.6875 4 8 C4 7.34 4 6.68 4 6 C2.68 6 1.36 6 0 6 C0 4.02 0 2.04 0 0 Z " fill="#D47857" transform="translate(354,142)"/>
<path d="M0 0 C4.9438481 1.42822279 7.55754487 2.57060188 10.1875 7 C11 9 11 9 11 12 C6.96379847 10.65459949 6.14832694 8.58054491 4 5 C3.67 4.01 3.34 3.02 3 2 C2.01 1.67 1.02 1.34 0 1 C0 0.67 0 0.34 0 0 Z " fill="#DB623B" transform="translate(224,95)"/>
<path d="M0 0 C2.342834 3.514251 3.66561161 6.80156803 4 11 C3.31142337 13.91778157 2.27333449 16.2574334 1 19 C0.34 19 -0.32 19 -1 19 C-0.83628906 18.49984375 -0.67257813 17.9996875 -0.50390625 17.484375 C0.1878911 14.0736532 0.10504665 10.71264243 0.0625 7.25 C0.05573242 6.20392578 0.05573242 6.20392578 0.04882812 5.13671875 C0.0371002 3.42444197 0.01916653 1.71220967 0 0 Z " fill="#E85425" transform="translate(237,112)"/>
<path d="M0 0 C9.02984567 -0.63690134 15.28514567 0.1237941 23 5 C23 5.66 23 6.32 23 7 C22.360625 6.731875 21.72125 6.46375 21.0625 6.1875 C13.97356241 3.43872828 7.61426408 1.60430667 0 1 C0 0.67 0 0.34 0 0 Z " fill="#CE623E" transform="translate(201,88)"/>
<path d="M0 0 C0.66 0.66 1.32 1.32 2 2 C0.6905332 3.33631236 -0.62265485 4.66897925 -1.9375 6 C-2.66839844 6.7425 -3.39929688 7.485 -4.15234375 8.25 C-6 10 -6 10 -7 10 C-7 8.02 -7 6.04 -7 4 C-5.35 3.67 -3.7 3.34 -2 3 C-2 2.34 -2 1.68 -2 1 C-1.34 0.67 -0.68 0.34 0 0 Z " fill="#D86338" transform="translate(238,376)"/>
<path d="M0 0 C0.50789062 0.39832031 1.01578125 0.79664063 1.5390625 1.20703125 C5.53903498 4.28566175 9.36879143 6.91595614 14 9 C14 9.66 14 10.32 14 11 C6.2360803 10.17117197 6.2360803 10.17117197 3.2890625 7.37890625 C0 2.80653902 0 2.80653902 0 0 Z " fill="#D66A4C" transform="translate(180,139)"/>
<path d="M0 0 C4.66839378 0.61658031 4.66839378 0.61658031 7 2 C8.52843653 4.88294753 9.31308379 7.82055924 10 11 C9.34 10.67 8.68 10.34 8 10 C8 9.34 8 8.68 8 8 C7.4225 7.79375 6.845 7.5875 6.25 7.375 C3.18589456 5.50249112 1.84460032 3.03041481 0 0 Z " fill="#DC623C" transform="translate(226,264)"/>
<path d="M0 0 C0.86625 1.11375 0.86625 1.11375 1.75 2.25 C3.8751046 4.99488732 3.8751046 4.99488732 6.25 7 C8 9 8 9 8.25 11.75 C8.1675 12.4925 8.085 13.235 8 14 C7.67 13.01 7.34 12.02 7 11 C5.35 10.67 3.7 10.34 2 10 C0.68373308 6.38026598 0 3.90432869 0 0 Z " fill="#DF633F" transform="translate(260,218)"/>
<path d="M0 0 C0.99 0.33 1.98 0.66 3 1 C-0.3810038 5.13621084 -3.66590534 8.81316569 -8 12 C-7.49396008 9.83125748 -7.00016187 8.00032373 -6 6 C-5.34 6 -4.68 6 -4 6 C-4 5.34 -4 4.68 -4 4 C-2.70766393 2.62689293 -1.37562854 1.28965176 0 0 Z " fill="#D26842" transform="translate(392,221)"/>
<path d="M0 0 C0.33 1.32 0.66 2.64 1 4 C0.04701223 5.36733028 -0.95374591 6.70264493 -2 8 C-2 8.99 -2 9.98 -2 11 C-2.66 11 -3.32 11 -4 11 C-4.33 10.01 -4.66 9.02 -5 8 C-5.99 8 -6.98 8 -8 8 C-5.36 5.36 -2.72 2.72 0 0 Z " fill="#E38465" transform="translate(24,173)"/>
<path d="M0 0 C1.98 0.99 1.98 0.99 4 2 C4 2.66 4 3.32 4 4 C4.598125 4.28875 5.19625 4.5775 5.8125 4.875 C8 6 8 6 11 8 C10.67 9.32 10.34 10.64 10 12 C8.32737283 10.38113585 6.66204463 8.7547271 5 7.125 C4.071875 6.22007812 3.14375 5.31515625 2.1875 4.3828125 C0 2 0 2 0 0 Z " fill="#D16941" transform="translate(165,371)"/>
<path d="M0 0 C0.66 0.33 1.32 0.66 2 1 C1.71788123 2.6266848 1.42397625 4.25132896 1.125 5.875 C0.96257812 6.77992188 0.80015625 7.68484375 0.6328125 8.6171875 C0 11 0 11 -2 13 C-3.40182371 10.38326241 -4.60495559 7.9628331 -5 5 C-4.34 4.34 -3.68 3.68 -3 3 C-2.67 3.99 -2.34 4.98 -2 6 C-1.34 4.02 -0.68 2.04 0 0 Z " fill="#E85527" transform="translate(173,272)"/>
<path d="M0 0 C1.32 0 2.64 0 4 0 C4.33 1.32 4.66 2.64 5 4 C6.32 4.33 7.64 4.66 9 5 C9 5.99 9 6.98 9 8 C10.32 8.33 11.64 8.66 13 9 C11.296875 9.7734375 11.296875 9.7734375 9 10 C6.640625 8.1640625 6.640625 8.1640625 4.25 5.625 C3.45078125 4.79226563 2.6515625 3.95953125 1.828125 3.1015625 C0 1 0 1 0 0 Z " fill="#E08C6D" transform="translate(55,263)"/>
<path d="M0 0 C0.33 0 0.66 0 1 0 C1.18175781 0.87011719 1.18175781 0.87011719 1.3671875 1.7578125 C2.33735474 6.28028442 3.43397783 10.63750966 5 15 C3.0625 14.6875 3.0625 14.6875 1 14 C-0.04976964 10.85069107 -0.10131595 8.61185544 -0.0625 5.3125 C-0.05347656 4.31863281 -0.04445312 3.32476562 -0.03515625 2.30078125 C-0.02355469 1.54152344 -0.01195312 0.78226562 0 0 Z " fill="#D7795D" transform="translate(174,123)"/>
<path d="M0 0 C1.32 0.33 2.64 0.66 4 1 C2.35 2.65 0.7 4.3 -1 6 C-2.98 5.34 -4.96 4.68 -7 4 C-7 3.01 -7 2.02 -7 1 C-4.69 1.66 -2.38 2.32 0 3 C0 2.01 0 1.02 0 0 Z " fill="#DC5F35" transform="translate(380,233)"/>
<path d="M0 0 C0.66 0.33 1.32 0.66 2 1 C-0.70598672 3.70598672 -2.02403919 4.0015263 -5.9375 4.25 C-9.04059938 4.13399628 -11.9797847 3.75505383 -15 3 C-15 2.67 -15 2.34 -15 2 C-14.16855469 1.93941406 -13.33710938 1.87882812 -12.48046875 1.81640625 C-10.85044922 1.69072266 -10.85044922 1.69072266 -9.1875 1.5625 C-8.10855469 1.48128906 -7.02960938 1.40007812 -5.91796875 1.31640625 C-2.94010095 1.09787539 -2.94010095 1.09787539 0 0 Z " fill="#E08164" transform="translate(215,316)"/>
<path d="M0 0 C1.98 0.66 3.96 1.32 6 2 C6 2.99 6 3.98 6 5 C7.32 5.33 8.64 5.66 10 6 C9.67 7.32 9.34 8.64 9 10 C7.49702124 8.52386015 5.99768715 7.04400843 4.5 5.5625 C3.6646875 4.73878906 2.829375 3.91507812 1.96875 3.06640625 C0 1 0 1 0 0 Z " fill="#E49372" transform="translate(98,306)"/>
<path d="M0 0 C1.23104155 3.68400584 0.90767252 6.91474976 0.5625 10.75 C0.46066406 11.92046875 0.35882813 13.0909375 0.25390625 14.296875 C0.17011719 15.18890625 0.08632812 16.0809375 0 17 C0.66 17 1.32 17 2 17 C2.33 17.99 2.66 18.98 3 20 C2.34 20.66 1.68 21.32 1 22 C-1.43577332 18.23562305 -1.23476404 14.83305537 -1.1875 10.4375 C-1.1865332 9.42913086 -1.1865332 9.42913086 -1.18554688 8.40039062 C-1.1581579 5.33586829 -0.9757613 2.9272839 0 0 Z " fill="#DF917E" transform="translate(8,193)"/>
<path d="M0 0 C4.2742558 1.5830577 6.26531794 4.50568404 9 8 C8.01 8.495 8.01 8.495 7 9 C6.401875 8.360625 5.80375 7.72125 5.1875 7.0625 C3.09189663 4.79689611 3.09189663 4.79689611 0 4 C0 2.68 0 1.36 0 0 Z " fill="#CF6642" transform="translate(292,82)"/>
<path d="M0 0 C7.48291572 6.15034169 7.48291572 6.15034169 10 10 C7.69 9.34 5.38 8.68 3 8 C3 6.68 3 5.36 3 4 C1.68 3.67 0.36 3.34 -1 3 C-0.67 2.01 -0.34 1.02 0 0 Z " fill="#D55F33" transform="translate(150,80)"/>
<path d="M0 0 C0.33 0 0.66 0 1 0 C1.13277344 0.89203125 1.26554688 1.7840625 1.40234375 2.703125 C1.57894531 3.87359375 1.75554687 5.0440625 1.9375 6.25 C2.11152344 7.41015625 2.28554687 8.5703125 2.46484375 9.765625 C2.8727736 12.23106961 3.33901303 14.59424562 4 17 C3.01 16.67 2.02 16.34 1 16 C-0.14077657 12.57767028 -0.09815117 9.91326783 -0.0625 6.3125 C-0.05347656 5.13300781 -0.04445312 3.95351563 -0.03515625 2.73828125 C-0.02355469 1.83464844 -0.01195312 0.93101562 0 0 Z " fill="#D47C62" transform="translate(173,284)"/>
<path d="M0 0 C2.475 0.99 2.475 0.99 5 2 C5 2.66 5 3.32 5 4 C5.66 4 6.32 4 7 4 C7 5.65 7 7.3 7 9 C5.82460004 8.07347299 4.65989423 7.13336613 3.5 6.1875 C2.52546875 5.40439453 2.52546875 5.40439453 1.53125 4.60546875 C0 3 0 3 0 0 Z " fill="#DB8462" transform="translate(26,232)"/>
<path d="M0 0 C4.13621084 3.3810038 7.81316569 6.66590534 11 11 C5.31719533 9.51752922 5.31719533 9.51752922 3.8125 7.0625 C3.544375 6.381875 3.27625 5.70125 3 5 C2.46375 4.46375 1.9275 3.9275 1.375 3.375 C0.92125 2.92125 0.4675 2.4675 0 2 C0 1.34 0 0.68 0 0 Z " fill="#CE6949" transform="translate(301,90)"/>
<path d="M0 0 C1 3 1 3 -0.1875 6.625 C-2 10 -2 10 -4.1875 10.9375 C-4.785625 10.958125 -5.38375 10.97875 -6 11 C-6 10.34 -6 9.68 -6 9 C-5.34 9 -4.68 9 -4 9 C-4.0825 8.2575 -4.165 7.515 -4.25 6.75 C-3.92894816 3.21842973 -2.64734383 2.23369636 0 0 Z " fill="#DF5F35" transform="translate(124,73)"/>
<path d="M0 0 C3.42691357 1.23749657 6.35302769 2.4510637 9 5 C9 6.32 9 7.64 9 9 C7 9 7 9 5.2734375 7.28515625 C4.64695312 6.55167969 4.02046875 5.81820312 3.375 5.0625 C2.74335937 4.33160156 2.11171875 3.60070312 1.4609375 2.84765625 C0 1 0 1 0 0 Z " fill="#D66D49" transform="translate(40,247)"/>
<path d="M0 0 C0.33 0 0.66 0 1 0 C0.88590407 1.45922693 0.75834456 2.91740598 0.625 4.375 C0.55539062 5.18710938 0.48578125 5.99921875 0.4140625 6.8359375 C0 9 0 9 -2 11 C-2.99 11 -3.98 11 -5 11 C-4.731875 10.484375 -4.46375 9.96875 -4.1875 9.4375 C-2.67650593 6.33598585 -1.34427274 3.17737194 0 0 Z " fill="#DE7C5A" transform="translate(317,214)"/>
<path d="M0 0 C1.485 0.99 1.485 0.99 3 2 C3 2.66 3 3.32 3 4 C3.66 4 4.32 4 5 4 C6.38232443 5.62626404 7.71937515 7.2925002 9 9 C8.01 9.495 8.01 9.495 7 10 C1.21538462 5.69230769 1.21538462 5.69230769 0.125 2.1875 C0.08375 1.465625 0.0425 0.74375 0 0 Z " fill="#D58268" transform="translate(367,155)"/>
<path d="M0 0 C1.76462683 3.08809695 2 4.23312136 2 8 C2.66 8.33 3.32 8.66 4 9 C2.68 9 1.36 9 0 9 C-1.125 6.75 -1.125 6.75 -2 4 C-1.125 1.6875 -1.125 1.6875 0 0 Z " fill="#DF6E48" transform="translate(12,211)"/>
<path d="M0 0 C4.8 3.32307692 4.8 3.32307692 5.8125 6.75 C5.874375 7.4925 5.93625 8.235 6 9 C4 9 4 9 1.875 7.3125 C0 5 0 5 -0.25 2.25 C-0.1675 1.5075 -0.085 0.765 0 0 Z " fill="#D95E3B" transform="translate(312,101)"/>
<path d="M0 0 C0.66 0 1.32 0 2 0 C2.33 0.66 2.66 1.32 3 2 C3.66 2 4.32 2 5 2 C5.33 3.32 5.66 4.64 6 6 C2.98968256 6.93423645 2.13349732 7.04449911 -1 6 C-0.67 4.02 -0.34 2.04 0 0 Z " fill="#E0592C" transform="translate(251,42)"/>
<path d="M0 0 C-0.350625 0.61875 -0.70125 1.2375 -1.0625 1.875 C-1.371875 2.57625 -1.68125 3.2775 -2 4 C-1.67 4.66 -1.34 5.32 -1 6 C-3.97 5.67 -6.94 5.34 -10 5 C-8.28489314 1.56978628 -3.75681361 0 0 0 Z " fill="#E95325" transform="translate(198,8)"/>
<path d="M0 0 C1.65 0 3.3 0 5 0 C5.33 0.99 5.66 1.98 6 3 C6.66 3.33 7.32 3.66 8 4 C8.625 6.5625 8.625 6.5625 9 9 C7.87105124 8.06725891 6.74699124 7.12859878 5.625 6.1875 C4.99851563 5.66542969 4.37203125 5.14335937 3.7265625 4.60546875 C2 3 2 3 0 0 Z " fill="#DE936C" transform="translate(124,332)"/>
<path d="M0 0 C3.26460973 1.80412643 4.88929795 2.83394693 7 6 C6.01 6.33 5.02 6.66 4 7 C3.34 6.67 2.68 6.34 2 6 C2 5.34 2 4.68 2 4 C1.34 4 0.68 4 0 4 C0 2.68 0 1.36 0 0 Z " fill="#DF744E" transform="translate(251,182)"/>
<path d="M0 0 C0.99 0 1.98 0 3 0 C3 0.99 3 1.98 3 3 C3.99 3 4.98 3 6 3 C6 4.65 6 6.3 6 8 C1.3125 4.38671875 1.3125 4.38671875 0 3 C0 2.01 0 1.02 0 0 Z " fill="#DB6844" transform="translate(245,144)"/>
<path d="M0 0 C3.65316671 1.24976756 4.78065836 1.67098753 7 5 C5.02 5.66 3.04 6.32 1 7 C0 2.25 0 2.25 0 0 Z " fill="#E07152" transform="translate(347,137)"/>
<path d="M0 0 C0.66 0.66 1.32 1.32 2 2 C-1.465 4.97 -1.465 4.97 -5 8 C-5 6.35 -5 4.7 -5 3 C-4.01 3 -3.02 3 -2 3 C-2 2.34 -2 1.68 -2 1 C-1.34 0.67 -0.68 0.34 0 0 Z " fill="#D5663D" transform="translate(318,296)"/>
<path d="M0 0 C0.66 0 1.32 0 2 0 C0.4169423 4.2742558 -2.50568404 6.26531794 -6 9 C-5.38722388 6.03824877 -4.74627478 4.61941217 -3 2 C-2.01 2 -1.02 2 0 2 C0 1.34 0 0.68 0 0 Z " fill="#CE6840" transform="translate(326,288)"/>
<path d="M0 0 C0.33 0.99 0.66 1.98 1 3 C0.01 3.33 -0.98 3.66 -2 4 C-2 4.99 -2 5.98 -2 7 C-3.98 7 -5.96 7 -8 7 C-5.4837822 4.39391727 -2.94865641 2.10618315 0 0 Z " fill="#DA7B5C" transform="translate(311,225)"/>
<path d="M0 0 C1.98 0 3.96 0 6 0 C5.67 1.98 5.34 3.96 5 6 C4.01 5.67 3.02 5.34 2 5 C0.8125 2.4375 0.8125 2.4375 0 0 Z " fill="#E75523" transform="translate(310,178)"/>
<path d="M0 0 C0.33 0.66 0.66 1.32 1 2 C1.66 2 2.32 2 3 2 C3 1.34 3 0.68 3 0 C3.66 0 4.32 0 5 0 C5.33 2.31 5.66 4.62 6 7 C4.125 6.6875 4.125 6.6875 2 6 C0 3 0 3 0 0 Z " fill="#E15328" transform="translate(235,132)"/>
<path d="M0 0 C1.98 0.66 3.96 1.32 6 2 C6 2.99 6 3.98 6 5 C7.32 5.33 8.64 5.66 10 6 C8.68 6.33 7.36 6.66 6 7 C4.02 4.69 2.04 2.38 0 0 Z " fill="#E08D6E" transform="translate(138,346)"/>
<path d="M0 0 C0.99 0.33 1.98 0.66 3 1 C0.69 3.31 -1.62 5.62 -4 8 C-4.33 6.68 -4.66 5.36 -5 4 C-3.35 3.34 -1.7 2.68 0 2 C0 1.34 0 0.68 0 0 Z " fill="#D26943" transform="translate(364,250)"/>
<path d="M0 0 C3.26460973 1.80412643 4.88929795 2.83394693 7 6 C3 6 3 6 1.25 4.6875 C0 3 0 3 0 0 Z " fill="#D98C74" transform="translate(376,165)"/>
<path d="M0 0 C2.475 0.495 2.475 0.495 5 1 C5 1.66 5 2.32 5 3 C3.68 3 2.36 3 1 3 C1 5.64 1 8.28 1 11 C0.67 11 0.34 11 0 11 C0 7.37 0 3.74 0 0 Z " fill="#D06A4C" transform="translate(216,149)"/>
<path d="M0 0 C2.81939117 2.20979308 5.53058944 4.40062046 8 7 C7.67 7.66 7.34 8.32 7 9 C6.4225 8.319375 5.845 7.63875 5.25 6.9375 C4.5075 6.298125 3.765 5.65875 3 5 C0.78141747 5.13641377 0.78141747 5.13641377 -1 6 C-0.67 4.02 -0.34 2.04 0 0 Z " fill="#E75426" transform="translate(337,128)"/>
<path d="M0 0 C0.99 0.33 1.98 0.66 3 1 C0.69 3.31 -1.62 5.62 -4 8 C-4.33 7.01 -4.66 6.02 -5 5 C-4.67 4.34 -4.34 3.68 -4 3 C-3.01 3 -2.02 3 -1 3 C-0.67 2.01 -0.34 1.02 0 0 Z " fill="#CF6C45" transform="translate(263,351)"/>
<path d="M0 0 C0.99 0.33 1.98 0.66 3 1 C3 2.32 3 3.64 3 5 C4.32 5.33 5.64 5.66 7 6 C6.34 6 5.68 6 5 6 C4.67 6.66 4.34 7.32 4 8 C2.35 6.02 0.7 4.04 -1 2 C-0.67 1.34 -0.34 0.68 0 0 Z " fill="#E28A65" transform="translate(85,290)"/>
<path d="M0 0 C0.99 0.33 1.98 0.66 3 1 C0.69 3.31 -1.62 5.62 -4 8 C-4.33 7.01 -4.66 6.02 -5 5 C-4.67 4.34 -4.34 3.68 -4 3 C-3.01 3 -2.02 3 -1 3 C-0.67 2.01 -0.34 1.02 0 0 Z " fill="#CF6C44" transform="translate(343,271)"/>
<path d="M0 0 C2.8125 -0.3125 2.8125 -0.3125 6 0 C7.9375 2.375 7.9375 2.375 9 5 C8.67 5.66 8.34 6.32 8 7 C2.25 2.25 2.25 2.25 0 0 Z " fill="#D36C48" transform="translate(303,176)"/>
<path d="M0 0 C4.51720311 -0.36625971 4.51720311 -0.36625971 6.8125 1.375 C8 3 8 3 8 5 C7.01 5.33 6.02 5.66 5 6 C3.35 4.02 1.7 2.04 0 0 Z " fill="#DE6946" transform="translate(251,152)"/>
<path d="M0 0 C1.32 0 2.64 0 4 0 C3.67 0.99 3.34 1.98 3 3 C2.34 3 1.68 3 1 3 C0.34 3.66 -0.32 4.32 -1 5 C-3.475 4.01 -3.475 4.01 -6 3 C-5.38125 2.87625 -4.7625 2.7525 -4.125 2.625 C-1.80879168 2.12802644 -1.80879168 2.12802644 0 0 Z " fill="#EA5424" transform="translate(220,86)"/>
<path d="M0 0 C1.8125 0.1875 1.8125 0.1875 4 1 C5.75 3.5625 5.75 3.5625 7 6 C4 6 4 6 1.8125 4.125 C0 2 0 2 0 0 Z " fill="#D67052" transform="translate(286,76)"/>
<path d="M0 0 C0.66 0 1.32 0 2 0 C2 0.99 2 1.98 2 3 C3.32 3 4.64 3 6 3 C6 4.65 6 6.3 6 8 C1.3125 4.38671875 1.3125 4.38671875 0 3 C0 2.01 0 1.02 0 0 Z " fill="#DB6A46" transform="translate(165,64)"/>
<path d="M0 0 C3.65316671 1.24976756 4.78065836 1.67098753 7 5 C2.545 4.01 2.545 4.01 -2 3 C-1.34 2.01 -0.68 1.02 0 0 Z " fill="#D17757" transform="translate(133,64)"/>
<path d="M0 0 C0.99 0.33 1.98 0.66 3 1 C-0.465 3.97 -0.465 3.97 -4 7 C-4 5.68 -4 4.36 -4 3 C-3.34 3 -2.68 3 -2 3 C-2 2.34 -2 1.68 -2 1 C-1.34 0.67 -0.68 0.34 0 0 Z " fill="#CE6641" transform="translate(228,386)"/>
<path d="M0 0 C0.33 0 0.66 0 1 0 C1.08107583 1.93681161 1.13922475 3.8745934 1.1875 5.8125 C1.23970703 7.43091797 1.23970703 7.43091797 1.29296875 9.08203125 C1 12 1 12 -0.51171875 13.88671875 C-1.00285156 14.25410156 -1.49398437 14.62148438 -2 15 C-1.855625 14.195625 -1.71125 13.39125 -1.5625 12.5625 C-0.90311661 8.38640519 -0.43908647 4.20401941 0 0 Z " fill="#E95524" transform="translate(238,284)"/>
<path d="M0 0 C1.65 1.65 3.3 3.3 5 5 C4.34 5 3.68 5 3 5 C2.67 5.99 2.34 6.98 2 8 C1.01 6.68 0.02 5.36 -1 4 C-0.34 4 0.32 4 1 4 C0.67 2.68 0.34 1.36 0 0 Z " fill="#E5764C" transform="translate(221,151)"/>
<path d="M0 0 C0 3.57575896 -1.08840607 5.05295935 -3 8 C-4.32 7.67 -5.64 7.34 -7 7 C-4.69 4.69 -2.38 2.38 0 0 Z " fill="#E48465" transform="translate(61,136)"/>
<path d="M0 0 C2.31 1.98 4.62 3.96 7 6 C6.01 6.495 6.01 6.495 5 7 C3.02 5.68 1.04 4.36 -1 3 C-0.67 2.01 -0.34 1.02 0 0 Z " fill="#D35E35" transform="translate(160,90)"/>
<path d="M0 0 C0.99 0.33 1.98 0.66 3 1 C2.67 2.32 2.34 3.64 2 5 C0.35 5.33 -1.3 5.66 -3 6 C-3 5.34 -3 4.68 -3 4 C-2.34 3.67 -1.68 3.34 -1 3 C-0.67 2.01 -0.34 1.02 0 0 Z " fill="#E95325" transform="translate(109,89)"/>
<path d="M0 0 C0.99 0.495 0.99 0.495 2 1 C2 1.66 2 2.32 2 3 C2.639375 3.28875 3.27875 3.5775 3.9375 3.875 C6 5 6 5 7 7 C2.25 6.25 2.25 6.25 0 4 C0 2.68 0 1.36 0 0 Z " fill="#DD8F77" transform="translate(281,69)"/>
<path d="M0 0 C0.99 0.33 1.98 0.66 3 1 C2.34 1.66 1.68 2.32 1 3 C1 3.99 1 4.98 1 6 C0.01 6 -0.98 6 -2 6 C-2 4.35 -2 2.7 -2 1 C-1.34 0.67 -0.68 0.34 0 0 Z " fill="#EA5424" transform="translate(170,30)"/>
<path d="M0 0 C0 3.16880694 -0.2058242 4.43689172 -2 7 C-4.625 7.75 -4.625 7.75 -7 8 C-6.02133662 6.85373678 -5.04205413 5.70800212 -4.0625 4.5625 C-3.51722656 3.92441406 -2.97195312 3.28632813 -2.41015625 2.62890625 C-1.63204305 1.73008851 -0.84063472 0.84063472 0 0 Z " fill="#CF6A48" transform="translate(181,17)"/>
<path d="M0 0 C1.32 0.33 2.64 0.66 4 1 C0.535 3.97 0.535 3.97 -3 7 C-2 3 -2 3 0 0 Z " fill="#CF6A41" transform="translate(243,370)"/>
<path d="M0 0 C0.66 0 1.32 0 2 0 C2 2.97 2 5.94 2 9 C1.34 9 0.68 9 0 9 C-0.87890625 2.84765625 -0.87890625 2.84765625 -1 1 C-0.67 0.67 -0.34 0.34 0 0 Z " fill="#EA5323" transform="translate(245,361)"/>
<path d="M0 0 C0.66 0 1.32 0 2 0 C2 0.99 2 1.98 2 3 C2.66 3 3.32 3 4 3 C4 4.65 4 6.3 4 8 C2 6.8125 2 6.8125 0 5 C-0.25 2.3125 -0.25 2.3125 0 0 Z " fill="#E17956" transform="translate(80,284)"/>
<path d="M0 0 C0.66 0 1.32 0 2 0 C2 0.99 2 1.98 2 3 C-1 5 -1 5 -4 5 C-4.33 5.99 -4.66 6.98 -5 8 C-4.67 6.35 -4.34 4.7 -4 3 C-3.01 3 -2.02 3 -1 3 C-0.67 2.01 -0.34 1.02 0 0 Z " fill="#E7531F" transform="translate(183,259)"/>
<path d="M0 0 C1.32 0 2.64 0 4 0 C4.33 1.65 4.66 3.3 5 5 C3.68 5 2.36 5 1 5 C0.67 3.35 0.34 1.7 0 0 Z " fill="#DD592F" transform="translate(363,155)"/>
<path d="M0 0 C0.66 0.33 1.32 0.66 2 1 C1.3125 2.9375 1.3125 2.9375 0 5 C-2.625 5.75 -2.625 5.75 -5 6 C-3.63016497 2.83884224 -3.0109362 2.0072908 0 0 Z " fill="#E6512A" transform="translate(64,136)"/>
<path d="M0 0 C2.97 0.33 5.94 0.66 9 1 C8.01 1.495 8.01 1.495 7 2 C7 2.66 7 3.32 7 4 C4.625 3.6875 4.625 3.6875 2 3 C1.34 2.01 0.68 1.02 0 0 Z " fill="#CF6B4D" transform="translate(187,88)"/>
<path d="M0 0 C0.66 0.33 1.32 0.66 2 1 C1.01 1.33 0.02 1.66 -1 2 C-1.73323796 4.01508358 -1.73323796 4.01508358 -2 6 C-2.99 6 -3.98 6 -5 6 C-4.75 4.125 -4.75 4.125 -4 2 C-2.0625 0.6875 -2.0625 0.6875 0 0 Z " fill="#DE5E37" transform="translate(160,40)"/>
<path d="M0 0 C3.68754757 0.49831724 5.60490662 1.10067643 8 4 C7.01 4.495 7.01 4.495 6 5 C1.29508197 2.59016393 1.29508197 2.59016393 0 0 Z " fill="#DF7C56" transform="translate(120,328)"/>
<path d="M0 0 C2.64 1.65 5.28 3.3 8 5 C7.67 5.66 7.34 6.32 7 7 C5.68 6.67 4.36 6.34 3 6 C3 5.34 3 4.68 3 4 C2.01 3.67 1.02 3.34 0 3 C0 2.01 0 1.02 0 0 Z " fill="#E45527" transform="translate(368,160)"/>
<path d="M0 0 C3.91402949 1.26941497 5.79072873 2.51167694 8 6 C6.35 5.67 4.7 5.34 3 5 C3 4.34 3 3.68 3 3 C2.01 2.67 1.02 2.34 0 2 C0 1.34 0 0.68 0 0 Z " fill="#D88063" transform="translate(342,132)"/>
<path d="M0 0 C0.268125 0.639375 0.53625 1.27875 0.8125 1.9375 C1.88667752 4.33131686 1.88667752 4.33131686 5 5 C4.67 6.32 4.34 7.64 4 9 C3.34 8.01 2.68 7.02 2 6 C1.01 5.34 0.02 4.68 -1 4 C-0.67 2.68 -0.34 1.36 0 0 Z " fill="#E25529" transform="translate(300,90)"/>
<path d="M0 0 C2.62187494 1.04874998 3.79371361 1.64931313 5.25 4.125 C5.4975 4.74375 5.745 5.3625 6 6 C5.01 5.67 4.02 5.34 3 5 C3 4.34 3 3.68 3 3 C1.68 3 0.36 3 -1 3 C-0.67 2.01 -0.34 1.02 0 0 Z " fill="#CF6743" transform="translate(275,65)"/>
<path d="M0 0 C2.64 1.98 5.28 3.96 8 6 C7.01 6.33 6.02 6.66 5 7 C4.01 6.34 3.02 5.68 2 5 C2 4.34 2 3.68 2 3 C1.01 2.67 0.02 2.34 -1 2 C-0.67 1.34 -0.34 0.68 0 0 Z " fill="#D07456" transform="translate(240,29)"/>
<path d="M0 0 C3.93673644 1.31224548 6.22719294 2.91910327 9 6 C8.05125 5.67 7.1025 5.34 6.125 5 C3.22937548 3.89840809 3.22937548 3.89840809 1 4 C0.67 2.68 0.34 1.36 0 0 Z " fill="#D4724A" transform="translate(215,7)"/>
<path d="M0 0 C1.32 0.66 2.64 1.32 4 2 C3.67 2.99 3.34 3.98 3 5 C1.66666667 5 0.33333333 5 -1 5 C-1.33 4.01 -1.66 3.02 -2 2 C-1.34 1.34 -0.68 0.68 0 0 Z " fill="#E05629" transform="translate(85,287)"/>
<path d="M0 0 C1.14926266 0.95421808 2.29430541 1.91352045 3.4375 2.875 C4.07558594 3.40867188 4.71367187 3.94234375 5.37109375 4.4921875 C7 6 7 6 8 8 C4.63820226 6.55922954 2.40843732 4.75249979 0 2 C0 1.34 0 0.68 0 0 Z " fill="#CE6340" transform="translate(238,169)"/>
<path d="M0 0 C0.99 0 1.98 0 3 0 C2.67 1.32 2.34 2.64 2 4 C0.68 4.33 -0.64 4.66 -2 5 C-1.125 1.125 -1.125 1.125 0 0 Z " fill="#DB7856" transform="translate(27,170)"/>
<path d="M0 0 C-1.65 1.32 -3.3 2.64 -5 4 C-5.99 3.34 -6.98 2.68 -8 2 C-5.44123378 -0.55876622 -3.37797483 -1.68898741 0 0 Z " fill="#E47353" transform="translate(49,154)"/>
<path d="M0 0 C0.99 0.33 1.98 0.66 3 1 C3 1.66 3 2.32 3 3 C1.1875 4.0625 1.1875 4.0625 -1 5 C-1.99 4.67 -2.98 4.34 -4 4 C-2.68 2.68 -1.36 1.36 0 0 Z " fill="#DB8463" transform="translate(48,149)"/>
<path d="M0 0 C0.33 0.99 0.66 1.98 1 3 C-1.97 5.475 -1.97 5.475 -5 8 C-5.66 7.67 -6.32 7.34 -7 7 C-4.69 4.69 -2.38 2.38 0 0 Z " fill="#DB7F5F" transform="translate(95,102)"/>
</svg>
