<?xml version="1.0" encoding="UTF-8"?>
<svg version="1.1" xmlns="http://www.w3.org/2000/svg" width="384" height="384">
<path d="M0 0 C8.83153988 -0.04628239 17.6630382 -0.08184825 26.49467278 -0.10362434 C30.59528757 -0.11407426 34.69581958 -0.12825537 38.79638672 -0.15087891 C42.75155581 -0.1725644 46.70664511 -0.18455952 50.66186905 -0.18975449 C52.17299786 -0.19345799 53.68412217 -0.20068975 55.19521713 -0.21146011 C57.30716232 -0.22591823 59.41877524 -0.22798037 61.53076172 -0.22705078 C62.73433319 -0.231492 63.93790466 -0.23593323 65.177948 -0.24050903 C68 0 68 0 70 2 C72.77281382 2.79388818 75.50350841 3.49139287 78.3125 4.125 C79.07240234 4.30675781 79.83230469 4.48851562 80.61523438 4.67578125 C84.52008511 5.57820549 87.98019392 6.05573388 92 6 C94.421875 6.5859375 94.421875 6.5859375 96.75 7.375 C97.52859375 7.63023437 98.3071875 7.88546875 99.109375 8.1484375 C101 9 101 9 102 11 C104.32156597 11.40729228 106.6568787 11.74438677 109 12 C109 12.66 109 13.32 109 14 C110.11375 14.12375 111.2275 14.2475 112.375 14.375 C116 15 116 15 118 17 C118.55300781 17.12503906 119.10601562 17.25007813 119.67578125 17.37890625 C123.14930389 18.30712491 126.09748455 20.15054122 129.1875 21.9375 C129.82880859 22.29779297 130.47011719 22.65808594 131.13085938 23.02929688 C135.87467617 25.74935233 135.87467617 25.74935233 137 28 C137.598125 28.12375 138.19625 28.2475 138.8125 28.375 C141.75201647 29.21486185 142.95223032 30.76025191 145 33 C148.01268728 36.22577835 148.01268728 36.22577835 152 38 C152.66 38.66 153.32 39.32 154 40 C154.99 40.33 155.98 40.66 157 41 C157.4640625 41.99 157.4640625 41.99 157.9375 43 C158.288125 43.66 158.63875 44.32 159 45 C159.639375 45.144375 160.27875 45.28875 160.9375 45.4375 C163 46 163 46 164.28515625 48.1953125 C166.27574769 51.45099509 168.75153881 53.84180426 171.5 56.4375 C181.08085396 65.76703371 188.80597788 76.39734497 196.125 87.55078125 C197.83267094 90.25592401 197.83267094 90.25592401 201 91 C201.0825 91.83917969 201.165 92.67835937 201.25 93.54296875 C202.13425385 97.61882634 203.93265357 100.75207003 206 104.3125 C218.31198966 126.66219506 226.02860212 153.39623303 226.23828125 178.97265625 C226.246353 179.93159286 226.25442474 180.89052948 226.26274109 181.87852478 C226.27653229 183.90996526 226.28727649 185.94142842 226.29516602 187.97290039 C226.30657174 190.00584944 226.32683713 192.03877135 226.35668945 194.0715332 C226.83267857 226.58504646 218.68226957 258.13175322 202.34765625 286.3359375 C201.03001195 288.94067204 200.41299351 291.12472876 200 294 C199.34 294 198.68 294 198 294 C196.54204004 295.92983082 195.20033851 297.85678191 193.875 299.875 C187.48106959 309.33745185 180.31372182 317.86417911 172.55859375 326.2265625 C168.78898081 330.31270783 165.0891335 334.36629974 162 339 C161.34 339.144375 160.68 339.28875 160 339.4375 C159.34 339.623125 158.68 339.80875 158 340 C157.67 340.66 157.34 341.32 157 342 C156 344 156 344 153.875 344.75 C153.25625 344.8325 152.6375 344.915 152 345 C152 345.66 152 346.32 152 347 C151.401875 347.103125 150.80375 347.20625 150.1875 347.3125 C147.6017202 348.12517365 146.79519825 348.98937796 145 351 C140.21052632 356.15789474 140.21052632 356.15789474 136 357 C135.36771484 357.65742187 135.36771484 357.65742187 134.72265625 358.328125 C132.54616337 360.44045822 130.22869671 361.68518142 127.5625 363.125 C126.61503906 363.64320313 125.66757812 364.16140625 124.69140625 364.6953125 C122.39965049 365.80626522 120.45180518 366.42215164 118 367 C117.360625 367.515625 116.72125 368.03125 116.0625 368.5625 C113.53166529 370.3264151 112.01962166 370.25163514 109 370 C109 370.66 109 371.32 109 372 C107.906875 372.103125 106.81375 372.20625 105.6875 372.3125 C101.85493271 373.02704644 101.43778361 373.3405997 99 376 C96.375 376.75 96.375 376.75 94 377 C93.67 376.67 93.34 376.34 93 376 C92.67 376.66 92.34 377.32 92 378 C89.98967587 378.20796457 87.97848066 378.40906082 85.96484375 378.58203125 C79.85418211 379.44348157 73.92861243 381.32061703 68 383 C68 383.33 68 383.66 68 384 C59.16846012 384.04628239 50.3369618 384.08184825 41.50532722 384.10362434 C37.40471243 384.11407426 33.30418042 384.12825537 29.20361328 384.15087891 C25.24844419 384.1725644 21.29335489 384.18455952 17.33813095 384.18975449 C15.82700214 384.19345799 14.31587783 384.20068975 12.80478287 384.21146011 C10.69283768 384.22591823 8.58122476 384.22798037 6.46923828 384.22705078 C5.26566681 384.231492 4.06209534 384.23593323 2.822052 384.24050903 C-0 384 -0 384 -2 382 C-4.77281382 381.20611182 -7.50350841 380.50860713 -10.3125 379.875 C-11.07240234 379.69324219 -11.83230469 379.51148438 -12.61523438 379.32421875 C-15.80248008 378.58763547 -18.63435966 377.99902104 -21.91796875 378.0078125 C-24 378 -24 378 -26 376 C-26.99 376.33 -27.98 376.66 -29 377 C-31.62843884 375.99500868 -32.72403685 375.55192629 -34 373 C-36.32156597 372.59270772 -38.6568787 372.25561323 -41 372 C-41 371.34 -41 370.68 -41 370 C-42.11375 369.87625 -43.2275 369.7525 -44.375 369.625 C-48 369 -48 369 -50 367 C-50.55300781 366.87496094 -51.10601562 366.74992187 -51.67578125 366.62109375 C-55.14930389 365.69287509 -58.09748455 363.84945878 -61.1875 362.0625 C-62.14946289 361.52206055 -62.14946289 361.52206055 -63.13085938 360.97070312 C-67.87467617 358.25064767 -67.87467617 358.25064767 -69 356 C-69.598125 355.87625 -70.19625 355.7525 -70.8125 355.625 C-73.75201647 354.78513815 -74.95223032 353.23974809 -77 351 C-80.01268728 347.77422165 -80.01268728 347.77422165 -84 346 C-84.66 345.34 -85.32 344.68 -86 344 C-86.99 343.67 -87.98 343.34 -89 343 C-89.309375 342.34 -89.61875 341.68 -89.9375 341 C-90.288125 340.34 -90.63875 339.68 -91 339 C-91.639375 338.855625 -92.27875 338.71125 -92.9375 338.5625 C-95 338 -95 338 -96.28515625 335.8046875 C-98.27574769 332.54900491 -100.75153881 330.15819574 -103.5 327.5625 C-113.08085396 318.23296629 -120.80597788 307.60265503 -128.125 296.44921875 C-129.83267094 293.74407599 -129.83267094 293.74407599 -133 293 C-133.12375 291.74123047 -133.12375 291.74123047 -133.25 290.45703125 C-134.13425385 286.38117366 -135.93265357 283.24792997 -138 279.6875 C-150.31198966 257.33780494 -158.02860212 230.60376697 -158.23828125 205.02734375 C-158.246353 204.06840714 -158.25442474 203.10947052 -158.26274109 202.12147522 C-158.27653229 200.09003474 -158.28727649 198.05857158 -158.29516602 196.02709961 C-158.30657174 193.99415056 -158.32683713 191.96122865 -158.35668945 189.9284668 C-158.83267857 157.41495354 -150.68226957 125.86824678 -134.34765625 97.6640625 C-133.03001195 95.05932796 -132.41299351 92.87527124 -132 90 C-131.34 90 -130.68 90 -130 90 C-128.54204004 88.07016918 -127.20033851 86.14321809 -125.875 84.125 C-119.48106959 74.66254815 -112.31372182 66.13582089 -104.55859375 57.7734375 C-100.78898081 53.68729217 -97.0891335 49.63370026 -94 45 C-93.34 44.855625 -92.68 44.71125 -92 44.5625 C-91.34 44.376875 -90.68 44.19125 -90 44 C-89.505 43.01 -89.505 43.01 -89 42 C-88 40 -88 40 -85.875 39.25 C-85.25625 39.1675 -84.6375 39.085 -84 39 C-84 38.34 -84 37.68 -84 37 C-83.1028125 36.8453125 -83.1028125 36.8453125 -82.1875 36.6875 C-79.6017202 35.87482635 -78.79519825 35.01062204 -77 33 C-72.21052632 27.84210526 -72.21052632 27.84210526 -68 27 C-67.57847656 26.56171875 -67.15695313 26.1234375 -66.72265625 25.671875 C-64.54616337 23.55954178 -62.22869671 22.31481858 -59.5625 20.875 C-58.61503906 20.35679688 -57.66757813 19.83859375 -56.69140625 19.3046875 C-54.39965049 18.19373478 -52.45180518 17.57784836 -50 17 C-49.0409375 16.2265625 -49.0409375 16.2265625 -48.0625 15.4375 C-45.53166529 13.6735849 -44.01962166 13.74836486 -41 14 C-41 13.34 -41 12.68 -41 12 C-39.906875 11.896875 -38.81375 11.79375 -37.6875 11.6875 C-33.72687262 10.94907795 -33.59756842 10.60424597 -31 8 C-29.125 7.33984375 -29.125 7.33984375 -27 6.9375 C-26.20335937 6.78023438 -25.40671875 6.62296875 -24.5859375 6.4609375 C-22.84178366 6.15004603 -21.09697021 5.84283552 -19.3515625 5.5390625 C-12.77596848 4.38974664 -6.41153551 2.8602134 0 1 C0 0.67 0 0.34 0 0 Z " fill="#000000" transform="translate(158,0)"/>
<path d="M0 0 C2.57887023 0.45846582 3.91895022 1.18430961 5.64306641 3.16015625 C6.42054344 4.55229999 7.19036883 5.94872544 7.95556641 7.34765625 C13.87697197 17.00919203 20.23299463 26.41177312 26.4699707 35.87060547 C28.25455246 38.57716056 30.0377855 41.28460025 31.82080078 43.9921875 C38.88387434 54.71361877 45.98100812 65.41148935 53.11685181 76.08459473 C61.59201176 88.76351031 69.97488324 101.50286556 78.36035156 114.24121094 C84.73561032 123.92477421 91.11456754 133.60517535 97.55534363 143.24531555 C101.49787261 149.15026352 105.38497089 155.09098562 109.26806641 161.03515625 C117.24594717 173.22982634 125.24695417 185.4092741 133.2605896 197.58047485 C134.54678088 199.53437242 135.83245448 201.48861086 137.11758423 203.44320679 C138.94235663 206.21829049 140.76904559 208.99210357 142.59619141 211.765625 C143.13412827 212.58446167 143.67206512 213.40329834 144.2263031 214.24694824 C147.57755722 219.32836084 151.04544069 224.29667506 154.64788818 229.20405579 C155.95556641 231.34765625 155.95556641 231.34765625 155.95556641 234.34765625 C155.29556641 235.00765625 154.63556641 235.66765625 153.95556641 236.34765625 C153.52244141 236.82203125 153.08931641 237.29640625 152.64306641 237.78515625 C150.55412775 239.71935871 148.50211699 241.07438096 145.95556641 242.34765625 C142.68043684 241.25594639 142.20555546 240.71221137 140.25634766 238.0390625 C139.76972656 237.37455078 139.28310547 236.71003906 138.78173828 236.02539062 C138.28222656 235.32736328 137.78271484 234.62933594 137.26806641 233.91015625 C136.75695312 233.21599609 136.24583984 232.52183594 135.71923828 231.80664062 C131.95556641 226.61588889 131.95556641 226.61588889 131.95556641 224.34765625 C131.29556641 224.34765625 130.63556641 224.34765625 129.95556641 224.34765625 C128.86962891 222.94140625 128.86962891 222.94140625 127.58056641 220.84765625 C124.71681251 216.40676252 121.64173646 212.18358149 118.45556641 207.97265625 C113.91390712 201.96092228 109.41580516 195.92007394 104.95556641 189.84765625 C101.10447286 184.60527473 97.23635051 179.37801387 93.31494141 174.18798828 C82.82783506 160.30292149 72.9763188 146.02066514 63.3828125 131.50683594 C61.14187606 128.11668166 58.89346348 124.73153499 56.64306641 121.34765625 C56.27101074 120.78546387 55.89895508 120.22327148 55.515625 119.64404297 C53.27904365 116.27884826 50.98596897 112.95945083 48.65869141 109.65625 C43.97061732 102.98099792 39.49553618 96.16601003 35.00439453 89.35742188 C31.06253475 83.41213384 27.00592215 77.58571771 22.7578125 71.85473633 C20.32461624 68.46995004 18.1302489 64.95433323 15.92514038 61.41828918 C13.76830735 58.055713 11.51720048 54.77266229 9.23291016 51.49609375 C8.81972534 50.90143311 8.40654053 50.30677246 7.98083496 49.6940918 C6.97344694 48.24456022 5.96465347 46.79600556 4.95556641 45.34765625 C4.95613194 46.19883923 4.95613194 46.19883923 4.95670891 47.06721783 C4.96382881 60.88046098 4.93752416 74.69329313 4.87528801 88.50640392 C4.84620074 95.18644098 4.82820708 101.86603843 4.83544922 108.54614258 C4.84203055 114.99139749 4.8196241 121.43595638 4.77701187 127.88106728 C4.76585954 130.34143916 4.7651995 132.80188146 4.77514267 135.26225853 C4.78727686 138.70580583 4.76230073 142.14721615 4.72851562 145.59057617 C4.74073654 146.61053177 4.75295746 147.63048737 4.76554871 148.68135071 C4.64660285 155.39774754 4.64660285 155.39774754 2.68281937 158.09719276 C-0.91860681 161.26128712 -3.89218702 162.02832032 -8.60693359 161.97265625 C-9.70134766 161.98554688 -10.79576172 161.9984375 -11.92333984 162.01171875 C-16.04228397 161.13534766 -17.39287721 159.5770511 -20.04443359 156.34765625 C-20.67084599 153.36975002 -20.67084599 153.36975002 -20.67262268 150.00279236 C-20.68527664 148.72274826 -20.6979306 147.44270416 -20.71096802 146.12387085 C-20.69965271 144.71270346 -20.68782527 143.30154011 -20.67553711 141.89038086 C-20.68067727 140.39860687 -20.68795928 138.90683894 -20.69721985 137.41508484 C-20.7157286 133.36955788 -20.70279972 129.32469026 -20.68312955 125.27919078 C-20.66674021 121.04497054 -20.67555619 116.81079195 -20.6806488 112.57655334 C-20.68516896 105.46718821 -20.66930365 98.35808624 -20.64135742 91.2487793 C-20.60929343 83.02854091 -20.60932619 74.80877685 -20.62657219 66.58850473 C-20.64243244 58.68032184 -20.6357078 50.77231292 -20.61863518 42.86413765 C-20.61176127 39.49855483 -20.61280052 36.13311131 -20.62018013 32.76753044 C-20.62783804 28.80535597 -20.61573369 24.84372179 -20.58833122 20.88163948 C-20.58144147 19.42719247 -20.5813558 17.97269506 -20.58854675 16.51824951 C-20.59722713 14.53400655 -20.57886469 12.54969999 -20.55909729 10.5655365 C-20.55629037 9.4548175 -20.55348345 8.34409849 -20.55059147 7.19972134 C-18.81356682 -2.58795083 -7.58285286 -0.71368027 0 0 Z " fill="#FAFAFA" transform="translate(140.04443359375,120.65234375)"/>
<path d="M0 0 C1.30066406 -0.0103125 2.60132813 -0.020625 3.94140625 -0.03125 C8.02563515 0.58937026 8.94164718 1.30099307 11.4375 4.5 C11.92969131 7.13177109 11.92969131 7.13177109 11.91851807 10.18206787 C11.92401672 11.34030563 11.92951538 12.4985434 11.93518066 13.69187927 C11.92079956 14.95854935 11.90641846 16.22521942 11.89160156 17.53027344 C11.890473 18.88059963 11.89110712 20.23092828 11.89337158 21.58125305 C11.89451934 25.2443377 11.87100076 28.90689851 11.84307575 32.56986141 C11.81807199 36.39886253 11.81572092 40.22787564 11.81097412 44.0569458 C11.79854128 51.30657693 11.76571566 58.5559668 11.72557616 65.80549169 C11.68086792 74.05932317 11.65887382 82.31316618 11.63879442 90.5670886 C11.59698317 107.54486529 11.5266253 124.52240714 11.4375 141.5 C8.97233994 139.07272141 6.81414485 136.80554719 4.95703125 133.8828125 C4.51423828 133.191875 4.07144531 132.5009375 3.61523438 131.7890625 C3.16470703 131.07492188 2.71417969 130.36078125 2.25 129.625 C1.81880859 128.94953125 1.38761719 128.2740625 0.94335938 127.578125 C0.01875313 126.129531 -0.89055183 124.67107941 -1.78590393 123.20422363 C-3.54187652 120.42575092 -3.54187652 120.42575092 -5.80125427 117.78210449 C-14.21442219 106.80778649 -13.81979523 96.37504337 -13.6171875 82.9609375 C-13.61308483 80.7036677 -13.61225611 78.44638981 -13.61453247 76.18911743 C-13.6097781 71.48692494 -13.57480244 66.78629499 -13.51611328 62.08447266 C-13.44203155 56.05602063 -13.43047727 50.02944003 -13.43946648 44.00060081 C-13.44198862 39.35253398 -13.41893834 34.7048839 -13.38733292 30.05693436 C-13.37394305 27.83298233 -13.36687279 25.60898294 -13.36623764 23.38499069 C-13.36011342 20.28754486 -13.32129033 17.19225178 -13.27294922 14.09521484 C-13.27678619 13.17781525 -13.28062317 12.26041565 -13.28457642 11.31521606 C-13.13900223 5.13841646 -13.13900223 5.13841646 -10.24490356 1.9335022 C-6.69003869 0.0337483 -4.01567046 -0.03190205 0 0 Z " fill="#FBFBFB" transform="translate(250.5625,114.5)"/>
<path d="M0 0 C0.66 0.66 1.32 1.32 2 2 C1.67 2.99 1.34 3.98 1 5 C0.67 3.35 0.34 1.7 0 0 Z " fill="#000000" transform="translate(7,252)"/>
<path d="M0 0 C0.33 0.99 0.66 1.98 1 3 C0.34 3.66 -0.32 4.32 -1 5 C-0.67 3.35 -0.34 1.7 0 0 Z " fill="#000000" transform="translate(376,252)"/>
<path d="M0 0 C0.66 0.66 1.32 1.32 2 2 C1.67 2.99 1.34 3.98 1 5 C0.67 3.35 0.34 1.7 0 0 Z " fill="#000000" transform="translate(375,127)"/>
<path d="M0 0 C0.33 0.99 0.66 1.98 1 3 C0.34 3.66 -0.32 4.32 -1 5 C-0.67 3.35 -0.34 1.7 0 0 Z " fill="#000000" transform="translate(8,127)"/>
<path d="M0 0 C1.65 0 3.3 0 5 0 C5 0.33 5 0.66 5 1 C3.35 1 1.7 1 0 1 C0 0.67 0 0.34 0 0 Z " fill="#000000" transform="translate(228,382)"/>
<path d="M0 0 C1.65 0 3.3 0 5 0 C5 0.33 5 0.66 5 1 C3.35 1 1.7 1 0 1 C0 0.67 0 0.34 0 0 Z " fill="#000000" transform="translate(151,382)"/>
<path d="M0 0 C0.33 0 0.66 0 1 0 C1 1.65 1 3.3 1 5 C0.67 5 0.34 5 0 5 C0 3.35 0 1.7 0 0 Z " fill="#000000" transform="translate(382,228)"/>
<path d="M0 0 C0.33 0 0.66 0 1 0 C1 1.65 1 3.3 1 5 C0.67 5 0.34 5 0 5 C0 3.35 0 1.7 0 0 Z " fill="#000000" transform="translate(1,228)"/>
<path d="M0 0 C0.33 0 0.66 0 1 0 C1 1.65 1 3.3 1 5 C0.67 5 0.34 5 0 5 C0 3.35 0 1.7 0 0 Z " fill="#000000" transform="translate(383,222)"/>
<path d="M0 0 C0.33 0 0.66 0 1 0 C1 1.65 1 3.3 1 5 C0.67 5 0.34 5 0 5 C0 3.35 0 1.7 0 0 Z " fill="#000000" transform="translate(0,222)"/>
<path d="M0 0 C0.33 0 0.66 0 1 0 C1 1.65 1 3.3 1 5 C0.67 5 0.34 5 0 5 C0 3.35 0 1.7 0 0 Z " fill="#000000" transform="translate(383,157)"/>
<path d="M0 0 C0.33 0 0.66 0 1 0 C1 1.65 1 3.3 1 5 C0.67 5 0.34 5 0 5 C0 3.35 0 1.7 0 0 Z " fill="#000000" transform="translate(0,157)"/>
<path d="M0 0 C0.33 0 0.66 0 1 0 C1 1.65 1 3.3 1 5 C0.67 5 0.34 5 0 5 C0 3.35 0 1.7 0 0 Z " fill="#000000" transform="translate(382,151)"/>
<path d="M0 0 C0.33 0 0.66 0 1 0 C1 1.65 1 3.3 1 5 C0.67 5 0.34 5 0 5 C0 3.35 0 1.7 0 0 Z " fill="#000000" transform="translate(1,151)"/>
<path d="M0 0 C1.65 0 3.3 0 5 0 C5 0.33 5 0.66 5 1 C3.35 1 1.7 1 0 1 C0 0.67 0 0.34 0 0 Z " fill="#000000" transform="translate(228,1)"/>
<path d="M0 0 C1.65 0 3.3 0 5 0 C5 0.33 5 0.66 5 1 C3.35 1 1.7 1 0 1 C0 0.67 0 0.34 0 0 Z " fill="#000000" transform="translate(151,1)"/>
<path d="M0 0 C4 1 4 1 4 1 Z " fill="#000000" transform="translate(233,381)"/>
<path d="M0 0 C4 1 4 1 4 1 Z " fill="#000000" transform="translate(147,381)"/>
<path d="M0 0 C0.99 0.495 0.99 0.495 2 1 C1.67 1.66 1.34 2.32 1 3 C0.67 2.01 0.34 1.02 0 0 Z " fill="#000000" transform="translate(45,318)"/>
<path d="M0 0 C0 3 0 3 0 3 Z " fill="#000000" transform="translate(338,318)"/>
<path d="M0 0 C1 4 1 4 1 4 Z " fill="#000000" transform="translate(379,241)"/>
<path d="M0 0 C1 4 1 4 1 4 Z " fill="#000000" transform="translate(4,241)"/>
<path d="M0 0 C1 4 1 4 1 4 Z " fill="#000000" transform="translate(381,233)"/>
<path d="M0 0 C1 4 1 4 1 4 Z " fill="#000000" transform="translate(2,233)"/>
<path d="M0 0 C1 4 1 4 1 4 Z " fill="#000000" transform="translate(381,147)"/>
<path d="M0 0 C1 4 1 4 1 4 Z " fill="#000000" transform="translate(2,147)"/>
<path d="M0 0 C1 4 1 4 1 4 Z " fill="#000000" transform="translate(379,139)"/>
<path d="M0 0 C1 4 1 4 1 4 Z " fill="#000000" transform="translate(4,139)"/>
<path d="M0 0 C0.99 0.495 0.99 0.495 2 1 C1.67 1.66 1.34 2.32 1 3 C0.67 2.01 0.34 1.02 0 0 Z " fill="#000000" transform="translate(337,63)"/>
<path d="M0 0 C0 3 0 3 0 3 Z " fill="#000000" transform="translate(46,63)"/>
<path d="M0 0 C4 1 4 1 4 1 Z " fill="#000000" transform="translate(233,2)"/>
<path d="M0 0 C4 1 4 1 4 1 Z " fill="#000000" transform="translate(147,2)"/>
<path d="M0 0 C3 1 3 1 3 1 Z " fill="#000000" transform="translate(237,380)"/>
<path d="M0 0 C3 1 3 1 3 1 Z " fill="#000000" transform="translate(144,380)"/>
<path d="M0 0 C3 1 3 1 3 1 Z " fill="#000000" transform="translate(242,379)"/>
<path d="M0 0 C3 1 3 1 3 1 Z " fill="#000000" transform="translate(139,379)"/>
<path d="M0 0 C3 1 3 1 3 1 Z " fill="#000000" transform="translate(245,378)"/>
<path d="M0 0 C3 1 3 1 3 1 Z " fill="#000000" transform="translate(136,378)"/>
<path d="" fill="#000000" transform="translate(0,0)"/>
<path d="" fill="#000000" transform="translate(0,0)"/>
<path d="" fill="#000000" transform="translate(0,0)"/>
<path d="" fill="#000000" transform="translate(0,0)"/>
<path d="" fill="#000000" transform="translate(0,0)"/>
<path d="" fill="#000000" transform="translate(0,0)"/>
<path d="" fill="#000000" transform="translate(0,0)"/>
<path d="" fill="#000000" transform="translate(0,0)"/>
<path d="" fill="#000000" transform="translate(0,0)"/>
<path d="" fill="#000000" transform="translate(0,0)"/>
<path d="" fill="#000000" transform="translate(0,0)"/>
<path d="" fill="#000000" transform="translate(0,0)"/>
<path d="" fill="#000000" transform="translate(0,0)"/>
<path d="" fill="#000000" transform="translate(0,0)"/>
<path d="" fill="#000000" transform="translate(0,0)"/>
<path d="" fill="#000000" transform="translate(0,0)"/>
<path d="M0 0 C3 1 3 1 3 1 Z " fill="#000000" transform="translate(245,5)"/>
<path d="M0 0 C3 1 3 1 3 1 Z " fill="#000000" transform="translate(136,5)"/>
<path d="M0 0 C3 1 3 1 3 1 Z " fill="#000000" transform="translate(242,4)"/>
<path d="M0 0 C3 1 3 1 3 1 Z " fill="#000000" transform="translate(139,4)"/>
<path d="M0 0 C3 1 3 1 3 1 Z " fill="#000000" transform="translate(237,3)"/>
<path d="M0 0 C3 1 3 1 3 1 Z " fill="#000000" transform="translate(144,3)"/>
<path d="M0 0 C2 1 2 1 2 1 Z " fill="#000000" transform="translate(260,373)"/>
<path d="M0 0 C2 1 2 1 2 1 Z " fill="#000000" transform="translate(122,373)"/>
<path d="M0 0 C2 1 2 1 2 1 Z " fill="#000000" transform="translate(268,370)"/>
<path d="M0 0 C2 1 2 1 2 1 Z " fill="#000000" transform="translate(114,370)"/>
<path d="M0 0 C2 1 2 1 2 1 Z " fill="#000000" transform="translate(276,366)"/>
<path d="M0 0 C2 1 2 1 2 1 Z " fill="#000000" transform="translate(106,366)"/>
<path d="M0 0 C2 1 2 1 2 1 Z " fill="#7C7C7C" transform="translate(294,356)"/>
<path d="M0 0 C2 1 2 1 2 1 Z " fill="#000000" transform="translate(304,349)"/>
<path d="M0 0 C2 1 2 1 2 1 Z " fill="#000000" transform="translate(78,349)"/>
<path d="" fill="#000000" transform="translate(0,0)"/>
<path d="" fill="#000000" transform="translate(0,0)"/>
<path d="" fill="#000000" transform="translate(0,0)"/>
<path d="" fill="#000000" transform="translate(0,0)"/>
<path d="" fill="#000000" transform="translate(0,0)"/>
<path d="" fill="#000000" transform="translate(0,0)"/>
<path d="" fill="#000000" transform="translate(0,0)"/>
<path d="" fill="#000000" transform="translate(0,0)"/>
<path d="" fill="#000000" transform="translate(0,0)"/>
<path d="" fill="#000000" transform="translate(0,0)"/>
<path d="" fill="#000000" transform="translate(0,0)"/>
<path d="" fill="#000000" transform="translate(0,0)"/>
<path d="" fill="#000000" transform="translate(0,0)"/>
<path d="" fill="#000000" transform="translate(0,0)"/>
<path d="" fill="#000000" transform="translate(0,0)"/>
<path d="" fill="#000000" transform="translate(0,0)"/>
<path d="" fill="#000000" transform="translate(0,0)"/>
<path d="" fill="#000000" transform="translate(0,0)"/>
<path d="" fill="#000000" transform="translate(0,0)"/>
<path d="" fill="#000000" transform="translate(0,0)"/>
<path d="" fill="#000000" transform="translate(0,0)"/>
<path d="" fill="#000000" transform="translate(0,0)"/>
<path d="" fill="#000000" transform="translate(0,0)"/>
<path d="" fill="#000000" transform="translate(0,0)"/>
<path d="" fill="#000000" transform="translate(0,0)"/>
<path d="" fill="#000000" transform="translate(0,0)"/>
<path d="" fill="#000000" transform="translate(0,0)"/>
<path d="" fill="#000000" transform="translate(0,0)"/>
<path d="" fill="#000000" transform="translate(0,0)"/>
<path d="" fill="#000000" transform="translate(0,0)"/>
<path d="" fill="#000000" transform="translate(0,0)"/>
<path d="" fill="#000000" transform="translate(0,0)"/>
<path d="" fill="#000000" transform="translate(0,0)"/>
<path d="" fill="#000000" transform="translate(0,0)"/>
<path d="" fill="#000000" transform="translate(0,0)"/>
<path d="" fill="#000000" transform="translate(0,0)"/>
<path d="" fill="#000000" transform="translate(0,0)"/>
<path d="" fill="#000000" transform="translate(0,0)"/>
<path d="" fill="#000000" transform="translate(0,0)"/>
<path d="" fill="#000000" transform="translate(0,0)"/>
<path d="" fill="#000000" transform="translate(0,0)"/>
<path d="" fill="#000000" transform="translate(0,0)"/>
<path d="" fill="#000000" transform="translate(0,0)"/>
<path d="" fill="#000000" transform="translate(0,0)"/>
<path d="" fill="#000000" transform="translate(0,0)"/>
<path d="" fill="#000000" transform="translate(0,0)"/>
<path d="" fill="#000000" transform="translate(0,0)"/>
<path d="" fill="#000000" transform="translate(0,0)"/>
<path d="" fill="#000000" transform="translate(0,0)"/>
<path d="" fill="#000000" transform="translate(0,0)"/>
<path d="" fill="#000000" transform="translate(0,0)"/>
<path d="" fill="#000000" transform="translate(0,0)"/>
<path d="" fill="#000000" transform="translate(0,0)"/>
<path d="" fill="#000000" transform="translate(0,0)"/>
<path d="" fill="#000000" transform="translate(0,0)"/>
<path d="" fill="#000000" transform="translate(0,0)"/>
<path d="" fill="#000000" transform="translate(0,0)"/>
<path d="" fill="#000000" transform="translate(0,0)"/>
<path d="" fill="#000000" transform="translate(0,0)"/>
<path d="" fill="#000000" transform="translate(0,0)"/>
<path d="" fill="#000000" transform="translate(0,0)"/>
<path d="" fill="#000000" transform="translate(0,0)"/>
<path d="" fill="#000000" transform="translate(0,0)"/>
<path d="" fill="#000000" transform="translate(0,0)"/>
<path d="" fill="#000000" transform="translate(0,0)"/>
<path d="" fill="#000000" transform="translate(0,0)"/>
<path d="" fill="#000000" transform="translate(0,0)"/>
<path d="" fill="#000000" transform="translate(0,0)"/>
<path d="M0 0 C2 1 2 1 2 1 Z " fill="#000000" transform="translate(304,34)"/>
<path d="M0 0 C2 1 2 1 2 1 Z " fill="#000000" transform="translate(78,34)"/>
<path d="M0 0 C2 1 2 1 2 1 Z " fill="#000000" transform="translate(276,17)"/>
<path d="M0 0 C2 1 2 1 2 1 Z " fill="#000000" transform="translate(106,17)"/>
<path d="M0 0 C2 1 2 1 2 1 Z " fill="#000000" transform="translate(268,13)"/>
<path d="M0 0 C2 1 2 1 2 1 Z " fill="#000000" transform="translate(114,13)"/>
<path d="M0 0 C2 1 2 1 2 1 Z " fill="#000000" transform="translate(260,10)"/>
<path d="M0 0 C2 1 2 1 2 1 Z " fill="#000000" transform="translate(122,10)"/>
<path d="" fill="#000000" transform="translate(0,0)"/>
<path d="" fill="#010101" transform="translate(0,0)"/>
<path d="" fill="#000000" transform="translate(0,0)"/>
<path d="" fill="#000000" transform="translate(0,0)"/>
<path d="" fill="#000000" transform="translate(0,0)"/>
<path d="" fill="#000000" transform="translate(0,0)"/>
<path d="" fill="#000000" transform="translate(0,0)"/>
<path d="" fill="#000000" transform="translate(0,0)"/>
<path d="" fill="#000000" transform="translate(0,0)"/>
<path d="" fill="#000000" transform="translate(0,0)"/>
<path d="" fill="#000000" transform="translate(0,0)"/>
<path d="" fill="#000000" transform="translate(0,0)"/>
<path d="" fill="#000000" transform="translate(0,0)"/>
<path d="" fill="#000000" transform="translate(0,0)"/>
<path d="" fill="#000000" transform="translate(0,0)"/>
<path d="" fill="#000000" transform="translate(0,0)"/>
<path d="" fill="#000000" transform="translate(0,0)"/>
<path d="" fill="#000000" transform="translate(0,0)"/>
<path d="" fill="#000000" transform="translate(0,0)"/>
<path d="" fill="#000000" transform="translate(0,0)"/>
<path d="" fill="#000000" transform="translate(0,0)"/>
<path d="" fill="#000000" transform="translate(0,0)"/>
<path d="" fill="#000000" transform="translate(0,0)"/>
<path d="" fill="#000000" transform="translate(0,0)"/>
<path d="" fill="#000000" transform="translate(0,0)"/>
<path d="" fill="#000000" transform="translate(0,0)"/>
<path d="" fill="#000000" transform="translate(0,0)"/>
<path d="" fill="#000000" transform="translate(0,0)"/>
<path d="" fill="#000000" transform="translate(0,0)"/>
<path d="" fill="#000000" transform="translate(0,0)"/>
<path d="" fill="#000000" transform="translate(0,0)"/>
<path d="" fill="#000000" transform="translate(0,0)"/>
<path d="" fill="#000000" transform="translate(0,0)"/>
<path d="" fill="#000000" transform="translate(0,0)"/>
<path d="" fill="#000000" transform="translate(0,0)"/>
<path d="" fill="#000000" transform="translate(0,0)"/>
<path d="" fill="#000000" transform="translate(0,0)"/>
<path d="" fill="#000000" transform="translate(0,0)"/>
<path d="" fill="#000000" transform="translate(0,0)"/>
<path d="" fill="#000000" transform="translate(0,0)"/>
<path d="" fill="#000000" transform="translate(0,0)"/>
<path d="" fill="#000000" transform="translate(0,0)"/>
<path d="" fill="#000000" transform="translate(0,0)"/>
<path d="" fill="#000000" transform="translate(0,0)"/>
<path d="" fill="#000000" transform="translate(0,0)"/>
<path d="" fill="#000000" transform="translate(0,0)"/>
<path d="" fill="#000000" transform="translate(0,0)"/>
<path d="" fill="#000000" transform="translate(0,0)"/>
<path d="" fill="#000000" transform="translate(0,0)"/>
<path d="" fill="#000000" transform="translate(0,0)"/>
<path d="" fill="#000000" transform="translate(0,0)"/>
<path d="" fill="#000000" transform="translate(0,0)"/>
<path d="" fill="#000000" transform="translate(0,0)"/>
<path d="" fill="#000000" transform="translate(0,0)"/>
<path d="" fill="#000000" transform="translate(0,0)"/>
<path d="" fill="#000000" transform="translate(0,0)"/>
<path d="" fill="#000000" transform="translate(0,0)"/>
<path d="" fill="#000000" transform="translate(0,0)"/>
<path d="" fill="#000000" transform="translate(0,0)"/>
<path d="" fill="#000000" transform="translate(0,0)"/>
<path d="" fill="#000000" transform="translate(0,0)"/>
<path d="" fill="#000000" transform="translate(0,0)"/>
<path d="" fill="#000000" transform="translate(0,0)"/>
<path d="" fill="#000000" transform="translate(0,0)"/>
<path d="" fill="#000000" transform="translate(0,0)"/>
<path d="" fill="#000000" transform="translate(0,0)"/>
<path d="" fill="#000000" transform="translate(0,0)"/>
<path d="" fill="#000000" transform="translate(0,0)"/>
<path d="" fill="#000000" transform="translate(0,0)"/>
<path d="" fill="#000000" transform="translate(0,0)"/>
<path d="" fill="#000000" transform="translate(0,0)"/>
<path d="" fill="#000000" transform="translate(0,0)"/>
<path d="" fill="#000000" transform="translate(0,0)"/>
<path d="" fill="#000000" transform="translate(0,0)"/>
<path d="" fill="#000000" transform="translate(0,0)"/>
<path d="" fill="#000000" transform="translate(0,0)"/>
<path d="" fill="#000000" transform="translate(0,0)"/>
<path d="" fill="#000000" transform="translate(0,0)"/>
<path d="" fill="#000000" transform="translate(0,0)"/>
<path d="" fill="#000000" transform="translate(0,0)"/>
<path d="" fill="#000000" transform="translate(0,0)"/>
<path d="" fill="#000000" transform="translate(0,0)"/>
<path d="" fill="#000000" transform="translate(0,0)"/>
<path d="" fill="#000000" transform="translate(0,0)"/>
<path d="" fill="#000000" transform="translate(0,0)"/>
<path d="" fill="#000000" transform="translate(0,0)"/>
<path d="" fill="#000000" transform="translate(0,0)"/>
<path d="" fill="#000000" transform="translate(0,0)"/>
<path d="" fill="#000000" transform="translate(0,0)"/>
<path d="" fill="#000000" transform="translate(0,0)"/>
<path d="" fill="#000000" transform="translate(0,0)"/>
<path d="" fill="#000000" transform="translate(0,0)"/>
<path d="" fill="#000000" transform="translate(0,0)"/>
<path d="" fill="#000000" transform="translate(0,0)"/>
<path d="" fill="#000000" transform="translate(0,0)"/>
<path d="" fill="#000000" transform="translate(0,0)"/>
<path d="" fill="#000000" transform="translate(0,0)"/>
<path d="" fill="#000000" transform="translate(0,0)"/>
<path d="" fill="#000000" transform="translate(0,0)"/>
<path d="" fill="#000000" transform="translate(0,0)"/>
<path d="" fill="#000000" transform="translate(0,0)"/>
<path d="" fill="#000000" transform="translate(0,0)"/>
<path d="" fill="#000000" transform="translate(0,0)"/>
<path d="" fill="#000000" transform="translate(0,0)"/>
<path d="" fill="#000000" transform="translate(0,0)"/>
<path d="" fill="#000000" transform="translate(0,0)"/>
<path d="" fill="#000000" transform="translate(0,0)"/>
<path d="" fill="#000000" transform="translate(0,0)"/>
<path d="" fill="#000000" transform="translate(0,0)"/>
<path d="" fill="#000000" transform="translate(0,0)"/>
<path d="" fill="#000000" transform="translate(0,0)"/>
<path d="" fill="#000000" transform="translate(0,0)"/>
<path d="" fill="#000000" transform="translate(0,0)"/>
<path d="" fill="#000000" transform="translate(0,0)"/>
<path d="" fill="#000000" transform="translate(0,0)"/>
<path d="" fill="#000000" transform="translate(0,0)"/>
<path d="" fill="#000000" transform="translate(0,0)"/>
<path d="" fill="#000000" transform="translate(0,0)"/>
<path d="" fill="#000000" transform="translate(0,0)"/>
<path d="" fill="#000000" transform="translate(0,0)"/>
<path d="" fill="#000000" transform="translate(0,0)"/>
<path d="" fill="#000000" transform="translate(0,0)"/>
<path d="" fill="#000000" transform="translate(0,0)"/>
<path d="" fill="#000000" transform="translate(0,0)"/>
<path d="" fill="#000000" transform="translate(0,0)"/>
<path d="" fill="#000000" transform="translate(0,0)"/>
<path d="" fill="#000000" transform="translate(0,0)"/>
<path d="" fill="#000000" transform="translate(0,0)"/>
<path d="" fill="#000000" transform="translate(0,0)"/>
<path d="" fill="#000000" transform="translate(0,0)"/>
<path d="" fill="#000000" transform="translate(0,0)"/>
<path d="" fill="#000000" transform="translate(0,0)"/>
<path d="" fill="#000000" transform="translate(0,0)"/>
<path d="" fill="#000000" transform="translate(0,0)"/>
<path d="" fill="#000000" transform="translate(0,0)"/>
<path d="" fill="#000000" transform="translate(0,0)"/>
<path d="" fill="#000000" transform="translate(0,0)"/>
<path d="" fill="#000000" transform="translate(0,0)"/>
<path d="" fill="#000000" transform="translate(0,0)"/>
<path d="" fill="#000000" transform="translate(0,0)"/>
<path d="" fill="#000000" transform="translate(0,0)"/>
<path d="" fill="#000000" transform="translate(0,0)"/>
<path d="" fill="#000000" transform="translate(0,0)"/>
<path d="" fill="#000000" transform="translate(0,0)"/>
<path d="" fill="#000000" transform="translate(0,0)"/>
<path d="" fill="#000000" transform="translate(0,0)"/>
<path d="" fill="#000000" transform="translate(0,0)"/>
<path d="" fill="#000000" transform="translate(0,0)"/>
<path d="" fill="#000000" transform="translate(0,0)"/>
<path d="" fill="#000000" transform="translate(0,0)"/>
<path d="" fill="#000000" transform="translate(0,0)"/>
<path d="" fill="#000000" transform="translate(0,0)"/>
<path d="" fill="#000000" transform="translate(0,0)"/>
<path d="" fill="#000000" transform="translate(0,0)"/>
<path d="" fill="#000000" transform="translate(0,0)"/>
<path d="" fill="#000000" transform="translate(0,0)"/>
<path d="" fill="#000000" transform="translate(0,0)"/>
<path d="" fill="#000000" transform="translate(0,0)"/>
<path d="" fill="#000000" transform="translate(0,0)"/>
</svg>
