<?xml version="1.0" encoding="UTF-8"?>
<svg version="1.1" xmlns="http://www.w3.org/2000/svg" width="484" height="484">
<path d="M0 0 C8.71211979 5.03952487 12.02949961 14.25870541 16 23 C16.96239207 25.08776989 17.92601247 27.17497385 18.890625 29.26171875 C20.45741948 32.65441135 22.02201421 36.04802019 23.5793457 39.44506836 C26.27051645 45.30696147 29.00305968 51.13107276 31.9375 56.875 C35.82004656 64.48573175 39.38178948 72.23864201 42.959198 79.996521 C47.21138544 89.21162459 51.5654314 98.37136229 56 107.5 C61.04801841 117.89732816 65.97633371 128.34438665 70.81982422 138.83886719 C75.90330663 149.83653626 81.09992967 160.77945288 86.29986572 171.72244263 C91.43708121 182.5374986 96.49360886 193.38218195 101.44628906 204.28320312 C104.10942494 210.12265102 106.89923327 215.8749909 109.81420898 221.59204102 C113.4016132 228.68541922 116.69687764 235.91370497 120.02630615 243.1307373 C124.10214854 251.96128719 128.2595604 260.74686968 132.5 269.5 C137.0505663 278.90505627 141.53120695 288.33922703 145.9375 297.8125 C146.45699219 298.92625 146.97648437 300.04 147.51171875 301.1875 C149.02455261 304.45101016 150.51755747 307.72257788 152 311 C152.27569824 311.60449982 152.55139648 312.20899963 152.83544922 312.83181763 C153.68048314 314.69337444 154.51176877 316.56053384 155.33984375 318.4296875 C155.83476318 319.53683105 156.32968262 320.64397461 156.83959961 321.78466797 C159.3953337 328.8663044 158.97090363 335.39982292 156 342.25 C155.35573236 343.51169079 154.69749149 344.76693469 154 346 C153.34 346 152.68 346 152 346 C151.73840088 346.6089209 151.47680176 347.2178418 151.20727539 347.84521484 C147.13425886 355.11486983 136.41061743 357.11575069 129.0625 359.375 C127.82685303 359.76365234 126.59120605 360.15230469 125.31811523 360.55273438 C116.40951539 363.32802042 107.4490383 365.88622481 98.45092773 368.35302734 C90.95782014 370.41740148 83.53772715 372.66462156 76.125 375 C63.04320549 379.10685711 49.90626004 383.01378949 36.75 386.875 C35.69202209 387.185513 34.63404419 387.496026 33.54400635 387.81594849 C25.36405983 390.21538414 17.18220431 392.60827673 9 395 C7.6501449 395.39462755 6.30029142 395.78926064 4.95043945 396.18389893 C0.70137278 397.4261152 -3.54774323 398.66816265 -7.796875 399.91015625 C-8.51073616 400.11881821 -9.22459732 400.32748016 -9.96009064 400.54246521 C-17.00918999 402.60287221 -24.05835418 404.66305331 -31.10838699 406.72026443 C-33.08936202 407.29840045 -35.07022927 407.87690463 -37.05108643 408.45544434 C-39.6215596 409.20611607 -42.19256356 409.95488545 -44.76385498 410.70275879 C-51.03896277 412.53166838 -57.30253888 414.39023698 -63.55078125 416.30908203 C-64.7632251 416.67828262 -65.97566895 417.04748322 -67.22485352 417.4278717 C-69.48983182 418.11924578 -71.75229541 418.81894299 -74.01147461 419.52903748 C-83.09653425 422.29132985 -92.88570922 424.79914325 -102 421 C-103.04220703 420.566875 -103.04220703 420.566875 -104.10546875 420.125 C-112.10524667 415.82069471 -116.06441691 407.78400134 -120.61474609 400.26708984 C-122.73445874 396.79799369 -124.9632269 393.40258364 -127.1875 390 C-131.7404014 382.97880752 -136.24528832 375.92716659 -140.75 368.875 C-147.28609994 358.64593368 -153.89320366 348.46525154 -160.53515625 338.3046875 C-163.61947622 333.58629633 -166.68968695 328.85899076 -169.75 324.125 C-170.18505859 323.45210938 -170.62011719 322.77921875 -171.06835938 322.0859375 C-172.8590635 319.31531282 -174.64878511 316.54405512 -176.43798828 313.77246094 C-177.89565532 311.51464831 -179.35403415 309.25729669 -180.8125 307 C-181.27293701 306.28634277 -181.73337402 305.57268555 -182.20776367 304.83740234 C-185.03333005 300.46588799 -187.90429397 296.13151845 -190.87890625 291.859375 C-194.45544751 285.92755046 -195.639725 279.47582098 -194.4375 272.6875 C-192.19615467 263.97613781 -186.6983598 256.5066315 -181.91577148 249.02001953 C-178.68154655 243.9215918 -175.53150541 238.77177209 -172.375 233.625 C-170.96011873 231.3213175 -169.54453053 229.01806972 -168.12890625 226.71484375 C-167.6022361 225.85772545 -167.6022361 225.85772545 -167.06492615 224.98329163 C-162.25983439 217.16532659 -157.42411724 209.36634378 -152.58984375 201.56640625 C-150.94402789 198.90964699 -149.29991756 196.25183884 -147.65625 193.59375 C-142.85023599 185.82265073 -138.04099132 178.05405287 -133.1875 170.3125 C-128.11051311 162.21083542 -123.10808278 154.0634878 -118.10107422 145.91845703 C-112.2834092 136.45569332 -106.44164284 127.00808708 -100.58984375 117.56640625 C-98.94402789 114.90964699 -97.29991756 112.25183884 -95.65625 109.59375 C-90.85023599 101.82265073 -86.04099132 94.05405287 -81.1875 86.3125 C-76.11051311 78.21083542 -71.10808278 70.0634878 -66.10107422 61.91845703 C-61.32731094 54.15365899 -56.54667038 46.39323668 -51.73657227 38.65087891 C-48.98418737 34.21878955 -46.25294047 29.77542104 -43.55078125 25.3125 C-42.97739014 24.37124268 -42.40399902 23.42998535 -41.81323242 22.46020508 C-40.72771247 20.67737787 -39.64795515 18.89102225 -38.57543945 17.1003418 C-29.56100128 2.34532223 -17.73224567 -8.53890213 0 0 Z M-7 52 C-9.85497458 55.66805685 -10.73606099 59.37770244 -11.66308594 63.87646484 C-11.87681886 64.89392792 -11.87681886 64.89392792 -12.09486961 65.9319458 C-12.56689199 68.18986988 -13.02556674 70.45029449 -13.484375 72.7109375 C-13.81904754 74.32428297 -14.15458862 75.93744848 -14.49093628 77.55044556 C-15.21038264 81.00926739 -15.92403472 84.46921462 -16.63311768 87.93017578 C-17.7611677 93.43580762 -18.90164958 98.93881636 -20.04443359 104.44140625 C-21.21939023 110.10131935 -22.39369734 115.76136066 -23.56369019 121.42230225 C-25.98912602 133.15514802 -28.44119633 144.8819295 -30.9296875 156.6015625 C-31.16173102 157.69466232 -31.16173102 157.69466232 -31.3984623 158.80984497 C-32.01555407 161.71637029 -32.6328769 164.62284641 -33.25050068 167.52925873 C-38.86464211 193.94896237 -44.35913032 220.39137767 -49.76807022 246.85380936 C-56.09466624 277.80364211 -62.6186107 308.7104772 -69.18676758 339.60986328 C-69.37507078 340.49593734 -69.56337399 341.38201139 -69.75738335 342.29493618 C-70.64127342 346.453898 -71.52581232 350.61271887 -72.4119873 354.77119446 C-73.27985558 358.84637883 -74.14159288 362.92281178 -75 367 C-75.21643158 368.0223172 -75.43286316 369.0446344 -75.65585327 370.09793091 C-75.83733917 370.97448334 -76.01882507 371.85103577 -76.20581055 372.75415039 C-76.43000923 373.83026329 -76.43000923 373.83026329 -76.65873718 374.92811584 C-77.25561562 378.55190057 -77.68940978 382.37503888 -77 386 C-75.78612071 387.70320829 -75.78612071 387.70320829 -74 389 C-66.52244198 389.85783718 -58.49554827 386.55955266 -51.49563599 384.33956909 C-47.83428046 383.17955985 -44.16223956 382.05400113 -40.4921875 380.921875 C-39.71599564 380.68145981 -38.93980377 380.44104462 -38.14009094 380.19334412 C-29.47484541 377.51451377 -20.77051843 374.97309216 -12.0625 372.4375 C-10.37480508 371.9451786 -8.68714293 371.45274483 -6.99951172 370.96020508 C-4.31217288 370.17597446 -1.62479685 369.39187285 1.06271362 368.60823059 C12.59037385 365.24642363 24.11302758 361.86752831 35.63592529 358.48944092 C39.41949288 357.38027883 43.20314819 356.27141642 46.98681641 355.16259766 C57.50057646 352.081114 68.01398958 348.99850661 78.5234375 345.90234375 C79.29197052 345.67606796 80.06050354 345.44979218 80.85232544 345.21665955 C84.34272843 344.18874698 87.83248257 343.1587458 91.32080078 342.1237793 C97.04200656 340.43155517 102.76563061 338.7769841 108.53125 337.2421875 C109.52084717 336.97494873 110.51044434 336.70770996 111.5300293 336.43237305 C113.2931408 335.96038452 115.05994545 335.50181592 116.83129883 335.06176758 C121.74805565 333.74197054 124.900853 332.28684406 128 328 C128.562459 322.95762014 127.24247344 319.68382683 125.0625 315.171875 C124.75083893 314.5181189 124.43917786 313.86436279 124.11807251 313.1907959 C123.08924901 311.03862934 122.04456457 308.89456444 121 306.75 C120.27398885 305.23724766 119.54923682 303.72389045 118.82568359 302.20996094 C117.3168019 299.05553474 115.80249621 295.90380153 114.28417969 292.75390625 C111.02847264 285.99032598 107.83190601 279.19898986 104.63864136 272.40576172 C103.62762718 270.25558735 102.61482799 268.10626058 101.60180664 265.95703125 C97.397017 257.02726513 93.28117529 248.06099878 89.22631836 239.06201172 C86.63220719 233.32661561 83.87088492 227.70029606 81.015625 222.08984375 C78.18952313 216.43616501 75.5848735 210.67627717 72.9375 204.9375 C68.3883118 195.07665099 63.74507977 185.26806165 59 175.5 C54.51779705 166.26829405 50.11329491 157.00554975 45.8125 147.6875 C39.72452405 134.49861775 33.49858896 121.37751451 27.25292969 108.26269531 C23.26910402 99.89492306 19.29766697 91.52189097 15.3671875 83.12890625 C15.00013199 82.34572021 14.63307648 81.56253418 14.25489807 80.75561523 C12.52449258 77.06261019 10.79719245 73.36820602 9.07495117 69.67138672 C8.45763301 68.35248594 7.84020748 67.03363541 7.22265625 65.71484375 C6.69422119 64.58167725 6.16578613 63.44851074 5.62133789 62.28100586 C3.88067699 58.75853307 1.98070825 55.39223511 0 52 C-3.37400578 51.58274322 -3.37400578 51.58274322 -7 52 Z " fill="#0E374F" transform="translate(254,33)"/>
<path d="M0 0 C-3.21656156 2.14437437 -5.82823448 2.95821536 -9.53515625 4.02905273 C-10.19247742 4.22062769 -10.84979858 4.41220264 -11.52703857 4.6095829 C-13.70420234 5.24308078 -15.88335026 5.86946497 -18.0625 6.49609375 C-19.60067554 6.94264368 -21.13867748 7.38979199 -22.67651367 7.83750916 C-25.871722 8.76752883 -29.06751874 9.69548633 -32.26367188 10.62225342 C-38.76140329 12.50919604 -45.24854345 14.43164432 -51.73515892 16.35638428 C-55.25507089 17.40061486 -58.77566522 18.44254079 -62.29614258 19.48486328 C-63.73166168 19.91000458 -65.16717801 20.3351552 -66.60269165 20.76031494 C-93.75723853 28.80208127 -120.92232812 36.80678726 -148.10351562 44.75805664 C-149.81386238 45.25848732 -149.81386238 45.25848732 -151.5587616 45.76902771 C-153.65135725 46.38117805 -155.74405002 46.99299656 -157.83686829 47.60438538 C-158.77088974 47.87754074 -159.70491119 48.15069611 -160.66723633 48.43212891 C-161.99907455 48.81827362 -161.99907455 48.81827362 -163.3578186 49.21221924 C-165.17006446 49.7525502 -166.97494689 50.31802547 -168.77279663 50.90447998 C-169.6556131 51.18914124 -170.53842957 51.47380249 -171.44799805 51.76708984 C-172.22894333 52.02759125 -173.00988861 52.28809265 -173.8144989 52.55648804 C-176.2349476 53.0476788 -177.68129922 52.77996056 -180 52 C-177.03 51.505 -177.03 51.505 -174 51 C-174 49.68 -174 48.36 -174 47 C-168.86686639 45.0899968 -165.2519356 44.2493548 -160 46 C-156.99656882 45.28349813 -156.99656882 45.28349813 -153.5 44.0625 C-152.05804672 43.59143244 -150.61527248 43.12287363 -149.171875 42.65625 C-148.36041016 42.39328125 -147.54894531 42.1303125 -146.71289062 41.859375 C-141.41582491 40.18139882 -136.08030648 38.63093914 -130.75 37.0625 C-123.57724023 34.94729095 -116.40679003 32.82669968 -109.25024414 30.65722656 C-99.7584918 27.78111536 -90.225423 25.07399171 -80.66162109 22.44702148 C-76.07479218 21.17950079 -71.49402802 19.89206541 -66.94921875 18.48046875 C-66.25530029 18.26672607 -65.56138184 18.0529834 -64.84643555 17.83276367 C-62.74231902 16.88378291 -61.52505303 15.71282499 -60 14 C-59.01 14.33 -58.02 14.66 -57 15 C-57 14.34 -57 13.68 -57 13 C-50.66441829 11.48912996 -44.38146874 10.02909531 -37.9375 9.0625 C-33.74123295 8.34383598 -31.68033567 7.46210024 -29 4 C-25.93632319 2.9787744 -23.4623168 2.76225066 -20.25 2.5625 C-13.26695124 2.04150238 -7.04684201 -0.2876262 0 0 Z " fill="#C2CFD3" transform="translate(364,397)"/>
<path d="M0 0 C-1.57587891 0.48919922 -1.57587891 0.48919922 -3.18359375 0.98828125 C-4.60157718 1.42964033 -6.0195451 1.87104928 -7.4375 2.3125 C-8.46907227 2.63250977 -8.46907227 2.63250977 -9.52148438 2.95898438 C-13.14172623 4.08715277 -16.74209873 5.25159071 -20.328125 6.484375 C-25.58598795 8.24758241 -30.93752763 9.58352988 -36.3125 10.9375 C-49.98561139 14.41921553 -49.98561139 14.41921553 -63.16137695 19.41137695 C-67.00066612 21.06055154 -70.89886054 22.24885752 -74.91796875 23.375 C-75.65646561 23.58560059 -76.39496246 23.79620117 -77.15583801 24.01318359 C-78.71077437 24.45563841 -80.2663439 24.89587352 -81.82250977 25.33398438 C-84.16503198 25.99367268 -86.50549803 26.66026893 -88.84570312 27.328125 C-113.94061628 34.46496445 -113.94061628 34.46496445 -122 34 C-122 33.67 -122 33.34 -122 33 C-121.15171631 32.80188721 -120.30343262 32.60377441 -119.42944336 32.3996582 C-105.9949419 29.15804525 -92.79686882 25.15625571 -79.5625 21.1875 C-74.9395965 19.80331763 -70.31594976 18.42166213 -65.69140625 17.04296875 C-64.55512283 16.70409637 -63.41883942 16.365224 -62.24812317 16.01608276 C-53.33154364 13.36872472 -44.38284473 10.84833496 -35.4201355 8.36235046 C-27.31968176 6.10923298 -19.29920194 3.67040023 -11.30664062 1.05859375 C-10.39462891 0.77113281 -9.48261719 0.48367188 -8.54296875 0.1875 C-7.75946045 -0.06644531 -6.97595215 -0.32039063 -6.16870117 -0.58203125 C-3.7662515 -1.04504981 -2.29931957 -0.76938393 0 0 Z " fill="#C1D2DC" transform="translate(302,389)"/>
<path d="M0 0 C-3.2012832 2.1341888 -5.82853973 2.97506936 -9.51171875 4.05859375 C-10.47313782 4.34209938 -10.47313782 4.34209938 -11.45397949 4.6313324 C-13.52992407 5.240128 -15.60837571 5.83966034 -17.6875 6.4375 C-18.39218414 6.64175598 -19.09686829 6.84601196 -19.82290649 7.05645752 C-28.7277929 9.63071796 -37.57204609 11.96488784 -46.73046875 13.44921875 C-51.89715393 14.31959224 -56.94100858 15.64901934 -62 17 C-62 16.34 -62 15.68 -62 15 C-61.01 14.67 -60.02 14.34 -59 14 C-58.34 14.33 -57.68 14.66 -57 15 C-57 14.34 -57 13.68 -57 13 C-50.66441829 11.48912996 -44.38146874 10.02909531 -37.9375 9.0625 C-33.74123295 8.34383598 -31.68033567 7.46210024 -29 4 C-25.93632319 2.9787744 -23.4623168 2.76225066 -20.25 2.5625 C-13.26695124 2.04150238 -7.04684201 -0.2876262 0 0 Z " fill="#708891" transform="translate(364,397)"/>
<path d="M0 0 C0 0.66 0 1.32 0 2 C-0.969375 2.268125 -1.93875 2.53625 -2.9375 2.8125 C-3.948125 3.204375 -4.95875 3.59625 -6 4 C-6.33 4.99 -6.66 5.98 -7 7 C-8.11117187 7.12117188 -9.22234375 7.24234375 -10.3671875 7.3671875 C-23.56233965 7.72755125 -23.56233965 7.72755125 -35 12 C-37.33297433 12.04092937 -39.66705225 12.04241723 -42 12 C-38.55030498 9.70020332 -35.13066112 8.73033299 -31.19140625 7.6171875 C-30.42827621 7.39805695 -29.66514618 7.17892639 -28.87889099 6.95315552 C-27.26660066 6.49172427 -25.65354655 6.03295458 -24.03979492 5.57666016 C-21.57303474 4.87798382 -19.10969238 4.16811617 -16.64648438 3.45703125 C-15.07831812 3.00973904 -13.50996468 2.56310246 -11.94140625 2.1171875 C-11.20588028 1.90472382 -10.47035431 1.69226013 -9.71253967 1.47335815 C-6.30486708 0.51750968 -3.57173367 0 0 0 Z " fill="#658495" transform="translate(364,370)"/>
<path d="M0 0 C-0.66 0 -1.32 0 -2 0 C-2 0.66 -2 1.32 -2 2 C-3.32 2 -4.64 2 -6 2 C-6.66 3.32 -7.32 4.64 -8 6 C-9.11375 5.9071875 -9.11375 5.9071875 -10.25 5.8125 C-13.53862891 6.0367247 -14.48661008 6.95787069 -17 9 C-20.55532199 11.01788545 -21.71936329 11.06440842 -25.8125 10.125 C-26.864375 9.75375 -27.91625 9.3825 -29 9 C-25.81237635 6.87491756 -23.73487777 6.4979837 -20 6 C-20 5.34 -20 4.68 -20 4 C-17.23208055 3.13521219 -14.46134374 2.28288326 -11.6875 1.4375 C-10.90181641 1.19064453 -10.11613281 0.94378906 -9.30664062 0.68945312 C-8.54931641 0.46064453 -7.79199219 0.23183594 -7.01171875 -0.00390625 C-6.31522217 -0.21861572 -5.61872559 -0.4333252 -4.90112305 -0.65454102 C-3 -1 -3 -1 0 0 Z " fill="#5E7F8F" transform="translate(322,383)"/>
<path d="M0 0 C-1.98 0.99 -1.98 0.99 -4 2 C-4 1.34 -4 0.68 -4 0 C-7.3 0 -10.6 0 -14 0 C-13.67 0.66 -13.34 1.32 -13 2 C-13.99 2 -14.98 2 -16 2 C-16 2.66 -16 3.32 -16 4 C-16.99 4 -17.98 4 -19 4 C-19 4.66 -19 5.32 -19 6 C-19.85851562 6.18369141 -19.85851562 6.18369141 -20.734375 6.37109375 C-23.09953191 7.02762868 -25.07206797 7.93723512 -27.25 9.0625 C-27.95640625 9.42472656 -28.6628125 9.78695312 -29.390625 10.16015625 C-29.92171875 10.43730469 -30.4528125 10.71445312 -31 11 C-28.45455772 5.25102547 -23.98368325 2.08200905 -18.5625 -0.875 C-11.8872055 -2.98298774 -6.54474506 -2.18158169 0 0 Z " fill="#587685" transform="translate(252,32)"/>
<path d="M0 0 C0.33 1.32 0.66 2.64 1 4 C0.34 4 -0.32 4 -1 4 C-1.061875 5.258125 -1.12375 6.51625 -1.1875 7.8125 C-1.453125 10.046875 -1.453125 10.046875 -2 12 C-3.63631892 13.04892238 -5.30485863 14.04906703 -7 15 C-8.36900354 18.57996259 -8.36900354 18.57996259 -9 22 C-9.66 22 -10.32 22 -11 22 C-11 22.66 -11 23.32 -11 24 C-11.66 24 -12.32 24 -13 24 C-12.67 25.32 -12.34 26.64 -12 28 C-13.65 28.33 -15.3 28.66 -17 29 C-15.66420813 25.40985914 -14.05972435 22.26987404 -12.03125 19.0234375 C-11.46019531 18.105625 -10.88914062 17.1878125 -10.30078125 16.2421875 C-9.70652344 15.29601562 -9.11226563 14.34984375 -8.5 13.375 C-7.90574219 12.42109375 -7.31148437 11.4671875 -6.69921875 10.484375 C-4.50216296 6.96313435 -2.30236451 3.45354676 0 0 Z " fill="#3F5966" transform="translate(102,234)"/>
<path d="M0 0 C0.99 1.32 1.98 2.64 3 4 C1.68 4.33 0.36 4.66 -1 5 C-1.66 8.63 -2.32 12.26 -3 16 C-4.32 16.33 -5.64 16.66 -7 17 C-7.33 17.99 -7.66 18.98 -8 20 C-8.99 20 -9.98 20 -11 20 C-11 21.32 -11 22.64 -11 24 C-11.99 24 -12.98 24 -14 24 C-12.70208638 20.51825247 -11.18014318 17.48384093 -9.1796875 14.35546875 C-8.64472656 13.51435547 -8.10976562 12.67324219 -7.55859375 11.80664062 C-6.72521484 10.51016602 -6.72521484 10.51016602 -5.875 9.1875 C-5.31167969 8.30384766 -4.74835938 7.42019531 -4.16796875 6.50976562 C-2.78236826 4.33742587 -1.39295366 2.16762917 0 0 Z " fill="#11374B" transform="translate(216,50)"/>
<path d="M0 0 C-6.15394611 4.10263074 -13.73143164 5.12620075 -20.99609375 5.75 C-23.80450811 6.10036748 -26.34385076 7.05137527 -29 8 C-29.99 8 -30.98 8 -32 8 C-31 5 -31 5 -28.8046875 3.84375 C-25.83248192 2.94960459 -23.22080461 2.66082102 -20.125 2.5 C-13.18078081 2.0325189 -7.00592888 -0.28595628 0 0 Z " fill="#3B5765" transform="translate(364,397)"/>
<path d="M0 0 C1.2813887 4.2434394 0.60672323 6.83712619 -1 11 C-2.62449243 12.70779973 -4.29220027 14.37550757 -6 16 C-7.79320824 19.16645474 -7.79320824 19.16645474 -9 22 C-9.99 21.67 -10.98 21.34 -12 21 C-10.32508169 16.11963459 -7.63208039 12.00847052 -4.875 7.6875 C-4.40707031 6.94693359 -3.93914062 6.20636719 -3.45703125 5.44335938 C-2.30835804 3.62658032 -1.15467631 1.81296963 0 0 Z " fill="#375564" transform="translate(133,184)"/>
<path d="M0 0 C2.15583679 3.23375518 3.88943619 6.59489994 5.625 10.0625 C5.94984375 10.69994141 6.2746875 11.33738281 6.609375 11.99414062 C9 16.76032366 9 16.76032366 9 19 C8.01 19.33 7.02 19.66 6 20 C5.67 18.68 5.34 17.36 5 16 C4.34 16.33 3.68 16.66 3 17 C-0.8516972 11.63096754 -1.33087188 8.46015032 -0.359375 1.94140625 C-0.24078125 1.30074219 -0.1221875 0.66007812 0 0 Z " fill="#093854" transform="translate(289,98)"/>
<path d="M0 0 C-2.8855961 1.47635149 -5.72480147 2.8936733 -8.75 4.0625 C-11.1478805 4.8940473 -11.1478805 4.8940473 -13 7 C-15.125 6.625 -15.125 6.625 -17 6 C-16.67 5.34 -16.34 4.68 -16 4 C-16.99 4.33 -17.98 4.66 -19 5 C-20.39439664 5.06665376 -21.79169875 5.08538199 -23.1875 5.0625 C-25.0746875 5.0315625 -25.0746875 5.0315625 -27 5 C-27 4.67 -27 4.34 -27 4 C-26.42894531 3.89042969 -25.85789063 3.78085937 -25.26953125 3.66796875 C-19.08822644 2.45922393 -12.98745587 1.04018456 -6.8828125 -0.51171875 C-4.11705796 -0.98017311 -2.60289657 -0.93679128 0 0 Z " fill="#2D546A" transform="translate(208,419)"/>
<path d="M0 0 C0 9 0 9 -1.3125 10.625 C-3 12 -3 12 -6 13 C-6 14.65 -6 16.3 -6 18 C-6.99 17.67 -7.98 17.34 -9 17 C-8.67 18.32 -8.34 19.64 -8 21 C-9.32 21 -10.64 21 -12 21 C-10.57298364 15.92356475 -8.32425022 12.02446597 -5.4375 7.6875 C-5.02564453 7.05521484 -4.61378906 6.42292969 -4.18945312 5.77148438 C-1.18752426 1.18752426 -1.18752426 1.18752426 0 0 Z " fill="#5F7785" transform="translate(75,278)"/>
<path d="M0 0 C-0.71378027 8.13709505 -2.32773882 16.01731928 -4 24 C-4.33 24 -4.66 24 -5 24 C-5 19.71 -5 15.42 -5 11 C-4.34 11 -3.68 11 -3 11 C-3 9.68 -3 8.36 -3 7 C-3.99 7 -4.98 7 -6 7 C-6.33 5.68 -6.66 4.36 -7 3 C-3.375 0 -3.375 0 0 0 Z " fill="#3F5F74" transform="translate(207,267)"/>
<path d="M0 0 C3.3 0 6.6 0 10 0 C2.05451898 5.29698734 -8.19770349 6.59276299 -17.51171875 5.65234375 C-20.2665763 4.93011265 -21.86040405 3.84897167 -24 2 C-22.88625 2.2475 -22.88625 2.2475 -21.75 2.5 C-15.01242624 3.39834317 -7.60744078 3.86091915 -1 2 C-0.67 1.34 -0.34 0.68 0 0 Z " fill="#A9B8C1" transform="translate(174,450)"/>
<path d="M0 0 C-2.78674892 1.85783261 -4.6523134 2.61251226 -7.81640625 3.5078125 C-8.74517578 3.77207031 -9.67394531 4.03632813 -10.63085938 4.30859375 C-11.59830078 4.57800781 -12.56574219 4.84742188 -13.5625 5.125 C-14.53380859 5.40214844 -15.50511719 5.67929687 -16.50585938 5.96484375 C-23.71913485 8 -23.71913485 8 -26 8 C-25.26098633 6.07910156 -25.26098633 6.07910156 -24 4 C-22.1081543 3.17871094 -22.1081543 3.17871094 -19.82421875 2.734375 C-18.99599609 2.56679688 -18.16777344 2.39921875 -17.31445312 2.2265625 C-16.44755859 2.06929688 -15.58066406 1.91203125 -14.6875 1.75 C-13.40456055 1.49089844 -13.40456055 1.49089844 -12.09570312 1.2265625 C-8.02566087 0.43210034 -4.1668456 -0.24056016 0 0 Z " fill="#365462" transform="translate(240,432)"/>
<path d="M0 0 C-2.93127417 1.95418278 -4.8905744 2.64140755 -8.25390625 3.5078125 C-9.27291016 3.77207031 -10.29191406 4.03632813 -11.34179688 4.30859375 C-12.40462891 4.57800781 -13.46746094 4.84742188 -14.5625 5.125 C-15.62919922 5.40214844 -16.69589844 5.67929687 -17.79492188 5.96484375 C-25.70997537 8 -25.70997537 8 -28 8 C-28 7.01 -28 6.02 -28 5 C-22.99225372 3.49636861 -18.01447404 2.32711428 -12.875 1.375 C-12.18535156 1.2409375 -11.49570312 1.106875 -10.78515625 0.96875 C-7.14445056 0.28655276 -3.70496413 -0.15857823 0 0 Z " fill="#3A5764" transform="translate(275,422)"/>
<path d="M0 0 C0.99 1.32 1.98 2.64 3 4 C2.34 4.66 1.68 5.32 1 6 C1 6.99 1 7.98 1 9 C-0.29103643 10.3743291 -1.6256709 11.70896357 -3 13 C-3.33 13.66 -3.66 14.32 -4 15 C-5.32 15 -6.64 15 -8 15 C-6.62712658 11.30123909 -4.93644547 8.0485524 -2.875 4.6875 C-2.33617188 3.80449219 -1.79734375 2.92148437 -1.2421875 2.01171875 C-0.83226563 1.34785156 -0.42234375 0.68398438 0 0 Z " fill="#476372" transform="translate(84,263)"/>
<path d="M0 0 C-0.99 0 -1.98 0 -3 0 C-3.165 0.598125 -3.33 1.19625 -3.5 1.8125 C-5.82605325 5.20466099 -9.1139143 5.99689948 -13 7 C-16 7.1875 -16 7.1875 -18 7 C-17 4 -17 4 -14.19921875 2.578125 C-13.04035156 2.13984375 -11.88148438 1.7015625 -10.6875 1.25 C-9.53636719 0.80140625 -8.38523438 0.3528125 -7.19921875 -0.109375 C-4.14736575 -0.9589751 -2.87387396 -1.16374155 0 0 Z " fill="#103E56" transform="translate(252,405)"/>
<path d="M0 0 C3 2 3 2 4.4375 4.0625 C6.23112328 6.28659286 7.22589786 6.61736522 10 7 C10.33 8.98 10.66 10.96 11 13 C10.01 13 9.02 13 8 13 C7.34 13.66 6.68 14.32 6 15 C4.99539469 12.87717331 3.99644398 10.75166979 3 8.625 C2.443125 7.44164062 1.88625 6.25828125 1.3125 5.0390625 C0 2 0 2 0 0 Z " fill="#3F6072" transform="translate(276,130)"/>
<path d="M0 0 C-0.33 0.99 -0.66 1.98 -1 3 C-1.66 3 -2.32 3 -3 3 C-3 3.66 -3 4.32 -3 5 C-4.57914015 5.53341184 -6.16354387 6.05125763 -7.75 6.5625 C-8.63171875 6.85253906 -9.5134375 7.14257812 -10.421875 7.44140625 C-13.07834316 8.01697435 -14.47031106 7.89248371 -17 7 C-15.02 6.67 -13.04 6.34 -11 6 C-11 4.68 -11 3.36 -11 2 C-7.17679443 0.57741188 -4.08718695 -0.24042276 0 0 Z " fill="#708692" transform="translate(201,442)"/>
<path d="M0 0 C1.0546875 1.828125 1.0546875 1.828125 2 4 C1.125 6.75 1.125 6.75 0 9 C-0.66 9 -1.32 9 -2 9 C-2.12375 10.134375 -2.2475 11.26875 -2.375 12.4375 C-2.58125 13.613125 -2.7875 14.78875 -3 16 C-3.66 16.33 -4.32 16.66 -5 17 C-5.144375 16.38125 -5.28875 15.7625 -5.4375 15.125 C-5.93152225 12.96741678 -5.93152225 12.96741678 -7 11 C-5.56640625 8.3984375 -5.56640625 8.3984375 -3.5625 5.375 C-2.90378906 4.37210938 -2.24507812 3.36921875 -1.56640625 2.3359375 C-1.04949219 1.56507813 -0.53257812 0.79421875 0 0 Z " fill="#355666" transform="translate(159,142)"/>
<path d="M0 0 C-2.78674892 1.85783261 -4.6523134 2.61251226 -7.81640625 3.5078125 C-8.74517578 3.77207031 -9.67394531 4.03632813 -10.63085938 4.30859375 C-11.59830078 4.57800781 -12.56574219 4.84742188 -13.5625 5.125 C-14.53380859 5.40214844 -15.50511719 5.67929687 -16.50585938 5.96484375 C-23.71913485 8 -23.71913485 8 -26 8 C-26 7.34 -26 6.68 -26 6 C-24.68 6 -23.36 6 -22 6 C-22 5.34 -22 4.68 -22 4 C-19.4604163 3.32438628 -16.91881165 2.65934172 -14.375 2 C-13.66214844 1.80921875 -12.94929688 1.6184375 -12.21484375 1.421875 C-8.04151456 0.34982713 -4.34821249 -0.21946814 0 0 Z " fill="#3F5C69" transform="translate(301,414)"/>
<path d="M0 0 C1.76227952 2.64341928 3.19871008 5.23077235 4.625 8.0625 C5.07101562 8.94035156 5.51703125 9.81820312 5.9765625 10.72265625 C7 13 7 13 7 15 C1.36211699 13.52924791 1.36211699 13.52924791 -0.21875 11.21875 C-1.13635118 8.61276264 -1.02483285 6.96886335 -0.625 4.25 C-0.51414062 3.45078125 -0.40328125 2.6515625 -0.2890625 1.828125 C-0.19367188 1.22484375 -0.09828125 0.6215625 0 0 Z " fill="#31556D" transform="translate(298,117)"/>
<path d="M0 0 C-4.89436983 4.89436983 -11.35636077 5.57280919 -17.9375 6.1875 C-18.71673828 6.26935547 -19.49597656 6.35121094 -20.29882812 6.43554688 C-22.19820797 6.63364171 -24.09898762 6.81823841 -26 7 C-21.92780764 4.28520509 -17.66190075 3.2077872 -13 1.8125 C-12.08476562 1.52697266 -11.16953125 1.24144531 -10.2265625 0.94726562 C-9.34742188 0.68236328 -8.46828125 0.41746094 -7.5625 0.14453125 C-6.75941406 -0.09934326 -5.95632812 -0.34321777 -5.12890625 -0.59448242 C-3 -1 -3 -1 0 0 Z " fill="#1A475B" transform="translate(234,411)"/>
<path d="M0 0 C0.5775 0.20625 1.155 0.4125 1.75 0.625 C0.780625 0.91375 -0.18875 1.2025 -1.1875 1.5 C-4.35664203 2.26714682 -4.35664203 2.26714682 -5.25 4.625 C-8.81454416 5.99597852 -12.48355995 5.69743154 -16.25 5.625 C-16.25 6.285 -16.25 6.945 -16.25 7.625 C-19.22 7.625 -22.19 7.625 -25.25 7.625 C-20.83870781 5.4193539 -16.48207174 4.30403919 -11.73828125 3.125 C-7.94153073 2.15497192 -3.7787278 -0.62978797 0 0 Z " fill="#355C6F" transform="translate(291.25,392.375)"/>
<path d="M0 0 C0.99 0.66 1.98 1.32 3 2 C0.97532126 6.84476699 -2.41054064 8.73926632 -7 11 C-10.5 11.8125 -10.5 11.8125 -13 12 C-10 10 -10 10 -8 10 C-8 9.01 -8 8.02 -8 7 C-5.5 5.3125 -5.5 5.3125 -3 4 C-2.67 4.33 -2.34 4.66 -2 5 C-1.34 3.35 -0.68 1.7 0 0 Z " fill="#667D8C" transform="translate(403,377)"/>
<path d="M0 0 C-3.92366876 2.61577917 -7.96692652 3.7685353 -12.4375 5.1875 C-13.29666016 5.47302734 -14.15582031 5.75855469 -15.04101562 6.05273438 C-15.87181641 6.31763672 -16.70261719 6.58253906 -17.55859375 6.85546875 C-18.31454834 7.09934326 -19.07050293 7.34321777 -19.84936523 7.59448242 C-22.23894365 8.04505454 -23.71272985 7.75896519 -26 7 C-24.35 6.67 -22.7 6.34 -21 6 C-21 5.34 -21 4.68 -21 4 C-17.535 3.505 -17.535 3.505 -14 3 C-14 2.34 -14 1.68 -14 1 C-9.27685687 0.22887459 -4.78478822 -0.09764874 0 0 Z " fill="#A0AFB5" transform="translate(390,389)"/>
<path d="M0 0 C0.33 0 0.66 0 1 0 C1.63934602 5.11476819 -0.59466453 8.67254378 -3 13 C-3.99 12.67 -4.98 12.34 -6 12 C-6 12.99 -6 13.98 -6 15 C-6.99 15.33 -7.98 15.66 -9 16 C-7.56786488 12.06342758 -5.69667846 8.71068644 -3.4375 5.1875 C-2.50744141 3.72376953 -2.50744141 3.72376953 -1.55859375 2.23046875 C-1.04425781 1.49441406 -0.52992188 0.75835937 0 0 Z " fill="#496371" transform="translate(151,155)"/>
<path d="M0 0 C2.3125 0 2.3125 0 5 1 C7.19541939 4.54580942 8.11867106 7.86075778 7.6875 12 C7.460625 12.66 7.23375 13.32 7 14 C3.94998169 10.33997803 0 4.92148529 0 0 Z " fill="#36586E" transform="translate(265,107)"/>
<path d="M0 0 C0.33 1.32 0.66 2.64 1 4 C0.34 4 -0.32 4 -1 4 C-0.7525 4.53625 -0.505 5.0725 -0.25 5.625 C0 8 0 8 -1.6875 11.1875 C-4 14 -4 14 -6.25 14.875 C-6.8275 14.91625 -7.405 14.9575 -8 15 C-6.62712658 11.30123909 -4.93644547 8.0485524 -2.875 4.6875 C-2.33617187 3.80449219 -1.79734375 2.92148438 -1.2421875 2.01171875 C-0.83226562 1.34785156 -0.42234375 0.68398437 0 0 Z " fill="#4D6875" transform="translate(188,95)"/>
<path d="M0 0 C-4.07156479 2.0357824 -6.51124928 3.12165065 -11.125 3.0625 C-12.03507813 3.05347656 -12.94515625 3.04445313 -13.8828125 3.03515625 C-14.58148438 3.02355469 -15.28015625 3.01195312 -16 3 C-16.33 3.99 -16.66 4.98 -17 6 C-18.65 6 -20.3 6 -22 6 C-21.67 5.01 -21.34 4.02 -21 3 C-14.22327984 0.5105926 -7.20414175 -0.18010354 0 0 Z " fill="#325263" transform="translate(190,447)"/>
<path d="M0 0 C-18.63389328 7.34147374 -18.63389328 7.34147374 -27 7 C-22.94322732 4.29548488 -18.70507084 3.20888542 -14.0625 1.8125 C-13.15564453 1.52697266 -12.24878906 1.24144531 -11.31445312 0.94726562 C-10.43853516 0.68236328 -9.56261719 0.41746094 -8.66015625 0.14453125 C-7.86230713 -0.09934326 -7.06445801 -0.34321777 -6.24243164 -0.59448242 C-3.80896009 -1.03454734 -2.32422677 -0.77739889 0 0 Z " fill="#B7CDD6" transform="translate(349,375)"/>
<path d="M0 0 C0.33 0.66 0.66 1.32 1 2 C3.02463255 2.65213292 3.02463255 2.65213292 5 3 C1.32589215 4.17571451 -2.16929183 4.07366746 -6 4 C-6 4.66 -6 5.32 -6 6 C-10.43076923 8.09230769 -10.43076923 8.09230769 -13.3125 7.625 C-13.869375 7.41875 -14.42625 7.2125 -15 7 C-14.34 7 -13.68 7 -13 7 C-13 6.34 -13 5.68 -13 5 C-11.68 5 -10.36 5 -9 5 C-9 4.34 -9 3.68 -9 3 C-6.03 2.01 -3.06 1.02 0 0 Z " fill="#2C4D5E" transform="translate(375,389)"/>
<path d="M0 0 C1.32 0.33 2.64 0.66 4 1 C3.34 1 2.68 1 2 1 C2 1.66 2 2.32 2 3 C3.98 3.66 5.96 4.32 8 5 C8.33 6.65 8.66 8.3 9 10 C8.34 10 7.68 10 7 10 C6.67 10.66 6.34 11.32 6 12 C6.66 12.33 7.32 12.66 8 13 C7.34 13.66 6.68 14.32 6 15 C4.99539469 12.87717331 3.99644398 10.75166979 3 8.625 C2.443125 7.44164062 1.88625 6.25828125 1.3125 5.0390625 C0 2 0 2 0 0 Z " fill="#4B6B7E" transform="translate(294,168)"/>
<path d="M0 0 C0.66 0 1.32 0 2 0 C2 0.66 2 1.32 2 2 C2.66 2 3.32 2 4 2 C4 1.34 4 0.68 4 0 C4.66 0 5.32 0 6 0 C6 0.66 6 1.32 6 2 C7.98 2.66 9.96 3.32 12 4 C12 4.99 12 5.98 12 7 C8.2064932 7.35288435 6.44058747 7.28393415 3.1875 5.1875 C1 3 1 3 0 0 Z " fill="#466477" transform="translate(142,445)"/>
<path d="M0 0 C1.33841672 0.31229724 2.67139075 0.64830932 4 1 C6.68149993 0.61432869 6.68149993 0.61432869 9 0 C8.3359375 1.91796875 8.3359375 1.91796875 7 4 C4.5390625 4.86328125 4.5390625 4.86328125 1.625 5.3125 C0.66851562 5.47363281 -0.28796875 5.63476562 -1.2734375 5.80078125 C-3.83960155 5.98828034 -5.5777134 5.79786217 -8 5 C-6.35 4.67 -4.7 4.34 -3 4 C-3 3.34 -3 2.68 -3 2 C-2.01 1.34 -1.02 0.68 0 0 Z " fill="#183F53" transform="translate(324,402)"/>
<path d="M0 0 C1.51953125 1.20703125 1.51953125 1.20703125 3 3 C3.07421875 5.26171875 3.07421875 5.26171875 2.6875 7.6875 C2.50767578 8.89986328 2.50767578 8.89986328 2.32421875 10.13671875 C2.21722656 10.75160156 2.11023438 11.36648437 2 12 C-3 5.63636364 -3 5.63636364 -3 1 C-2.01 0.67 -1.02 0.34 0 0 Z " fill="#3F6073" transform="translate(317,209)"/>
<path d="M0 0 C3 1 3 1 4 3 C4.66 2.67 5.32 2.34 6 2 C9.42857143 9.28571429 9.42857143 9.28571429 9 14 C6.53522288 11.69806101 4.68244803 9.24011346 2.8125 6.4375 C2.28269531 5.65246094 1.75289062 4.86742187 1.20703125 4.05859375 C0 2 0 2 0 0 Z " fill="#4B6A7A" transform="translate(133,431)"/>
<path d="M0 0 C0.99 0.33 1.98 0.66 3 1 C3 1.66 3 2.32 3 3 C-0.98393611 4.84566532 -4.44376683 5.36022829 -8.8125 5.625 C-10.55466797 5.73714844 -10.55466797 5.73714844 -12.33203125 5.8515625 C-13.65267578 5.92503906 -13.65267578 5.92503906 -15 6 C-14.67 5.34 -14.34 4.68 -14 4 C-9.17574056 2.52819204 -5.07522852 1.74623857 0 2 C0 1.34 0 0.68 0 0 Z " fill="#1D4257" transform="translate(392,384)"/>
<path d="M0 0 C-3.47180445 2.3145363 -6.99795123 3.44955764 -10.9375 4.6875 C-12.01161133 5.04424805 -12.01161133 5.04424805 -13.10742188 5.40820312 C-17.05493955 6.65575042 -18.88360607 7.02909848 -23 6 C-20.03 5.34 -17.06 4.68 -14 4 C-14 3.34 -14 2.68 -14 2 C-9.07262981 0.02905192 -5.21979128 -0.1799928 0 0 Z " fill="#8BA6B1" transform="translate(241,407)"/>
<path d="M0 0 C0.33 0 0.66 0 1 0 C1 3.63 1 7.26 1 11 C-1.413762 11.69951063 -3.83010234 12.38483919 -6.25 13.0625 C-6.93191406 13.26166016 -7.61382812 13.46082031 -8.31640625 13.66601562 C-14.58342161 15.40009269 -14.58342161 15.40009269 -18 14 C-16.41058594 13.51080078 -16.41058594 13.51080078 -14.7890625 13.01171875 C-13.4008639 12.5708719 -12.01285263 12.12943482 -10.625 11.6875 C-9.92632812 11.47416016 -9.22765625 11.26082031 -8.5078125 11.04101562 C-4.00184841 9.60472273 -4.00184841 9.60472273 -1 6 C-0.60986284 4.0103005 -0.26797351 2.00980131 0 0 Z " fill="#BFD3DA" transform="translate(382,355)"/>
<path d="M0 0 C0.33 0 0.66 0 1 0 C1.35286978 4.23443737 0.5763408 5.73002899 -2 9 C-2.72351427 10.98014432 -3.40265389 12.97821315 -4 15 C-6 14 -6 14 -7 11 C-5.6015625 8.30078125 -5.6015625 8.30078125 -3.625 5.3125 C-2.97789063 4.31863281 -2.33078125 3.32476562 -1.6640625 2.30078125 C-1.11492187 1.54152344 -0.56578125 0.78226563 0 0 Z " fill="#647885" transform="translate(120,205)"/>
<path d="M0 0 C0.66 0 1.32 0 2 0 C2 0.66 2 1.32 2 2 C3.32 1.67 4.64 1.34 6 1 C6.99 3.97 7.98 6.94 9 10 C8.34 10.66 7.68 11.32 7 12 C5.83061933 10.18924982 4.66456267 8.37635257 3.5 6.5625 C2.8503125 5.55316406 2.200625 4.54382813 1.53125 3.50390625 C0 1 0 1 0 0 Z " fill="#4A6879" transform="translate(81,351)"/>
<path d="M0 0 C0.33 1.32 0.66 2.64 1 4 C0.34 4 -0.32 4 -1 4 C-1.020625 5.2375 -1.04125 6.475 -1.0625 7.75 C-1.36984203 10.4584516 -1.54758015 11.60413263 -3.625 13.421875 C-5.5625 14.5 -5.5625 14.5 -9 16 C-7.56691865 12.04093183 -5.66858051 8.71281819 -3.375 5.1875 C-2.74335937 4.21167969 -2.11171875 3.23585937 -1.4609375 2.23046875 C-0.73777344 1.12638672 -0.73777344 1.12638672 0 0 Z " fill="#6B7F8A" transform="translate(102,234)"/>
<path d="M0 0 C1.53271273 4.58798777 0.02911182 6.77944742 -2 11 C-2.66 11 -3.32 11 -4 11 C-4 11.66 -4 12.32 -4 13 C-4.99 13 -5.98 13 -7 13 C-5.35821735 8.22390502 -2.73453298 4.20617096 0 0 Z " fill="#445F6C" transform="translate(141,171)"/>
<path d="M0 0 C4.79415823 1.48183073 4.79415823 1.48183073 7 3 C8.12359236 6.93257325 8.29385326 9.11844023 7 13 C5.82786955 11.21190303 4.66244474 9.41940875 3.5 7.625 C2.8503125 6.62726563 2.200625 5.62953125 1.53125 4.6015625 C0 2 0 2 0 0 Z " fill="#4D6B7B" transform="translate(106,389)"/>
<path d="M0 0 C1.32 0 2.64 0 4 0 C4 0.66 4 1.32 4 2 C2.1291122 2.67812114 0.25305707 3.3419946 -1.625 4 C-2.66914063 4.37125 -3.71328125 4.7425 -4.7890625 5.125 C-8.01774506 6.00483564 -10.67244294 6.15988262 -14 6 C-12.68 5.67 -11.36 5.34 -10 5 C-10 4.34 -10 3.68 -10 3 C-9.04287109 2.80083984 -9.04287109 2.80083984 -8.06640625 2.59765625 C-7.24011719 2.42105469 -6.41382813 2.24445313 -5.5625 2.0625 C-4.32693359 1.80146484 -4.32693359 1.80146484 -3.06640625 1.53515625 C-1.02338796 1.19247006 -1.02338796 1.19247006 0 0 Z " fill="#30586B" transform="translate(330,380)"/>
<path d="M0 0 C0.66 0 1.32 0 2 0 C2 0.66 2 1.32 2 2 C2.66 2.33 3.32 2.66 4 3 C4.33 3.66 4.66 4.32 5 5 C4.67 5.66 4.34 6.32 4 7 C4.99 7.33 5.98 7.66 7 8 C7.33 8.99 7.66 9.98 8 11 C7.67 11.66 7.34 12.32 7 13 C7.99 13.33 8.98 13.66 10 14 C9.34 15.32 8.68 16.64 8 18 C6.66356841 15.18896187 5.33137766 12.37593488 4 9.5625 C3.6184375 8.76005859 3.236875 7.95761719 2.84375 7.13085938 C2.4828125 6.36708984 2.121875 5.60332031 1.75 4.81640625 C1.41484375 4.10943604 1.0796875 3.40246582 0.734375 2.67407227 C0 1 0 1 0 0 Z " fill="#718691" transform="translate(370,330)"/>
<path d="M0 0 C-1.375 1.5 -1.375 1.5 -3 3 C-3.66 3 -4.32 3 -5 3 C-5 2.34 -5 1.68 -5 1 C-7.23775292 2.00313062 -8.8507388 2.84476835 -10.5625 4.625 C-12 6 -12 6 -15 6 C-15 4.68 -15 3.36 -15 2 C-13.25364835 1.46706165 -11.50272348 0.94909337 -9.75 0.4375 C-8.77546875 0.14746094 -7.8009375 -0.14257812 -6.796875 -0.44140625 C-4.03756068 -0.99249836 -2.6087176 -0.93789609 0 0 Z " fill="#214C63" transform="translate(379,368)"/>
<path d="M0 0 C0.94474198 3.7789679 1.02228663 4.9606539 0.22265625 8.546875 C0.03896484 9.39121094 -0.14472656 10.23554688 -0.33398438 11.10546875 C-0.53314453 11.97816406 -0.73230469 12.85085937 -0.9375 13.75 C-1.13279297 14.63816406 -1.32808594 15.52632812 -1.52929688 16.44140625 C-2.01161712 18.62949322 -2.50209032 20.8154173 -3 23 C-3.33 23 -3.66 23 -4 23 C-4.33 20.36 -4.66 17.72 -5 15 C-4.34 15 -3.68 15 -3 15 C-3.33 13.35 -3.66 11.7 -4 10 C-3.34 10 -2.68 10 -2 10 C-1.34 6.7 -0.68 3.4 0 0 Z " fill="#8196A4" transform="translate(223,186)"/>
<path d="M0 0 C0.99 0 1.98 0 3 0 C3.33 0.99 3.66 1.98 4 3 C3.67 3.66 3.34 4.32 3 5 C3.99 5.33 4.98 5.66 6 6 C5.67 6.99 5.34 7.98 5 9 C5.66 9 6.32 9 7 9 C7.33 11.64 7.66 14.28 8 17 C5.55185821 13.9703348 3.90547147 10.92450401 2.3125 7.375 C1.87550781 6.41335937 1.43851562 5.45171875 0.98828125 4.4609375 C0 2 0 2 0 0 Z " fill="#657D8B" transform="translate(257,90)"/>
<path d="M0 0 C0.99 1.32 1.98 2.64 3 4 C2.401875 4.020625 1.80375 4.04125 1.1875 4.0625 C-2.28007202 5.54860229 -2.62035777 8.6408711 -4 12 C-4.99 12.33 -5.98 12.66 -7 13 C-7 13.99 -7 14.98 -7 16 C-7.66 16 -8.32 16 -9 16 C-7.56691865 12.04093183 -5.66858051 8.71281819 -3.375 5.1875 C-2.74335938 4.21167969 -2.11171875 3.23585937 -1.4609375 2.23046875 C-0.73777344 1.12638672 -0.73777344 1.12638672 0 0 Z " fill="#6B838F" transform="translate(216,50)"/>
<path d="M0 0 C3.46692734 3.7971109 4.51061867 8.17724141 6 13 C3.36 11.02 0.72 9.04 -2 7 C-1.67 6.34 -1.34 5.68 -1 5 C-0.67 5.33 -0.34 5.66 0 6 C0.33 5.01 0.66 4.02 1 3 C0.34 3 -0.32 3 -1 3 C-0.67 2.01 -0.34 1.02 0 0 Z " fill="#506F83" transform="translate(355,238)"/>
<path d="M0 0 C0.66 0.99 1.32 1.98 2 3 C2.33 2.34 2.66 1.68 3 1 C2.67 2.65 2.34 4.3 2 6 C1.34 6 0.68 6 0 6 C-0.33 6.99 -0.66 7.98 -1 9 C-1.99 9.33 -2.98 9.66 -4 10 C-4.33 10.99 -4.66 11.98 -5 13 C-5.66 13 -6.32 13 -7 13 C-5.35821735 8.22390502 -2.73453298 4.20617096 0 0 Z " fill="#617886" transform="translate(110,221)"/>
<path d="M0 0 C2.74060659 2.74060659 3.21038333 5.24932082 4 9 C3.01 10.485 3.01 10.485 2 12 C0.68 11.34 -0.64 10.68 -2 10 C-2 8.35 -2 6.7 -2 5 C-1.34 4.67 -0.68 4.34 0 4 C0 2.68 0 1.36 0 0 Z " fill="#385C71" transform="translate(339,204)"/>
<path d="M0 0 C0.80544481 2.7176519 1.03573787 3.8602974 0.3125 6.6875 C-1 9 -1 9 -3.125 9.8125 C-3.74375 9.874375 -4.3625 9.93625 -5 10 C-5 10.99 -5 11.98 -5 13 C-5.66 13 -6.32 13 -7 13 C-5.35821735 8.22390502 -2.73453298 4.20617096 0 0 Z " fill="#5D747F" transform="translate(167,129)"/>
<path d="M0 0 C-2.94723051 1.96482034 -5.11977826 2.7561217 -8.5 3.6875 C-9.4590625 3.95949219 -10.418125 4.23148437 -11.40625 4.51171875 C-14 5 -14 5 -17 4 C-11.95178125 -0.46573197 -6.47323485 -0.1294647 0 0 Z " fill="#A6B6BE" transform="translate(364,397)"/>
<path d="M0 0 C2.96052484 3.36423277 3.92289822 6.69159287 5 11 C3.35 11 1.7 11 0 11 C-0.84098656 6.98195309 -1.05404945 3.98196457 0 0 Z " fill="#4E6E7E" transform="translate(371,272)"/>
<path d="M0 0 C3 2 3 2 5 5 C5.125 7.6875 5.125 7.6875 5 10 C5.99 9.67 6.98 9.34 8 9 C8 12 8 12 6 15 C4.99539469 12.87717331 3.99644398 10.75166979 3 8.625 C2.443125 7.44164062 1.88625 6.25828125 1.3125 5.0390625 C0 2 0 2 0 0 Z " fill="#617886" transform="translate(287,153)"/>
<path d="M0 0 C3.65882521 3.3621637 6.14420341 6.36050852 8 11 C7.67 11.66 7.34 12.32 7 13 C6.54625 12.34 6.0925 11.68 5.625 11 C5.08875 10.34 4.5525 9.68 4 9 C3.34 9 2.68 9 2 9 C2 7.35 2 5.7 2 4 C1.01 3.67 0.02 3.34 -1 3 C-0.67 2.01 -0.34 1.02 0 0 Z " fill="#607888" transform="translate(258,37)"/>
<path d="M0 0 C0 0.66 0 1.32 0 2 C-4.64849515 4.3992233 -8.91086074 4.19957409 -14 4 C-11.8553857 1.8553857 -10.98260002 1.55435397 -8.125 0.875 C-7.44695312 0.70742188 -6.76890625 0.53984375 -6.0703125 0.3671875 C-4 0 -4 0 0 0 Z " fill="#44697A" transform="translate(266,400)"/>
<path d="M0 0 C0.33 0 0.66 0 1 0 C0.37679879 6.43974581 -0.64008262 12.67572401 -2 19 C-2.33 19 -2.66 19 -3 19 C-2.88608368 16.39491364 -2.75934452 13.79154454 -2.625 11.1875 C-2.5940625 10.44951172 -2.563125 9.71152344 -2.53125 8.95117188 C-2.32653852 5.18106885 -2.13566173 3.20349259 0 0 Z " fill="#8A9EAA" transform="translate(201,291)"/>
<path d="M0 0 C2.3828125 -0.29296875 2.3828125 -0.29296875 5.125 -0.1875 C6.03507813 -0.16042969 6.94515625 -0.13335937 7.8828125 -0.10546875 C8.58148438 -0.07066406 9.28015625 -0.03585937 10 0 C3.60869565 4.26086957 3.60869565 4.26086957 -0.3125 3.625 C-0.869375 3.41875 -1.42625 3.2125 -2 3 C-1.34 2.01 -0.68 1.02 0 0 Z " fill="#365563" transform="translate(202,440)"/>
<path d="M0 0 C2.15377564 2.62198774 3.40072174 4.64404172 4 8 C3.34 8 2.68 8 2 8 C1.67 8.66 1.34 9.32 1 10 C1 9.34 1 8.68 1 8 C0.01 7.67 -0.98 7.34 -2 7 C-1.34 4.69 -0.68 2.38 0 0 Z " fill="#46687B" transform="translate(388,308)"/>
<path d="M0 0 C1.51553092 3.97450493 0.49888623 7.20481149 -0.4375 11.25 C-0.72496094 12.51328125 -1.01242188 13.7765625 -1.30859375 15.078125 C-1.53675781 16.04234375 -1.76492187 17.0065625 -2 18 C-2.33 18 -2.66 18 -3 18 C-3.0942191 13.19482596 -3.13970956 8.70130193 -2 4 C-2 3.34 -2 2.68 -2 2 C-1.34 2 -0.68 2 0 2 C0 1.34 0 0.68 0 0 Z " fill="#7E95A3" transform="translate(215,224)"/>
<path d="M0 0 C2.15377564 2.62198774 3.40072174 4.64404172 4 8 C3.34 8 2.68 8 2 8 C1.67 8.99 1.34 9.98 1 11 C0.34 10.34 -0.32 9.68 -1 9 C-0.64644564 6.73725212 -0.02455574 5.04911148 1 3 C0.34 3 -0.32 3 -1 3 C-0.67 2.01 -0.34 1.02 0 0 Z " fill="#426579" transform="translate(344,215)"/>
<path d="M0 0 C0.66 0.99 1.32 1.98 2 3 C1.4375 5.5625 1.4375 5.5625 0 8 C-2.625 9.3125 -2.625 9.3125 -5 10 C-3.66511872 6.40608886 -2.03977277 3.24509304 0 0 Z " fill="#4C6978" transform="translate(201,74)"/>
<path d="M0 0 C-0.33 1.32 -0.66 2.64 -1 4 C-5.455 4.495 -5.455 4.495 -10 5 C-9.34 4.67 -8.68 4.34 -8 4 C-8 3.34 -8 2.68 -8 2 C-2.25 0 -2.25 0 0 0 Z " fill="#134059" transform="translate(342,378)"/>
<path d="M0 0 C0.66 0.33 1.32 0.66 2 1 C2 2.98 2 4.96 2 7 C2.99 7.33 3.98 7.66 5 8 C4.67 9.32 4.34 10.64 4 12 C2.9944239 10.54550599 1.99569565 9.08627557 1 7.625 C0.443125 6.81289063 -0.11375 6.00078125 -0.6875 5.1640625 C-2 3 -2 3 -2 1 C-1.34 0.67 -0.68 0.34 0 0 Z " fill="#5E7887" transform="translate(70,329)"/>
<path d="M0 0 C0.33 0.66 0.66 1.32 1 2 C0.67 2.99 0.34 3.98 0 5 C-0.66 5 -1.32 5 -2 5 C-1.6596875 5.8971875 -1.6596875 5.8971875 -1.3125 6.8125 C-1.209375 7.534375 -1.10625 8.25625 -1 9 C-2.4375 10.75 -2.4375 10.75 -4 12 C-4.66 11.67 -5.32 11.34 -6 11 C-4.54955729 6.89041233 -2.48889248 3.56741255 0 0 Z " fill="#677E8A" transform="translate(127,194)"/>
<path d="M0 0 C5 6.36363636 5 6.36363636 5 11 C4.34 11 3.68 11 3 11 C2.731875 10.360625 2.46375 9.72125 2.1875 9.0625 C1.11332248 6.66868314 1.11332248 6.66868314 -2 6 C-1.34 4.02 -0.68 2.04 0 0 Z " fill="#5F7F8F" transform="translate(312,147)"/>
<path d="M0 0 C1 3 1 3 1 5 C0.01 5 -0.98 5 -2 5 C-2 7.31 -2 9.62 -2 12 C-3.32 11.67 -4.64 11.34 -6 11 C-4.54955729 6.89041233 -2.48889248 3.56741255 0 0 Z " fill="#5D7785" transform="translate(195,84)"/>
<path d="M0 0 C1.32 0.66 2.64 1.32 4 2 C3.34 4.31 2.68 6.62 2 9 C2.66 9.33 3.32 9.66 4 10 C3.34 10.66 2.68 11.32 2 12 C1.46809459 10.56656 0.94984742 9.12804633 0.4375 7.6875 C0.14746094 6.88699219 -0.14257812 6.08648437 -0.44140625 5.26171875 C-1 3 -1 3 0 0 Z " fill="#506F81" transform="translate(347,275)"/>
<path d="M0 0 C0.33 0 0.66 0 1 0 C0.88512252 1.58409994 0.75765492 3.16728963 0.625 4.75 C0.52058594 6.07257813 0.52058594 6.07257813 0.4140625 7.421875 C0 10 0 10 -2 14 C-2.33 10.7 -2.66 7.4 -3 4 C-2.34 3.67 -1.68 3.34 -1 3 C-0.67 2.01 -0.34 1.02 0 0 Z " fill="#708997" transform="translate(236,123)"/>
<path d="M0 0 C2.2477975 2.05233685 3.0022242 3.00667261 4 6 C3.67 6.33 3.34 6.66 3 7 C2.01 8.485 2.01 8.485 1 10 C-2 4.25 -2 4.25 -2 2 C-1.34 2 -0.68 2 0 2 C0 1.34 0 0.68 0 0 Z " fill="#516E7D" transform="translate(274,120)"/>
<path d="M0 0 C0.33 2.31 0.66 4.62 1 7 C-0.5 5.625 -0.5 5.625 -2 4 C-2 3.34 -2 2.68 -2 2 C-4.64 2.33 -7.28 2.66 -10 3 C-10 2.34 -10 1.68 -10 1 C-6.52674819 -0.1577506 -3.63932552 -0.06866652 0 0 Z " fill="#7E98A6" transform="translate(256,83)"/>
<path d="M0 0 C-2.07772471 0.86772029 -4.16243177 1.71873619 -6.25 2.5625 C-7.99023438 3.27599609 -7.99023438 3.27599609 -9.765625 4.00390625 C-12.86266644 4.95770524 -14.07321701 5.20983356 -17 4 C-14.92227529 3.13227971 -12.83756823 2.28126381 -10.75 1.4375 C-9.58984375 0.96183594 -8.4296875 0.48617188 -7.234375 -0.00390625 C-4.13733356 -0.95770524 -2.92678299 -1.20983356 0 0 Z " fill="#3B6375" transform="translate(252,405)"/>
<path d="M0 0 C1.125 1.6875 1.125 1.6875 2 4 C1.125 6.75 1.125 6.75 0 9 C-1.32 8.67 -2.64 8.34 -4 8 C-2.87548273 5.0280615 -1.77706209 2.66559313 0 0 Z " fill="#57707B" transform="translate(159,142)"/>
<path d="M0 0 C0.91007813 0.10183594 1.82015625 0.20367188 2.7578125 0.30859375 C3.45648438 0.39238281 4.15515625 0.47617187 4.875 0.5625 C4.875 1.2225 4.875 1.8825 4.875 2.5625 C-3.69642857 2.84821429 -3.69642857 2.84821429 -7.125 0.5625 C-4.50184968 -0.74907516 -2.89466564 -0.33399988 0 0 Z " fill="#1F4559" transform="translate(243.125,31.4375)"/>
<path d="M0 0 C2.82119614 1.03443859 3.84496198 1.73220706 5.375 4.375 C6.1214366 7.51003372 5.53426651 8.28907796 4 11 C3.32880451 9.5437455 2.66318193 8.08492133 2 6.625 C1.62875 5.81289063 1.2575 5.00078125 0.875 4.1640625 C0 2 0 2 0 0 Z " fill="#637D8A" transform="translate(337,259)"/>
<path d="M0 0 C2.22825644 2.22825644 2.69239369 3.65761628 3.625 6.625 C3.88539063 7.44226563 4.14578125 8.25953125 4.4140625 9.1015625 C4.60742188 9.72804687 4.80078125 10.35453125 5 11 C3.68 11 2.36 11 1 11 C-0.03946852 7.2319266 0 3.92250084 0 0 Z " fill="#5B7588" transform="translate(331,187)"/>
<path d="M0 0 C0.66 0.99 1.32 1.98 2 3 C1.01 3.495 1.01 3.495 0 4 C0 5.65 0 7.3 0 9 C-1.65 9.33 -3.3 9.66 -5 10 C-3.66511872 6.40608886 -2.03977277 3.24509304 0 0 Z " fill="#657B88" transform="translate(173,119)"/>
<path d="M0 0 C1.13732426 3.40401948 0.83989957 5.77456664 0.0625 9.25 C-0.13214844 10.14203125 -0.32679688 11.0340625 -0.52734375 11.953125 C-0.68332031 12.62859375 -0.83929688 13.3040625 -1 14 C-1.33 14 -1.66 14 -2 14 C-2 9.71 -2 5.42 -2 1 C-1.34 0.67 -0.68 0.34 0 0 Z " fill="#7A93A1" transform="translate(228,162)"/>
<path d="M0 0 C2.29633824 3.44450737 2.54016485 5.93812283 3 10 C0.59927045 7.11912454 -1.47291037 4.43595166 -3 1 C-2.01 0.67 -1.02 0.34 0 0 Z " fill="#597484" transform="translate(130,421)"/>
<path d="M0 0 C-3.83325617 2.70582788 -6.32538149 3.32613618 -11 3 C-10 1 -10 1 -7.1875 -0.1875 C-4.14038924 -0.96421451 -2.86250637 -1.10096399 0 0 Z " fill="#134157" transform="translate(297,393)"/>
<path d="M0 0 C0.66 0 1.32 0 2 0 C2 0.66 2 1.32 2 2 C2.639375 2.20625 3.27875 2.4125 3.9375 2.625 C6 4 6 4 6.75 7.125 C6.8325 8.07375 6.915 9.0225 7 10 C3.66442368 7.0094833 1.84916079 4.06815373 0 0 Z " fill="#718794" transform="translate(90,365)"/>
<path d="M0 0 C1.98 0.99 3.96 1.98 6 3 C6 5.31 6 7.62 6 10 C3.25722422 6.80009492 1.3697164 3.99500618 0 0 Z " fill="#5D7887" transform="translate(75,341)"/>
<path d="M0 0 C0.99 0 1.98 0 3 0 C3.33 1.98 3.66 3.96 4 6 C2.68 6 1.36 6 0 6 C0 4.02 0 2.04 0 0 Z " fill="#083147" transform="translate(89,258)"/>
<path d="M0 0 C0.66 0.33 1.32 0.66 2 1 C-0.51407619 5.28324091 -2.12314139 7.64531705 -7 9 C-5.44499019 5.18315774 -2.96404505 2.80804268 0 0 Z " fill="#728997" transform="translate(228,34)"/>
<path d="M0 0 C1.13732426 3.40401948 0.83989957 5.77456664 0.0625 9.25 C-0.13214844 10.14203125 -0.32679688 11.0340625 -0.52734375 11.953125 C-0.68332031 12.62859375 -0.83929688 13.3040625 -1 14 C-1.33 14 -1.66 14 -2 14 C-2 9.71 -2 5.42 -2 1 C-1.34 0.67 -0.68 0.34 0 0 Z " fill="#92A4AE" transform="translate(204,277)"/>
<path d="M0 0 C1.231394 2.46278801 1.07159196 4.2795055 1 7 C-0.65 7.33 -2.3 7.66 -4 8 C-2.87548273 5.0280615 -1.77706209 2.66559313 0 0 Z " fill="#627783" transform="translate(89,255)"/>
<path d="M0 0 C2.50298434 2.93828597 3.46930939 5.17902761 4 9 C2.0625 8.1875 2.0625 8.1875 0 7 C-1.04449911 3.86650268 -0.93423645 3.01031744 0 0 Z " fill="#69808F" transform="translate(348,223)"/>
<path d="M0 0 C1.95582488 2.93373731 3.56224304 5.78216298 5 9 C4.67 9.66 4.34 10.32 4 11 C1 9 1 9 0.48828125 6.8359375 C0.43027344 6.02382812 0.37226563 5.21171875 0.3125 4.375 C0.24675781 3.55773437 0.18101562 2.74046875 0.11328125 1.8984375 C0.07589844 1.27195312 0.03851563 0.64546875 0 0 Z " fill="#5D798A" transform="translate(289,98)"/>
<path d="M0 0 C1.85776765 3.13498292 2.20140476 5.37471432 2 9 C-0.72426311 6.64722731 -1.8141763 4.37503669 -3 1 C-2.01 1.33 -1.02 1.66 0 2 C0 1.34 0 0.68 0 0 Z " fill="#6A8492" transform="translate(140,436)"/>
<path d="M0 0 C-2.75 1.625 -2.75 1.625 -6 3 C-8.375 2.1875 -8.375 2.1875 -10 1 C-3.71428571 -1.42857143 -3.71428571 -1.42857143 0 0 Z " fill="#184759" transform="translate(208,419)"/>
<path d="M0 0 C0.99 0.33 1.98 0.66 3 1 C3 1.66 3 2.32 3 3 C0.09399739 4.25664978 -1.79604584 5 -5 5 C-5 4.34 -5 3.68 -5 3 C-3.35 2.67 -1.7 2.34 0 2 C0 1.34 0 0.68 0 0 Z " fill="#30505E" transform="translate(392,384)"/>
<path d="M0 0 C0.33 0 0.66 0 1 0 C1 3.63 1 7.26 1 11 C-0.32 11 -1.64 11 -3 11 C-2.690625 10.29875 -2.38125 9.5975 -2.0625 8.875 C-0.96697322 5.91063343 -0.43577008 3.12301892 0 0 Z " fill="#859EAA" transform="translate(382,355)"/>
<path d="M0 0 C0.99 0.33 1.98 0.66 3 1 C2.34 2.98 1.68 4.96 1 7 C-1 6 -1 6 -2 3 C-1.34 2.01 -0.68 1.02 0 0 Z " fill="#4A6371" transform="translate(115,213)"/>
<path d="M0 0 C0.33 0 0.66 0 1 0 C1.3125 2.3125 1.3125 2.3125 1 5 C-1.5 6.8125 -1.5 6.8125 -4 8 C-2.87548273 5.0280615 -1.77706209 2.66559313 0 0 Z " fill="#677D89" transform="translate(151,155)"/>
<path d="M0 0 C1.99097846 2.98646769 2.94124926 5.59687262 4 9 C1.525 8.01 1.525 8.01 -1 7 C-0.67 4.69 -0.34 2.38 0 0 Z " fill="#567186" transform="translate(298,117)"/>
<path d="M0 0 C2.15377564 2.62198774 3.40072174 4.64404172 4 8 C3.01 8.33 2.02 8.66 1 9 C0.29925156 5.846632 0 3.27275026 0 0 Z " fill="#627B90" transform="translate(294,109)"/>
<path d="M0 0 C2.25 -0.25 2.25 -0.25 5 0 C7.3125 2 7.3125 2 9 4 C6.36 3.67 3.72 3.34 1 3 C0.67 2.01 0.34 1.02 0 0 Z " fill="#546E7F" transform="translate(249,33)"/>
<path d="M0 0 C0.66 0.33 1.32 0.66 2 1 C1.01 2.485 1.01 2.485 0 4 C-3.625 4.1875 -3.625 4.1875 -7 4 C-4.61426621 2.10786631 -2.92824652 0.97608217 0 0 Z " fill="#274656" transform="translate(331,402)"/>
<path d="M0 0 C0 0.66 0 1.32 0 2 C-4.43076923 4.09230769 -4.43076923 4.09230769 -7.3125 3.625 C-7.869375 3.41875 -8.42625 3.2125 -9 3 C-8.34 3 -7.68 3 -7 3 C-7 2.34 -7 1.68 -7 1 C-4.50935112 0.31292445 -2.62113708 0 0 0 Z " fill="#46616D" transform="translate(369,393)"/>
<path d="M0 0 C-1.375 1.5 -1.375 1.5 -3 3 C-3.66 3 -4.32 3 -5 3 C-5 2.34 -5 1.68 -5 1 C-6.98 1.33 -8.96 1.66 -11 2 C-6.98764085 -0.6749061 -4.6342454 -1.48957888 0 0 Z " fill="#315869" transform="translate(379,368)"/>
<path d="M0 0 C1.32 0 2.64 0 4 0 C4 0.66 4 1.32 4 2 C1.69 3.32 -0.62 4.64 -3 6 C-1.125 1.125 -1.125 1.125 0 0 Z " fill="#546D79" transform="translate(96,244)"/>
<path d="M0 0 C1 2 1 2 0.0625 5.125 C-0.288125 6.07375 -0.63875 7.0225 -1 8 C-1.99 8 -2.98 8 -4 8 C-2.87548273 5.0280615 -1.77706209 2.66559313 0 0 Z " fill="#6A808C" transform="translate(138,176)"/>
<path d="M0 0 C1.32 0.33 2.64 0.66 4 1 C4 1.99 4 2.98 4 4 C2.02 4 0.04 4 -2 4 C-1.34 2.68 -0.68 1.36 0 0 Z " fill="#1A4053" transform="translate(186,443)"/>
<path d="M0 0 C0 0.99 0 1.98 0 3 C-2.64 3.66 -5.28 4.32 -8 5 C-8 4.34 -8 3.68 -8 3 C-6.68 3 -5.36 3 -4 3 C-4 2.34 -4 1.68 -4 1 C-2 0 -2 0 0 0 Z " fill="#314F5D" transform="translate(283,417)"/>
<path d="M0 0 C0.99 0 1.98 0 3 0 C2.67 2.31 2.34 4.62 2 7 C0.4375 5.1875 0.4375 5.1875 -1 3 C-0.67 2.01 -0.34 1.02 0 0 Z " fill="#4A6979" transform="translate(360,305)"/>
<path d="M0 0 C0.6875 1.75 0.6875 1.75 1 4 C-0.4375 6.25 -0.4375 6.25 -2 8 C-2.66 7.67 -3.32 7.34 -4 7 C-2.68 4.69 -1.36 2.38 0 0 Z " fill="#163447" transform="translate(77,277)"/>
<path d="M0 0 C2.15377564 2.62198774 3.40072174 4.64404172 4 8 C3.01 8 2.02 8 1 8 C-0.35439668 5.29120665 -0.06501451 2.99066732 0 0 Z " fill="#698292" transform="translate(320,164)"/>
<path d="M0 0 C0.99 0.33 1.98 0.66 3 1 C3 1.66 3 2.32 3 3 C3.66 3 4.32 3 5 3 C4.67 4.65 4.34 6.3 4 8 C1.84622436 5.37801226 0.59927826 3.35595828 0 0 Z " fill="#56717E" transform="translate(268,113)"/>
<path d="M0 0 C0.33 1.32 0.66 2.64 1 4 C0.34 4 -0.32 4 -1 4 C-1 5.32 -1 6.64 -1 8 C-1.99 8 -2.98 8 -4 8 C-2.87548273 5.0280615 -1.77706209 2.66559313 0 0 Z " fill="#6E838F" transform="translate(206,66)"/>
</svg>
