<?xml version="1.0" encoding="UTF-8"?>
<svg version="1.1" xmlns="http://www.w3.org/2000/svg" width="288" height="288">
<path d="M0 0 C1.28994873 0.0616333 1.28994873 0.0616333 2.60595703 0.12451172 C26.30380885 1.38791278 52.48936517 4.28478234 70.4375 21.3125 C72.69521833 25.19577553 73.53937734 28.51004805 73 33 C68.54958072 43.30623412 59.90470018 47.49237155 50.01171875 51.58203125 C42.90921012 54.22445472 35.44925189 55.70179608 28 57 C27.02788574 57.17805176 26.05577148 57.35610352 25.05419922 57.53955078 C14.42203687 59.29355191 3.87826733 59.398111 -6.875 59.375 C-8.30064774 59.37418427 -8.30064774 59.37418427 -9.75509644 59.37335205 C-32.58588634 59.31330705 -62.44074175 58.48159231 -81 43 C-81 42.34 -81 41.68 -81 41 C-81.99 40.67 -82.98 40.34 -84 40 C-87.36177834 36.14018042 -87.52823778 32.33430519 -87.33203125 27.421875 C-86.55348893 21.74309575 -83.06925251 18.83760421 -78.75 15.5 C-56.77610431 0.94711295 -25.55270058 -1.26207917 0 0 Z " fill="#4977C9" transform="translate(151,44)"/>
<path d="M0 0 C3.12065072 0.51670905 5.55508661 1.74509045 8.3125 3.25 C47.07682888 22.80119494 99.69712864 20.91441312 140 8 C145.12210759 6.23671084 150.02129076 4.2433382 154.6171875 1.35546875 C157 0 157 0 160 0 C160.11686443 4.02058602 160.18747388 8.04073082 160.25 12.0625 C160.28351563 13.19623047 160.31703125 14.32996094 160.3515625 15.49804688 C160.44505695 23.51519586 159.73774986 28.06269881 154.09765625 34.00390625 C127.13882372 54.64992195 84.54126135 55.10415471 52.35571289 51.05029297 C34.50692232 48.42800868 15.08449031 44.3960258 2 31 C-0.31371824 27.52942265 -0.30922492 25.94501004 -0.44921875 21.8359375 C-0.49240234 20.63195312 -0.53558594 19.42796875 -0.58007812 18.1875 C-0.61552734 16.929375 -0.65097656 15.67125 -0.6875 14.375 C-0.73455078 13.10914062 -0.78160156 11.84328125 -0.83007812 10.5390625 C-1.05562246 3.64701934 -1.05562246 3.64701934 -1 1 C-0.67 0.67 -0.34 0.34 0 0 Z " fill="#4776C9" transform="translate(64,98)"/>
<path d="M0 0 C3.8459022 0.53264843 6.99110957 2.50440294 10.375 4.3125 C45.70616195 22.47329113 97.53173767 21.06971832 134.71142578 9.76513672 C142.06390909 7.30698836 149.53795073 4.30803285 156 0 C157.32 0 158.64 0 160 0 C160.11686443 4.02058602 160.18747388 8.04073082 160.25 12.0625 C160.28351563 13.19623047 160.31703125 14.32996094 160.3515625 15.49804688 C160.44376279 23.40422195 159.6354503 27.67343545 154.5 33.78515625 C146.60106428 40.5115937 137.53944692 44.10038096 127.625 46.75 C126.8834668 46.94859619 126.14193359 47.14719238 125.37792969 47.35180664 C113.76892793 50.25903735 101.99690574 51.33934847 90.0625 51.6875 C88.80542236 51.72439941 87.54834473 51.76129883 86.25317383 51.79931641 C59.29431556 52.46522018 27.83926702 52.13474826 5.578125 34.5546875 C1.34377807 30.38322691 -0.49418307 27.68825847 -0.64453125 21.640625 C-0.69963867 19.84431641 -0.69963867 19.84431641 -0.75585938 18.01171875 C-0.77455078 16.77035156 -0.79324219 15.52898437 -0.8125 14.25 C-0.85052734 12.99316406 -0.88855469 11.73632812 -0.92773438 10.44140625 C-1.09581333 3.82553241 -1.09581333 3.82553241 -1 1 C-0.67 0.67 -0.34 0.34 0 0 Z " fill="#4C79CA" transform="translate(64,191)"/>
<path d="M0 0 C3.24555054 1.24479084 6.26347819 2.64988953 9.3125 4.3125 C45.79603037 22.71713809 98.50535292 21.86578577 136.80859375 9.76513672 C143.84770533 7.3074077 150.7935875 4.13760833 157 0 C157.99 0 158.98 0 160 0 C160.11710979 3.99974981 160.18755489 7.99905281 160.25 12 C160.28351563 13.12535156 160.31703125 14.25070313 160.3515625 15.41015625 C160.4432673 23.25091625 159.63807934 28.93142868 154.31640625 34.8828125 C132.82284412 50.10542443 105.37824337 52.60914702 79.8125 52.4375 C78.40807648 52.43393494 78.40807648 52.43393494 76.97528076 52.43029785 C62.32025267 52.37221609 48.28282948 51.54480424 34 48 C32.72511719 47.69964844 31.45023438 47.39929688 30.13671875 47.08984375 C20.16541658 44.38318006 7.59381236 39.41643318 1.38964844 30.75073242 C-0.20595051 27.59233232 -0.43768762 25.41798628 -0.546875 21.89453125 C-0.58683594 20.74662109 -0.62679687 19.59871094 -0.66796875 18.41601562 C-0.69503906 17.22685547 -0.72210938 16.03769531 -0.75 14.8125 C-0.79253906 13.61173828 -0.83507813 12.41097656 -0.87890625 11.17382812 C-1.14893538 2.29787075 -1.14893538 2.29787075 0 0 Z " fill="#4C79CA" transform="translate(64,144)"/>
<path d="M0 0 C2.97 0.495 2.97 0.495 6 1 C-14.72035106 18.3507794 -57.09459202 14.80047919 -82.14385986 12.83148193 C-93.09769751 11.76298765 -103.52688732 9.30092926 -114 6 C-114 5.67 -114 5.34 -114 5 C-111.36 5 -108.72 5 -106 5 C-106 5.66 -106 6.32 -106 7 C-105.07380859 6.96519531 -105.07380859 6.96519531 -104.12890625 6.9296875 C-99.8100478 6.83765703 -95.83125896 6.89558264 -91.625 7.9375 C-79.78511995 10.8630596 -67.2534494 10.1555743 -55.14331055 10.13037109 C-52.04536135 10.12497012 -48.9475544 10.13036399 -45.84960938 10.13671875 C-43.86979135 10.13605863 -41.88997341 10.13477883 -39.91015625 10.1328125 C-38.98928726 10.13483673 -38.06841827 10.13686096 -37.11964417 10.13894653 C-32.952579 10.1237053 -29.06193342 10.0620192 -25 9 C-24.67 8.01 -24.34 7.02 -24 6 C-22.92621094 5.96261719 -21.85242188 5.92523438 -20.74609375 5.88671875 C-19.3098638 5.82100888 -17.87366738 5.75456332 -16.4375 5.6875 C-15.73302734 5.66494141 -15.02855469 5.64238281 -14.30273438 5.61914062 C-9.24458195 5.36273658 -5.50708389 4.34925222 -1 2 C-0.67 1.34 -0.34 0.68 0 0 Z " fill="#99B1E0" transform="translate(202,183)"/>
<path d="M0 0 C2.97 0 5.94 0 9 0 C6.34375674 2.65624326 3.38164793 3.36234267 -0.125 4.4375 C-0.83567627 4.65631836 -1.54635254 4.87513672 -2.27856445 5.10058594 C-32.74545943 14.18396716 -68.32704109 14.12887604 -99 6 C-99 5.67 -99 5.34 -99 5 C-91.22230866 4.74074362 -83.62300058 5.46266601 -76.08930969 7.52238464 C-73.95373168 8.01057692 -72.05967276 8.14638266 -69.87182617 8.17700195 C-68.66116234 8.195998 -68.66116234 8.195998 -67.42604065 8.21537781 C-66.55712692 8.22293594 -65.6882132 8.23049408 -64.79296875 8.23828125 C-63.42826698 8.25270012 -63.42826698 8.25270012 -62.03599548 8.26741028 C-59.0864592 8.292176 -56.13712826 8.3046789 -53.1875 8.3125 C-52.19079285 8.31578308 -51.19408569 8.31906616 -50.16717529 8.32244873 C-33.64538061 8.34013909 -16.59844369 8.21003871 -1 2 C-0.67 1.34 -0.34 0.68 0 0 Z " fill="#BACFEE" transform="translate(196,139)"/>
<path d="M0 0 C-3.08809695 1.76462683 -4.23312136 2 -8 2 C-8.33 3.32 -8.66 4.64 -9 6 C-9.68320313 6.03738281 -10.36640625 6.07476562 -11.0703125 6.11328125 C-16.25307024 6.45128719 -21.34244574 6.85391557 -26.4609375 7.734375 C-55.32707543 12.58386309 -88.91644742 12.82346053 -116.9375 3.5 C-117.66839844 3.2628125 -118.39929688 3.025625 -119.15234375 2.78125 C-121 2 -121 2 -123 0 C-117.84750843 0.65246956 -112.91159112 1.68558039 -107.875 2.9375 C-95.66281142 5.87355443 -83.56275974 7.52582314 -71 8 C-70.27490234 8.02868164 -69.54980469 8.05736328 -68.80273438 8.08691406 C-46.58240202 8.83644705 -25.1879401 5.8013551 -3.92578125 -0.61035156 C-2 -1 -2 -1 0 0 Z " fill="#B8CCEF" transform="translate(206,107)"/>
<path d="M0 0 C0 0.33 0 0.66 0 1 C-4.5367486 0.5679287 -9.0572167 0.12982357 -13.57250977 -0.49194336 C-24.17987381 -1.94324247 -34.61893903 -2.28160924 -45.31738281 -2.20581055 C-48.05282585 -2.18713943 -50.78793636 -2.18530445 -53.5234375 -2.18554688 C-55.26562796 -2.18064467 -57.00781613 -2.17482211 -58.75 -2.16796875 C-59.56645996 -2.16685593 -60.38291992 -2.1657431 -61.22412109 -2.16459656 C-64.91429496 -2.48320747 -64.91429496 -2.48320747 -68 -1 C-70.710063 -0.59378706 -73.40347006 -0.24469611 -76.125 0.0625 C-76.87265625 0.15337891 -77.6203125 0.24425781 -78.390625 0.33789062 C-82.96070316 0.8673509 -87.40006778 1.09151059 -92 1 C-84.2639262 -3.20728051 -74.93465115 -3.45174077 -66.3125 -4.125 C-65.25160156 -4.2084668 -64.19070312 -4.29193359 -63.09765625 -4.37792969 C-42.01358356 -5.95280707 -20.6122898 -4.95487736 0 0 Z " fill="#BDD2F0" transform="translate(190,49)"/>
<path d="M0 0 C7.71271047 1.13635546 15.37282967 2.38159365 23 4 C23 4.66 23 5.32 23 6 C32.36978094 6.89859833 41.65315702 7.15686495 51.05541992 7.13037109 C53.29938589 7.12503121 55.54314958 7.13034177 57.78710938 7.13671875 C67.56002677 7.14072717 77.25476457 6.72578817 87 6 C87 6.33 87 6.66 87 7 C75.31321637 9.28100996 63.77991116 9.27564393 51.91821289 9.20581055 C48.64917386 9.18728278 45.38041475 9.18530322 42.11132812 9.18554688 C40.03645586 9.18064037 37.96158552 9.17481588 35.88671875 9.16796875 C34.90773117 9.16685593 33.92874359 9.1657431 32.92008972 9.16459656 C32.02437759 9.15821671 31.12866547 9.15183685 30.20581055 9.14526367 C29.41530807 9.14145187 28.6248056 9.13764008 27.81034851 9.13371277 C26 9 26 9 25 8 C24.01 7.87625 23.02 7.7525 22 7.625 C18.25080402 7.14296052 14.91139402 6.01417707 11.35546875 4.765625 C7.63417244 3.55604942 3.83270148 2.7701646 0 2 C0 1.34 0 0.68 0 0 Z " fill="#7B9BD3" transform="translate(89,202)"/>
<path d="M0 0 C0.11710979 3.99974981 0.18755489 7.99905281 0.25 12 C0.30027344 13.68802734 0.30027344 13.68802734 0.3515625 15.41015625 C0.44475334 23.37797341 -0.31758868 29.20970554 -6 35.05859375 C-6.99 35.74115234 -6.99 35.74115234 -8 36.4375 C-8.66 36.91058594 -9.32 37.38367188 -10 37.87109375 C-12.00912747 39.00515203 -13.74482504 39.56205308 -16 40 C-14.06745228 37.9754262 -12.36841312 36.57894208 -10 35 C-9.27617533 32.94074861 -9.27617533 32.94074861 -9 31 C-7.68 30.67 -6.36 30.34 -5 30 C-5 29.01 -5 28.02 -5 27 C-4.34 27 -3.68 27 -3 27 C-3 26.01 -3 25.02 -3 24 C-2.34 24 -1.68 24 -1 24 C-1 16.74 -1 9.48 -1 2 C-3.97 3.65 -6.94 5.3 -10 7 C-13.5625 7.8125 -13.5625 7.8125 -16 8 C-14.66571923 5.33143847 -13.34873908 5.12828027 -10.625 4 C-1.03125 0 -1.03125 0 0 0 Z " fill="#CBDDF7" transform="translate(224,144)"/>
<path d="M0 0 C4.56481807 0.62098957 8.58544557 3.25961407 12.60351562 5.38476562 C16.69652602 7.49599127 20.56533129 8.8700396 25 10 C25 10.33 25 10.66 25 11 C20.07872966 11.16682272 16.49656104 11.24828052 12 9 C12 8.34 12 7.68 12 7 C10.63875 6.5978125 10.63875 6.5978125 9.25 6.1875 C6 5 6 5 2 2 C2 10.91 2 19.82 2 29 C1.34 28.67 0.68 28.34 0 28 C-0.19581346 23.52115561 -0.3802636 19.04191574 -0.5625 14.5625 C-0.61857422 13.28310547 -0.67464844 12.00371094 -0.73242188 10.68554688 C-0.78076172 9.47060547 -0.82910156 8.25566406 -0.87890625 7.00390625 C-0.9260376 5.87799072 -0.97316895 4.7520752 -1.02172852 3.59204102 C-1 1 -1 1 0 0 Z " fill="#AEC5EC" transform="translate(64,191)"/>
<path d="M0 0 C1.32 0 2.64 0 4 0 C4.11686443 4.02058602 4.18747388 8.04073082 4.25 12.0625 C4.30027344 13.7630957 4.30027344 13.7630957 4.3515625 15.49804688 C4.44480854 23.49389459 3.75559542 28.09937143 -1.921875 33.99609375 C-2.52515625 34.47175781 -3.1284375 34.94742188 -3.75 35.4375 C-4.36359375 35.93121094 -4.9771875 36.42492187 -5.609375 36.93359375 C-6.06828125 37.28550781 -6.5271875 37.63742188 -7 38 C-7.66 37.67 -8.32 37.34 -9 37 C-8.44570312 36.56429687 -7.89140625 36.12859375 -7.3203125 35.6796875 C-6.59585938 35.08414063 -5.87140625 34.48859375 -5.125 33.875 C-4.04605469 33.00488281 -4.04605469 33.00488281 -2.9453125 32.1171875 C1.99640224 26.7388554 1.41134974 19.52412305 1.625 12.625 C1.66367188 11.60277344 1.70234375 10.58054688 1.7421875 9.52734375 C1.83597964 7.01840403 1.92167879 4.50946236 2 2 C1.01 1.67 0.02 1.34 -1 1 C-0.67 0.67 -0.34 0.34 0 0 Z " fill="#ADC2E6" transform="translate(220,191)"/>
<path d="M0 0 C3.2957901 0.53584115 5.99310561 1.90859259 8.9375 3.4375 C12.23938425 5.14713095 15.52856123 6.66483124 19 8 C15.37937703 9.20687432 14.55536692 8.68887731 11.125 7.25 C10.28195313 6.90453125 9.43890625 6.5590625 8.5703125 6.203125 C5.92509667 4.96493887 3.47677138 3.54465312 1 2 C1.0520761 5.87607787 1.14720198 9.74996171 1.25 13.625 C1.26417969 14.71941406 1.27835937 15.81382813 1.29296875 16.94140625 C1.48490618 23.27534132 1.82451539 27.14953103 6 32 C6.66 32.99 7.32 33.98 8 35 C4.16348615 33.49279813 2.29061156 31.3948506 0 28 C-0.56176758 24.96972656 -0.56176758 24.96972656 -0.64453125 21.640625 C-0.69963867 19.84431641 -0.69963867 19.84431641 -0.75585938 18.01171875 C-0.77455078 16.77035156 -0.79324219 15.52898437 -0.8125 14.25 C-0.85052734 12.99316406 -0.88855469 11.73632812 -0.92773438 10.44140625 C-1.09581333 3.82553241 -1.09581333 3.82553241 -1 1 C-0.67 0.67 -0.34 0.34 0 0 Z " fill="#B3CBED" transform="translate(64,98)"/>
<path d="M0 0 C5.15243679 0.65246262 10.08853295 1.68517989 15.125 2.9375 C26.3382722 5.64129737 37.49021446 7.21194261 49 8 C49 8.33 49 8.66 49 9 C33.29800768 9.43549439 16.64847772 8.1938595 2 2 C1.34 1.34 0.68 0.68 0 0 Z " fill="#C1D3F1" transform="translate(83,107)"/>
<path d="M0 0 C0 0.66 0 1.32 0 2 C-0.99 2 -1.98 2 -3 2 C-3.061875 2.53625 -3.12375 3.0725 -3.1875 3.625 C-4.52339574 7.52992602 -7.26339701 11.1316985 -11 13 C-11.49940808 19.11774896 -10.24900602 22.02495953 -7 27 C-10 26 -10 26 -11.6875 24.0625 C-13.576092 19.65578532 -13.6684676 15.72485051 -13 11 C-10.8175571 6.37322106 -5.64310955 0 0 0 Z " fill="#96B0DE" transform="translate(77,58)"/>
<path d="M0 0 C2.64 0 5.28 0 8 0 C8 0.66 8 1.32 8 2 C8.92619141 1.96519531 8.92619141 1.96519531 9.87109375 1.9296875 C15.87882303 1.80166892 21.20249382 2.43159253 27 4 C27 4.66 27 5.32 27 6 C28.98 6 30.96 6 33 6 C33 6.33 33 6.66 33 7 C25.60782356 6.74684327 18.59777716 5.8657558 11.4375 4.0625 C10.75945312 3.89266602 10.08140625 3.72283203 9.3828125 3.54785156 C6.05425485 2.67235419 2.99986447 1.70221317 0 0 Z " fill="#A9C0E8" transform="translate(88,188)"/>
<path d="M0 0 C10.59211455 -0.35307049 20.67260889 1.85226822 31 4 C31 4.33 31 4.66 31 5 C20.25182992 5.7723236 10.38400091 3.43307134 0 1 C0 0.67 0 0.34 0 0 Z " fill="#ABC4E8" transform="translate(97,144)"/>
<path d="M0 0 C0.66 0 1.32 0 2 0 C2 0.66 2 1.32 2 2 C2.66 2.33 3.32 2.66 4 3 C3.67 3.33 3.34 3.66 3 4 C2.84259395 5.70563778 2.74906608 7.41727244 2.68359375 9.12890625 C2.64169922 10.16337891 2.59980469 11.19785156 2.55664062 12.26367188 C2.51732422 13.35228516 2.47800781 14.44089844 2.4375 15.5625 C2.39431641 16.65498047 2.35113281 17.74746094 2.30664062 18.87304688 C2.20017932 21.58189564 2.09816484 24.29083992 2 27 C-0.26598448 23.60102327 -0.23742654 22.43680827 -0.1953125 18.45703125 C-0.18886719 17.38388672 -0.18242188 16.31074219 -0.17578125 15.20507812 C-0.15064453 13.52575195 -0.15064453 13.52575195 -0.125 11.8125 C-0.11597656 10.68134766 -0.10695313 9.55019531 -0.09765625 8.38476562 C-0.07406862 5.58963172 -0.041153 2.79492155 0 0 Z " fill="#4A71BB" transform="translate(65,146)"/>
<path d="M0 0 C-21.65197095 7.47406639 -21.65197095 7.47406639 -29 7 C-28.67 6.34 -28.34 5.68 -28 5 C-25.87501826 4.43550555 -23.72232952 3.97400681 -21.5625 3.5625 C-16.2535639 2.50720689 -11.19554218 1.23189523 -6.0859375 -0.546875 C-3.71126468 -1.06272153 -2.2817624 -0.76402904 0 0 Z " fill="#BACFEF" transform="translate(206,233)"/>
<path d="M0 0 C5.93782498 2.75768552 11.28099671 5.40518101 16 10 C16 10.66 16 11.32 16 12 C10.46937731 10.61734433 6.12334715 7.88188988 2 4 C0.765625 1.8046875 0.765625 1.8046875 0 0 Z " fill="#8AA6DA" transform="translate(66,220)"/>
<path d="M0 0 C0.66 0 1.32 0 2 0 C3.07894531 1.13888672 3.07894531 1.13888672 4.1796875 2.30078125 C7.34513438 5.33031559 10.06916859 6.58152854 14.125 8.1875 C17.6976122 9.61881081 20.7956485 10.86376567 24 13 C17.6283196 12.54795511 13.09989036 10.93966344 7.5 7.9375 C6.77296875 7.56044922 6.0459375 7.18339844 5.296875 6.79492188 C3.52549507 5.87427046 1.76189339 4.93867864 0 4 C0 2.66666667 0 1.33333333 0 0 Z " fill="#ACC1E8" transform="translate(73,131)"/>
<path d="M0 0 C0.33 0 0.66 0 1 0 C1.32635158 3.50827945 1.30108529 5.48564596 -0.5 8.5625 C-3.62596246 11.6103134 -7.00660656 14.18482116 -11 16 C-11.66 15.67 -12.32 15.34 -13 15 C-12.030625 14.4225 -11.06125 13.845 -10.0625 13.25 C-6.90530708 11.35207138 -6.90530708 11.35207138 -6.125 8.75 C-6.08375 8.1725 -6.0425 7.595 -6 7 C-4.68 6.67 -3.36 6.34 -2 6 C-2 5.01 -2 4.02 -2 3 C-1.34 3 -0.68 3 0 3 C0 2.01 0 1.02 0 0 Z " fill="#96B0DC" transform="translate(221,168)"/>
<path d="M0 0 C2.31 0.33 4.62 0.66 7 1 C5.45528056 4.08943888 2.48351379 4.77539682 -0.5625 6.0625 C-1.19494629 6.33271973 -1.82739258 6.60293945 -2.47900391 6.88134766 C-7.07413133 8.77608794 -11.05787473 9.80231499 -16 10 C-16 9.34 -16 8.68 -16 8 C-14.94039062 7.73445313 -13.88078125 7.46890625 -12.7890625 7.1953125 C-11.40094837 6.83890482 -10.01293257 6.48211404 -8.625 6.125 C-7.92632812 5.95097656 -7.22765625 5.77695313 -6.5078125 5.59765625 C-2.35125264 4.55854726 -2.35125264 4.55854726 1 2 C0.67 1.34 0.34 0.68 0 0 Z " fill="#AEC5EA" transform="translate(205,88)"/>
<path d="M0 0 C0.66 0.33 1.32 0.66 2 1 C-0.52995346 4.79493019 -3.22786146 5.42260149 -7.375 6.75 C-8.38433594 7.09998047 -8.38433594 7.09998047 -9.4140625 7.45703125 C-15.5187808 9.46389731 -15.5187808 9.46389731 -19 8 C-17.96359375 7.59007812 -16.9271875 7.18015625 -15.859375 6.7578125 C-14.48954661 6.2136341 -13.11975698 5.66935813 -11.75 5.125 C-11.06808594 4.85558594 -10.38617188 4.58617187 -9.68359375 4.30859375 C-6.93903324 3.21609879 -4.24941231 2.13296484 -1.640625 0.7421875 C-1.09921875 0.49726563 -0.5578125 0.25234375 0 0 Z " fill="#B9CDEE" transform="translate(217,193)"/>
<path d="M0 0 C3.3 0 6.6 0 10 0 C9.67 0.66 9.34 1.32 9 2 C4.65062133 3.32227764 0.18876608 3.11479353 -4.3125 3.0625 C-5.05306641 3.05798828 -5.79363281 3.05347656 -6.55664062 3.04882812 C-8.37112899 3.03712175 -10.18557534 3.01918898 -12 3 C-12 2.67 -12 2.34 -12 2 C-8.04 2 -4.08 2 0 2 C0 1.34 0 0.68 0 0 Z " fill="#5B80C5" transform="translate(168,191)"/>
<path d="M0 0 C2.97 0 5.94 0 9 0 C6.55200137 2.44799863 4.52399884 3.02552278 1.25 4.125 C0.22390625 4.47820312 -0.8021875 4.83140625 -1.859375 5.1953125 C-5.04227344 6.01083125 -7.73004326 6.14685434 -11 6 C-8.61766476 4.7172041 -6.40889449 3.81455513 -3.8125 3 C-0.87134522 2.32012508 -0.87134522 2.32012508 0 0 Z " fill="#AFC2E9" transform="translate(196,139)"/>
<path d="M0 0 C-0.89203125 0.33773437 -1.7840625 0.67546875 -2.703125 1.0234375 C-3.87359375 1.46945313 -5.0440625 1.91546875 -6.25 2.375 C-7.41015625 2.81585938 -8.5703125 3.25671875 -9.765625 3.7109375 C-12.88088708 4.86854991 -12.88088708 4.86854991 -15.171875 6.2265625 C-17.48744257 7.2062257 -18.67664865 6.82976834 -21 6 C-5.90983255 -1.95663375 -5.90983255 -1.95663375 0 0 Z " fill="#AEC4E9" transform="translate(98,51)"/>
<path d="M0 0 C-3.08809695 1.76462683 -4.23312136 2 -8 2 C-8.33 3.32 -8.66 4.64 -9 6 C-11.97 6 -14.94 6 -18 6 C-17.34 5.34 -16.68 4.68 -16 4 C-14.68 4 -13.36 4 -12 4 C-12 3.34 -12 2.68 -12 2 C-10.37787941 1.47026689 -8.75218416 0.95146893 -7.125 0.4375 C-6.22007812 0.14746094 -5.31515625 -0.14257812 -4.3828125 -0.44140625 C-2 -1 -2 -1 0 0 Z " fill="#9DB5E2" transform="translate(206,107)"/>
<path d="M0 0 C2.97 0.495 2.97 0.495 6 1 C2.34879456 4.33370932 -2.21633909 5.97807612 -7 7 C-7.99 6.67 -8.98 6.34 -10 6 C-9.36191406 5.73445312 -8.72382813 5.46890625 -8.06640625 5.1953125 C-7.24011719 4.84210938 -6.41382813 4.48890625 -5.5625 4.125 C-4.73878906 3.77695313 -3.91507813 3.42890625 -3.06640625 3.0703125 C-0.84253285 2.1755063 -0.84253285 2.1755063 0 0 Z " fill="#AABFE7" transform="translate(202,183)"/>
<path d="M0 0 C0.66 0.33 1.32 0.66 2 1 C0.02 3.97 0.02 3.97 -2 7 C-2.33 6.34 -2.66 5.68 -3 5 C-4.98 5 -6.96 5 -9 5 C-8.443125 4.731875 -7.88625 4.46375 -7.3125 4.1875 C-4.90178463 2.99670459 -4.90178463 2.99670459 -2.375 1.3125 C-1.59125 0.879375 -0.8075 0.44625 0 0 Z " fill="#587BC9" transform="translate(219,147)"/>
<path d="M0 0 C0.33 0.66 0.66 1.32 1 2 C1.66 2 2.32 2 3 2 C3 1.34 3 0.68 3 0 C3.66 0 4.32 0 5 0 C4 3 4 3 1.6875 4.25 C-1.09873015 5.0275526 -2.33438378 4.98726527 -5 4 C-3.35 2.68 -1.7 1.36 0 0 Z " fill="#5579C2" transform="translate(207,226)"/>
<path d="M0 0 C0.33 0 0.66 0 1 0 C1.05410687 1.77049689 1.09284119 3.54146849 1.125 5.3125 C1.14820313 6.29863281 1.17140625 7.28476563 1.1953125 8.30078125 C1 11 1 11 -1 14 C-1.66 14 -2.32 14 -3 14 C-2.5359375 12.7625 -2.5359375 12.7625 -2.0625 11.5 C-0.88122417 7.60873845 -0.41775832 4.03833047 0 0 Z " fill="#4D77BE" transform="translate(221,114)"/>
<path d="M0 0 C5.5 -0.36666667 5.5 -0.36666667 7.875 1.375 C9 3 9 3 9 5 C5.22454612 3.90931332 2.52956528 3.0916909 0 0 Z " fill="#96AFE0" transform="translate(73,227)"/>
<path d="M0 0 C0.66 0 1.32 0 2 0 C2.33 0.66 2.66 1.32 3 2 C3.99 1.34 4.98 0.68 6 0 C4.60667426 3.36720387 3.0210714 4.9859524 0 7 C-0.66 6.67 -1.32 6.34 -2 6 C-1.34 4.02 -0.68 2.04 0 0 Z " fill="#9AB7E3" transform="translate(214,82)"/>
<path d="M0 0 C4.09305456 1.65296434 7.58983503 3.13546142 11 6 C6.87248551 5.39301257 3.6678852 3.96189209 0 2 C0 1.34 0 0.68 0 0 Z " fill="#587CC3" transform="translate(202,55)"/>
<path d="M0 0 C0.99 0.33 1.98 0.66 3 1 C2 3 2 3 -1.3125 4.1875 C-4.75666263 4.94638329 -5.83008446 4.98666245 -9 4 C-8.43410156 3.79503906 -7.86820313 3.59007812 -7.28515625 3.37890625 C-6.55167969 3.10949219 -5.81820312 2.84007812 -5.0625 2.5625 C-4.33160156 2.29566406 -3.60070312 2.02882812 -2.84765625 1.75390625 C-1.01694322 1.14613052 -1.01694322 1.14613052 0 0 Z " fill="#5E83C5" transform="translate(190,140)"/>
<path d="M0 0 C0 0.66 0 1.32 0 2 C-0.66 2 -1.32 2 -2 2 C-2 2.66 -2 3.32 -2 4 C-4.64 4 -7.28 4 -10 4 C-6.86268382 1.90845588 -3.85464592 0 0 0 Z " fill="#9BB7E1" transform="translate(216,102)"/>
<path d="M0 0 C2.475 0.99 2.475 0.99 5 2 C4.54625 2.433125 4.0925 2.86625 3.625 3.3125 C1.79975666 5.10798342 1.79975666 5.10798342 0 8 C0 5.36 0 2.72 0 0 Z " fill="#4F79CA" transform="translate(67,194)"/>
<path d="M0 0 C4.12751449 0.60698743 7.3321148 2.03810791 11 4 C8 5 8 5 5.95703125 4.22265625 C5.24933594 3.83980469 4.54164062 3.45695312 3.8125 3.0625 C3.09707031 2.68222656 2.38164063 2.30195312 1.64453125 1.91015625 C1.10183594 1.60980469 0.55914062 1.30945313 0 1 C0 0.67 0 0.34 0 0 Z " fill="#C0D1EF" transform="translate(75,89)"/>
</svg>
