<?xml version="1.0" encoding="UTF-8"?>
<svg version="1.1" xmlns="http://www.w3.org/2000/svg" width="500" height="500">
<path d="M0 0 C1.33109623 0.67112222 2.6635515 1.33960039 4 2 C4 2.66 4 3.32 4 4 C4.54140625 4.08378906 5.0828125 4.16757813 5.640625 4.25390625 C8.81747823 5.25850719 11.06603503 6.97422933 13.75 8.9375 C14.73484375 9.64777344 15.7196875 10.35804688 16.734375 11.08984375 C17.48203125 11.72019531 18.2296875 12.35054687 19 13 C19 13.66 19 14.32 19 15 C19.55171875 15.2371875 20.1034375 15.474375 20.671875 15.71875 C23.56774711 17.31245143 25.79512037 19.28917273 28.25 21.5 C29.14203125 22.2940625 30.0340625 23.088125 30.953125 23.90625 C33 26 33 26 33 28 C33.66 28 34.32 28 35 28 C36.26953125 29.328125 36.26953125 29.328125 37.8125 31.25 C41.22719343 35.27962763 44.93275261 38.86605921 48.8125 42.4375 C49.38782471 42.96956055 49.96314941 43.50162109 50.5559082 44.04980469 C53.55165342 46.83955165 53.55165342 46.83955165 57 49 C57 49.66 57 50.32 57 51 C57.70253906 51.268125 58.40507812 51.53625 59.12890625 51.8125 C63.19650106 53.49487935 67.05534401 55.54469368 70.96484375 57.5625 C84.59418583 64.01758093 101.83589414 63.83955056 116 59 C119.28852876 57.5161977 122.46842521 55.93175793 125.63671875 54.20703125 C128 53 128 53 130 53 C130 52.34 130 51.68 130 51 C131.46875 49.73828125 131.46875 49.73828125 133.5 48.3125 C139.99757212 43.58281853 145.79109901 38.61745796 150.7734375 32.28515625 C151.17820312 31.86105469 151.58296875 31.43695313 152 31 C152.66 31 153.32 31 154 31 C153.39298158 48.30002499 142.37184052 66.81183574 132 80 C130.96746094 81.39025391 130.96746094 81.39025391 129.9140625 82.80859375 C120.86347538 94.58742645 109.11717542 101.58033444 96 108 C95.18402344 108.41121094 94.36804688 108.82242188 93.52734375 109.24609375 C84.94020452 113.13832441 75.22682967 114.36763438 66 116 C64.56394409 116.26586914 64.56394409 116.26586914 63.09887695 116.53710938 C32.27292873 121.14169441 -0.31638117 113.77317705 -25.96875 96.2890625 C-30.39037137 92.95005461 -34.40351741 89.24171174 -38.40625 85.41796875 C-40.87443796 83.01789773 -40.87443796 83.01789773 -43.34375 81.30078125 C-43.8903125 80.87152344 -44.436875 80.44226563 -45 80 C-45 79.34 -45 78.68 -45 78 C-45.804375 77.690625 -45.804375 77.690625 -46.625 77.375 C-49.91978009 75.46749574 -52.59363628 72.95180616 -55 70 C-55 69.34 -55 68.68 -55 68 C-55.639375 67.731875 -56.27875 67.46375 -56.9375 67.1875 C-59 66 -59 66 -60 63 C-61.31767268 62.30289101 -62.65304029 61.63868754 -64 61 C-65.4296875 59.58984375 -65.4296875 59.58984375 -66.875 57.9375 C-77.48375788 47.05555522 -91.89811501 40.2635744 -107.0859375 39.83203125 C-118.1995498 39.66846261 -118.1995498 39.66846261 -129 42 C-129.78246094 42.25652344 -130.56492188 42.51304687 -131.37109375 42.77734375 C-137.36899678 44.95754875 -142.4729289 48.04135533 -147.75 51.609375 C-150 53 -150 53 -152 53 C-152 53.66 -152 54.32 -152 55 C-153.57421875 56.515625 -153.57421875 56.515625 -155.6875 58.25 C-158.35349133 60.50075728 -160.71010091 62.70049545 -162.875 65.4375 C-163.926875 66.7059375 -163.926875 66.7059375 -165 68 C-165.66 68 -166.32 68 -167 68 C-167.66 69.32 -168.32 70.64 -169 72 C-169.66 72 -170.32 72 -171 72 C-166.1011847 52.48439434 -158.5819996 34.82365015 -146 19 C-145.49210937 18.34 -144.98421875 17.68 -144.4609375 17 C-143.36654888 15.61761437 -142.19298777 14.29825139 -141 13 C-140.34 13 -139.68 13 -139 13 C-139 12.34 -139 11.68 -139 11 C-127.1277715 0.34373531 -112.3508196 -6.98259728 -97 -11 C-96.25073242 -11.19609863 -95.50146484 -11.39219727 -94.72949219 -11.59423828 C-62.78819098 -19.56327365 -28.96833321 -15.50738089 0 0 Z " fill="#1AB6B6" transform="translate(308,135)"/>
<path d="M0 0 C1.61998291 1.60811906 3.22293597 3.23074928 4.81677246 4.86477661 C5.35010193 5.41138443 5.8834314 5.95799225 6.43292236 6.52116394 C8.59862854 8.75056856 10.75742833 10.9861175 12.90148926 13.23635864 C26.38018915 27.33746633 40.98863065 37.97523126 61.12145996 38.62258911 C78.403216 38.89068115 91.10050557 35.62332071 104.79333496 24.52102661 C106.35192871 23.41946411 106.35192871 23.41946411 108.35192871 23.41946411 C108.35192871 22.75946411 108.35192871 22.09946411 108.35192871 21.41946411 C109.01192871 21.41946411 109.67192871 21.41946411 110.35192871 21.41946411 C110.35192871 20.75946411 110.35192871 20.09946411 110.35192871 19.41946411 C111.7651599 18.24177145 113.18288534 17.06895578 114.62536621 15.92727661 C117.07669939 13.78651958 119.03695174 11.31926034 121.05505371 8.77493286 C121.48302246 8.32762817 121.91099121 7.88032349 122.35192871 7.41946411 C123.01192871 7.41946411 123.67192871 7.41946411 124.35192871 7.41946411 C123.78095836 12.51882003 122.63537914 17.05785424 120.78942871 21.85696411 C120.52694336 22.54363159 120.26445801 23.23029907 119.99401855 23.93777466 C109.59435979 50.46203493 92.69052944 72.79349124 66.21032715 84.61477661 C49.97697362 91.64382722 33.0974465 93.80916741 15.47692871 93.73196411 C14.16208496 93.72777466 12.84724121 93.72358521 11.49255371 93.7192688 C2.06500234 93.60959184 -6.54120997 92.87453963 -15.64807129 90.41946411 C-16.84947754 90.11782349 -18.05088379 89.81618286 -19.28869629 89.50540161 C-44.73795198 82.72995042 -63.30076971 68.34305139 -81.33557129 49.85696411 C-83.22251358 47.93485991 -85.11168379 46.01501487 -87.00349426 44.09770203 C-88.16754116 42.91676364 -89.32848139 41.73275276 -90.48588562 40.54530334 C-93.28408278 37.61407122 -93.28408278 37.61407122 -96.64807129 35.41946411 C-96.64807129 34.75946411 -96.64807129 34.09946411 -96.64807129 33.41946411 C-97.24619629 33.13071411 -97.84432129 32.84196411 -98.46057129 32.54446411 C-100.64807129 31.41946411 -100.64807129 31.41946411 -103.64807129 29.41946411 C-103.64807129 28.75946411 -103.64807129 28.09946411 -103.64807129 27.41946411 C-105.62807129 26.75946411 -107.60807129 26.09946411 -109.64807129 25.41946411 C-109.64807129 24.75946411 -109.64807129 24.09946411 -109.64807129 23.41946411 C-110.38412598 23.29442505 -111.12018066 23.16938599 -111.87854004 23.04055786 C-114.50185247 22.45225507 -116.53959956 21.62149787 -118.96057129 20.48196411 C-133.62054329 14.51341682 -150.80189131 15.21463652 -165.33947754 20.91946411 C-178.14976305 26.72719686 -188.55701901 36.26998701 -197.44104004 47.05618286 C-197.83936035 47.50606567 -198.23768066 47.95594849 -198.64807129 48.41946411 C-198.97807129 48.41946411 -199.30807129 48.41946411 -199.64807129 48.41946411 C-198.94876966 29.1886692 -187.4593453 8.31804182 -174.64807129 -5.58053589 C-173.80502441 -6.50350464 -172.96197754 -7.42647339 -172.09338379 -8.37741089 C-166.15651599 -14.60019017 -160.17808704 -19.44190128 -152.64807129 -23.58053589 C-152.04833496 -23.91182495 -151.44859863 -24.24311401 -150.83068848 -24.58444214 C-141.72348635 -29.55284028 -132.8103777 -33.24110116 -122.64807129 -35.58053589 C-121.78568848 -35.7932312 -120.92330566 -36.00592651 -120.03479004 -36.22506714 C-75.24336679 -45.90781649 -32.4613734 -31.13115676 0 0 Z " fill="#1DB2B5" transform="translate(229.6480712890625,288.5805358886719)"/>
<path d="M0 0 C0.66 0 1.32 0 2 0 C2.99 1.98 2.99 1.98 4 4 C-4.50997728 10.84601524 -13.20108122 16.20431957 -23 21 C-23.81597656 21.41121094 -24.63195312 21.82242188 -25.47265625 22.24609375 C-34.05979548 26.13832441 -43.77317033 27.36763438 -53 29 C-54.43605591 29.26586914 -54.43605591 29.26586914 -55.90112305 29.53710938 C-81.98005611 33.43261533 -110.88270185 28.78250604 -134 16 C-130.1035952 14.49845864 -127.4802379 15.57194756 -123.625 16.875 C-119.41090732 18.28627694 -115.40390736 19.37467176 -111 20 C-111 20.99 -111 21.98 -111 23 C-109.35 23 -107.7 23 -106 23 C-105.67 23.66 -105.34 24.32 -105 25 C-104.02417969 24.98839844 -103.04835938 24.97679687 -102.04296875 24.96484375 C-100.77066406 24.95582031 -99.49835938 24.94679687 -98.1875 24.9375 C-96.92292969 24.92589844 -95.65835938 24.91429687 -94.35546875 24.90234375 C-91 25 -91 25 -88 26 C-85.56595155 26.12047937 -83.16146192 26.18807208 -80.7265625 26.203125 C-80.00697357 26.20882507 -79.28738464 26.21452515 -78.54598999 26.22039795 C-77.01781682 26.22984551 -75.4896233 26.23638097 -73.96142578 26.24023438 C-71.66790809 26.24982066 -69.37533405 26.28079307 -67.08203125 26.3125 C-59.00466645 26.36995112 -51.69359939 25.87777065 -43.83447266 23.74511719 C-40.81955392 22.95256491 -37.83287949 22.45208755 -34.75 22 C-29.57452416 21.18789076 -24.91503448 19.80217931 -20 18 C-20 17.01 -20 16.02 -20 15 C-19.01 15 -18.02 15 -17 15 C-16.67 13.68 -16.34 12.36 -16 11 C-15.21625 10.9175 -14.4325 10.835 -13.625 10.75 C-10.85250896 10.27193661 -10.85250896 10.27193661 -9.6875 7.9375 C-9.460625 7.298125 -9.23375 6.65875 -9 6 C-8.505 6.99 -8.505 6.99 -8 8 C-7.34 8 -6.68 8 -6 8 C-6 7.34 -6 6.68 -6 6 C-4.35 5.67 -2.7 5.34 -1 5 C-0.67 3.35 -0.34 1.7 0 0 Z " fill="#6DCFC7" transform="translate(427,222)"/>
<path d="M0 0 C1 2 1 2 0.1875 5.5 C-0.98718857 8.96223999 -1.85587586 9.99889138 -4.5 12.3125 C-6.17284196 13.98650632 -6.17284196 13.98650632 -6.9375 16.5625 C-8 19 -8 19 -9.8671875 19.8359375 C-12.72448789 21.39541647 -13.61011239 23.24428819 -15.1875 26.0625 C-17.96688742 30.96688742 -17.96688742 30.96688742 -19 32 C-19.04080783 33.99958364 -19.04254356 36.00045254 -19 38 C-18.34 38.33 -17.68 38.66 -17 39 C-16.67 38.34 -16.34 37.68 -16 37 C-15.34 37 -14.68 37 -14 37 C-12.906875 36.505 -11.81375 36.01 -10.6875 35.5 C-7.35049459 34.14257407 -5.50922751 33.68097932 -2 34 C-4.53575177 36.02860142 -7.07160746 38.05694345 -9.61328125 40.078125 C-15.43133811 44.75951374 -20.82844173 49.61783529 -26 55 C-26.99756396 56.00243012 -27.99720281 57.00280503 -29 58 C-29.66 58.66 -30.32 59.32 -31 60 C-30.1886627 37.68822437 -15.72463643 14.93840461 0 0 Z " fill="#2A99A8" transform="translate(61,277)"/>
<path d="M0 0 C1 2 1 2 0.75 3.9375 C-0.11272741 6.31000036 -1.23216376 7.23216376 -3 9 C-4.08900046 11.35950099 -4.90994104 13.50467574 -5.375 16.0625 C-6.23722052 18.73538362 -8.03383178 20.03383178 -10 22 C-10.34342449 23.33076989 -10.67619874 24.66431979 -11 26 C-12.28062485 27.7074998 -13.6072711 29.38263741 -15 31 C-14.34 31.33 -13.68 31.66 -13 32 C-13 32.66 -13 33.32 -13 34 C-12.34 33.34 -11.68 32.68 -11 32 C-11 32.66 -11 33.32 -11 34 C-10.236875 33.505 -9.47375 33.01 -8.6875 32.5 C-6 31 -6 31 -3 31 C-3.1875 32.875 -3.1875 32.875 -4 35 C-6.5625 36.25 -6.5625 36.25 -9 37 C-9 37.66 -9 38.32 -9 39 C-10.57421875 40.515625 -10.57421875 40.515625 -12.6875 42.25 C-15.35349133 44.50075728 -17.71010091 46.70049545 -19.875 49.4375 C-20.926875 50.7059375 -20.926875 50.7059375 -22 52 C-22.66 52 -23.32 52 -24 52 C-24.66 53.32 -25.32 54.64 -26 56 C-26.66 56 -27.32 56 -28 56 C-23.0377406 36.23164953 -15.16791308 14.42347563 0 0 Z " fill="#2B9FAC" transform="translate(165,151)"/>
<path d="M0 0 C0.66 0 1.32 0 2 0 C1.42850414 5.15010806 0.24261424 9.71848831 -1.625 14.5625 C-2.01389404 15.58827148 -2.01389404 15.58827148 -2.41064453 16.63476562 C-5.14221341 23.66203827 -8.48095235 30.3367145 -12 37 C-13.33332095 34.3333581 -12.67102033 32.83319697 -12 30 C-11.34 30 -10.68 30 -10 30 C-9.814375 28.14375 -9.814375 28.14375 -9.625 26.25 C-9.24253695 23.1237803 -8.69450477 20.71120763 -7 18 C-7.99 17.01 -7.99 17.01 -9 16 C-9.391875 16.45375 -9.78375 16.9075 -10.1875 17.375 C-12 19 -12 19 -14.625 20 C-15.800625 20.495 -15.800625 20.495 -17 21 C-17.495 22.485 -17.495 22.485 -18 24 C-22.33575633 27.50989798 -25.54793555 28.3531449 -31 29 C-33.16275098 29.65874617 -35.27744939 30.40153057 -37.3984375 31.18359375 C-45.43930207 33.70692813 -52.95695688 34.3381961 -61.375 34.3125 C-62.99341797 34.33666992 -62.99341797 34.33666992 -64.64453125 34.36132812 C-65.67707031 34.36197266 -66.70960938 34.36261719 -67.7734375 34.36328125 C-68.70591309 34.36626221 -69.63838867 34.36924316 -70.59912109 34.37231445 C-73.39644157 33.93852213 -74.26797462 33.18070861 -76 31 C-73.2886294 29.6443147 -71.23855371 30.31698911 -68.32275391 30.72460938 C-49.9061227 32.9081242 -34.35592547 30.01578335 -19.4375 18.625 C-18.81746094 18.12226563 -18.19742188 17.61953125 -17.55859375 17.1015625 C-16 16 -16 16 -14 16 C-14 15.34 -14 14.68 -14 14 C-13.34 14 -12.68 14 -12 14 C-12 13.34 -12 12.68 -12 12 C-10.58676881 10.82230734 -9.16904337 9.64949167 -7.7265625 8.5078125 C-5.27522932 6.36705547 -3.31497697 3.89979623 -1.296875 1.35546875 C-0.86890625 0.90816406 -0.4409375 0.46085937 0 0 Z " fill="#7AD6CE" transform="translate(352,296)"/>
<path d="M0 0 C0.99 0.99 0.99 0.99 2 2 C0.68 2.33 -0.64 2.66 -2 3 C-2 2.34 -2 1.68 -2 1 C-3.13888672 0.92652344 -3.13888672 0.92652344 -4.30078125 0.8515625 C-5.29464844 0.77679688 -6.28851563 0.70203125 -7.3125 0.625 C-8.79169922 0.52058594 -8.79169922 0.52058594 -10.30078125 0.4140625 C-13 0 -13 0 -16 -2 C-16 -2.66 -16 -3.32 -16 -4 C-17.18078125 -3.98839844 -18.3615625 -3.97679688 -19.578125 -3.96484375 C-21.13541508 -3.95546248 -22.69270688 -3.94636264 -24.25 -3.9375 C-25.41595703 -3.92493164 -25.41595703 -3.92493164 -26.60546875 -3.91210938 C-27.73662109 -3.90727539 -27.73662109 -3.90727539 -28.890625 -3.90234375 C-29.92751465 -3.89448853 -29.92751465 -3.89448853 -30.98535156 -3.88647461 C-33 -4 -33 -4 -34.83544922 -4.49560547 C-39.67779036 -5.6239922 -44.84075431 -5.18588728 -49.78955078 -5.18530273 C-51.86121279 -5.18748547 -53.93233858 -5.2056516 -56.00390625 -5.22460938 C-57.32003906 -5.22654297 -58.63617188 -5.22847656 -59.9921875 -5.23046875 C-61.19214355 -5.23457764 -62.39209961 -5.23868652 -63.62841797 -5.24291992 C-67.085415 -4.99384591 -69.76522345 -4.20375646 -73 -3 C-75.41021242 -2.45007162 -77.82735191 -1.92976147 -80.25 -1.4375 C-84.75843801 -0.60832 -84.75843801 -0.60832 -89 1 C-91.204364 1.22950319 -93.41392173 1.41075933 -95.625 1.5625 C-96.81351563 1.64628906 -98.00203125 1.73007813 -99.2265625 1.81640625 C-100.14179688 1.87699219 -101.05703125 1.93757812 -102 2 C-80.51361046 -19.48638954 -24.53797997 -10.42509554 0 0 Z " fill="#78C1C7" transform="translate(296,129)"/>
<path d="M0 0 C4.95 0.33 9.9 0.66 15 1 C15.33 2.65 15.66 4.3 16 6 C16.886875 6.2475 17.77375 6.495 18.6875 6.75 C22.1377353 8.05197558 24.17290711 9.68033404 27 12 C29.6794645 13.24016669 29.6794645 13.24016669 32 14 C32 14.99 32 15.98 32 17 C32.66 17 33.32 17 34 17 C38 21.47058824 38 21.47058824 38 24 C38.639375 24.103125 39.27875 24.20625 39.9375 24.3125 C40.618125 24.539375 41.29875 24.76625 42 25 C42.495 26.485 42.495 26.485 43 28 C43.763125 27.896875 44.52625 27.79375 45.3125 27.6875 C46.199375 27.790625 47.08625 27.89375 48 28 C49.625 30.375 49.625 30.375 51 33 C51.99 33.66 52.98 34.32 54 35 C54.6875 38.625 54.6875 38.625 55 42 C53.68 41.34 52.36 40.68 51 40 C51 39.34 51 38.68 51 38 C50.46375 37.79375 49.9275 37.5875 49.375 37.375 C46.08021991 35.46749574 43.40636372 32.95180616 41 30 C41 29.34 41 28.68 41 28 C40.360625 27.731875 39.72125 27.46375 39.0625 27.1875 C37 26 37 26 36 23 C34.68232732 22.30289101 33.34695971 21.63868754 32 21 C30.5703125 19.58984375 30.5703125 19.58984375 29.125 17.9375 C21.18515995 9.79320055 10.84851981 4.1659966 0 1 C0 0.67 0 0.34 0 0 Z " fill="#69C0C2" transform="translate(212,175)"/>
<path d="M0 0 C2.475 0.495 2.475 0.495 5 1 C5 1.66 5 2.32 5 3 C6.175625 3.185625 6.175625 3.185625 7.375 3.375 C10 4 10 4 12 6 C12.66 5.67 13.32 5.34 14 5 C16.52588702 7.36292656 17.88820837 8.66462511 19 12 C20.44724054 13.21699773 21.89865986 14.42986305 23.3828125 15.6015625 C25.02081785 17.01800191 26.28957068 18.48710863 27.625 20.1875 C29.83066107 22.79946705 31.02892419 23.62057194 34 25 C34.495 26.485 34.495 26.485 35 28 C35.78375 28.78375 36.5675 29.5675 37.375 30.375 C39.83701456 32.83701456 41.28035095 35.00930601 43 38 C44.31037934 39.68477344 45.63823078 41.35648543 47 43 C44.19923613 41.72370463 42.16415401 40.40867105 40.00732422 38.21850586 C39.1765889 37.38270241 39.1765889 37.38270241 38.32907104 36.53001404 C37.74352448 35.93100784 37.15797791 35.33200165 36.5546875 34.71484375 C35.94360138 34.09855606 35.33251526 33.48226837 34.70291138 32.8473053 C32.75545618 30.88206676 30.81483091 28.91026236 28.875 26.9375 C26.92716399 24.96205725 24.97789254 22.98808649 23.02566528 21.01698303 C21.81202071 19.79106939 20.60105915 18.56249271 19.39303589 17.33103943 C16.4854956 14.28867973 16.4854956 14.28867973 13 12 C13 11.34 13 10.68 13 10 C12.1028125 9.566875 12.1028125 9.566875 11.1875 9.125 C9 8 9 8 6 6 C6 5.34 6 4.68 6 4 C4.02 3.34 2.04 2.68 0 2 C0 1.34 0 0.68 0 0 Z " fill="#71C3C4" transform="translate(120,312)"/>
<path d="M0 0 C-0.57149586 5.15010806 -1.75738576 9.71848831 -3.625 14.5625 C-3.8842627 15.24634766 -4.14352539 15.93019531 -4.41064453 16.63476562 C-7.14221341 23.66203827 -10.48095235 30.3367145 -14 37 C-15.33332095 34.3333581 -14.67102033 32.83319697 -14 30 C-13.34 30 -12.68 30 -12 30 C-11.814375 28.14375 -11.814375 28.14375 -11.625 26.25 C-11.24253695 23.1237803 -10.69450477 20.71120763 -9 18 C-9.66 17.34 -10.32 16.68 -11 16 C-11.391875 16.474375 -11.78375 16.94875 -12.1875 17.4375 C-14.40808374 19.35179633 -16.13375709 19.61266988 -19 20 C-18.67 19.34 -18.34 18.68 -18 18 C-17.01 18 -16.02 18 -15 18 C-15 17.34 -15 16.68 -15 16 C-14.319375 15.3503125 -14.319375 15.3503125 -13.625 14.6875 C-11.84237334 13.06251541 -11.84237334 13.06251541 -11.125 10.625 C-9.69419845 7.28646306 -7.64791527 5.45416537 -5 3 C-4.443125 2.401875 -3.88625 1.80375 -3.3125 1.1875 C-2 0 -2 0 0 0 Z " fill="#2FB7A6" transform="translate(354,296)"/>
<path d="M0 0 C0.66 0.33 1.32 0.66 2 1 C5.22646114 1.2307231 8.44576922 1.39522303 11.67773438 1.51757812 C13.4567469 1.60903076 15.23020624 1.79731996 17 2 C17.495 2.99 17.495 2.99 18 4 C18.99 4.66 19.98 5.32 21 6 C20.3201001 5.98952637 19.6402002 5.97905273 18.93969727 5.96826172 C15.81400351 5.92629897 12.68836934 5.90054709 9.5625 5.875 C7.95858398 5.84986328 7.95858398 5.84986328 6.32226562 5.82421875 C-0.08245493 5.78504615 -5.83477413 6.24973947 -12 8 C-13.51787109 8.42152344 -13.51787109 8.42152344 -15.06640625 8.8515625 C-15.89011719 9.10679687 -16.71382812 9.36203125 -17.5625 9.625 C-18.40941406 9.88539063 -19.25632813 10.14578125 -20.12890625 10.4140625 C-20.74636719 10.60742188 -21.36382812 10.80078125 -22 11 C-22 10.01 -22 9.02 -22 8 C-19.03 7.01 -16.06 6.02 -13 5 C-13 4.34 -13 3.68 -13 3 C-12.34 3 -11.68 3 -11 3 C-11 2.34 -11 1.68 -11 1 C-10.28972656 1.01160156 -9.57945312 1.02320313 -8.84765625 1.03515625 C-7.92855469 1.04417969 -7.00945312 1.05320313 -6.0625 1.0625 C-4.68771484 1.07990234 -4.68771484 1.07990234 -3.28515625 1.09765625 C-1.03406673 1.25949049 -1.03406673 1.25949049 0 0 Z " fill="#33A9B4" transform="translate(191,169)"/>
<path d="M0 0 C0.66 0 1.32 0 2 0 C1.53750568 13.18108816 -5.49782004 26.70497605 -12 38 C-12.99 38.495 -12.99 38.495 -14 39 C-13.731875 38.360625 -13.46375 37.72125 -13.1875 37.0625 C-11.64635858 33.08797739 -10.32390688 29.05115505 -9 25 C-8.34 25 -7.68 25 -7 25 C-6.80664062 24.33613281 -6.61328125 23.67226562 -6.4140625 22.98828125 C-4.21584777 15.53393922 -4.21584777 15.53393922 -2.8125 12.0625 C-1.81673774 9.90425722 -1.81673774 9.90425722 -2 7 C-5.0210714 9.0140476 -6.60667426 10.63279613 -8 14 C-8.66 14 -9.32 14 -10 14 C-10.061875 14.598125 -10.12375 15.19625 -10.1875 15.8125 C-11.36295677 18.9771913 -12.98565762 19.59330689 -16 21 C-19.3125 21.6875 -19.3125 21.6875 -22 22 C-22 21.34 -22 20.68 -22 20 C-20.53125 18.73828125 -20.53125 18.73828125 -18.5 17.3125 C-12.00242788 12.58281853 -6.20890099 7.61745796 -1.2265625 1.28515625 C-0.82179688 0.86105469 -0.41703125 0.43695313 0 0 Z " fill="#AEE8E0" transform="translate(460,166)"/>
<path d="M0 0 C0.66 0.66 1.32 1.32 2 2 C2.66 1.67 3.32 1.34 4 1 C2.50533744 7.29893509 0.03136677 11.75083994 -3.875 16.8125 C-4.29765137 17.36317139 -4.72030273 17.91384277 -5.15576172 18.48120117 C-7.80144669 21.80579994 -10.5885945 24.47507084 -14 27 C-14.1875 24.6875 -14.1875 24.6875 -14 22 C-12.5625 20.4375 -12.5625 20.4375 -11 19 C-10.28552357 16.89667109 -10.28552357 16.89667109 -10 15 C-10.66 15 -11.32 15 -12 15 C-12 13.68 -12 12.36 -12 11 C-9.03 11.495 -9.03 11.495 -6 12 C-5.67 9.69 -5.34 7.38 -5 5 C-4.34 5 -3.68 5 -3 5 C-2.87625 4.360625 -2.7525 3.72125 -2.625 3.0625 C-2.41875 2.381875 -2.2125 1.70125 -2 1 C-1.34 0.67 -0.68 0.34 0 0 Z " fill="#1CC8AF" transform="translate(445,197)"/>
<path d="M0 0 C0.99 0.495 0.99 0.495 2 1 C-18.02718512 11.48543724 -37.06096184 15.384615 -59.6875 15.25 C-61.04362345 15.25714861 -62.39974359 15.26495872 -63.75585938 15.2734375 C-65.03654297 15.27085937 -66.31722656 15.26828125 -67.63671875 15.265625 C-69.36474731 15.26224121 -69.36474731 15.26224121 -71.12768555 15.25878906 C-74 15 -74 15 -77 13 C-75.74509766 13.01571045 -75.74509766 13.01571045 -74.46484375 13.03173828 C-71.3263452 13.06606018 -68.18794313 13.09101493 -65.04931641 13.10986328 C-63.03671881 13.12472879 -61.02420812 13.150157 -59.01171875 13.17578125 C-52.26691049 13.20967476 -46.45281451 12.95223718 -40 11 C-38.2967363 10.78769518 -36.58771717 10.61305064 -34.875 10.5 C-30.95674883 10.16057703 -27.71928685 9.31724742 -24 8 C-22.46059895 7.71657237 -20.9185789 7.44721328 -19.375 7.1875 C-12.54017823 5.89947888 -6.20104791 3.10052396 0 0 Z " fill="#ACE9E6" transform="translate(304,367)"/>
<path d="M0 0 C-2.52952288 3.15111212 -4.76756266 3.58798017 -8.6875 4.1875 C-10.17830078 4.42533203 -10.17830078 4.42533203 -11.69921875 4.66796875 C-12.45847656 4.77753906 -13.21773437 4.88710938 -14 5 C-14.10828125 5.62390625 -14.2165625 6.2478125 -14.328125 6.890625 C-15 9 -15 9 -17.75 10.75 C-20.82966204 11.9344854 -22.75489427 12.28633286 -26 12 C-26.33 12.99 -26.66 13.98 -27 15 C-29.6171875 16.60546875 -29.6171875 16.60546875 -32.875 18.1875 C-33.94492188 18.71730469 -35.01484375 19.24710937 -36.1171875 19.79296875 C-39 21 -39 21 -42 21 C-31.83466407 11.54387355 -14.53448688 -0.39282397 0 0 Z " fill="#54ABB4" transform="translate(104,255)"/>
<path d="M0 0 C5.31423541 0.48311231 9.85715163 1.51662233 14.87890625 3.30078125 C17.55035006 4.18142295 20.21403383 4.64282485 23 5 C23 5.99 23 6.98 23 8 C24.65 8 26.3 8 28 8 C28.33 8.66 28.66 9.32 29 10 C31.8159849 10.46898963 31.8159849 10.46898963 35.0625 10.625 C36.16722656 10.69976562 37.27195312 10.77453125 38.41015625 10.8515625 C39.26480469 10.90054688 40.11945313 10.94953125 41 11 C40.67 11.66 40.34 12.32 40 13 C25.98480913 12.94503847 12.10451937 7.87342055 0 1 C0 0.67 0 0.34 0 0 Z " fill="#77CEC9" transform="translate(293,237)"/>
<path d="M0 0 C2.43763799 0.1437503 4.8750895 0.28997832 7.3125 0.4375 C7.98345703 0.47681641 8.65441406 0.51613281 9.34570312 0.55664062 C13.27194693 0.79627053 17.17939318 1.11085342 21.09375 1.5 C28.11342721 2.15368875 35.14303388 2.34796559 42.1875 2.5625 C43.53451468 2.60582646 44.88152001 2.64944448 46.22851562 2.69335938 C49.48559727 2.79842652 52.74274197 2.90057834 56 3 C56 3.33 56 3.66 56 4 C51.0686032 4.98627936 46.37832281 5.15557126 41.375 5.125 C40.55322266 5.12089111 39.73144531 5.11678223 38.88476562 5.11254883 C10.59449891 4.8635902 10.59449891 4.8635902 0 1 C0 0.67 0 0.34 0 0 Z " fill="#3AB5AB" transform="translate(206,376)"/>
<path d="M0 0 C0.66 0 1.32 0 2 0 C2.66 1.32 3.32 2.64 4 4 C-14.02614379 18 -14.02614379 18 -20 18 C-20 17.01 -20 16.02 -20 15 C-19.01 15 -18.02 15 -17 15 C-16.67 13.68 -16.34 12.36 -16 11 C-15.21625 10.9175 -14.4325 10.835 -13.625 10.75 C-10.85250896 10.27193661 -10.85250896 10.27193661 -9.6875 7.9375 C-9.460625 7.298125 -9.23375 6.65875 -9 6 C-8.67 6.66 -8.34 7.32 -8 8 C-7.34 8 -6.68 8 -6 8 C-6 7.34 -6 6.68 -6 6 C-4.35 5.67 -2.7 5.34 -1 5 C-0.67 3.35 -0.34 1.7 0 0 Z " fill="#27C6AE" transform="translate(427,222)"/>
<path d="M0 0 C0 0.33 0 0.66 0 1 C-6.625 1.125 -6.625 1.125 -10 0 C-12.86430864 -0.30239035 -15.72919934 -0.50765769 -18.6015625 -0.71875 C-21 -1 -21 -1 -22 -2 C-24.44608998 -2.15980437 -26.86731058 -2.25929447 -29.31640625 -2.31640625 C-30.04746078 -2.33718735 -30.77851532 -2.35796844 -31.53172302 -2.37937927 C-33.87521656 -2.44495024 -36.21882539 -2.50379432 -38.5625 -2.5625 C-40.14779855 -2.60567808 -41.73308529 -2.64929213 -43.31835938 -2.69335938 C-47.21212037 -2.8006392 -51.10599772 -2.9018849 -55 -3 C-55 -2.34 -55 -1.68 -55 -1 C-63.415 -0.505 -63.415 -0.505 -72 0 C-54.30855592 -11.79429605 -19.19835412 -4.62222412 0 0 Z " fill="#A7D9E1" transform="translate(176,255)"/>
<path d="M0 0 C0.66 0.33 1.32 0.66 2 1 C-1.75 4 -1.75 4 -4 4 C-4 4.66 -4 5.32 -4 6 C-5.57421875 7.515625 -5.57421875 7.515625 -7.6875 9.25 C-10.35349133 11.50075728 -12.71010091 13.70049545 -14.875 16.4375 C-15.57625 17.283125 -16.2775 18.12875 -17 19 C-17.66 19 -18.32 19 -19 19 C-19.66 20.32 -20.32 21.64 -21 23 C-21.66 23 -22.32 23 -23 23 C-21.515 17.555 -21.515 17.555 -20 12 C-17.525 12.99 -17.525 12.99 -15 14 C-15.33 12.68 -15.66 11.36 -16 10 C-15.01 10 -14.02 10 -13 10 C-13.33 8.68 -13.66 7.36 -14 6 C-11.50935112 5.31292445 -9.62113708 5 -7 5 C-7 4.34 -7 3.68 -7 3 C-4.69631264 1.93347808 -2.35981813 0.93578995 0 0 Z " fill="#70B0B4" transform="translate(160,184)"/>
<path d="M0 0 C-0.7115625 0.5671875 -1.423125 1.134375 -2.15625 1.71875 C-4.9522589 3.9617022 -7.72855447 6.22679187 -10.5 8.5 C-13.98223772 11.35621746 -17.4781569 14.19273376 -21 17 C-21 15.35 -21 13.7 -21 12 C-20.01 11.67 -19.02 11.34 -18 11 C-18.309375 9.824375 -18.309375 9.824375 -18.625 8.625 C-18.74875 7.75875 -18.8725 6.8925 -19 6 C-18.34 5.34 -17.68 4.68 -17 4 C-16.34 4.33 -15.68 4.66 -15 5 C-14.67 4.34 -14.34 3.68 -14 3 C-13.34 3 -12.68 3 -12 3 C-10.906875 2.505 -9.81375 2.01 -8.6875 1.5 C-5.35049459 0.14257407 -3.50922751 -0.31902068 0 0 Z " fill="#3099AC" transform="translate(59,311)"/>
<path d="M0 0 C1.4650113 4.50371428 -0.13630407 7.58005406 -1.9375 11.75 C-2.22818359 12.44738281 -2.51886719 13.14476562 -2.81835938 13.86328125 C-3.53551703 15.57975695 -4.26643402 17.29047232 -5 19 C-5.66 19 -6.32 19 -7 19 C-7.33 21.31 -7.66 23.62 -8 26 C-8.33 26 -8.66 26 -9 26 C-8.88597936 23.72858891 -8.75841495 21.45785448 -8.625 19.1875 C-8.55539062 17.92292969 -8.48578125 16.65835938 -8.4140625 15.35546875 C-8 12 -8 12 -6 9 C-6.66 8.67 -7.32 8.34 -8 8 C-7.34 7.67 -6.68 7.34 -6 7 C-5.525625 6.195625 -5.05125 5.39125 -4.5625 4.5625 C-3 2 -3 2 0 0 Z " fill="#2FC1A4" transform="translate(458,172)"/>
<path d="M0 0 C4.68139254 -0.02465288 9.36274759 -0.04283739 14.04418945 -0.05493164 C15.63794614 -0.05997157 17.23169819 -0.0668035 18.82543945 -0.07543945 C21.11150253 -0.08751999 23.39750467 -0.09323155 25.68359375 -0.09765625 C26.40026718 -0.10281754 27.11694061 -0.10797882 27.85533142 -0.11329651 C29.57063672 -0.11349263 31.28581266 -0.06192007 33 0 C33.495 0.495 33.495 0.495 34 1 C35.68350209 1.1863983 37.37254449 1.32359653 39.0625 1.4375 C43.92015144 1.83067805 48.31689378 2.67459258 53 4 C53 4.33 53 4.66 53 5 C48.38 5 43.76 5 39 5 C39 4.67 39 4.34 39 4 C25.96649546 1.88134614 13.179453 1.77479904 0 2 C0 1.34 0 0.68 0 0 Z " fill="#30A1AD" transform="translate(121,252)"/>
<path d="M0 0 C1 2 1 2 0.75 3.9375 C-0.11871876 6.32647658 -1.18108816 7.25104631 -3 9 C-3.7734375 10.3303125 -3.7734375 10.3303125 -4.5625 11.6875 C-5.036875 12.450625 -5.51125 13.21375 -6 14 C-6.66 14 -7.32 14 -8 14 C-8.66 15.65 -9.32 17.3 -10 19 C-10.66 19 -11.32 19 -12 19 C-12.33 20.65 -12.66 22.3 -13 24 C-13.66 24 -14.32 24 -15 24 C-15 24.99 -15 25.98 -15 27 C-15.66 27 -16.32 27 -17 27 C-13.95827147 16.71679595 -7.39551871 7.64973966 0 0 Z " fill="#6BB5C0" transform="translate(165,151)"/>
<path d="M0 0 C0.66 0 1.32 0 2 0 C1.42285815 5.4507841 0.05629339 10.09543775 -1.9375 15.1875 C-2.20240234 15.88552734 -2.46730469 16.58355469 -2.74023438 17.30273438 C-4.01177593 20.61883904 -5.32381773 23.86626793 -7 27 C-7.33 26.34 -7.66 25.68 -8 25 C-7.2578125 22.828125 -7.2578125 22.828125 -6.125 20.25 C-4.54312175 16.4862207 -3.43070758 13.09172196 -3 9 C-4.32 9 -5.64 9 -7 9 C-7 9.66 -7 10.32 -7 11 C-7.66 10.67 -8.32 10.34 -9 10 C-7.8758824 8.70756532 -6.75067408 7.41607925 -5.625 6.125 C-4.99851562 5.40570313 -4.37203125 4.68640625 -3.7265625 3.9453125 C-2.52573166 2.5923402 -1.2791655 1.2791655 0 0 Z " fill="#90D5CB" transform="translate(352,296)"/>
<path d="M0 0 C12.50743255 1.65761154 23.96388145 8.65291468 34 16 C34.495 16.99 34.495 16.99 35 18 C32.64828869 17.40138258 30.3140622 16.73075648 28 16 C27.67 15.34 27.34 14.68 27 14 C25.02111039 13.27306096 23.02045442 12.60183749 21 12 C21 11.34 21 10.68 21 10 C18.525 9.505 18.525 9.505 16 9 C16 8.34 16 7.68 16 7 C13.36 6.67 10.72 6.34 8 6 C7.67 5.01 7.34 4.02 7 3 C3.48809191 1.77030122 3.48809191 1.77030122 0 1 C0 0.67 0 0.34 0 0 Z " fill="#81C7CB" transform="translate(176,256)"/>
<path d="M0 0 C1.32 0.33 2.64 0.66 4 1 C-6.37357631 10.59453303 -6.37357631 10.59453303 -12 14 C-12.66 13.67 -13.32 13.34 -14 13 C-13.34 11.35 -12.68 9.7 -12 8 C-10.68 8 -9.36 8 -8 8 C-8 5.69 -8 3.38 -8 1 C-4 2 -4 2 0 3 C0 2.01 0 1.02 0 0 Z " fill="#22C3B0" transform="translate(320,353)"/>
<path d="M0 0 C4.95 0.33 9.9 0.66 15 1 C15.33 2.65 15.66 4.3 16 6 C16.886875 6.2475 17.77375 6.495 18.6875 6.75 C22.10427135 8.03934768 24.2797748 9.59980129 27 12 C26.67 12.99 26.34 13.98 26 15 C25.04480469 14.32453125 24.08960938 13.6490625 23.10546875 12.953125 C15.69194006 7.80566908 8.79812939 3.45103813 0 1 C0 0.67 0 0.34 0 0 Z " fill="#7AC6CC" transform="translate(212,175)"/>
<path d="M0 0 C2.31 0.33 4.62 0.66 7 1 C7 1.66 7 2.32 7 3 C8.051875 2.79375 9.10375 2.5875 10.1875 2.375 C13.99624887 2.00036896 15.66835752 2.28369933 19 4 C18.67 4.99 18.34 5.98 18 7 C18.99 7 19.98 7 21 7 C21 7.66 21 8.32 21 9 C12.68824304 8.18429458 6.41210487 6.55391911 0 1 C0 0.67 0 0.34 0 0 Z " fill="#2CB7AE" transform="translate(282,230)"/>
<path d="M0 0 C2.3125 -0.3125 2.3125 -0.3125 5 0 C6.625 2.375 6.625 2.375 8 5 C8.99 5.66 9.98 6.32 11 7 C11.6875 10.625 11.6875 10.625 12 14 C10.68 13.34 9.36 12.68 8 12 C8 11.34 8 10.68 8 10 C7.401875 9.731875 6.80375 9.46375 6.1875 9.1875 C3.93395607 7.96414758 2.57141964 7.02039668 1 5 C0.3125 2.3125 0.3125 2.3125 0 0 Z " fill="#5CC1BF" transform="translate(255,203)"/>
<path d="M0 0 C1.74216797 0.02707031 1.74216797 0.02707031 3.51953125 0.0546875 C4.39996094 0.07789063 5.28039062 0.10109375 6.1875 0.125 C2.51843196 2.57104536 0.05848053 2.47973946 -4.2421875 2.68359375 C-6.9070601 2.97470934 -6.9070601 2.97470934 -9.20703125 4.6171875 C-12.44753575 6.49250195 -14.90601799 6.62467263 -18.625 6.8125 C-19.78644531 6.87824219 -20.94789062 6.94398438 -22.14453125 7.01171875 C-23.02496094 7.04910156 -23.90539062 7.08648437 -24.8125 7.125 C-22.39653287 4.70903287 -20.78901171 4.44391496 -17.5 3.625 C-14.6679593 2.9140921 -12.05104241 2.23161542 -9.3828125 1.0390625 C-6.14316241 -0.11303191 -3.42828361 -0.06925825 0 0 Z " fill="#2D9FAB" transform="translate(114.8125,253.875)"/>
<path d="M0 0 C0.7528125 0.144375 1.505625 0.28875 2.28125 0.4375 C14.45720692 2.56533713 25.96068139 3.00982965 38 0 C40.234375 0.44140625 40.234375 0.44140625 42 1 C37.58279528 5.41720472 28.78505261 4.06073726 22.8984375 4.09765625 C20.39060621 4.09109125 17.88278369 4.07928743 15.375 4.0625 C14.08464844 4.05798828 12.79429687 4.05347656 11.46484375 4.04882812 C8.30984625 4.03714295 5.15494863 4.02076044 2 4 C2 3.01 2 2.02 2 1 C1.34 0.67 0.68 0.34 0 0 Z " fill="#ACE8E7" transform="translate(382,195)"/>
<path d="M0 0 C1.14721836 3.78662284 0.5429649 5.36949436 -1 9 C-1 10.32 -1 11.64 -1 13 C-0.01 13.33 0.98 13.66 2 14 C1.04663979 15.31611677 0.08714226 16.62778961 -0.875 17.9375 C-1.40867187 18.66839844 -1.94234375 19.39929688 -2.4921875 20.15234375 C-4 22 -4 22 -6 23 C-5.57200914 14.72550999 -2.95555804 7.66700112 0 0 Z " fill="#9BC4CC" transform="translate(36,314)"/>
<path d="M0 0 C1.32 0.33 2.64 0.66 4 1 C1.81623234 2.13277268 -0.37157128 3.25622789 -2.5625 4.375 C-3.17158203 4.69210937 -3.78066406 5.00921875 -4.40820312 5.3359375 C-8.53701886 7.43311374 -12.51082113 8.85603936 -17 10 C-17.66 9.34 -18.32 8.68 -19 8 C-18.34 7.34 -17.68 6.68 -17 6 C-17 5.67 -17 5.34 -17 5 C-11.06 4.505 -11.06 4.505 -5 4 C-5 3.34 -5 2.68 -5 2 C-3.35 2 -1.7 2 0 2 C0 1.34 0 0.68 0 0 Z " fill="#2EBFB0" transform="translate(303,365)"/>
<path d="M0 0 C0.66 0.33 1.32 0.66 2 1 C0.4986895 5.52089547 -2.02974542 8.98252555 -4.9375 12.6875 C-5.60168945 13.55858398 -5.60168945 13.55858398 -6.27929688 14.44726562 C-8.37897757 17.1540075 -10.12577401 19.08384934 -13 21 C-11.66666667 18.33333333 -10.33333333 15.66666667 -9 13 C-8.34 13 -7.68 13 -7 13 C-7.061875 11.88625 -7.12375 10.7725 -7.1875 9.625 C-7.125625 8.42875 -7.06375 7.2325 -7 6 C-4 4 -4 4 0 4 C0 2.68 0 1.36 0 0 Z " fill="#6BD1C7" transform="translate(337,332)"/>
<path d="M0 0 C3.96064107 1.74268207 7.74436549 4.14674729 11 7 C11 7.66 11 8.32 11 9 C11.5775 9.226875 12.155 9.45375 12.75 9.6875 C15.5663661 11.33038023 17.08077114 13.39533227 19 16 C16.525 15.505 16.525 15.505 14 15 C14 14.01 14 13.02 14 12 C13.278125 11.9175 12.55625 11.835 11.8125 11.75 C7.72202065 10.65920551 5.14542594 8.73301457 2.796875 5.1796875 C1.81890982 3.47857906 0.90420667 1.74143507 0 0 Z " fill="#69BFBF" transform="translate(316,141)"/>
<path d="M0 0 C2.64 0 5.28 0 8 0 C8 0.66 8 1.32 8 2 C10.64 1.67 13.28 1.34 16 1 C16.33 1.99 16.66 2.98 17 4 C16.67 4.66 16.34 5.32 16 6 C16.66 6.33 17.32 6.66 18 7 C13.51006131 6.41347648 9.77456816 5.2356462 5.625 3.4375 C4.56539062 2.98246094 3.50578125 2.52742188 2.4140625 2.05859375 C1.61742187 1.70925781 0.82078125 1.35992187 0 1 C0 0.67 0 0.34 0 0 Z " fill="#81D2D0" transform="translate(188,369)"/>
<path d="M0 0 C-10.13388053 4.69470627 -20.59173186 9.37678684 -32 9 C-30 7 -30 7 -26.875 6.875 C-25.92625 6.91625 -24.9775 6.9575 -24 7 C-24 6.34 -24 5.68 -24 5 C-21.45327008 3.72663504 -19.13266528 3.52838625 -16.3125 3.125 C-12.60197942 2.54217243 -9.3410979 1.91204493 -5.9375 0.3125 C-3 -1 -3 -1 0 0 Z " fill="#99E3DF" transform="translate(408,241)"/>
<path d="M0 0 C0.66 0.33 1.32 0.66 2 1 C-1.37206933 4.02621606 -4.52906666 6.36007949 -8.5625 8.4375 C-12.8197895 10.69558936 -15.19455522 13.10857659 -18 17 C-18.8125 15.3125 -18.8125 15.3125 -19 13 C-15.53057424 8.16758555 -10.93452494 6.41984717 -5.5234375 4.2109375 C-3.11735474 3.05631574 -1.72481015 2.00263192 0 0 Z " fill="#2C99A5" transform="translate(80,266)"/>
<path d="M0 0 C4.55978293 -0.07728446 8.53643206 0.03490423 13 1 C14.6662553 1.0370279 16.33401319 1.04759962 18 1 C19 4 19 4 19 7 C15.43823881 6.38194842 12.2806772 5.43180751 8.9375 4.0625 C8.10089844 3.72347656 7.26429687 3.38445312 6.40234375 3.03515625 C4.22316463 2.09616037 2.10898479 1.08615152 0 0 Z " fill="#7DC9D1" transform="translate(101,305)"/>
<path d="M0 0 C1.19882812 0.15275391 1.19882812 0.15275391 2.421875 0.30859375 C3.02515625 0.39238281 3.6284375 0.47617188 4.25 0.5625 C1.64133036 3.17116964 -0.13211683 3.10753835 -3.75 3.625 C-7.88905115 4.14853718 -7.88905115 4.14853718 -11.75 5.5625 C-13.74960012 5.602492 -15.75047242 5.60596799 -17.75 5.5625 C-15.14878001 1.66067002 -13.21100304 1.63929384 -8.75 0.5625 C-7.79480469 0.27439453 -7.79480469 0.27439453 -6.8203125 -0.01953125 C-4.39226569 -0.50972183 -2.45029107 -0.32430323 0 0 Z " fill="#1FC2B1" transform="translate(395.75,241.4375)"/>
<path d="M0 0 C0.99 0.66 1.98 1.32 3 2 C3.125 4.5 3.125 4.5 3 7 C3.33 7.66 3.66 8.32 4 9 C3.34 9.66 2.68 10.32 2 11 C-0.625 10.625 -0.625 10.625 -3 10 C-3.36923077 4.58461538 -3.36923077 4.58461538 -1.5 1.625 C-1.005 1.08875 -0.51 0.5525 0 0 Z " fill="#1E9DAE" transform="translate(44,305)"/>
<path d="M0 0 C1.59385496 3.18770991 0.75129635 5.59027042 0 9 C-1.9375 11.9375 -1.9375 11.9375 -4 14 C-4.66 14 -5.32 14 -6 14 C-6.12375 14.639375 -6.2475 15.27875 -6.375 15.9375 C-6.58125 16.618125 -6.7875 17.29875 -7 18 C-7.66 18.33 -8.32 18.66 -9 19 C-8.26427664 14.94330316 -6.35372904 11.44923348 -4.5 7.8125 C-4.17902344 7.17119141 -3.85804687 6.52988281 -3.52734375 5.86914062 C-1.14060834 1.14060834 -1.14060834 1.14060834 0 0 Z " fill="#7ABCC5" transform="translate(46,295)"/>
<path d="M0 0 C0.66 0.33 1.32 0.66 2 1 C-1.75 4 -1.75 4 -4 4 C-4 4.66 -4 5.32 -4 6 C-5.75 7.5078125 -5.75 7.5078125 -8 9.125 C-8.7425 9.66382813 -9.485 10.20265625 -10.25 10.7578125 C-10.8275 11.16773438 -11.405 11.57765625 -12 12 C-12.66 10.02 -13.32 8.04 -14 6 C-11.50935112 5.31292445 -9.62113708 5 -7 5 C-7 4.34 -7 3.68 -7 3 C-4.69631264 1.93347808 -2.35981813 0.93578995 0 0 Z " fill="#76BEC6" transform="translate(160,184)"/>
<path d="M0 0 C5.14595054 0.57618751 9.55078055 1.74743278 14.4375 3.5625 C15.67371094 4.01753906 16.90992188 4.47257813 18.18359375 4.94140625 C19.11300781 5.29074219 20.04242188 5.64007813 21 6 C19.02 6.99 19.02 6.99 17 8 C17 7.34 17 6.68 17 6 C16.24074219 5.95101562 15.48148437 5.90203125 14.69921875 5.8515625 C13.20841797 5.73941406 13.20841797 5.73941406 11.6875 5.625 C10.70136719 5.55539063 9.71523438 5.48578125 8.69921875 5.4140625 C6 5 6 5 3 3 C3 2.34 3 1.68 3 1 C2.01 0.67 1.02 0.34 0 0 Z " fill="#7BC3C9" transform="translate(277,124)"/>
<path d="M0 0 C-1.51270549 3.45308687 -3.54720642 5.95624379 -6.0625 8.75 C-7.13177734 9.94882813 -7.13177734 9.94882813 -8.22265625 11.171875 C-8.80917969 11.77515625 -9.39570313 12.3784375 -10 13 C-10.33 13 -10.66 13 -11 13 C-11.36774194 8.46451613 -11.36774194 8.46451613 -9.8125 6.5 C-9.214375 6.005 -8.61625 5.51 -8 5 C-7.175 4.113125 -6.35 3.22625 -5.5 2.3125 C-3 0 -3 0 0 0 Z " fill="#5BD0BF" transform="translate(442,211)"/>
<path d="M0 0 C-1.72271227 1.15551453 -3.45346917 2.29904119 -5.1875 3.4375 C-6.15042969 4.07558594 -7.11335938 4.71367187 -8.10546875 5.37109375 C-10.84977757 6.91546187 -12.90418343 7.59816641 -16 8 C-16 7.01 -16 6.02 -16 5 C-15.01 5 -14.02 5 -13 5 C-13 4.01 -13 3.02 -13 2 C-10.69 2 -8.38 2 -6 2 C-6 1.34 -6 0.68 -6 0 C-2.25 -1.125 -2.25 -1.125 0 0 Z " fill="#6ED8C9" transform="translate(423,232)"/>
<path d="M0 0 C1.65 0 3.3 0 5 0 C5.33 0.99 5.66 1.98 6 3 C7.99541868 3.68025637 9.99617991 4.34490497 12 5 C14.875 7 14.875 7 17 9 C17 9.66 17 10.32 17 11 C12.34660754 9.68130867 8.99307377 7.82545209 5.125 4.9375 C4.15820312 4.22464844 3.19140625 3.51179688 2.1953125 2.77734375 C1.47085938 2.19082031 0.74640625 1.60429687 0 1 C0 0.67 0 0.34 0 0 Z " fill="#8BD2D2" transform="translate(171,358)"/>
<path d="M0 0 C3.3 0.33 6.6 0.66 10 1 C10 1.66 10 2.32 10 3 C15.61 3 21.22 3 27 3 C27 3.33 27 3.66 27 4 C23.06263877 4.08696177 19.12552372 4.14037835 15.1875 4.1875 C13.50817383 4.22520508 13.50817383 4.22520508 11.79492188 4.26367188 C10.72177734 4.27333984 9.64863281 4.28300781 8.54296875 4.29296875 C7.0583313 4.31653442 7.0583313 4.31653442 5.54370117 4.34057617 C3 4 3 4 1.15356445 2.54418945 C0 1 0 1 0 0 Z " fill="#6ACBC8" transform="translate(276,326)"/>
<path d="M0 0 C2.49361571 1.20381448 4.68143083 2.45428722 7 4 C7.99 4 8.98 4 10 4 C14 8.34285714 14 8.34285714 14 11 C14.33 11.66 14.66 12.32 15 13 C11.34119259 11.4307213 8.74472372 9.1680204 5.8125 6.5 C4.93207031 5.7059375 4.05164063 4.911875 3.14453125 4.09375 C1 2 1 2 0 0 Z " fill="#87D7D4" transform="translate(267,217)"/>
<path d="M0 0 C3.89608498 1.48904175 7.59097018 3.24378713 11.3125 5.125 C12.38113281 5.66382813 13.44976562 6.20265625 14.55078125 6.7578125 C15.76314453 7.37269531 15.76314453 7.37269531 17 8 C13.8587569 9.03311995 12.1755817 8.99963588 9.125 7.75 C8.43664062 7.47027344 7.74828125 7.19054687 7.0390625 6.90234375 C4.30920205 5.69430206 1.642818 4.38747945 -1 3 C-0.67 2.01 -0.34 1.02 0 0 Z " fill="#81D5D1" transform="translate(365,186)"/>
<path d="M0 0 C2.21484375 0.2109375 2.21484375 0.2109375 6.21484375 3.2109375 C-3.68515625 3.2109375 -13.58515625 3.2109375 -23.78515625 3.2109375 C-19.4667898 1.05175427 -16.04851656 0.77862861 -11.34765625 0.5859375 C-10.59677734 0.54726562 -9.84589844 0.50859375 -9.07226562 0.46875 C-7.61911241 0.39717869 -6.16544322 0.33526768 -4.71142578 0.28417969 C-3.13923237 0.22440047 -1.5688365 0.11881791 0 0 Z " fill="#A8DDE3" transform="translate(205.78515625,171.7890625)"/>
<path d="M0 0 C0.66 0.33 1.32 0.66 2 1 C4.54615009 1.23172827 7.07396225 1.41894529 9.625 1.5625 C10.33140625 1.60568359 11.0378125 1.64886719 11.765625 1.69335938 C13.51018537 1.79944751 15.25506697 1.90022889 17 2 C17 2.33 17 2.66 17 3 C12.37540756 4.17700048 7.92133538 4.11408412 3.1875 4.0625 C2.00510742 4.05573242 2.00510742 4.05573242 0.79882812 4.04882812 C-1.13414761 4.03711312 -3.06708393 4.01917998 -5 4 C-3.35 2.68 -1.7 1.36 0 0 Z " fill="#3FA5B1" transform="translate(191,169)"/>
<path d="M0 0 C-5.625 4.875 -5.625 4.875 -9 6 C-10.22520264 9.00847418 -10.22520264 9.00847418 -11 12 C-11.66 11.67 -12.32 11.34 -13 11 C-12.34494738 7.46271587 -11.19918035 4.85893445 -9 2 C-3.12067156 -1.56033578 -3.12067156 -1.56033578 0 0 Z " fill="#259FAA" transform="translate(186,139)"/>
<path d="M0 0 C5.28 0.33 10.56 0.66 16 1 C16 1.66 16 2.32 16 3 C17.65 3 19.3 3 21 3 C21 3.33 21 3.66 21 4 C13.48193151 4.44032071 7.15775723 3.28612778 0 1 C0 0.67 0 0.34 0 0 Z " fill="#88D5D2" transform="translate(206,376)"/>
<path d="M0 0 C0.33 0.66 0.66 1.32 1 2 C1.52078125 1.82597656 2.0415625 1.65195312 2.578125 1.47265625 C5.74079331 0.85542582 8.54507464 1.14905672 11.75 1.4375 C12.92046875 1.53933594 14.0909375 1.64117187 15.296875 1.74609375 C16.18890625 1.82988281 17.0809375 1.91367187 18 2 C17.67 2.66 17.34 3.32 17 4 C11.06 4 5.12 4 -1 4 C-0.67 2.68 -0.34 1.36 0 0 Z " fill="#2EA1AC" transform="translate(79,299)"/>
<path d="M0 0 C0.33 0 0.66 0 1 0 C1.125 6.625 1.125 6.625 0 10 C-0.474375 10.45375 -0.94875 10.9075 -1.4375 11.375 C-3.37092514 13.38576214 -4.0831564 15.39052205 -5 18 C-6.35114472 14.94255252 -5.9224598 13.77959635 -4.78515625 10.546875 C-4.22254947 9.27604557 -3.64790949 8.01048782 -3.0625 6.75 C-2.77181641 6.1003125 -2.48113281 5.450625 -2.18164062 4.78125 C-1.46471025 3.18284785 -0.73371051 1.59076946 0 0 Z " fill="#91C7D0" transform="translate(147,178)"/>
<path d="M0 0 C-0.70125 0.556875 -1.4025 1.11375 -2.125 1.6875 C-5.11344261 4.09124732 -8.05940238 6.53810432 -11 9 C-11.66 8.67 -12.32 8.34 -13 8 C-12.34 7.34 -11.68 6.68 -11 6 C-11 4.68 -11 3.36 -11 2 C-7.07512885 0.69170962 -4.13949057 -0.11187812 0 0 Z " fill="#76C2CC" transform="translate(59,311)"/>
<path d="M0 0 C5.10741275 2.50907849 10.15454296 5.00721771 15 8 C16.32608822 8.68096422 17.65686601 9.35330586 19 10 C12.11601901 10.72462958 12.11601901 10.72462958 9.05078125 8.734375 C7.88396645 7.69158173 6.74448543 6.61703147 5.640625 5.5078125 C3.87845724 3.88829642 2.17479865 2.97393157 0 2 C0 1.34 0 0.68 0 0 Z " fill="#95D9D8" transform="translate(257,316)"/>
<path d="M0 0 C-3.12752591 1.64528614 -6.3053057 2.91702499 -9.625 4.125 C-10.58664063 4.47820312 -11.54828125 4.83140625 -12.5390625 5.1953125 C-15 6 -15 6 -17 6 C-17 5.01 -17 4.02 -17 3 C-11.06108578 0.4084738 -6.45892714 -0.40368295 0 0 Z " fill="#399EA9" transform="translate(78,303)"/>
<path d="M0 0 C3.07653838 1.02551279 3.80796996 1.80796996 6 4 C6.99 4.33 7.98 4.66 9 5 C9 5.66 9 6.32 9 7 C10.65 7.33 12.3 7.66 14 8 C14.33 8.99 14.66 9.98 15 11 C10.55026389 10.49145873 8.37506334 8.85582283 5 6 C3.88625 5.505 3.88625 5.505 2.75 5 C1 4 1 4 0.25 1.875 C0.1675 1.25625 0.085 0.6375 0 0 Z " fill="#2FACB3" transform="translate(227,177)"/>
<path d="M0 0 C0 0.99 0 1.98 0 3 C-1 4 -2 5 -3 6 C-3.680625 7.485 -3.680625 7.485 -4.375 9 C-6.1826635 12.33722492 -7.63946416 13.36514473 -11 15 C-9.58319756 10.67953102 -7.46236215 7.99538801 -4.375 4.6875 C-3.55773438 3.80449219 -2.74046875 2.92148437 -1.8984375 2.01171875 C-0.95871094 1.01591797 -0.95871094 1.01591797 0 0 Z " fill="#95CBD3" transform="translate(58,280)"/>
<path d="M0 0 C2.31 0.33 4.62 0.66 7 1 C7 1.66 7 2.32 7 3 C6.34 3 5.68 3 5 3 C4.67 3.99 4.34 4.98 4 6 C1.9375 6.6875 1.9375 6.6875 0 7 C-0.93423645 3.98968256 -1.04449911 3.13349732 0 0 Z " fill="#26A7B1" transform="translate(176,258)"/>
<path d="M0 0 C0.66 0.33 1.32 0.66 2 1 C0.5359872 3.84381248 -0.97075193 6.51980792 -3 9 C-6.3125 10 -6.3125 10 -9 10 C-8.67 9.01 -8.34 8.02 -8 7 C-7.34 7 -6.68 7 -6 7 C-6 6.34 -6 5.68 -6 5 C-4.04072937 3.2856382 -2.04119788 1.61594832 0 0 Z " fill="#87C3CB" transform="translate(175,141)"/>
<path d="M0 0 C-0.99 0 -1.98 0 -3 0 C-3.33 0.99 -3.66 1.98 -4 3 C-5.92578125 3.765625 -5.92578125 3.765625 -8.3125 4.25 C-9.48232422 4.50523437 -9.48232422 4.50523437 -10.67578125 4.765625 C-13.07651867 5.00771617 -14.71809588 4.7310448 -17 4 C-14.92227529 3.13227971 -12.83756823 2.28126381 -10.75 1.4375 C-9.58984375 0.96183594 -8.4296875 0.48617187 -7.234375 -0.00390625 C-4.13733356 -0.95770524 -2.92678299 -1.20983356 0 0 Z " fill="#88C7CE" transform="translate(211,126)"/>
<path d="M0 0 C0.66 0.33 1.32 0.66 2 1 C0.78604047 4.64187858 -0.09006077 4.91745993 -3.375 6.6875 C-4.56222656 7.34298828 -4.56222656 7.34298828 -5.7734375 8.01171875 C-8 9 -8 9 -11 9 C-3.70159453 2.66514806 -3.70159453 2.66514806 0 0 Z " fill="#89C2CA" transform="translate(73,267)"/>
<path d="M0 0 C-2.26961843 2.63708046 -3.91195764 3.47895568 -7.3125 4.125 C-8.10140625 4.2796875 -8.8903125 4.434375 -9.703125 4.59375 C-15.34090909 5.59090909 -15.34090909 5.59090909 -18 6 C-15.65945446 3.65945446 -13.78524936 3.00678935 -10.6875 1.875 C-9.74261719 1.52179688 -8.79773438 1.16859375 -7.82421875 0.8046875 C-5.05616665 0.01600322 -2.85852371 -0.15620348 0 0 Z " fill="#9DD4DB" transform="translate(104,255)"/>
<path d="M0 0 C5.7097955 0.41778991 8.60957142 2.57546571 13 6 C12.67 6.99 12.34 7.98 12 9 C9.997193 7.69161864 7.99773901 6.37857806 6 5.0625 C5.42765625 4.68931641 4.8553125 4.31613281 4.265625 3.93164062 C2.82614271 2.98055411 1.41085511 1.99305724 0 1 C0 0.67 0 0.34 0 0 Z " fill="#8ECDCF" transform="translate(226,181)"/>
<path d="M0 0 C0.99 0 1.98 0 3 0 C2.44928492 3.85500559 0.68606223 5.31393777 -2 8 C-2.35169068 9.32860925 -2.68770276 10.66158328 -3 12 C-3.99 12.66 -4.98 13.32 -6 14 C-5.34 11.03 -4.68 8.06 -4 5 C-3.34 5 -2.68 5 -2 5 C-1.34 3.35 -0.68 1.7 0 0 Z " fill="#229DAF" transform="translate(157,165)"/>
<path d="M0 0 C0.66 0.33 1.32 0.66 2 1 C1 4 1 4 -1.21484375 5.203125 C-2.11332031 5.54859375 -3.01179687 5.8940625 -3.9375 6.25 C-5.28134766 6.78367188 -5.28134766 6.78367188 -6.65234375 7.328125 C-9 8 -9 8 -11 7 C-9.21475351 5.80286983 -7.4215972 4.61752721 -5.625 3.4375 C-4.62726563 2.77621094 -3.62953125 2.11492187 -2.6015625 1.43359375 C-1.74304688 0.96050781 -0.88453125 0.48742187 0 0 Z " fill="#85C2C9" transform="translate(188,133)"/>
<path d="M0 0 C-2.75 4.875 -2.75 4.875 -5 6 C-5 5.34 -5 4.68 -5 4 C-6.65 3.67 -8.3 3.34 -10 3 C-10 2.34 -10 1.68 -10 1 C-8.71073008 0.63720544 -7.41846728 0.28503302 -6.125 -0.0625 C-5.40570313 -0.25972656 -4.68640625 -0.45695313 -3.9453125 -0.66015625 C-2 -1 -2 -1 0 0 Z " fill="#25A1AD" transform="translate(204,130)"/>
<path d="M0 0 C0.66 0 1.32 0 2 0 C1.34 2.97 0.68 5.94 0 9 C-0.99 9 -1.98 9 -3 9 C-3.66 8.01 -4.32 7.02 -5 6 C-4.34 5.01 -3.68 4.02 -3 3 C-2.34 3 -1.68 3 -1 3 C-0.67 2.01 -0.34 1.02 0 0 Z " fill="#1CC8A9" transform="translate(450,181)"/>
<path d="M0 0 C1.20220203 3.53094302 0.79532349 6.12898982 0.0625 9.75 C-0.13214844 10.73484375 -0.32679687 11.7196875 -0.52734375 12.734375 C-0.68332031 13.48203125 -0.83929688 14.2296875 -1 15 C-1.99 15.33 -2.98 15.66 -4 16 C-3.47606294 10.13190493 -2.23891142 5.45126259 0 0 Z " fill="#398D99" transform="translate(38,312)"/>
<path d="M0 0 C2.97 0.33 5.94 0.66 9 1 C8.34 2.98 7.68 4.96 7 7 C4.36 5.68 1.72 4.36 -1 3 C-0.67 2.01 -0.34 1.02 0 0 Z " fill="#29ABB1" transform="translate(126,312)"/>
<path d="M0 0 C0.66 0.66 1.32 1.32 2 2 C2.66 1.67 3.32 1.34 4 1 C1.29384966 10.59453303 1.29384966 10.59453303 -3 14 C-2.67 12.96875 -2.34 11.9375 -2 10.875 C-1.02221785 7.5108824 -0.91644477 4.50931976 -1 1 C-0.67 0.67 -0.34 0.34 0 0 Z " fill="#57CCBF" transform="translate(445,197)"/>
<path d="M0 0 C0.99 0.33 1.98 0.66 3 1 C0.11593757 4.40843742 -1.3708265 5.86591384 -5.8125 6.8125 C-7.3903125 6.9053125 -7.3903125 6.9053125 -9 7 C-9 6.34 -9 5.68 -9 5 C-8.43410156 4.72285156 -7.86820312 4.44570312 -7.28515625 4.16015625 C-6.55167969 3.79792969 -5.81820313 3.43570313 -5.0625 3.0625 C-3.96615234 2.52302734 -3.96615234 2.52302734 -2.84765625 1.97265625 C-1.03750973 1.13628173 -1.03750973 1.13628173 0 0 Z " fill="#65D0BB" transform="translate(447,181)"/>
<path d="M0 0 C0.33 0.99 0.66 1.98 1 3 C0.360625 3.5775 -0.27875 4.155 -0.9375 4.75 C-2.98223868 6.98062401 -3.58205199 8.07436391 -4 11 C-5.32 11.33 -6.64 11.66 -8 12 C-7.67 11.01 -7.34 10.02 -7 9 C-6.34 9 -5.68 9 -5 9 C-4.67 7.02 -4.34 5.04 -4 3 C-2.68 2.67 -1.36 2.34 0 2 C0 1.34 0 0.68 0 0 Z " fill="#269CA8" transform="translate(170,148)"/>
<path d="M0 0 C0.66 0.33 1.32 0.66 2 1 C1.360625 1.5775 0.72125 2.155 0.0625 2.75 C-1.98223868 4.98062401 -2.58205199 6.07436391 -3 9 C-4.65 8.67 -6.3 8.34 -8 8 C-6.6875 5.5 -6.6875 5.5 -5 3 C-4.01 3 -3.02 3 -2 3 C-2 2.34 -2 1.68 -2 1 C-1.34 0.67 -0.68 0.34 0 0 Z " fill="#1EA5B6" transform="translate(191,134)"/>
<path d="M0 0 C1.24546405 2.49092811 0.7767578 3.41080733 0 6 C-0.66 6 -1.32 6 -2 6 C-2.33 7.65 -2.66 9.3 -3 11 C-3.66 11 -4.32 11 -5 11 C-5 11.99 -5 12.98 -5 14 C-5.66 14 -6.32 14 -7 14 C-5.53967505 8.68972746 -3.01679014 4.53669968 0 0 Z " fill="#90C9CF" transform="translate(155,164)"/>
<path d="M0 0 C3.63 0.33 7.26 0.66 11 1 C11 1.66 11 2.32 11 3 C11.66 3.33 12.32 3.66 13 4 C11.20793453 3.85915204 9.41635083 3.71216299 7.625 3.5625 C6.62726563 3.48128906 5.62953125 3.40007812 4.6015625 3.31640625 C2 3 2 3 0 2 C0 1.34 0 0.68 0 0 Z " fill="#2CB7AC" transform="translate(204,373)"/>
<path d="M0 0 C2.475 0.495 2.475 0.495 5 1 C5 1.66 5 2.32 5 3 C5.78375 3.0825 6.5675 3.165 7.375 3.25 C10 4 10 4 11.25 5.9375 C11.4975 6.618125 11.745 7.29875 12 8 C12.33 8.66 12.66 9.32 13 10 C10.50638429 8.79618552 8.31856917 7.54571278 6 6 C6 5.34 6 4.68 6 4 C4.02 3.34 2.04 2.68 0 2 C0 1.34 0 0.68 0 0 Z " fill="#A3D8DC" transform="translate(120,312)"/>
<path d="M0 0 C7.75 -0.125 7.75 -0.125 10 1 C10 1.66 10 2.32 10 3 C10.99 3.33 11.98 3.66 13 4 C11.58249437 3.88490339 10.16598831 3.75746342 8.75 3.625 C7.96109375 3.55539063 7.1721875 3.48578125 6.359375 3.4140625 C3.914123 2.98492887 2.15163097 2.21399362 0 1 C0 0.67 0 0.34 0 0 Z " fill="#38A8AC" transform="translate(208,172)"/>
<path d="M0 0 C1.63001953 0.01353516 1.63001953 0.01353516 3.29296875 0.02734375 C4.12441406 0.03894531 4.95585937 0.05054687 5.8125 0.0625 C5.8125 0.3925 5.8125 0.7225 5.8125 1.0625 C4.33136719 1.36994141 4.33136719 1.36994141 2.8203125 1.68359375 C1.53898438 1.95300781 0.25765625 2.22242187 -1.0625 2.5 C-2.33867187 2.76683594 -3.61484375 3.03367187 -4.9296875 3.30859375 C-8.05210244 3.8972826 -8.05210244 3.8972826 -10.1875 5.0625 C-9.875 3.125 -9.875 3.125 -9.1875 1.0625 C-5.90230525 -0.03256492 -3.45086585 -0.03710608 0 0 Z " fill="#2FA1AC" transform="translate(217.1875,124.9375)"/>
<path d="M0 0 C0.845625 0.7425 1.69125 1.485 2.5625 2.25 C5.82719266 4.98486187 9.25743678 6.97901586 13 9 C11.68 9.33 10.36 9.66 9 10 C8.67 9.34 8.34 8.68 8 8 C7.401875 7.71125 6.80375 7.4225 6.1875 7.125 C3.58135604 5.78469739 1.92336785 4.19813469 0 2 C0 1.34 0 0.68 0 0 Z " fill="#59BABB" transform="translate(244,306)"/>
<path d="M0 0 C0 0.99 0 1.98 0 3 C-0.9075 3.28875 -1.815 3.5775 -2.75 3.875 C-5.88302366 4.85309428 -5.88302366 4.85309428 -8.125 6.1875 C-10.49598042 7.21492485 -11.57841918 6.70838775 -14 6 C-12.04414675 4.99515796 -10.08523763 3.99626195 -8.125 3 C-6.48917969 2.1646875 -6.48917969 2.1646875 -4.8203125 1.3125 C-2 0 -2 0 0 0 Z " fill="#A1E3DD" transform="translate(438,188)"/>
<path d="M0 0 C1.14926266 0.95421808 2.29430541 1.91352045 3.4375 2.875 C4.07558594 3.40867188 4.71367187 3.94234375 5.37109375 4.4921875 C7 6 7 6 8 8 C6.35 8.33 4.7 8.66 3 9 C2.67 7.35 2.34 5.7 2 4 C1.34 4 0.68 4 0 4 C0 2.68 0 1.36 0 0 Z " fill="#65C2C3" transform="translate(345,167)"/>
<path d="M0 0 C1.65 0 3.3 0 5 0 C4.04578192 1.14926266 3.08647955 2.29430541 2.125 3.4375 C1.59132813 4.07558594 1.05765625 4.71367187 0.5078125 5.37109375 C-1 7 -1 7 -3 8 C-3 6.35 -3 4.7 -3 3 C-2.01 2.67 -1.02 2.34 0 2 C0 1.34 0 0.68 0 0 Z " fill="#7BBCC6" transform="translate(41,320)"/>
<path d="M0 0 C6.4 0.36923077 6.4 0.36923077 9.4375 3.5625 C9.953125 4.366875 10.46875 5.17125 11 6 C7.61121488 6 6.60242783 5.35638802 3.8125 3.5625 C2.73935547 2.88380859 2.73935547 2.88380859 1.64453125 2.19140625 C1.10183594 1.79824219 0.55914062 1.40507812 0 1 C0 0.67 0 0.34 0 0 Z " fill="#91D5D2" transform="translate(282,230)"/>
<path d="M0 0 C2.375 -0.125 2.375 -0.125 5 0 C7.5654594 2.5654594 7.54046087 4.47686668 8 8 C7.01 7.34 6.02 6.68 5 6 C5 5.34 5 4.68 5 4 C4.360625 3.71125 3.72125 3.4225 3.0625 3.125 C1 2 1 2 0 0 Z " fill="#8ED5D3" transform="translate(248,199)"/>
<path d="M0 0 C-2.3125 2.0625 -2.3125 2.0625 -5 4 C-5.99 3.67 -6.98 3.34 -8 3 C-8.33 3.66 -8.66 4.32 -9 5 C-10.32 4.67 -11.64 4.34 -13 4 C-8.62340682 -0.37659318 -5.88808394 -0.39919213 0 0 Z " fill="#24BFAD" transform="translate(432,195)"/>
<path d="M0 0 C-2.34914492 2.34914492 -3.95679446 2.73140357 -7.125 3.625 C-8.49011719 4.01558594 -8.49011719 4.01558594 -9.8828125 4.4140625 C-10.58148438 4.60742188 -11.28015625 4.80078125 -12 5 C-12 4.01 -12 3.02 -12 2 C-8.09971775 -0.60018816 -4.52565431 -0.15085514 0 0 Z " fill="#87CBD3" transform="translate(181,175)"/>
<path d="M0 0 C-1.70828921 2.10633718 -2.52148416 2.93801608 -5.26171875 3.29296875 C-6.06222656 3.25816406 -6.86273438 3.22335937 -7.6875 3.1875 C-8.89986328 3.14689453 -8.89986328 3.14689453 -10.13671875 3.10546875 C-11.05904297 3.05326172 -11.05904297 3.05326172 -12 3 C-11.67 2.34 -11.34 1.68 -11 1 C-7.318488 -0.05186057 -3.80944893 -0.08859184 0 0 Z " fill="#71CCC6" transform="translate(286,375)"/>
<path d="M0 0 C0.99 0.33 1.98 0.66 3 1 C2.67 2.32 2.34 3.64 2 5 C2.66 5.33 3.32 5.66 4 6 C1.03 5.505 1.03 5.505 -2 5 C-2.33 4.01 -2.66 3.02 -3 2 C-2.01 1.34 -1.02 0.68 0 0 Z " fill="#5AC4C0" transform="translate(202,370)"/>
<path d="M0 0 C2.31 0 4.62 0 7 0 C1.85714286 5.57142857 1.85714286 5.57142857 -2 6 C-1.34 4.02 -0.68 2.04 0 0 Z " fill="#73D5CD" transform="translate(308,361)"/>
<path d="M0 0 C1 2 1 2 0.1875 5.5 C-1 9 -1 9 -3 11 C-3.75 8.875 -3.75 8.875 -4 6 C-2.0625 2.6875 -2.0625 2.6875 0 0 Z " fill="#44A5B4" transform="translate(61,277)"/>
<path d="M0 0 C4.84659077 0.59104765 8.60748167 1.97944157 13 4 C13 4.66 13 5.32 13 6 C11.35 6 9.7 6 8 6 C7.67 5.01 7.34 4.02 7 3 C3.48809191 1.77030122 3.48809191 1.77030122 0 1 C0 0.67 0 0.34 0 0 Z " fill="#8DD0D1" transform="translate(176,256)"/>
<path d="M0 0 C0.66 0 1.32 0 2 0 C1.71812064 1.79323253 1.4241719 3.58457126 1.125 5.375 C0.96257812 6.37273437 0.80015625 7.37046875 0.6328125 8.3984375 C0 11 0 11 -2 13 C-2.19294408 8.17639811 -1.75747614 4.50353262 0 0 Z " fill="#2EC4AD" transform="translate(451,185)"/>
<path d="M0 0 C4.03744506 2.01872253 6.62010675 4.08100128 10 7 C8.68 7.33 7.36 7.66 6 8 C4.02 5.36 2.04 2.72 0 0 Z " fill="#89CCD2" transform="translate(211,274)"/>
<path d="M0 0 C0.66 0 1.32 0 2 0 C2.66 1.32 3.32 2.64 4 4 C1.03 6.475 1.03 6.475 -2 9 C-2.66 8.67 -3.32 8.34 -4 8 C-3.34 7.34 -2.68 6.68 -2 6 C-1.28591666 4.01643517 -0.61382258 2.01684563 0 0 Z " fill="#81DDD0" transform="translate(427,222)"/>
<path d="M0 0 C1.32 0.33 2.64 0.66 4 1 C0.04 4.465 0.04 4.465 -4 8 C-4.33 7.01 -4.66 6.02 -5 5 C-4.67 4.34 -4.34 3.68 -4 3 C-2.68 3 -1.36 3 0 3 C0 2.01 0 1.02 0 0 Z " fill="#85D9D2" transform="translate(320,353)"/>
<path d="M0 0 C1.65 0 3.3 0 5 0 C5 0.99 5 1.98 5 3 C5.66 3 6.32 3 7 3 C7 3.66 7 4.32 7 5 C5.68 5 4.36 5 3 5 C3 4.34 3 3.68 3 3 C2.01 2.67 1.02 2.34 0 2 C0 1.34 0 0.68 0 0 Z " fill="#33B4B0" transform="translate(185,364)"/>
<path d="M0 0 C0.66 0.66 1.32 1.32 2 2 C1.67800066 5.97132519 0.16420003 8.70665213 -2 12 C-3.33332095 9.3333581 -2.67102033 7.83319697 -2 5 C-1.34 5 -0.68 5 0 5 C0 3.35 0 1.7 0 0 Z " fill="#87D7D1" transform="translate(342,321)"/>
<path d="M0 0 C0.33 0.66 0.66 1.32 1 2 C0.01 3.485 0.01 3.485 -1 5 C-1.66 5 -2.32 5 -3 5 C-3 5.66 -3 6.32 -3 7 C-4.65 7.33 -6.3 7.66 -8 8 C-7.34 7.01 -6.68 6.02 -6 5 C-5.34 5 -4.68 5 -4 5 C-4 4.34 -4 3.68 -4 3 C-3.34 3 -2.68 3 -2 3 C-2 2.34 -2 1.68 -2 1 C-1.34 0.67 -0.68 0.34 0 0 Z " fill="#98D7D0" transform="translate(342,307)"/>
<path d="M0 0 C0.66 0.33 1.32 0.66 2 1 C-1.56430755 4.14985318 -4.40693504 6.5140084 -9 8 C-8.67 7.01 -8.34 6.02 -8 5 C-6.34561387 4.30341637 -4.67745682 3.63903117 -3 3 C-1.22722741 1.47992158 -1.22722741 1.47992158 0 0 Z " fill="#1F9FAD" transform="translate(80,266)"/>
<path d="M0 0 C0 3 0 3 -1.3125 4.38671875 C-2.875 5.59114583 -4.4375 6.79557292 -6 8 C-6 6.35 -6 4.7 -6 3 C-5.195625 2.690625 -4.39125 2.38125 -3.5625 2.0625 C-1.10919595 1.23664655 -1.10919595 1.23664655 0 0 Z " fill="#86E0D4" transform="translate(437,216)"/>
<path d="M0 0 C-0.33 2.31 -0.66 4.62 -1 7 C-1.66 6.01 -2.32 5.02 -3 4 C-4.32 4.99 -5.64 5.98 -7 7 C-3.86206897 0 -3.86206897 0 0 0 Z " fill="#CDE9E5" transform="translate(354,296)"/>
<path d="M0 0 C0.66 0.33 1.32 0.66 2 1 C0.8141763 4.37503669 -0.27573689 6.64722731 -3 9 C-3.33 7.35 -3.66 5.7 -4 4 C-2.68 4 -1.36 4 0 4 C0 2.68 0 1.36 0 0 Z " fill="#76D6CD" transform="translate(337,332)"/>
<path d="M0 0 C5.4611399 0.35233161 5.4611399 0.35233161 8 1 C9.5 3.0625 9.5 3.0625 10 5 C6.08788267 3.84414715 3.1254959 2.64465038 0 0 Z " fill="#99D8D7" transform="translate(293,237)"/>
<path d="M0 0 C0.82810826 3.31243305 1.09278428 5.65976579 1 9 C-0.98 9.99 -0.98 9.99 -3 11 C-2.01 7.37 -1.02 3.74 0 0 Z " fill="#C4DFDF" transform="translate(140,196)"/>
<path d="M0 0 C0.625 1.8125 0.625 1.8125 1 4 C0.01 5.485 0.01 5.485 -1 7 C-1.33 6.34 -1.66 5.68 -2 5 C-2.99 5.33 -3.98 5.66 -5 6 C-3.63016497 2.83884224 -3.0109362 2.0072908 0 0 Z " fill="#40B89D" transform="translate(458,172)"/>
<path d="M0 0 C0.66 0 1.32 0 2 0 C2 1.32 2 2.64 2 4 C1.34 4 0.68 4 0 4 C-0.33 5.32 -0.66 6.64 -1 8 C-1.99 7.34 -2.98 6.68 -4 6 C-2.7260411 3.96166576 -1.38938077 1.96147874 0 0 Z " fill="#92C4BF" transform="translate(460,166)"/>
<path d="M0 0 C1.98 0.66 3.96 1.32 6 2 C6 2.66 6 3.32 6 4 C7.32 4.33 8.64 4.66 10 5 C6.25 6.125 6.25 6.125 4 5 C4 4.34 4 3.68 4 3 C2.35 2.67 0.7 2.34 -1 2 C-0.67 1.34 -0.34 0.68 0 0 Z " fill="#87C9CB" transform="translate(306,135)"/>
<path d="M0 0 C1.32 0 2.64 0 4 0 C4 1.98 4 3.96 4 6 C3.34 5.67 2.68 5.34 2 5 C2 4.34 2 3.68 2 3 C0.68 2.67 -0.64 2.34 -2 2 C-1.34 2 -0.68 2 0 2 C0 1.34 0 0.68 0 0 Z " fill="#3EB7A4" transform="translate(345,305)"/>
<path d="M0 0 C4.43458973 1.3937282 6.87378374 3.60582235 10 7 C7.29068581 6.84518205 5.53415961 6.51827919 3.5546875 4.59765625 C2.32320358 3.10228292 1.1570163 1.5537076 0 0 Z " fill="#3AA8A9" transform="translate(204,271)"/>
<path d="M0 0 C1.06546953 3.1964086 1.07427838 5.65747276 1 9 C-0.32 9 -1.64 9 -3 9 C-2.01 6.03 -1.02 3.06 0 0 Z " fill="#3C979D" transform="translate(144,189)"/>
<path d="M0 0 C2.97 0 5.94 0 9 0 C4.25 4 4.25 4 2 4 C2 3.34 2 2.68 2 2 C1.34 2 0.68 2 0 2 C0 1.34 0 0.68 0 0 Z " fill="#83C8D3" transform="translate(160,180)"/>
<path d="M0 0 C2.92879371 0.62759865 5.36095629 1.58622659 8 3 C8 3.33 8 3.66 8 4 C5.69 4 3.38 4 1 4 C0.67 2.68 0.34 1.36 0 0 Z " fill="#88CCCF" transform="translate(298,131)"/>
<path d="M0 0 C3.81684226 1.55500981 6.19195732 4.03595495 9 7 C5.21616321 6.07506212 3.43306306 5.60628829 1.125 2.375 C0.75375 1.59125 0.3825 0.8075 0 0 Z " fill="#9DD7DB" transform="translate(316,141)"/>
<path d="M0 0 C0.66 0.33 1.32 0.66 2 1 C0.02 1.99 0.02 1.99 -2 3 C-2 3.99 -2 4.98 -2 6 C-3.65 6 -5.3 6 -7 6 C-4.74259377 3.66475218 -2.7194239 1.81294927 0 0 Z " fill="#AEE8E2" transform="translate(332,315)"/>
<path d="M0 0 C0 0.99 0 1.98 0 3 C-1.8125 4.0625 -1.8125 4.0625 -4 5 C-4.99 4.67 -5.98 4.34 -7 4 C-2.25 0 -2.25 0 0 0 Z " fill="#2BC1B0" transform="translate(407,237)"/>
<path d="M0 0 C0.99 0.33 1.98 0.66 3 1 C3.33 3.31 3.66 5.62 4 8 C2.68 7.34 1.36 6.68 0 6 C0 4.02 0 2.04 0 0 Z " fill="#62C9C6" transform="translate(263,209)"/>
<path d="M0 0 C1.98 0.99 1.98 0.99 4 2 C4 2.66 4 3.32 4 4 C4.66 4 5.32 4 6 4 C6 4.66 6 5.32 6 6 C4.35 5.67 2.7 5.34 1 5 C0.67 3.35 0.34 1.7 0 0 Z " fill="#98D1D4" transform="translate(337,159)"/>
</svg>
